<svg xmlns="http://www.w3.org/2000/svg" version="1.2" viewBox="1556.1 2865.3 771.69 930.6">
	<title>MapaPapalote</title>
	<style>
		tspan { white-space:pre } 
		.s0 { fill: #ff7923;stroke: #ff7923;stroke-linecap: round;stroke-linejoin: round;stroke-width: 2 } 
		.s1 { fill: #ff311b;stroke: #ff311b;stroke-linecap: round;stroke-linejoin: round;stroke-width: 2 } 
		.s2 { fill: #55cdd0;stroke: #55cdd0;stroke-linecap: round;stroke-linejoin: round;stroke-width: 2 } 
		.s3 { fill: #7946a4;stroke: #7745a3;stroke-linecap: round;stroke-linejoin: round;stroke-width: 2 } 
		.s4 { fill: #00b5ce } 
		.s5 { fill: #5c1799 } 
		.s6 { fill: #b95719 } 
		.s7 { fill: #c72014 } 
	</style>
	<g id="Piso1">
		<path id="Path 21" class="s0" d="m2145.7 3251.2c0 0 11.8-21.7 32.3-16.6l95.4 18.9c0 0 24 3.2 25.2 30.4l27.4 177.9c0 0 5.5 23-12.5 32.7l-88 48.2-36-64.7 18.9-11.1c0 0 20.5-15.1 20.9-40.6 0 0-1.3-37.5-17.5-49.8-16.2-12.3-43.2-11.9-59.2 14.6 0 0-37.5 65.1-118.3 48.7 0 0-69.7-19.2-108.6-21.9 0 0-47.8-3.6-93.6 0.5l-41.4-79.9 67.8 0.2 68.8-31.9-17.3-101 132.3 25.4z"/>
		<path id="Path 22" class="s1" d="m1789.3 3337.9l-74.4 20.8-36.1-38.4c0 0-3 3.3-7.7 3l-20.6 0.3c0 0-12.1-0.3-16.8 10.8l-68.8 136.5 216.5 303.9c0 0 5.3 10 10.8 14.3 5.5 4.2 12.8 6.1 21.9 5.7l223.9 0.1c0 0 16.4-1.7 21.3-7.8l-19.7-102.7-58.6-93.5-25.2 10c0 0-32.5 11.2-72.2-12.1l-100.8-58.9 10.9-19.7c0 0-36.4-23.1-19.7-62 16.7-38.8 57.7-30.6 57.7-30.6z"/>
		<path id="Path 23" class="s2" d="m2189 3477.2l-208.9 114.4 58.6 93.5 19.7 102.9 11.4-9.8 56-115.2c0 0 5.8-8.1 4.1-18.6-1.7-10.6-5.1-13.1 2.9-29.1l10.2-21.5c0 0 2.9-8.9 12.6-13.1l69.4-38.8z"/>
		<path id="Path 31" class="s3" d="m1802.5 2866.3h41.5c0 0 1.4 248.1 0 292-1.1 32.9 24 38.2 24 38.2l41.5 8.5 17.3 101-68.7 31.9h-68.8l-232.2-323.2c0 0 225.7-86.4 233.7-89.5 7.9-3 11.8-5.5 11.8-19 0-13.6-0.1-39.9-0.1-39.9z"/>
		<path id="Path 135" class="s4" d="m2036.7 3647.5c-11.9 0-21.5-9.2-21.5-20.5 0-11.4 9.6-20.6 21.5-20.6 7 0 13.2 3.2 17.2 8.2z"/>
		<path id="Path 131" class="s5" d="m1739.1 3035.4l7.8-2.9 46.8-17.8c0 0 8.8-2.1 8.3-13v-66.2c0 0-0.3-9.1-10.7-6.8l-108.8 41.8c0 0-6.8 5.6-2.1 11.4l43.9 50c0 0 7 6.5 14.8 3.5z"/>
		<path id="Path 138" class="s4" d="m2067.5 3600.5l10.2 4.3c4.2 1.6 7.1 7.5 6.6 12-0.5 4.5-4.7 7.1-9.4 7.2 0 0-3.8 0.7-7.4-1.5l-9-5.8z"/>
		<path id="Path 144" class="s6" d="m2210.4 3367.5l3.4-23.1c0 0 0.1-4.4 4.6-2.1l17.9 8.4c0 0 3.9 1.1 2.3 5.6l-8.5 28.2c0 0-1.1 4.3-4.9 1.5l-13.7-14.2c0 0-1.7-1.5-1.1-4.3z"/>
		<path id="Path 146" class="s7" d="m1646.1 3584.1c-6.3-8.9-4.2-21.3 4.7-27.7l44.7-31.8c9-6.3 21.4-4.2 27.7 4.7l105.2 147.1c6.4 8.9 4.3 21.3-4.6 27.7l-44.8 31.7c-8.9 6.4-21.3 4.3-27.7-4.6z"/>
	</g>
</svg>