<svg xmlns="http://www.w3.org/2000/svg" version="1.0" preserveAspectRatio="xMidYMid meet" viewBox="2693.6 2031.58 671.51 1522.39">
  <g transform="translate(0.000000,4384.000000) scale(0.100000,-0.100000)" fill="#000000" stroke="none">
    <path d="M27494 23522 c-21 -3 -38 -34 -26 -46 3 -3 6 -18 8 -33 4 -32 12 -102 19 -153 3 -19 7 -51 10 -70 2 -19 14 -114 26 -210 13 -96 25 -177 28 -180 3 -3 7 -23 7 -45 2 -39 11 -120 14 -120 1 0 4 -18 5 -40 2 -22 6 -51 9 -65 3 -14 7 -41 10 -60 10 -81 18 -139 27 -200 5 -36 12 -81 14 -100 2 -19 7 -51 9 -70 3 -19 8 -53 11 -75 3 -22 7 -56 9 -75 3 -19 7 -53 10 -75 3 -22 10 -74 16 -115 6 -41 13 -88 15 -105 2 -16 7 -52 11 -80 3 -27 6 -60 6 -72 0 -13 3 -23 7 -23 3 0 7 -19 7 -43 2 -53 9 -111 16 -123 2 -5 4 -24 4 -41 -1 -18 2 -33 5 -33 3 0 6 -35 7 -77 1 -43 5 -79 10 -81 5 -1 7 -18 6 -37 -2 -19 0 -37 5 -39 4 -3 6 -23 4 -45 -2 -23 1 -41 6 -41 5 0 8 -18 6 -40 -2 -22 0 -40 4 -40 6 0 10 -29 14 -115 1 -22 5 -42 8 -45 3 -3 11 -48 18 -100 6 -52 14 -108 16 -125 2 -16 7 -52 10 -80 4 -27 8 -61 10 -75 7 -50 16 -126 20 -155 5 -38 34 -247 42 -300 4 -22 7 -50 7 -62 1 -13 4 -23 7 -23 3 0 5 -10 5 -22 -1 -19 4 -23 34 -24 19 -1 40 2 46 7 6 5 33 11 60 14 27 3 63 8 79 10 73 10 114 16 170 24 75 11 242 33 275 36 47 5 125 16 155 24 17 3 47 6 68 5 20 0 37 2 37 5 0 3 10 7 23 7 12 1 47 5 77 9 30 4 66 8 80 10 54 7 110 15 220 30 166 23 193 27 210 27 8 0 22 2 30 5 8 3 33 7 55 9 50 4 110 12 110 14 0 1 17 3 37 4 21 1 40 4 42 7 3 3 30 4 60 2 55 -2 55 -2 46 22 -9 23 -21 100 -24 153 0 12 -5 22 -10 22 -4 0 -6 7 -3 15 4 8 2 17 -3 20 -6 4 -10 19 -10 34 0 16 -13 81 -29 147 -16 65 -27 122 -24 127 3 5 0 13 -6 17 -7 4 -14 28 -16 55 -3 26 -10 54 -16 62 -7 7 -9 16 -7 19 3 3 -3 37 -13 77 -10 40 -19 82 -19 94 0 57 -34 59 -215 14 -65 -16 -123 -27 -128 -24 -5 3 -13 0 -16 -6 -4 -7 -32 -14 -62 -17 -30 -3 -62 -6 -72 -7 -10 -1 -22 -8 -26 -16 -11 -18 -50 -5 -53 17 -1 17 -4 37 -8 57 -3 18 -1 130 3 145 2 8 7 33 11 55 7 34 22 85 44 145 3 8 6 20 7 25 0 6 4 17 7 25 15 38 42 136 40 144 -2 4 3 15 10 23 7 8 13 20 14 27 6 26 14 53 25 86 7 19 14 42 17 50 3 8 4 19 3 24 -1 4 3 13 8 20 8 9 14 41 26 144 3 22 -2 65 -26 207 -7 39 -12 80 -13 93 -1 12 -4 22 -7 22 -6 0 -11 34 -24 147 -2 18 -9 51 -15 73 -6 22 -8 45 -5 50 3 5 1 11 -3 14 -5 3 -10 18 -10 33 -2 31 -3 36 -22 106 -7 26 -16 47 -21 47 -5 0 -9 7 -9 15 0 16 -18 51 -37 72 -6 7 -17 26 -25 43 -7 16 -17 30 -21 30 -5 0 -23 16 -41 35 -19 19 -38 35 -44 35 -5 0 -12 7 -16 15 -3 8 -12 15 -19 15 -8 0 -22 9 -32 20 -10 11 -26 20 -35 20 -9 0 -25 7 -36 15 -10 8 -26 15 -35 15 -9 0 -29 6 -45 14 -16 8 -56 18 -89 21 -72 9 -66 9 -140 1 -172 -18 -198 -21 -295 -36 -118 -18 -153 -22 -177 -21 -12 0 -24 -3 -27 -8 -3 -4 -21 -7 -41 -5 -19 1 -35 -1 -35 -5 0 -4 -17 -6 -37 -5 -21 0 -51 -5 -68 -12 -16 -7 -43 -17 -60 -24 -35 -13 -95 -89 -95 -120 0 -28 -26 -76 -44 -83 -18 -7 -35 12 -35 38 1 11 -2 38 -5 60 -14 102 -47 354 -52 390 -3 22 -7 51 -9 65 -1 14 -6 49 -9 79 -4 30 -9 57 -11 60 -2 4 -6 38 -10 76 -4 39 -11 71 -15 73 -4 1 -5 13 -3 26 5 25 -13 35 -53 28z m973 -1150 c11 -6 26 -36 38 -73 17 -58 17 -65 2 -91 -9 -16 -14 -36 -11 -46 12 -38 28 -61 42 -64 13 -3 23 -38 24 -88 1 -8 5 -20 9 -26 5 -6 6 -31 3 -55 -9 -70 -6 -100 13 -114 15 -11 24 -40 27 -90 0 -11 5 -23 9 -26 8 -6 12 -84 7 -148 -2 -26 3 -39 20 -53 12 -10 20 -21 17 -24 -2 -3 1 -29 9 -57 17 -65 17 -95 0 -128 -11 -22 -11 -31 3 -62 10 -23 23 -37 33 -37 16 0 24 -23 19 -53 -1 -4 6 -34 14 -66 19 -74 19 -101 0 -101 -9 0 -16 -10 -17 -27 -3 -53 2 -68 31 -93 37 -33 49 -57 47 -102 -1 -21 1 -38 5 -38 4 0 2 -11 -4 -25 -20 -42 -80 -59 -245 -70 -34 -2 -67 -7 -72 -10 -10 -6 -116 -16 -210 -19 -46 -2 -58 2 -80 24 -15 14 -27 34 -27 45 0 11 -3 43 -6 72 -5 43 -3 56 16 79 27 35 27 61 0 100 -17 25 -30 83 -23 104 1 3 2 37 3 76 2 39 7 78 14 85 16 21 4 109 -15 109 -10 0 -8 192 1 207 4 7 3 32 -3 55 -17 61 -19 263 -3 284 10 14 10 19 0 26 -8 5 -12 33 -12 83 0 41 -2 75 -5 75 -11 0 2 85 15 100 11 12 11 22 -2 55 -19 51 -23 97 -11 113 7 8 7 12 0 12 -7 0 -6 10 3 27 19 36 67 55 153 58 41 2 76 6 79 9 8 8 67 0 90 -12z m173 -207 c0 -26 -18 -45 -42 -45 -11 0 -21 12 -27 38 -16 54 -14 60 17 64 29 3 51 -21 52 -57z m-539 14 c1 -10 2 -29 3 -41 3 -33 -10 -55 -33 -53 -49 3 -73 64 -36 93 31 25 65 26 66 1z m436 -31 c-3 -8 -6 -5 -6 6 -1 11 2 17 5 13 3 -3 4 -12 1 -19z m144 -233 c23 -14 30 -63 12 -81 -8 -8 -25 -14 -37 -14 -19 0 -24 8 -33 47 -12 50 -7 61 25 59 9 -1 24 -6 33 -11z m-580 -42 c15 -15 14 -74 -2 -84 -26 -17 -63 -5 -77 23 -11 24 -11 31 5 52 18 25 54 29 74 9z m663 -306 c7 -36 -18 -69 -47 -65 -14 2 -24 17 -33 48 -15 50 -16 46 16 58 33 12 57 -4 64 -41z m-661 -11 c22 -17 29 -83 9 -91 -32 -12 -62 -4 -78 20 -24 37 -3 75 46 84 3 0 13 -6 23 -13z m697 -263 c18 -22 14 -64 -8 -80 -28 -22 -42 -15 -42 21 0 19 -4 37 -10 41 -16 10 1 35 24 35 12 0 28 -8 36 -17z m-677 -50 c9 -49 3 -78 -16 -77 -9 1 -17 -2 -17 -8 0 -5 -11 -1 -25 9 -45 32 -21 99 36 102 10 1 18 -9 22 -26z m735 -288 c2 -2 4 -18 4 -35 1 -33 -28 -68 -43 -53 -6 7 -13 71 -10 96 1 7 39 0 49 -8z m-81 -74 c-2 -13 -5 -11 -15 6 -7 12 -9 29 -5 39 5 15 8 14 15 -6 5 -13 7 -31 5 -39z m-647 -10 c0 -22 3 -46 6 -55 8 -21 -24 -21 -54 0 -40 28 -23 93 26 94 19 0 22 -5 22 -39z m1544 -131 c14 -52 26 -109 26 -127 0 -17 4 -33 9 -35 5 -1 11 -25 12 -52 4 -46 2 -50 -22 -57 -15 -3 -37 -5 -50 -3 -13 2 -42 6 -64 9 -21 3 -64 19 -94 35 -30 17 -61 30 -68 30 -7 0 -13 5 -13 11 0 6 -15 25 -32 43 -52 52 -98 124 -98 152 0 15 43 31 105 38 28 4 51 10 53 16 2 5 9 7 15 5 7 -3 50 6 97 19 47 13 88 21 92 17 3 -3 18 -49 32 -101z m-865 -695 c0 -5 -4 -3 -9 5 -5 8 -9 22 -9 30 0 16 17 -16 18 -35z m693 -56 c-12 -11 -135 -21 -128 -11 3 6 22 10 42 10 19 0 38 3 41 6 3 3 16 5 29 4 13 -1 20 -5 16 -9z m-154 -21 c-7 -4 -26 -8 -43 -8 -19 0 -25 3 -17 8 7 5 26 9 43 9 19 0 25 -3 17 -9z m-108 -8 c0 -5 -10 -10 -22 -10 -19 0 -20 2 -8 10 19 13 30 13 30 0z m-57 -12 c-2 -5 -15 -8 -29 -8 -14 0 -23 3 -21 8 3 4 16 7 30 7 14 0 23 -3 20 -7z m-73 -8 c-8 -5 -19 -10 -25 -10 -5 0 -3 5 5 10 8 5 20 10 25 10 6 0 3 -5 -5 -10z m-43 -6 c-3 -3 -12 -4 -19 -1 -8 3 -5 6 6 6 11 1 17 -2 13 -5z m-47 -8 c0 -8 -51 -13 -56 -5 -3 5 9 9 25 9 17 0 31 -2 31 -4z m-105 -16 c-27 -11 -45 -12 -45 -2 0 5 15 9 33 9 26 1 28 -1 12 -7z m-80 -10 c-26 -11 -48 -12 -41 -2 2 4 17 8 33 9 24 1 25 0 8 -7z m-75 -9 c0 -4 -14 -8 -31 -9 -17 -1 -28 1 -26 5 6 10 57 13 57 4z m-76 -9 c3 -5 -11 -9 -32 -9 -32 -1 -34 0 -12 7 35 11 38 11 44 2z m-89 -12 c4 -6 -7 -10 -27 -9 -31 1 -32 1 -8 9 14 4 26 8 27 9 1 1 5 -3 8 -9z m-78 -16 c-3 -3 -12 -4 -19 -1 -8 3 -5 6 6 6 11 1 17 -2 13 -5z m-90 -11 c-10 -9 -56 -10 -51 -1 3 4 17 8 31 8 15 0 23 -3 20 -7z m-80 -14 c-14 -8 -22 -8 -30 0 -8 8 -3 11 19 11 25 -1 27 -2 11 -11z m-47 -3 c0 -2 -11 -6 -25 -8 -13 -3 -22 -1 -19 3 5 9 44 13 44 5z" id="telepresencia"/>
    <path d="M26937 23497 c-3 -9 0 -35 17 -147 4 -29 17 -125 21 -155 2 -16 4 -30 5 -30 1 0 3 -11 5 -25 1 -14 6 -50 10 -80 4 -30 8 -66 10 -80 4 -29 15 -112 20 -155 2 -16 12 -91 21 -165 10 -74 20 -137 23 -140 3 -3 7 -25 8 -50 4 -97 5 -110 12 -115 4 -2 7 -20 6 -40 0 -19 2 -35 6 -35 4 0 7 -10 6 -22 0 -13 3 -43 6 -68 4 -25 12 -83 17 -130 6 -47 13 -96 16 -110 3 -14 7 -38 9 -55 3 -27 10 -76 20 -155 19 -145 22 -171 30 -250 3 -36 11 -96 16 -135 6 -38 12 -86 15 -105 6 -53 14 -111 19 -150 10 -75 14 -106 19 -145 2 -22 10 -62 16 -90 6 -27 13 -77 16 -110 2 -33 6 -73 9 -90 3 -16 7 -47 7 -67 1 -21 5 -38 9 -38 4 0 6 -16 5 -35 -2 -20 1 -38 5 -41 5 -3 7 -23 6 -45 -2 -21 1 -39 5 -39 5 0 8 -8 7 -17 -2 -10 1 -36 5 -58 5 -22 10 -56 12 -75 2 -19 6 -52 9 -72 3 -21 8 -57 11 -80 3 -24 7 -56 9 -73 8 -54 15 -109 19 -152 2 -23 7 -51 10 -61 3 -10 8 -36 10 -57 3 -22 8 -62 12 -90 4 -27 7 -60 7 -72 -1 -13 2 -23 6 -23 4 0 6 -16 6 -35 -1 -20 1 -38 4 -40 4 -2 6 -22 6 -44 0 -23 2 -41 6 -41 4 0 7 -10 7 -22 0 -22 7 -87 17 -153 2 -16 16 -118 30 -225 14 -107 28 -210 30 -227 3 -18 7 -48 10 -65 2 -18 7 -55 10 -83 3 -27 7 -57 10 -65 2 -8 7 -40 10 -70 5 -52 12 -103 21 -161 2 -14 6 -43 9 -64 10 -80 16 -121 21 -147 3 -15 7 -42 9 -60 3 -29 9 -73 20 -158 7 -50 16 -126 20 -155 2 -16 11 -82 20 -145 9 -63 18 -133 21 -155 5 -42 10 -82 20 -150 2 -22 7 -53 9 -70 2 -16 5 -30 6 -30 1 0 3 -18 5 -40 1 -22 10 -83 19 -135 9 -52 18 -111 20 -130 2 -19 6 -53 9 -75 12 -84 22 -151 30 -220 3 -22 12 -92 21 -155 9 -63 18 -131 21 -150 2 -19 6 -51 9 -70 6 -48 15 -119 19 -151 1 -14 5 -30 8 -35 2 -5 4 -24 4 -41 -1 -18 1 -33 4 -33 3 0 5 -10 6 -22 0 -13 3 -41 7 -63 3 -22 8 -58 11 -80 3 -22 8 -56 11 -75 4 -19 8 -55 11 -80 2 -25 9 -79 15 -120 6 -41 13 -88 15 -105 5 -41 13 -103 19 -145 2 -19 14 -114 27 -210 12 -96 24 -177 27 -180 6 -5 9 -41 13 -122 1 -21 5 -38 9 -38 4 0 6 -16 5 -35 -2 -20 0 -38 4 -40 8 -5 9 -17 13 -115 1 -25 5 -47 8 -50 3 -3 11 -48 18 -100 11 -88 16 -127 27 -205 19 -141 24 -175 28 -222 3 -23 7 -46 9 -50 6 -10 20 -119 20 -150 -1 -13 2 -23 6 -23 3 0 6 -15 5 -32 0 -18 2 -37 5 -43 3 -5 5 -26 6 -45 1 -19 3 -40 6 -45 3 -6 5 -25 5 -42 -1 -18 2 -33 5 -33 4 0 7 -10 6 -22 0 -13 2 -41 6 -63 10 -65 38 -267 43 -310 5 -40 10 -79 19 -145 2 -19 7 -53 10 -75 13 -102 43 -320 51 -370 3 -16 5 -45 5 -62 1 -18 4 -33 8 -33 4 0 6 -18 5 -40 -1 -22 1 -40 5 -40 6 0 12 -43 14 -115 1 -22 5 -42 8 -45 3 -3 15 -84 28 -180 12 -96 24 -191 26 -210 3 -19 7 -51 10 -70 2 -19 7 -53 10 -75 3 -22 7 -56 9 -75 3 -19 7 -55 10 -78 3 -24 7 -56 10 -70 6 -30 15 -89 22 -142 12 -97 15 -117 21 -145 3 -16 7 -46 8 -65 1 -19 6 -43 10 -54 4 -10 8 -31 9 -47 1 -16 4 -29 8 -29 3 0 9 -18 13 -40 4 -22 11 -40 16 -40 5 0 9 -8 9 -17 1 -10 9 -36 20 -58 11 -22 19 -43 20 -48 0 -4 11 -25 25 -47 14 -22 22 -40 19 -40 -4 0 1 -9 11 -20 10 -11 14 -20 9 -20 -5 0 -4 -4 1 -8 6 -4 27 -33 49 -64 21 -32 42 -58 47 -58 5 0 9 -6 9 -14 0 -8 7 -16 15 -20 8 -3 15 -12 15 -21 0 -8 4 -15 10 -15 9 0 60 -47 60 -55 0 -17 225 -195 246 -195 7 0 14 -7 18 -15 3 -8 14 -15 24 -15 10 0 23 -5 29 -11 16 -16 70 -46 113 -63 8 -4 29 -15 45 -26 17 -11 37 -22 45 -26 41 -16 89 -43 114 -63 9 -7 16 -11 16 -7 0 3 21 -5 48 -19 26 -15 54 -30 62 -34 8 -4 26 -14 40 -21 65 -35 165 -88 269 -142 63 -32 120 -62 125 -67 6 -4 22 -8 35 -9 13 0 33 -10 45 -21 12 -12 29 -21 37 -21 8 -1 32 -12 54 -25 22 -14 47 -28 55 -31 31 -12 96 -47 111 -60 8 -8 21 -14 27 -14 6 0 34 -13 62 -30 28 -16 57 -30 65 -30 8 0 17 -5 20 -11 4 -5 17 -14 28 -20 12 -5 29 -13 37 -19 8 -5 26 -15 40 -20 24 -10 46 -23 80 -45 8 -5 21 -10 28 -11 7 -1 25 -10 40 -20 15 -10 77 -43 137 -75 108 -55 263 -137 364 -192 28 -15 51 -24 51 -21 0 4 7 0 16 -7 18 -15 52 -35 74 -44 37 -16 67 -32 110 -60 8 -5 21 -10 27 -11 7 -1 35 -16 63 -33 28 -17 56 -31 64 -31 7 0 19 -6 25 -14 6 -7 37 -26 69 -40 31 -15 89 -45 127 -66 64 -36 112 -61 125 -65 31 -10 58 -26 69 -39 7 -9 19 -16 25 -16 6 0 31 -11 56 -24 25 -13 71 -36 102 -51 32 -15 63 -34 69 -41 6 -8 17 -14 25 -14 7 0 37 -14 66 -31 29 -17 59 -32 66 -33 7 -1 18 -8 24 -14 7 -7 17 -12 24 -12 6 0 17 -7 24 -15 14 -17 50 -20 50 -5 0 21 2 26 18 45 30 34 52 82 52 110 0 14 -3 24 -7 22 -5 -2 -21 4 -38 14 -35 22 -79 42 -81 37 -1 -2 -10 4 -20 13 -11 9 -26 19 -34 23 -8 3 -60 30 -115 59 -55 29 -120 63 -145 76 -25 13 -52 27 -60 32 -8 5 -22 12 -30 16 -8 3 -27 15 -42 25 -16 11 -32 17 -37 14 -5 -3 -14 1 -21 9 -11 13 -61 40 -110 59 -8 4 -28 15 -45 26 -16 11 -41 24 -55 30 -36 15 -55 26 -100 55 -8 5 -21 10 -28 11 -7 1 -25 11 -40 20 -15 10 -74 42 -132 72 -58 29 -109 57 -114 63 -6 5 -20 9 -33 9 -12 0 -39 11 -59 25 -20 14 -40 22 -44 20 -5 -3 -12 0 -15 5 -4 6 -17 15 -28 21 -12 5 -29 13 -37 19 -8 5 -26 15 -40 20 -14 6 -38 19 -55 30 -16 11 -37 22 -45 26 -8 3 -33 15 -55 27 -22 11 -49 25 -60 30 -29 14 -45 23 -94 52 -24 14 -50 25 -58 25 -7 0 -16 7 -19 15 -4 8 -14 15 -23 15 -9 0 -25 7 -35 15 -11 8 -27 15 -37 15 -9 0 -22 7 -29 15 -7 9 -32 24 -54 34 -23 10 -48 21 -56 25 -24 11 -57 31 -74 45 -9 7 -16 11 -16 7 0 -3 -15 3 -32 14 -18 11 -43 24 -55 30 l-23 9 26 48 c15 27 31 54 37 60 5 7 7 13 4 13 -6 0 5 22 42 83 20 31 28 37 47 33 32 -8 39 9 12 28 -19 14 -21 19 -11 34 7 9 24 43 39 74 15 32 33 63 40 69 8 6 14 19 14 28 0 9 7 24 14 34 11 15 18 16 34 8 16 -8 21 -7 26 4 7 19 4 30 -9 30 -18 0 -16 30 6 65 29 47 54 96 54 106 0 10 27 69 46 104 5 8 13 25 18 37 6 11 15 24 20 28 6 3 11 14 11 24 0 10 9 29 19 43 11 13 23 37 27 53 10 41 -13 28 -43 -24 -13 -23 -31 -54 -39 -67 -9 -13 -13 -24 -9 -24 4 0 1 -7 -6 -16 -17 -20 -35 -52 -49 -84 -6 -14 -15 -34 -20 -45 -5 -11 -12 -31 -16 -45 -4 -14 -18 -43 -32 -65 -15 -22 -27 -46 -28 -53 -4 -21 -7 -22 -28 -6 -18 13 -18 15 -3 32 9 10 17 25 17 34 0 8 9 27 20 41 11 14 20 30 20 35 0 5 7 15 15 22 10 9 12 17 6 23 -12 12 -45 1 -36 -12 3 -5 1 -12 -4 -16 -5 -3 -16 -18 -24 -33 -7 -15 -18 -36 -24 -47 -7 -11 -14 -27 -17 -35 -4 -8 -15 -28 -26 -45 -11 -16 -22 -37 -26 -45 -16 -43 -40 -87 -58 -107 -11 -13 -16 -23 -13 -23 4 0 -4 -21 -18 -47 -31 -58 -39 -72 -52 -98 -15 -30 -105 -200 -108 -203 -1 -2 -37 15 -79 37 -42 22 -76 38 -76 35 0 -4 -7 0 -16 7 -19 16 -50 34 -84 50 -14 6 -32 15 -40 20 -8 5 -24 13 -35 18 -43 19 -48 36 -24 83 12 24 26 49 32 57 6 7 12 18 13 25 1 6 16 35 33 64 17 29 31 59 31 67 0 8 5 17 10 20 11 7 53 87 64 123 4 13 3 22 -3 22 -6 0 -27 11 -47 25 -20 14 -40 23 -44 20 -4 -3 -13 2 -20 9 -6 8 -25 18 -42 22 -18 3 -45 15 -62 25 -28 17 -40 23 -71 35 -5 2 -28 15 -50 29 -22 14 -47 28 -55 31 -14 5 -65 31 -115 58 -11 6 -26 19 -33 29 -7 9 -22 17 -33 17 -11 0 -22 7 -25 15 -4 8 -11 15 -18 15 -6 0 -28 16 -49 35 -21 19 -42 35 -48 35 -5 0 -9 4 -9 8 0 4 -33 42 -72 83 -95 99 -114 123 -135 167 -9 20 -20 39 -24 42 -19 15 -94 180 -104 230 -4 19 -14 47 -22 63 -12 23 -20 66 -25 125 -1 6 -4 12 -8 12 -4 0 -6 16 -4 35 1 19 -1 35 -5 35 -4 0 -6 16 -6 35 1 20 -1 38 -5 40 -3 2 -5 24 -5 49 1 25 -1 46 -5 46 -4 0 -6 16 -5 35 0 19 -2 35 -6 35 -4 0 -7 10 -7 23 0 23 -3 51 -21 172 -13 88 -14 108 -1 100 6 -3 10 -15 10 -26 0 -10 4 -19 9 -19 5 0 12 -8 16 -19 3 -10 17 -31 31 -46 13 -14 26 -31 27 -37 3 -16 74 -88 86 -88 6 0 11 -4 11 -8 0 -11 75 -92 86 -92 5 0 25 -16 44 -35 19 -19 39 -35 46 -35 6 0 17 -7 25 -16 7 -9 33 -25 58 -37 25 -12 61 -32 80 -44 18 -12 37 -21 41 -18 4 3 13 -2 20 -10 7 -8 18 -15 25 -15 7 0 18 -6 24 -14 7 -8 24 -17 39 -21 14 -3 46 -20 70 -36 23 -16 47 -29 52 -29 5 0 32 -14 60 -30 28 -16 57 -30 65 -30 8 0 17 -4 20 -10 3 -5 34 -24 68 -41 34 -17 82 -42 107 -55 25 -13 50 -24 56 -24 6 0 17 -7 25 -16 10 -12 10 -20 0 -35 -10 -17 -9 -23 11 -39 21 -17 25 -17 41 -3 9 9 17 21 17 27 0 6 13 17 29 24 26 12 36 9 137 -44 60 -31 123 -64 139 -74 35 -21 45 -23 64 -11 12 8 11 13 -10 30 -13 11 -36 23 -51 26 -15 4 -32 13 -39 21 -6 8 -17 14 -24 14 -7 0 -18 7 -25 15 -7 9 -15 13 -18 11 -2 -3 -27 7 -54 22 -76 41 -241 128 -363 191 -60 32 -125 67 -144 79 -19 11 -38 19 -42 17 -4 -3 -12 2 -19 10 -7 8 -18 15 -25 15 -7 0 -18 7 -25 15 -7 8 -20 15 -29 15 -9 0 -38 15 -66 32 -27 18 -54 33 -60 34 -5 1 -34 16 -63 33 -29 17 -57 31 -62 31 -14 0 -153 104 -203 152 -16 16 -33 28 -38 28 -5 0 -9 7 -9 15 0 8 -7 15 -15 15 -8 0 -15 4 -15 10 0 5 -16 25 -35 44 -19 20 -35 39 -35 44 0 5 -11 19 -25 32 -14 13 -37 48 -51 77 -15 29 -29 53 -33 53 -3 0 -12 15 -20 33 -26 63 -42 102 -51 122 -19 41 -80 298 -81 338 0 23 -6 76 -13 117 -8 41 -12 80 -9 87 3 7 1 13 -3 13 -5 0 -10 15 -11 33 -1 17 -5 52 -9 77 -3 25 -7 64 -7 88 l0 42 -45 0 -44 0 7 -82 c4 -46 9 -86 10 -89 3 -5 10 -51 20 -134 13 -106 17 -133 24 -162 5 -17 6 -46 2 -65 -4 -19 -2 -55 5 -83 16 -64 25 -103 29 -135 9 -64 46 -338 50 -365 2 -16 7 -52 11 -80 3 -27 6 -60 6 -72 0 -13 3 -23 7 -23 4 0 6 -18 6 -41 0 -22 2 -42 6 -44 3 -2 5 -20 4 -40 0 -19 2 -35 6 -35 4 0 7 -10 6 -22 0 -13 3 -50 7 -83 5 -33 10 -70 11 -82 6 -46 59 -238 67 -241 4 -2 8 -9 8 -16 0 -7 6 -26 14 -42 7 -16 20 -44 27 -61 8 -18 17 -33 21 -33 5 0 8 -7 8 -15 0 -14 18 -53 30 -65 3 -3 14 -22 25 -42 11 -21 22 -38 26 -38 3 0 14 -16 25 -35 10 -19 24 -35 31 -35 7 0 13 -5 13 -11 0 -7 10 -22 23 -34 12 -12 38 -40 58 -62 20 -22 44 -43 53 -46 9 -4 16 -11 16 -17 0 -5 7 -10 15 -10 8 0 19 -9 25 -20 6 -11 17 -20 25 -20 8 0 18 -6 22 -12 11 -18 81 -59 105 -62 4 -1 13 -9 21 -19 11 -16 8 -28 -25 -90 -21 -40 -52 -99 -68 -132 -17 -33 -39 -73 -49 -90 -10 -16 -16 -33 -14 -37 7 -12 -35 -9 -43 3 -3 6 -34 24 -68 40 -33 16 -76 39 -93 49 -18 11 -33 17 -33 14 0 -3 -18 8 -39 25 -21 17 -44 31 -50 31 -6 0 -11 4 -11 9 0 5 -22 25 -48 45 -26 19 -54 46 -62 60 -7 14 -18 26 -24 26 -6 1 -27 21 -46 46 -19 26 -40 51 -45 58 -46 52 -145 231 -145 261 0 8 -4 15 -8 15 -5 0 -16 35 -26 78 -10 42 -23 83 -29 90 -5 7 -11 31 -12 55 -2 23 -4 42 -5 42 -1 0 -3 16 -5 35 -2 19 -6 51 -9 70 -3 19 -8 53 -11 75 -3 22 -7 56 -9 75 -3 19 -7 53 -10 75 -3 22 -15 110 -26 195 -12 85 -23 169 -25 185 -2 17 -7 53 -11 80 -3 28 -6 60 -6 73 0 12 -3 22 -7 22 -3 0 -6 10 -7 23 0 12 -4 47 -8 77 -4 30 -9 66 -11 80 -8 73 -18 147 -35 260 -6 41 -13 93 -16 115 -5 39 -9 74 -19 145 -2 19 -7 53 -10 75 -3 22 -7 56 -9 75 -12 87 -16 119 -22 173 -4 31 -10 57 -14 57 -3 0 -5 16 -4 35 2 19 0 37 -5 39 -4 3 -6 23 -4 45 1 22 -1 42 -6 45 -4 3 -7 21 -5 41 1 19 -1 35 -6 35 -5 0 -7 16 -6 35 2 20 -1 38 -5 41 -5 3 -7 23 -6 45 2 21 0 39 -5 39 -4 0 -7 10 -7 23 1 12 -4 56 -10 97 -6 41 -14 93 -17 115 -8 67 -14 108 -19 148 -3 20 -7 54 -10 75 -3 20 -7 53 -9 72 -8 58 -37 263 -42 295 -3 17 -5 45 -5 63 -1 17 -4 34 -9 37 -4 2 -6 20 -4 40 1 19 -1 35 -5 35 -7 0 -11 28 -14 110 -1 25 -5 47 -8 50 -3 3 -15 84 -28 180 -12 96 -24 190 -26 208 -12 82 -15 100 -20 151 -3 30 -8 57 -10 61 -2 3 -7 38 -10 76 -4 38 -11 86 -16 108 -6 21 -8 40 -6 43 3 2 -1 27 -9 55 -7 28 -11 54 -9 58 3 4 0 22 -6 41 -6 19 -12 65 -15 102 -2 38 -6 72 -9 77 -3 5 -7 34 -10 64 -11 122 -16 165 -40 336 -9 63 -18 133 -21 155 -5 42 -10 82 -20 150 -2 22 -6 52 -8 66 -1 14 -5 30 -9 35 -3 5 -4 24 -3 42 1 18 -1 35 -6 38 -5 3 -6 10 -3 15 4 5 2 9 -2 9 -5 0 -8 15 -7 32 1 18 0 37 -4 42 -3 5 -7 23 -8 40 -2 17 -5 47 -8 66 -5 33 -9 62 -20 150 -3 19 -12 87 -21 150 -9 63 -18 133 -21 155 -6 47 -12 96 -19 145 -9 63 -14 104 -20 155 -3 28 -7 57 -10 65 -2 8 -7 40 -11 70 -4 30 -8 64 -9 75 -2 11 -6 43 -9 71 -4 28 -8 60 -11 72 -2 11 -6 49 -10 83 -4 35 -8 66 -10 69 -2 4 -7 31 -10 61 -3 30 -8 68 -10 84 -10 69 -12 85 -41 315 -10 74 -20 137 -23 140 -3 3 -7 25 -8 50 -4 98 -5 110 -13 115 -4 2 -6 20 -4 40 1 19 -1 35 -6 35 -4 0 -7 18 -6 41 1 22 -1 42 -5 45 -5 2 -7 20 -5 39 1 19 -1 35 -4 35 -4 0 -12 44 -18 98 -7 53 -14 111 -16 127 -3 17 -8 53 -11 80 -4 28 -8 61 -10 75 -7 50 -16 126 -20 155 -5 37 -34 245 -42 300 -4 22 -6 50 -6 63 1 12 -2 22 -6 22 -3 0 -6 15 -5 33 0 17 -2 36 -4 41 -7 12 -14 70 -16 123 0 24 -4 43 -7 43 -4 0 -7 10 -7 23 0 12 -2 40 -5 62 -18 127 -28 188 -32 195 -2 4 -6 27 -9 51 -11 103 -28 295 -28 319 0 8 -6 42 -14 75 -7 33 -18 96 -24 140 -5 44 -12 96 -15 115 -3 19 -7 60 -9 90 -4 49 -9 85 -32 245 -3 22 -8 53 -10 68 -2 15 -6 44 -8 65 -3 20 -8 55 -10 77 -3 22 -10 74 -16 115 -6 41 -13 90 -16 108 -2 17 -6 47 -9 65 -2 17 -6 50 -9 72 -5 36 -38 284 -52 390 -3 22 -6 50 -5 62 0 12 -3 24 -8 27 -4 3 -7 21 -5 41 1 19 -1 35 -5 35 -4 0 -8 19 -9 43 -1 45 -9 122 -13 122 -1 0 -3 9 -5 20 -10 65 -13 80 -14 80 -1 0 -3 16 -5 35 -2 19 -7 53 -10 75 -3 22 -7 58 -9 80 -2 22 -6 47 -9 55 -3 8 -5 22 -5 30 -1 29 -12 115 -20 144 l-8 30 -92 2 c-58 1 -92 -2 -95 -9z m2173 -11258 c0 -10 5 -19 10 -19 6 0 10 -9 10 -20 0 -11 5 -20 10 -20 6 0 10 -7 10 -15 0 -15 6 -25 38 -60 6 -7 12 -18 12 -23 0 -6 3 -12 8 -14 4 -1 19 -22 35 -45 15 -24 32 -43 37 -43 6 0 10 -5 10 -10 0 -11 90 -101 152 -153 80 -67 94 -77 106 -77 6 0 12 -4 12 -8 0 -9 77 -62 90 -62 5 0 32 -13 60 -30 28 -16 57 -30 65 -30 8 0 16 -4 20 -9 3 -6 18 -16 33 -24 15 -7 36 -18 47 -24 11 -7 27 -14 35 -17 8 -4 33 -17 55 -31 22 -13 47 -24 56 -25 9 0 22 -7 29 -15 7 -9 34 -25 59 -36 25 -11 53 -24 61 -29 8 -6 25 -14 37 -19 11 -6 24 -15 28 -21 3 -5 10 -8 15 -5 4 2 23 -6 41 -18 19 -13 42 -26 52 -30 9 -3 17 -11 17 -16 0 -21 -20 -20 -55 4 -21 13 -41 23 -45 20 -4 -3 -13 2 -20 10 -7 8 -18 15 -25 15 -7 0 -18 6 -24 14 -7 8 -24 17 -39 21 -14 3 -46 20 -70 36 -23 16 -47 29 -52 29 -5 0 -32 14 -60 30 -28 17 -56 30 -62 30 -6 0 -19 6 -27 14 -15 13 -80 48 -111 60 -8 3 -33 17 -55 31 -22 13 -47 24 -56 25 -9 0 -24 9 -34 20 -10 11 -23 20 -28 20 -6 0 -26 12 -46 27 -19 15 -42 28 -51 30 -8 1 -28 17 -45 35 -16 18 -33 34 -37 34 -4 1 -12 2 -18 3 -5 0 -10 6 -10 12 0 13 -87 99 -100 99 -6 0 -10 6 -10 13 0 7 -13 27 -30 45 -16 18 -30 38 -30 44 0 6 -10 20 -22 32 -23 22 -34 39 -81 129 -24 44 -31 68 -28 90 2 16 21 -5 21 -24z m730 -1764 c29 -16 73 -38 80 -39 3 -1 12 -6 20 -11 29 -20 55 -34 70 -40 54 -23 100 -47 110 -60 7 -8 16 -12 21 -10 4 3 17 0 29 -7 16 -10 24 -10 40 0 22 13 40 9 40 -10 0 -5 -13 -30 -30 -55 -16 -24 -30 -49 -30 -55 0 -6 -13 -33 -30 -60 -16 -26 -30 -53 -30 -58 0 -5 -16 -34 -35 -65 -39 -60 -44 -60 -102 -11 -13 11 -23 16 -23 13 0 -4 -21 4 -47 18 -27 15 -55 30 -63 34 -8 4 -26 14 -40 21 -14 8 -59 31 -100 53 -41 21 -79 42 -83 47 -9 8 15 64 55 130 11 19 20 35 18 35 -7 0 21 53 34 64 9 7 16 18 16 23 0 5 10 30 22 56 19 42 22 44 27 24 3 -12 17 -29 31 -37z m822 -466 c-15 -28 -28 -46 -30 -41 -3 10 44 92 52 92 2 0 -8 -23 -22 -51z m-49 -96 c-19 -42 -53 -91 -53 -77 0 11 59 114 65 114 3 0 -3 -17 -12 -37z m-56 -100 c-2 -5 -11 -25 -21 -45 -9 -20 -22 -40 -28 -44 -6 -4 -9 -3 -7 2 3 5 11 23 19 39 8 17 18 36 23 43 10 13 21 17 14 5z"/>
    <path d="M29482 22320 c-12 -16 -22 -40 -22 -53 0 -14 -7 -30 -15 -37 -8 -7 -15 -25 -15 -41 0 -15 -4 -31 -10 -34 -5 -3 -10 -21 -10 -39 0 -30 4 -35 54 -56 30 -12 57 -21 59 -19 2 2 11 -2 19 -9 9 -7 47 -15 84 -18 37 -3 71 -7 74 -9 3 -2 10 -1 16 3 14 10 57 82 49 82 -4 0 -3 6 3 13 5 6 15 31 21 54 10 38 9 45 -11 68 -12 14 -27 25 -34 25 -6 0 -14 7 -18 15 -3 8 -11 15 -18 15 -6 0 -21 8 -32 18 -27 24 -103 52 -142 52 -22 0 -36 -8 -52 -30z"/>
    <path d="M29850 19958 c-14 -6 -32 -12 -40 -13 -19 -3 -116 -16 -155 -21 -16 -2 -61 -8 -99 -13 -38 -6 -73 -8 -78 -5 -4 3 -8 2 -8 -3 0 -4 -10 -9 -22 -9 -13 -1 -45 -5 -73 -8 -27 -4 -63 -9 -80 -11 -29 -4 -300 -40 -380 -51 -22 -3 -50 -6 -62 -5 -12 0 -24 -3 -27 -8 -3 -4 -21 -7 -41 -5 -19 1 -35 -1 -35 -4 0 -4 -19 -8 -43 -9 -51 -3 -122 -11 -122 -14 0 -2 -5 -2 -90 -13 -27 -4 -61 -9 -75 -12 -14 -3 -38 -7 -55 -9 -32 -4 -111 -14 -160 -21 -16 -2 -70 -6 -119 -8 -48 -2 -93 -9 -98 -14 -6 -6 -6 -22 0 -43 5 -19 8 -51 8 -71 -1 -21 1 -38 5 -38 4 0 7 -10 7 -22 0 -13 3 -45 6 -73 4 -27 9 -63 11 -80 2 -16 13 -100 25 -185 32 -235 32 -234 32 -250 0 -8 2 -22 5 -30 3 -8 7 -31 9 -50 1 -19 5 -46 8 -60 4 -24 9 -59 22 -160 3 -25 10 -72 15 -105 5 -33 12 -73 14 -90 2 -16 7 -52 10 -80 4 -27 8 -66 10 -85 1 -19 5 -42 8 -50 3 -8 5 -22 5 -30 0 -8 3 -33 6 -55 3 -22 12 -92 21 -155 8 -63 17 -131 20 -150 3 -19 7 -53 10 -75 3 -22 8 -58 11 -80 3 -22 7 -53 9 -70 2 -16 4 -30 5 -30 1 0 3 -18 5 -40 1 -22 6 -56 10 -75 8 -35 11 -50 19 -126 2 -23 9 -57 14 -77 6 -20 8 -38 5 -40 -2 -3 1 -24 7 -47 6 -24 13 -64 16 -89 11 -123 18 -186 33 -286 6 -38 11 -73 11 -76 0 -8 82 11 90 20 5 6 23 8 88 13 17 1 32 4 32 7 0 6 48 11 122 14 21 1 38 5 38 8 0 4 10 7 23 7 12 0 45 3 72 6 28 4 64 9 80 11 17 2 82 11 145 20 115 16 152 21 213 29 17 3 102 14 187 26 208 29 219 30 265 35 22 2 54 8 70 12 17 5 47 8 67 8 21 0 38 2 38 5 0 3 10 6 23 6 12 1 47 5 77 9 30 4 66 8 80 10 36 5 91 12 215 29 60 8 112 14 115 14 3 0 18 0 33 1 l28 1 -6 118 c-4 64 -6 125 -6 135 0 10 -4 29 -9 42 -6 15 -6 27 0 30 5 3 8 22 7 43 -2 20 1 45 5 55 6 11 5 17 -3 17 -6 0 -9 6 -6 14 13 34 -52 233 -90 274 -7 7 -13 17 -13 22 0 9 -47 66 -103 124 -21 22 -43 48 -48 58 -6 10 -14 16 -20 13 -5 -4 -9 0 -9 7 -1 17 -35 58 -48 58 -6 0 -13 8 -17 19 -3 10 -26 39 -50 64 -25 25 -45 50 -45 56 0 6 -7 11 -15 11 -8 0 -15 4 -15 8 0 8 -11 23 -64 82 -12 14 -31 40 -41 58 -11 18 -22 32 -25 32 -10 0 -48 90 -61 145 -6 28 -17 59 -23 70 -6 11 -11 32 -11 47 -1 23 6 29 40 41 50 18 183 47 212 47 12 0 25 5 28 10 3 6 23 10 44 10 58 0 75 18 67 71 -4 24 -14 63 -22 87 -8 24 -12 48 -9 52 3 5 -1 22 -8 37 -8 15 -15 39 -15 53 0 14 -12 72 -27 130 -15 58 -28 114 -29 125 -1 12 -5 26 -9 32 -4 6 -9 34 -12 63 -3 28 -10 60 -15 71 -6 10 -9 19 -6 19 2 0 -7 41 -19 92 -13 50 -22 95 -19 99 2 4 0 9 -6 11 -6 2 -13 28 -16 58 -3 30 -9 57 -13 60 -4 3 -11 28 -14 55 -9 72 -26 125 -40 124 -7 0 -23 -5 -37 -11z m-1325 -258 c0 -22 3 -40 6 -40 4 0 6 -16 5 -35 -2 -20 0 -38 4 -40 10 -6 10 -74 1 -80 -8 -4 -29 75 -29 110 0 11 -6 34 -12 50 l-12 30 -17 -21 c-14 -18 -19 -19 -30 -7 -23 25 -38 -1 -33 -60 3 -40 0 -56 -12 -66 -9 -7 -16 -19 -16 -25 0 -7 -5 -17 -12 -24 -6 -6 -13 -17 -14 -24 -2 -7 -6 -23 -10 -36 -4 -13 -3 -22 2 -21 16 4 59 -18 74 -37 8 -11 10 -16 6 -12 -5 4 -15 3 -22 -3 -8 -6 -20 -9 -28 -6 -19 7 -51 -17 -42 -31 7 -12 30 -11 145 7 78 12 89 21 71 58 -7 16 -12 44 -11 63 5 64 18 55 26 -16 3 -27 8 -65 10 -84 2 -20 1 -40 -3 -46 -4 -6 -32 -14 -62 -17 -30 -4 -71 -9 -90 -12 -19 -3 -48 -7 -65 -9 -16 -2 -48 -8 -70 -12 -22 -4 -44 -7 -48 -6 -5 1 -26 -2 -47 -8 -47 -13 -70 -5 -69 23 1 12 -2 40 -4 62 -8 54 -27 194 -32 225 -2 14 -7 49 -10 78 l-6 52 30 0 c23 0 29 -4 25 -15 -4 -8 -2 -15 4 -15 5 0 12 8 14 18 4 15 19 20 64 26 33 3 77 9 99 12 59 8 84 11 144 18 30 3 57 8 59 11 13 12 17 2 17 -35z m790 22 c6 -4 11 -25 12 -47 l2 -40 -12 35 c-7 19 -16 41 -20 48 -9 13 2 16 18 4z m-36 -46 c7 -8 11 -20 10 -28 -2 -7 1 -33 6 -58 5 -25 8 -49 7 -53 -2 -5 1 -23 6 -40 8 -28 7 -32 -12 -33 -12 -1 -39 -4 -61 -8 -22 -3 -74 -11 -115 -17 -41 -6 -85 -11 -97 -11 -13 0 -23 -4 -23 -8 0 -6 -38 -7 -71 -1 -4 1 -7 11 -7 24 1 12 -5 57 -11 100 -7 44 -11 81 -9 82 4 4 53 15 88 20 146 19 254 36 258 40 9 9 19 6 31 -9z m-522 -24 c7 -4 12 -16 11 -27 0 -11 3 -39 7 -61 l7 -41 -77 -8 c-42 -4 -78 -5 -79 -3 -2 1 -6 31 -10 66 l-7 62 38 1 c21 1 49 5 63 9 34 11 33 11 47 2z m124 -1 c-7 -5 -17 -15 -22 -22 -6 -10 -9 -8 -9 9 0 16 6 22 23 22 16 0 18 -3 8 -9z m455 -58 c-11 -11 -17 4 -9 23 7 18 8 18 11 1 2 -10 1 -21 -2 -24z m-863 -3 c-3 -11 -7 -20 -9 -20 -2 0 -4 9 -4 20 0 11 4 20 9 20 5 0 7 -9 4 -20z m401 -19 c-8 -9 -22 12 -17 26 6 15 7 14 13 -3 4 -10 6 -21 4 -23z m476 -26 c0 -5 -5 -3 -10 5 -5 8 -10 20 -10 25 0 6 5 3 10 -5 5 -8 10 -19 10 -25z m-466 -52 c3 -21 7 -51 11 -68 5 -21 4 -27 -3 -20 -10 9 -17 43 -26 125 -3 26 -2 30 5 18 5 -10 11 -34 13 -55z m476 11 c0 -8 -4 -14 -9 -14 -6 0 -9 9 -8 19 1 22 17 18 17 -5z m-567 -52 c-1 -20 2 -39 7 -42 18 -11 -8 -31 -46 -34 -21 -2 -39 -5 -39 -6 0 -1 -15 -3 -32 -6 -22 -2 -33 0 -34 9 -1 17 -6 39 -13 57 -10 27 11 43 63 48 28 2 51 8 51 12 0 4 10 5 23 3 20 -4 23 -10 20 -41z m-133 -128 c14 0 28 5 32 10 5 8 11 7 19 -1 9 -9 5 -17 -15 -35 -24 -20 -32 -38 -35 -72 -2 -19 -31 18 -40 51 -10 34 -4 73 8 56 3 -5 17 -9 31 -9z m97 10 c-3 -3 -12 -4 -19 -1 -8 3 -5 6 6 6 11 1 17 -2 13 -5z m98 -52 c3 -20 9 -57 14 -80 10 -52 4 -85 -15 -78 -7 3 -27 1 -44 -4 -62 -18 -110 19 -115 88 -3 41 0 53 18 70 33 29 52 37 96 39 39 2 40 2 46 -35z m-271 -77 c6 -11 21 -34 33 -52 13 -17 23 -36 23 -42 0 -6 5 -11 10 -11 6 0 10 -5 10 -10 0 -9 39 -74 63 -105 16 -21 57 -86 57 -90 0 -3 -6 -5 -13 -5 -7 0 -24 -10 -38 -22 -14 -13 -34 -28 -44 -34 -36 -20 -40 -39 -14 -75 13 -19 32 -49 42 -68 l19 -35 -26 17 c-32 21 -51 21 -86 0 -26 -15 -35 -30 -45 -71 -4 -16 24 -72 36 -72 5 0 21 -7 35 -16 l25 -17 -21 -22 c-19 -20 -19 -23 -4 -36 9 -7 25 -18 37 -24 39 -20 41 -37 11 -88 -28 -45 -54 -66 -39 -29 23 53 -20 115 -80 115 -28 0 -42 -6 -60 -29 -30 -36 -41 -67 -26 -72 6 -2 11 -11 11 -21 0 -22 67 -59 98 -53 12 2 22 7 22 12 0 4 6 10 14 13 12 5 11 -3 -3 -34 -10 -22 -24 -46 -30 -52 -6 -6 -11 -17 -11 -24 0 -6 -6 -16 -13 -20 -15 -10 -50 -63 -41 -63 4 0 1 -6 -5 -13 -8 -11 3 -23 54 -58 65 -44 77 -66 50 -89 -8 -7 -15 -18 -15 -24 0 -7 -6 -18 -12 -24 -7 -7 -14 -17 -14 -23 -1 -5 -2 -13 -3 -18 0 -5 -11 -11 -23 -14 -12 -4 -19 -9 -15 -13 7 -8 -27 -77 -54 -109 -9 -11 -34 -51 -54 -90 -21 -38 -44 -75 -51 -83 -8 -7 -14 -18 -14 -23 0 -5 -4 -9 -9 -9 -6 0 -9 20 -7 45 1 25 -1 45 -5 45 -4 0 -7 10 -7 23 -1 12 -3 41 -7 64 -3 24 -7 61 -10 83 -2 22 -6 47 -9 57 -3 10 -8 41 -12 68 -3 28 -7 64 -9 80 -3 17 -7 48 -10 70 -10 76 -14 110 -20 150 -3 22 -10 84 -17 138 -6 53 -14 97 -18 97 -3 0 -5 16 -4 35 2 19 -1 37 -6 40 -5 3 -7 23 -5 45 2 22 0 40 -5 40 -5 0 -7 16 -6 35 2 20 -1 38 -5 41 -5 3 -8 15 -8 27 1 12 -2 40 -5 62 -23 168 -48 357 -51 392 l-5 42 57 12 c32 6 69 13 83 15 62 6 108 13 145 20 22 4 47 7 57 5 9 -1 19 2 21 6 11 17 70 8 81 -12z m1465 -143 c13 -49 24 -102 26 -118 2 -16 9 -51 14 -78 15 -66 7 -86 -30 -86 -17 0 -82 -14 -145 -31 -64 -17 -118 -28 -121 -25 -3 2 -16 1 -29 -5 l-25 -9 2 70 c1 39 5 73 9 75 4 3 11 21 15 41 7 41 24 75 43 87 6 4 12 13 12 19 0 6 20 29 45 52 62 57 73 66 83 66 6 0 23 7 38 15 16 8 32 15 35 15 3 0 15 -40 28 -88z m-1226 -233 c15 -22 27 -45 27 -51 0 -6 10 -20 23 -32 23 -22 64 -88 74 -118 3 -10 9 -18 14 -18 5 0 9 -7 9 -15 0 -8 5 -15 10 -15 6 0 14 -10 19 -22 6 -15 0 -37 -20 -76 -15 -30 -31 -58 -37 -61 -13 -9 -65 -101 -57 -101 4 0 -8 -19 -26 -42 -44 -55 -81 -123 -72 -132 4 -4 -3 -9 -15 -13 -12 -3 -23 -9 -23 -14 -1 -5 -2 -13 -3 -19 0 -5 -7 -15 -13 -21 -7 -7 -13 -18 -13 -25 0 -6 -7 -17 -15 -24 -8 -7 -15 -21 -15 -31 0 -11 -5 -19 -10 -19 -17 0 -70 30 -70 39 0 4 -11 13 -24 19 -24 11 -24 12 -10 42 9 16 19 30 22 30 4 0 15 17 25 38 28 58 45 86 60 97 11 8 23 29 32 55 15 45 55 98 55 74 0 -8 34 50 61 106 16 33 21 80 9 80 -6 0 -10 7 -10 15 0 9 -11 26 -25 39 -14 13 -25 31 -25 40 0 9 -4 16 -9 16 -5 0 -14 13 -21 30 -7 16 -23 41 -36 55 -13 14 -24 30 -24 35 0 6 19 22 43 36 23 15 44 31 45 35 7 17 19 8 45 -32z m-123 -189 c20 -20 27 -50 11 -50 -5 0 -11 -8 -14 -18 -6 -27 -42 -33 -67 -12 -27 23 -26 65 2 84 30 21 44 20 68 -4z m93 -72 c6 -21 -15 -25 -31 -5 -5 6 -12 27 -14 46 l-5 35 23 -29 c12 -16 25 -37 27 -47z m-169 -210 c28 -45 -38 -103 -82 -72 -25 17 -23 68 3 88 22 16 64 7 79 -16z m1220 -393 c13 -10 17 -21 12 -37 -9 -36 -19 -45 -53 -53 -26 -5 -33 -3 -33 8 0 8 -6 17 -14 20 -20 8 -7 57 18 67 30 13 49 11 70 -5z m-598 -27 c13 -39 13 -48 -3 -63 -33 -33 -93 -7 -93 40 0 46 82 65 96 23z m241 -25 c12 -24 9 -27 -32 -24 -17 1 -32 -8 -92 -59 -9 -7 -15 -5 -22 8 -9 16 -12 15 -33 -6 -14 -14 -19 -25 -13 -30 21 -14 1 -72 -25 -72 -23 0 -36 -36 -20 -56 7 -8 10 -27 7 -43 -4 -19 -2 -31 6 -35 7 -2 -2 -5 -20 -5 -17 -1 -33 5 -36 12 -8 21 6 111 21 135 8 12 11 22 8 22 -10 0 15 44 30 53 8 4 14 13 14 20 0 7 16 21 35 31 19 11 35 23 35 27 0 12 82 48 106 46 11 0 25 -11 31 -24z m169 -45 c7 -5 16 -8 20 -6 15 4 54 -13 54 -23 0 -6 -5 -7 -10 -4 -6 4 -18 1 -27 -6 -20 -17 -43 -18 -67 -2 -10 6 -24 9 -31 7 -6 -3 -18 2 -25 11 -12 14 -11 18 1 26 16 11 69 9 85 -3z m-171 -38 c3 -11 3 -24 0 -30 -3 -5 -2 -10 4 -10 10 0 8 -51 -3 -69 -4 -5 -1 -15 6 -23 15 -15 23 -58 11 -59 -4 0 -17 -2 -28 -5 -36 -7 -150 -24 -167 -24 -13 0 -16 8 -14 43 3 36 39 117 52 117 5 0 24 -15 54 -41 11 -10 23 -13 31 -8 11 6 9 12 -6 31 -11 12 -26 28 -34 34 -13 10 -13 13 0 25 44 41 84 49 94 19z m315 -70 c0 -5 4 -10 8 -10 14 0 31 -47 25 -69 -6 -24 -43 -29 -43 -6 0 15 -19 55 -31 65 -3 3 -11 15 -18 28 -10 18 -10 26 0 38 11 13 15 12 36 -10 13 -14 23 -30 23 -36z m-1209 7 c-10 -9 -11 -8 -5 6 3 10 9 15 12 12 3 -3 0 -11 -7 -18z m1119 -17 c0 -6 9 -20 20 -32 35 -38 26 -55 -32 -61 -29 -2 -54 -4 -55 -3 -1 0 10 25 24 54 24 48 43 66 43 42z m-1073 -100 c12 -14 22 -31 23 -37 0 -7 3 -13 8 -13 11 0 44 -88 37 -100 -3 -5 -2 -10 3 -10 13 0 12 -131 -1 -148 -5 -7 -7 -15 -4 -19 3 -3 0 -18 -8 -34 -17 -32 -43 -32 -87 1 -15 11 -32 20 -37 20 -6 0 -14 6 -18 13 -4 6 -33 25 -63 41 -30 16 -64 35 -74 42 -18 12 -18 14 -3 20 9 3 17 12 17 19 0 7 7 19 16 26 9 7 21 25 27 39 6 14 11 27 13 30 1 3 5 15 9 28 4 12 11 22 15 22 8 0 48 60 62 94 7 16 11 16 26 5 9 -7 27 -25 39 -39z m933 -30 c0 -5 -5 -10 -11 -10 -5 0 -7 5 -4 10 3 6 8 10 11 10 2 0 4 -4 4 -10z m286 -25 c17 -15 5 -34 -19 -30 -11 3 -27 -1 -35 -7 -10 -9 -15 -9 -21 1 -7 10 -17 9 -51 -7 -31 -14 -39 -22 -29 -28 29 -18 87 -23 135 -13 30 6 32 5 38 -30 9 -55 -3 -61 -150 -75 -11 -1 -24 -5 -30 -7 -5 -3 -24 -5 -41 -5 -18 1 -33 -1 -33 -4 0 -3 -18 -5 -41 -5 -22 0 -43 -3 -45 -7 -3 -4 -20 -6 -39 -4 -19 1 -35 0 -35 -3 0 -4 -25 -7 -55 -9 -52 -3 -56 -2 -65 24 -14 37 1 51 32 30 28 -18 81 -9 86 15 3 17 -44 44 -70 40 -10 -1 -18 3 -18 8 0 6 7 11 15 11 20 0 19 29 -1 37 -19 7 -35 -14 -27 -35 4 -10 0 -13 -13 -10 -12 2 -19 13 -21 29 -1 23 4 27 48 38 28 7 53 11 56 8 3 -3 16 -2 29 3 13 5 47 12 76 15 29 3 67 8 83 10 17 2 52 7 79 10 27 3 51 7 54 9 8 9 97 2 108 -9z m186 -50 c6 -28 1 -35 -29 -52 -29 -17 -28 -17 -55 10 -24 23 -27 58 -5 75 36 29 81 12 89 -33z m-1612 -59 c0 -2 -7 -9 -15 -16 -13 -11 -14 -10 -9 4 5 14 24 23 24 12z m808 -24 c7 -5 15 -25 18 -44 5 -29 2 -38 -16 -51 -23 -16 -53 -13 -71 9 -13 16 -3 88 11 79 5 -3 11 -1 15 5 7 12 25 13 43 2z m655 -104 c8 -29 -23 -138 -38 -138 -28 0 -37 27 -24 72 7 24 11 49 10 57 -3 14 16 31 35 31 7 0 14 -10 17 -22z m-87 -20 c3 -3 -1 -22 -10 -41 -8 -19 -12 -38 -8 -41 13 -13 -15 -4 -42 13 -30 20 -56 18 -56 -3 0 -7 12 -18 27 -25 26 -12 26 -12 7 -32 -30 -29 -54 -15 -56 32 -5 96 -6 91 36 95 21 2 41 5 43 8 6 6 51 1 59 -6z m-400 -53 c3 -19 10 -35 15 -35 5 0 9 -8 9 -18 0 -9 9 -23 20 -30 15 -9 19 -19 14 -36 -4 -19 -1 -24 20 -28 15 -3 31 0 37 8 7 9 17 11 28 5 9 -5 28 -8 44 -7 19 1 27 -3 29 -16 0 -10 1 -23 2 -30 1 -15 -35 -14 -96 2 -52 14 -133 77 -144 113 -4 12 -10 24 -14 27 -4 3 -10 17 -14 33 -5 20 -3 27 9 27 8 0 15 5 15 10 0 25 20 6 26 -25z m174 9 c4 -11 10 -36 13 -56 2 -20 7 -41 11 -46 11 -17 -10 -22 -43 -11 -35 13 -38 25 -14 68 10 16 14 33 11 37 -11 10 -34 -12 -48 -46 -10 -25 -15 -28 -31 -19 -11 5 -19 16 -19 24 0 7 -4 15 -9 17 -4 2 -11 13 -15 25 -5 17 -4 22 6 18 7 -3 27 -1 43 4 49 13 87 8 95 -15z m212 -107 c27 -14 26 -37 -2 -37 -10 0 -20 -6 -23 -14 -3 -7 -23 -18 -46 -23 -32 -9 -41 -8 -45 4 -10 26 -6 33 19 33 14 0 28 7 31 15 4 8 12 15 20 15 8 0 14 5 14 10 0 13 3 13 32 -3z m184 -22 c23 -23 24 -26 10 -54 -20 -38 -49 -45 -80 -16 -38 35 -17 90 37 94 4 1 19 -10 33 -24z m-532 -100 c27 -41 12 -74 -40 -87 -41 -10 -72 56 -41 87 11 11 30 19 58 24 4 0 14 -10 23 -24z" id="radio"/>
    <path d="M30590 18052 c0 -5 -31 -16 -69 -25 -43 -10 -80 -26 -97 -42 -15 -14 -32 -25 -39 -25 -6 0 -21 -13 -32 -28 -24 -33 -21 -70 8 -101 10 -11 19 -27 19 -36 0 -8 4 -15 9 -15 5 0 14 -14 21 -30 7 -17 24 -39 39 -48 28 -20 71 -26 71 -11 0 5 7 9 15 9 8 0 15 4 15 8 0 5 16 15 36 22 19 8 45 27 57 43 12 16 34 41 49 55 44 44 37 89 -21 153 -17 18 -31 38 -31 45 0 6 -11 16 -25 22 -14 6 -25 8 -25 4z"/>
    <path d="M30455 16984 c-16 -8 -45 -17 -65 -19 -19 -2 -105 -14 -190 -26 -85 -11 -165 -21 -177 -20 -13 0 -23 -3 -23 -7 0 -5 -18 -7 -39 -5 -22 1 -42 -1 -45 -6 -3 -4 -21 -7 -41 -5 -19 1 -35 -1 -35 -5 0 -4 -17 -8 -37 -9 -43 -1 -128 -10 -128 -13 0 -1 -9 -3 -20 -5 -81 -12 -176 -25 -210 -30 -82 -11 -111 -14 -150 -19 -22 -3 -53 -7 -70 -10 -16 -2 -52 -6 -80 -9 -27 -4 -58 -9 -68 -12 -38 -12 -103 -11 -129 2 -23 12 -29 12 -42 -2 -9 -8 -16 -20 -16 -25 0 -6 -9 -7 -20 -4 -11 3 -20 3 -20 -2 0 -4 -22 -9 -50 -10 -93 -4 -120 -7 -120 -12 0 -7 -44 -12 -112 -15 -27 0 -48 -4 -48 -8 0 -4 -16 -6 -35 -4 -19 1 -35 -2 -35 -7 0 -5 -7 -7 -15 -3 -8 3 -19 -3 -25 -14 -10 -19 -7 -63 15 -217 3 -21 8 -54 10 -73 2 -19 4 -35 5 -35 1 0 3 -13 5 -29 2 -16 9 -59 14 -95 6 -36 13 -92 16 -124 4 -32 8 -68 11 -80 3 -12 7 -40 10 -62 3 -22 7 -55 9 -72 3 -18 7 -48 10 -65 2 -18 16 -121 30 -228 14 -107 29 -213 32 -235 3 -22 6 -50 6 -62 -1 -13 2 -23 6 -23 3 0 6 -15 5 -32 0 -18 2 -37 5 -43 3 -5 5 -26 6 -45 1 -19 3 -40 6 -45 3 -6 5 -25 5 -42 -1 -18 2 -33 5 -33 4 0 7 -10 7 -22 0 -13 2 -41 5 -63 16 -113 39 -275 43 -310 3 -22 7 -56 10 -75 2 -19 6 -53 9 -75 9 -65 15 -108 20 -145 3 -19 11 -79 17 -132 7 -54 15 -98 18 -98 3 0 5 -15 4 -32 -1 -18 0 -37 4 -42 3 -6 6 -26 7 -46 0 -19 3 -39 6 -45 3 -5 5 -25 3 -42 -1 -18 1 -33 5 -33 7 0 11 -28 14 -110 1 -25 5 -47 8 -50 3 -3 11 -48 18 -100 6 -52 14 -108 16 -125 2 -16 7 -52 10 -80 4 -27 8 -61 10 -75 2 -14 7 -50 11 -80 4 -30 7 -65 8 -78 1 -12 6 -20 11 -18 6 2 35 9 67 16 53 12 58 11 87 -10 18 -12 38 -23 46 -24 8 -1 23 -10 34 -20 11 -10 35 -20 53 -21 18 -2 33 -4 33 -5 0 -1 45 -3 100 -5 55 -2 100 -4 100 -5 0 -1 27 -4 60 -5 33 -2 89 -7 125 -10 36 -4 99 -9 140 -11 41 -2 113 -7 160 -11 128 -10 341 -8 348 4 4 6 32 16 62 23 30 7 57 16 60 20 3 4 20 15 38 24 17 9 32 21 32 26 0 6 9 10 20 10 11 0 20 4 20 9 0 5 9 13 20 16 11 3 20 13 20 21 0 8 3 14 8 14 20 0 116 106 107 120 -3 4 2 13 10 20 8 7 15 17 15 23 0 6 7 18 16 28 8 9 16 28 18 41 1 13 6 30 11 38 5 8 10 24 11 36 1 12 5 39 9 60 11 62 9 117 -11 334 -4 41 -7 103 -8 137 -1 35 -3 63 -6 63 -5 0 -10 79 -13 217 -1 35 -4 63 -7 63 -3 0 -5 28 -6 63 0 34 -4 96 -8 137 -11 111 -17 224 -19 322 -1 49 -5 88 -8 88 -3 0 -4 16 -3 35 2 19 -1 35 -7 35 -6 0 -6 7 1 20 6 11 9 24 6 28 -2 4 -7 41 -10 81 -6 70 -27 127 -44 117 -4 -2 -59 -7 -122 -10 -63 -4 -116 -9 -118 -11 -2 -2 -15 0 -28 5 -14 6 -24 6 -24 0 0 -5 -16 -6 -35 -3 -26 4 -35 2 -35 -8 -1 -10 -5 -9 -14 4 -8 10 -13 33 -11 50 8 84 17 133 26 142 5 5 9 16 9 24 0 9 12 41 26 71 57 118 69 144 69 150 1 3 13 24 27 47 15 23 30 53 34 67 3 14 12 30 20 37 16 13 19 65 4 74 -11 7 -4 25 10 25 5 0 7 -7 4 -15 -4 -10 -2 -13 7 -10 19 8 60 74 62 99 0 12 6 28 12 36 12 15 41 138 37 154 -2 4 3 14 9 22 9 11 9 14 0 14 -8 0 -9 6 -3 18 5 9 8 33 6 52 -2 19 -6 67 -8 107 -2 39 -6 75 -8 80 -3 4 -4 23 -2 41 1 17 -1 32 -5 32 -3 0 -6 28 -7 63 -1 121 -13 287 -21 302 -7 13 -12 13 -38 -1z m-12 -74 c-3 -13 -14 -18 -41 -17 -21 0 -58 -3 -84 -7 -27 -3 -69 -8 -95 -11 -27 -3 -49 -10 -51 -15 -7 -20 -32 -9 -32 13 0 25 16 28 224 52 21 3 41 6 43 9 2 2 12 2 22 -1 12 -3 17 -11 14 -23z m-377 -61 c-15 -4 -34 -5 -42 -2 -8 3 -14 1 -14 -3 0 -5 -15 -9 -32 -8 -18 0 -38 -4 -45 -8 -6 -5 -17 -8 -25 -7 -7 2 -32 0 -55 -4 -114 -18 -126 -19 -119 -8 4 6 13 11 19 9 7 -1 30 2 52 6 22 4 58 10 80 13 22 2 54 7 70 9 17 2 47 6 68 8 21 2 41 7 44 10 3 3 11 2 16 -1 6 -4 -1 -10 -17 -14z m281 -15 c14 -9 30 -11 51 -5 25 8 31 6 35 -10 5 -19 -8 -83 -21 -104 -4 -5 -8 -19 -9 -30 -5 -29 -14 -35 -81 -47 l-62 -11 -29 30 c-16 17 -37 48 -47 69 -10 22 -21 41 -24 44 -12 9 -6 50 7 50 7 0 13 5 13 11 0 6 6 9 14 6 8 -3 27 -2 43 2 42 12 85 10 110 -5z m-245 -65 c0 -19 3 -38 7 -44 3 -5 6 -26 7 -45 1 -19 7 -61 13 -94 12 -65 8 -80 -20 -73 -10 3 -19 1 -21 -4 -2 -5 -26 -12 -53 -15 -28 -3 -63 -7 -80 -9 -16 -3 -48 -7 -70 -10 -22 -3 -55 -8 -73 -11 -18 -4 -32 -2 -30 2 1 5 -2 27 -6 49 -4 22 -10 55 -12 73 -8 68 -13 98 -19 138 l-7 41 58 7 c33 3 77 9 99 12 22 4 51 8 65 9 14 2 25 4 25 5 0 1 20 4 45 7 25 2 47 6 49 9 10 10 22 -15 23 -47z m-422 32 c0 -12 -39 -21 -45 -11 -3 5 1 11 7 13 21 9 38 8 38 -2z m-233 -37 c-3 -3 -12 -4 -19 -1 -8 3 -5 6 6 6 11 1 17 -2 13 -5z m242 -21 c-1 -10 1 -25 4 -33 5 -14 18 -89 23 -135 1 -11 5 -45 8 -75 5 -49 4 -56 -11 -57 -36 -2 -119 -13 -148 -20 -56 -12 -80 -9 -110 12 -16 12 -45 28 -62 35 -18 7 -33 18 -34 24 -3 44 -12 117 -19 149 -4 20 -5 39 -1 41 3 2 31 9 61 16 30 7 60 16 65 20 6 5 30 10 55 12 25 2 50 6 55 10 6 3 25 6 44 6 18 0 36 3 39 6 12 13 33 5 31 -11z m-494 -20 c-12 -2 -33 -14 -48 -27 -15 -13 -41 -29 -57 -36 -17 -7 -30 -16 -30 -20 0 -4 -8 -10 -17 -13 -10 -4 -29 -14 -42 -24 -22 -16 -21 -13 10 47 33 62 36 65 73 67 21 1 41 5 44 8 3 3 24 4 46 4 23 -1 32 -4 21 -6z m1262 -8 c-4 -8 -2 -17 3 -20 7 -4 7 -13 0 -24 -5 -10 -7 -21 -4 -23 12 -12 14 -61 3 -74 -10 -12 -101 -32 -121 -26 -5 1 -8 -1 -8 -5 0 -5 -15 -8 -32 -7 -18 0 -38 -3 -43 -7 -6 -5 -21 -7 -33 -6 -22 1 -39 36 -40 82 0 11 -4 33 -8 50 -6 26 -5 28 7 15 8 -8 22 -27 31 -41 19 -30 36 -34 118 -28 30 2 111 39 86 39 -5 0 -2 8 6 18 8 9 18 29 22 45 3 15 9 27 12 27 3 0 4 -7 1 -15z m-1772 -25 c3 -6 -1 -7 -9 -4 -18 7 -21 14 -7 14 6 0 13 -4 16 -10z m-71 -12 c-3 -4 -9 -8 -15 -8 -5 0 -9 4 -9 8 0 5 7 9 15 9 8 0 12 -4 9 -9z m-76 -10 c-17 -10 -48 -10 -48 0 0 5 14 9 30 9 20 0 26 -3 18 -9z m300 0 c-3 -7 4 -20 15 -29 11 -8 21 -29 22 -45 1 -16 5 -43 9 -60 6 -26 1 -36 -38 -80 -61 -67 -68 -76 -88 -110 -22 -40 -51 -52 -132 -56 -67 -3 -69 -2 -71 22 -6 54 -15 126 -20 140 -2 8 -7 38 -10 65 -9 73 -10 79 -18 92 -9 15 28 37 49 29 8 -3 25 -1 39 4 23 9 54 13 169 26 21 2 41 6 44 9 11 10 34 5 30 -7z m448 -45 c4 -21 7 -46 6 -57 -1 -10 3 -24 8 -31 17 -21 -2 -25 -71 -17 -48 6 -81 3 -134 -10 -38 -10 -72 -18 -74 -18 -2 0 7 9 20 20 13 11 29 24 36 30 7 5 17 10 23 10 5 0 10 3 10 8 0 4 17 16 38 27 20 11 43 26 50 32 7 7 24 16 38 19 13 3 24 10 24 15 0 5 4 9 9 9 5 0 12 -17 17 -37z m-330 -58 c-20 -20 -23 -19 -23 10 0 21 2 23 18 14 17 -9 18 -12 5 -24z m109 25 c-3 -5 -13 -10 -21 -10 -8 0 -12 5 -9 10 3 6 13 10 21 10 8 0 12 -4 9 -10z m1409 -95 c4 -12 -1 -85 -7 -91 -2 -2 -17 -5 -33 -5 -16 -1 -37 -4 -46 -6 -20 -5 -24 -32 -5 -34 6 -1 26 -2 43 -2 62 -4 67 -28 39 -168 -7 -37 -43 -68 -63 -55 -6 3 -22 2 -36 -4 -15 -5 -46 -11 -70 -14 l-43 -4 -7 52 c-4 28 -9 66 -11 84 -3 17 -7 48 -9 67 -3 20 -8 50 -12 68 -11 48 -10 84 1 85 79 8 125 16 125 21 0 4 16 6 35 6 20 -1 38 2 41 7 7 11 53 6 58 -7z m-1208 -16 c5 -8 8 -8 14 1 9 15 47 -49 42 -72 -2 -10 -13 -20 -25 -22 -46 -10 -123 -19 -135 -17 -8 1 -19 -2 -25 -7 -7 -4 -27 -8 -44 -8 -18 1 -33 -1 -33 -4 0 -3 -22 -7 -50 -8 l-50 -2 0 32 c0 18 4 38 8 44 8 11 93 53 132 64 42 12 158 11 166 -1z m890 -50 c6 -67 33 -244 39 -261 4 -9 -1 -18 -12 -22 -14 -6 -123 -23 -263 -41 -14 -2 -37 -6 -52 -9 -22 -5 -28 -3 -30 11 -4 52 -7 71 -16 106 -9 34 -8 37 12 37 12 0 28 -6 35 -12 6 -7 26 -13 44 -13 26 0 32 -4 30 -20 -2 -11 0 -30 2 -42 5 -21 9 -23 73 -18 69 5 122 21 122 36 0 5 7 9 16 9 11 0 14 5 9 18 -4 9 -9 31 -12 47 -6 35 -21 57 -35 49 -5 -3 -19 3 -31 14 -55 50 -97 55 -97 12 0 -37 -9 -38 -44 -5 -15 14 -32 23 -37 19 -5 -3 -16 -1 -24 6 -11 9 -17 6 -31 -15 -9 -14 -17 -35 -18 -45 0 -11 -5 -20 -11 -21 -12 0 -25 58 -18 78 3 7 0 13 -6 13 -16 0 -14 14 7 36 11 12 30 19 54 19 21 0 38 4 38 8 0 5 8 7 18 6 9 -2 35 1 57 5 22 4 58 10 79 12 21 2 41 6 44 9 3 3 17 4 30 2 18 -3 26 -10 28 -28z m-736 -16 c0 -7 -9 -13 -20 -13 -11 0 -20 4 -20 9 0 5 -3 17 -6 26 -6 14 -3 14 20 4 14 -7 26 -18 26 -26z m-559 -1 c-5 -9 -20 -26 -32 -37 -23 -20 -23 -20 -9 0 41 54 59 70 41 37z m1657 -42 c-2 -6 -8 -6 -18 0 -13 9 -13 11 0 20 15 10 25 0 18 -20z m-773 -17 c3 -21 10 -60 15 -86 6 -27 8 -53 4 -58 -3 -5 -1 -9 3 -9 5 0 8 -18 8 -41 0 -22 2 -42 6 -44 8 -6 10 -75 1 -75 -4 1 -25 25 -46 55 -22 30 -43 55 -48 55 -4 0 -8 4 -8 10 0 5 -16 27 -35 47 -19 21 -46 50 -60 65 -14 15 -25 32 -25 38 0 6 -7 18 -16 27 -22 22 -7 32 56 38 29 3 56 7 58 10 3 3 22 5 43 5 36 0 38 -2 44 -37z m-835 -7 c0 -8 -7 -16 -15 -20 -17 -6 -18 -4 -9 18 8 20 24 21 24 2z m510 -1 c-14 -17 -30 -20 -30 -6 0 5 8 12 18 14 9 3 19 5 21 6 2 0 -2 -6 -9 -14z m-622 -15 c-7 -10 -14 -17 -17 -15 -4 4 18 35 25 35 2 0 -1 -9 -8 -20z m705 -27 c-6 -2 -24 -15 -40 -29 -50 -44 -60 -47 -66 -16 -3 15 0 30 6 34 27 17 50 34 61 45 8 9 16 7 31 -9 13 -13 16 -22 8 -25z m-166 6 c3 -24 -2 -30 -97 -136 -19 -21 -33 -41 -32 -45 1 -5 -5 -8 -13 -8 -16 0 -38 -34 -28 -44 3 -3 -1 -6 -10 -6 -15 0 -21 -11 -18 -32 0 -4 -10 -15 -24 -24 -14 -9 -23 -20 -20 -24 3 -4 -2 -13 -10 -20 -8 -7 -15 -19 -15 -27 0 -27 -43 -11 -45 17 -1 14 -8 59 -14 100 -20 125 -22 134 -23 165 0 17 -5 36 -11 43 -10 13 -10 13 31 18 92 10 113 13 145 22 20 6 38 8 41 5 2 -3 10 -1 18 3 7 4 29 8 50 9 21 1 41 4 45 8 12 13 26 2 30 -24z m-409 -65 c6 -20 8 -42 5 -50 -3 -8 -1 -14 5 -14 5 0 9 -20 8 -45 -1 -25 1 -45 5 -45 6 0 13 -43 23 -137 4 -34 7 -33 -85 -48 -34 -6 -37 -4 -52 28 -10 19 -17 42 -17 50 0 9 -4 18 -10 22 -5 3 -8 21 -6 40 1 19 -1 35 -6 35 -4 0 -5 6 -3 13 2 6 6 33 9 59 2 25 10 57 17 70 7 12 10 25 8 27 -3 3 58 26 82 30 3 1 11 -15 17 -35z m669 -33 c18 -18 35 -42 38 -52 4 -10 12 -19 18 -19 7 0 29 -24 50 -53 l38 -52 -48 -8 c-87 -14 -108 -12 -136 10 -15 11 -27 26 -27 32 0 6 -7 11 -15 11 -8 0 -15 4 -15 10 0 12 -59 70 -71 70 -17 0 -9 26 12 40 12 8 28 22 37 30 46 45 60 42 119 -19z m-916 10 c-24 -46 -51 -112 -51 -125 0 -8 -4 -18 -10 -21 -5 -3 -10 -16 -10 -28 -1 -20 -2 -20 -11 -4 -5 9 -8 21 -4 26 3 5 1 12 -5 16 -5 3 -9 16 -9 28 1 12 -1 41 -4 65 -6 41 -2 47 30 43 6 -1 14 2 16 6 3 5 19 8 36 9 25 1 29 -2 22 -15z m45 -10 c-9 -10 -16 -22 -16 -28 0 -6 -6 -16 -14 -22 -9 -8 -7 4 7 33 11 25 24 43 29 40 5 -3 2 -14 -6 -23z m626 -5 c4 -17 -4 -34 -29 -61 -18 -20 -33 -38 -33 -40 0 -2 -15 -21 -34 -41 -19 -20 -44 -54 -57 -75 -17 -27 -34 -40 -61 -47 -32 -8 -36 -7 -30 7 8 24 124 171 134 171 4 0 8 7 8 15 0 9 7 18 15 21 8 4 15 12 15 19 0 8 9 17 20 20 11 3 20 13 20 21 0 24 27 16 32 -10z m-586 -116 c-2 -33 1 -60 5 -60 4 0 7 -15 7 -34 0 -18 7 -47 16 -64 18 -36 20 -46 6 -37 -5 3 -10 3 -10 -2 0 -4 -15 -8 -32 -7 -18 0 -38 -3 -43 -7 -6 -5 -20 -7 -32 -6 -24 1 -25 25 -3 97 7 25 13 50 12 56 -1 6 5 17 13 24 8 7 15 23 15 37 0 25 30 74 41 67 4 -2 6 -31 5 -64z m599 21 c3 -5 7 -33 10 -63 6 -63 -6 -76 -86 -83 -28 -3 -55 -7 -60 -11 -27 -16 -1 30 52 94 60 71 72 81 84 63z m85 -17 c0 -8 4 -14 9 -14 5 0 28 -18 50 -39 l41 -39 -35 0 c-18 0 -38 -3 -43 -6 -18 -11 -41 20 -45 59 -1 22 -6 46 -10 52 -5 7 0 9 13 6 11 -3 20 -12 20 -19z m974 -29 c-3 -7 -19 -19 -35 -25 -24 -11 -33 -10 -56 6 l-28 18 25 6 c48 13 99 10 94 -5z m-106 -55 c29 -16 37 -27 37 -49 0 -15 -5 -34 -10 -42 -6 -8 -17 -26 -24 -41 -8 -15 -17 -25 -21 -23 -6 4 -20 88 -23 140 0 11 -5 23 -9 26 -5 3 -5 14 -1 25 7 17 8 17 11 2 2 -10 20 -27 40 -38z m-1668 30 c0 -5 -5 -10 -11 -10 -5 0 -7 5 -4 10 3 6 8 10 11 10 2 0 4 -4 4 -10z m1570 -60 c0 -27 3 -50 8 -50 4 0 8 -10 8 -22 2 -23 7 -66 18 -143 9 -58 -7 -72 -95 -86 -41 -6 -83 -13 -94 -14 -11 -1 -40 -6 -65 -10 -40 -8 -80 -8 -88 0 -5 4 -12 49 -14 83 -1 17 -4 32 -7 32 -4 0 -6 16 -6 35 1 20 -2 38 -7 41 -5 3 -6 9 -3 14 3 5 1 28 -5 51 -6 23 -8 45 -3 50 5 5 29 11 53 13 25 3 59 8 75 11 17 3 41 7 55 9 14 3 25 5 25 6 0 1 16 3 35 4 19 1 41 5 48 10 7 4 19 5 27 2 8 -3 15 -1 15 4 0 6 5 10 10 10 6 0 10 -22 10 -50z m-1570 36 c0 -2 -8 -10 -17 -17 -16 -13 -17 -12 -4 4 13 16 21 21 21 13z m1159 -70 c13 -52 6 -60 -26 -30 -14 13 -31 24 -37 24 -6 0 -29 -21 -51 -47 -22 -25 -49 -56 -60 -69 -11 -12 -27 -32 -35 -43 -31 -44 -109 -121 -114 -113 -10 17 1 63 22 92 12 16 22 31 22 34 0 9 59 66 69 66 6 0 11 7 11 15 0 8 4 15 10 15 5 0 23 14 39 31 37 38 89 67 118 65 17 -1 24 -10 32 -40z m-1186 9 c-3 -9 -8 -14 -10 -11 -3 3 -2 9 2 15 9 16 15 13 8 -4z m958 -46 c-12 -10 -21 -22 -21 -28 0 -6 -7 -11 -15 -11 -8 0 -15 -6 -15 -13 0 -7 -9 -18 -20 -25 -11 -7 -20 -19 -20 -27 0 -8 -7 -15 -15 -15 -9 0 -12 6 -9 15 4 8 1 21 -5 29 -9 11 -9 17 1 28 22 24 39 58 33 68 -7 11 40 24 54 15 6 -3 11 -2 11 4 0 5 8 11 18 13 26 5 28 -33 3 -53z m-254 -8 c-6 -24 0 -32 42 -58 34 -21 63 -81 54 -110 -5 -15 -41 2 -61 30 -7 9 -18 17 -24 17 -5 0 -28 14 -51 32 -22 18 -46 33 -53 34 -8 1 -25 11 -39 22 l-25 20 28 7 c15 4 47 9 71 11 24 2 47 6 49 9 10 10 14 4 9 -14z m-207 -31 c0 -10 -7 -23 -47 -87 l-17 -28 -7 40 c-5 29 -2 45 10 62 16 23 61 32 61 13z m-126 -41 c4 -19 0 -31 -14 -44 -19 -17 -21 -17 -55 20 -20 20 -34 39 -32 41 8 8 82 21 88 15 4 -3 9 -18 13 -32z m221 -9 c22 -13 44 -30 48 -37 4 -7 15 -13 23 -13 8 0 36 -16 62 -35 26 -19 56 -41 67 -49 20 -14 20 -14 -2 -38 -13 -13 -23 -28 -23 -34 0 -5 -8 -19 -18 -32 l-18 -23 -34 23 c-19 13 -59 34 -87 47 -29 14 -53 28 -53 32 0 4 -20 19 -45 33 -50 30 -52 34 -30 62 8 10 24 39 35 64 12 24 24 40 28 34 4 -5 25 -21 47 -34z m620 -40 c4 -30 7 -64 8 -75 0 -11 5 -23 10 -26 5 -4 4 -15 -2 -28 -11 -20 -32 -26 -73 -23 -10 1 -18 -2 -18 -7 0 -5 -10 -9 -22 -9 -13 1 -44 -3 -70 -7 -55 -9 -63 3 -25 39 34 34 97 107 97 114 0 4 16 23 35 42 19 19 35 41 35 50 1 32 17 -14 25 -70z m-65 61 c0 -5 -19 -28 -42 -52 -24 -24 -42 -47 -40 -51 1 -5 -5 -8 -13 -8 -10 0 1 20 32 60 46 57 63 71 63 51z m-905 -18 c5 -18 79 -78 119 -98 20 -10 32 -44 40 -120 2 -22 7 -52 11 -66 6 -24 4 -27 -32 -34 -21 -4 -54 -9 -73 -11 -49 -6 -84 -11 -165 -23 -38 -6 -72 -11 -75 -11 -3 0 -6 9 -7 20 -1 14 5 20 20 21 28 2 51 5 57 8 3 1 21 4 39 7 51 6 69 44 19 38 -13 -1 -23 -3 -23 -4 0 -1 -11 -3 -25 -4 -14 -2 -42 -6 -62 -11 -21 -4 -38 -3 -38 1 0 5 -5 41 -11 79 -6 39 -12 99 -14 135 l-2 65 81 11 c120 17 134 16 141 -3z m274 -162 c11 -7 21 -15 21 -20 0 -4 34 -25 75 -46 41 -21 75 -41 75 -45 0 -4 -16 -6 -35 -4 -19 1 -35 -1 -35 -6 0 -4 -10 -8 -22 -8 -13 1 -47 -3 -75 -7 -54 -7 -59 -4 -54 33 1 8 -2 19 -7 25 -4 7 -8 27 -8 45 1 17 -2 32 -6 32 -5 0 -8 5 -8 11 0 12 48 6 79 -10z m475 0 c-10 -10 -21 -16 -24 -14 -3 3 4 11 14 19 28 20 33 17 10 -5z m-171 -83 c-6 -12 -33 -10 -33 2 0 6 6 19 13 30 12 20 12 20 18 -2 3 -13 4 -26 2 -30z m700 28 c20 -16 25 -62 10 -91 -6 -11 -14 -42 -18 -70 -5 -27 -9 -53 -11 -57 -1 -5 -2 -26 -3 -48 -1 -32 -4 -38 -18 -33 -12 5 -14 3 -8 -7 6 -10 4 -12 -8 -7 -10 4 -24 10 -32 13 -9 4 -15 1 -15 -9 0 -8 -7 -17 -15 -21 -8 -3 -15 -14 -15 -25 0 -18 -3 -19 -25 -9 -15 7 -24 19 -24 32 1 12 -4 55 -11 96 -12 81 -15 98 -24 177 l-7 53 46 -3 c25 -1 45 0 45 4 0 3 14 6 31 7 17 0 34 3 37 6 10 11 47 6 65 -8z m-624 -5 c9 -6 10 -11 2 -15 -13 -8 -31 1 -31 15 0 11 11 11 29 0z m706 -12 c-10 -15 -25 -10 -19 6 4 8 10 12 15 9 5 -3 7 -10 4 -15z m-360 -20 c2 -7 8 -48 15 -89 7 -41 13 -86 15 -100 1 -14 5 -38 8 -55 15 -72 13 -98 -8 -102 -45 -8 -125 -14 -125 -9 0 3 14 20 30 38 29 31 39 58 22 58 -4 0 -6 15 -4 33 2 17 -1 45 -7 61 -11 26 -15 28 -50 23 l-39 -5 5 33 c3 21 -2 43 -12 58 -15 23 -19 24 -58 14 -23 -6 -45 -15 -48 -20 -9 -13 7 -66 27 -88 14 -15 14 -21 4 -34 -7 -8 -21 -15 -32 -15 -10 0 -17 -4 -13 -9 3 -5 1 -12 -4 -15 -7 -5 -27 86 -22 107 1 5 -3 24 -8 42 -10 39 -5 43 71 51 72 8 102 12 128 19 14 3 37 6 53 6 15 0 27 5 27 11 0 15 23 4 25 -13z m-421 -124 c5 -28 10 -62 11 -76 2 -15 6 -40 10 -57 3 -17 8 -46 10 -64 1 -18 6 -45 10 -60 6 -25 4 -28 -16 -30 -37 -2 -43 -3 -55 -10 -6 -4 -27 -6 -48 -5 -20 2 -36 0 -36 -5 0 -4 -8 -8 -17 -8 -15 0 -14 2 3 14 10 8 16 18 12 21 -4 4 -3 16 3 26 6 13 6 19 -1 19 -5 0 -10 6 -10 14 0 9 15 17 40 21 25 4 40 12 40 21 0 8 6 14 14 14 14 0 24 39 18 75 -4 26 -60 65 -92 63 -54 -3 -81 -41 -80 -109 0 -22 -4 -26 -29 -27 -38 -1 -70 -33 -73 -72 -1 -16 -4 -30 -5 -30 -8 0 -23 55 -28 102 -11 96 -13 113 -20 140 -8 33 13 47 87 54 28 3 54 6 57 8 3 2 30 7 60 11 69 9 93 13 99 19 11 12 29 -23 36 -69z m-390 -22 c5 -28 17 -109 21 -148 2 -11 6 -42 9 -70 14 -102 15 -99 -29 -107 -78 -14 -241 -40 -277 -44 -30 -3 -38 0 -40 14 -6 68 -15 131 -32 232 -18 106 -14 110 129 126 89 10 130 16 134 19 2 3 21 5 42 5 33 0 38 -3 43 -27z m336 -63 c0 -11 4 -20 9 -20 17 0 -14 -49 -37 -59 -30 -14 -68 9 -67 41 3 45 15 58 56 58 32 0 39 -3 39 -20z m169 -60 c0 -9 -4 -8 -9 5 -5 11 -9 27 -9 35 0 9 4 8 9 -5 5 -11 9 -27 9 -35z m61 6 c1 -29 92 -98 118 -89 6 3 12 0 12 -6 0 -12 -2 -12 -40 -16 -14 -1 -41 -5 -62 -9 -31 -7 -37 -5 -43 13 -3 11 -3 25 0 31 3 5 2 10 -2 10 -5 0 -10 20 -11 45 -1 35 1 43 13 39 8 -4 15 -11 15 -18z m931 -63 c4 -11 6 -34 5 -51 -1 -18 0 -32 3 -32 3 0 6 -30 7 -68 0 -37 3 -88 7 -114 l6 -47 -47 5 c-76 8 -97 11 -102 14 -3 2 -9 4 -15 5 -28 5 -63 25 -68 39 -4 9 -12 16 -18 16 -13 0 -59 41 -59 53 0 5 -7 15 -15 24 -9 8 -19 28 -22 44 -3 16 -9 29 -13 29 -11 0 -21 60 -12 73 4 7 18 13 32 13 14 1 74 4 134 7 59 4 110 8 112 9 12 12 58 -1 65 -19z m-1267 -13 c5 -5 9 -20 9 -35 0 -31 -9 -41 -43 -50 -34 -8 -62 15 -62 50 0 35 28 58 62 50 14 -4 29 -10 34 -15z m283 -22 c-3 -8 -6 -5 -6 6 -1 11 2 17 5 13 3 -3 4 -12 1 -19z m-391 -83 c-3 -8 -9 -15 -15 -15 -10 0 -22 40 -15 52 8 13 36 -21 30 -37z m426 -42 c-14 -30 -17 -32 -23 -14 -12 30 0 59 21 54 18 -5 18 -7 2 -40z m-82 24 c0 -4 31 -225 36 -257 2 -14 7 -50 10 -80 4 -30 9 -57 13 -60 3 -3 7 -24 7 -47 1 -32 -2 -41 -15 -41 -9 0 -50 -5 -91 -12 -162 -25 -238 -31 -245 -20 -3 5 -8 33 -11 62 -8 71 -11 93 -14 93 -1 0 -3 11 -5 25 -5 47 -17 135 -21 160 -2 14 -6 48 -10 76 l-6 51 49 9 c26 4 57 9 68 10 11 1 40 5 65 8 25 3 67 9 95 12 27 3 51 7 54 9 5 6 21 7 21 2z m259 -34 c12 -12 21 -27 21 -33 0 -6 7 -21 15 -33 23 -36 15 -68 -22 -84 -25 -10 -39 -11 -53 -3 -11 6 -20 7 -20 2 0 -16 -92 7 -106 25 -7 10 -14 21 -14 26 0 9 29 64 50 93 26 37 98 40 129 7z m-667 -40 c0 -10 1 -26 0 -35 -1 -10 2 -18 6 -18 4 0 8 -17 9 -38 3 -59 11 -143 18 -192 4 -25 7 -55 6 -67 0 -13 3 -23 8 -23 11 0 26 -78 17 -87 -3 -4 -18 -7 -33 -9 -16 -1 -48 -5 -73 -8 -25 -4 -89 -12 -143 -19 l-97 -13 -9 34 c-6 18 -7 40 -4 48 3 8 1 14 -4 14 -5 0 -8 15 -7 33 2 17 -2 50 -8 72 -20 78 -20 77 -32 173 -2 24 -7 56 -11 71 -4 21 -2 27 12 28 10 0 52 6 93 12 101 16 151 23 178 25 12 0 22 4 22 9 0 4 11 7 25 7 17 0 26 -6 27 -17z m739 -126 c-10 -9 -11 -8 -5 6 3 10 9 15 12 12 3 -3 0 -11 -7 -18z m769 -139 c0 -16 -3 -19 -11 -11 -6 6 -8 16 -5 22 11 17 16 13 16 -11z m-750 -142 c0 -7 -40 -14 -44 -7 -3 4 6 8 20 9 13 1 24 0 24 -2z m-190 -30 c-7 -7 -13 -7 -20 0 -6 6 -3 10 10 10 13 0 16 -4 10 -10z m-75 -6 c-3 -5 -12 -10 -18 -10 -7 0 -6 4 3 10 19 12 23 12 15 0z m-162 -27 c-7 -2 -21 -2 -30 0 -10 3 -4 5 12 5 17 0 24 -2 18 -5z m284 -18 c3 -38 31 -246 38 -288 l5 -28 -53 7 c-28 3 -60 6 -69 6 -9 -1 -22 6 -29 14 -6 8 -18 14 -26 14 -34 0 -97 48 -133 100 -8 13 -21 29 -28 36 -7 8 -11 18 -8 23 3 5 -1 14 -9 21 -8 7 -13 16 -10 20 3 5 1 11 -5 15 -5 3 -10 12 -10 20 0 15 25 22 112 30 31 4 71 10 89 15 18 5 35 7 39 5 4 -2 20 0 36 5 41 12 59 8 61 -15z m-354 8 c-7 -2 -19 -2 -25 0 -7 3 -2 5 12 5 14 0 19 -2 13 -5z m-93 -10 c0 -5 -11 -8 -24 -8 -13 0 -22 3 -19 8 2 4 13 7 24 7 10 0 19 -3 19 -7z m-76 -15 c-3 -4 -11 -5 -19 -1 -21 7 -19 12 4 10 11 0 18 -5 15 -9z m-164 -22 c-7 -7 -13 -7 -20 0 -6 6 -3 10 10 10 13 0 16 -4 10 -10z m-47 -3 c-7 -2 -19 -2 -25 0 -7 3 -2 5 12 5 14 0 19 -2 13 -5z m-125 -12 c10 -6 9 -10 -7 -14 -14 -3 -21 0 -21 9 0 16 9 18 28 5z m-48 -11 c-20 -13 -33 -13 -25 0 3 6 14 10 23 10 15 0 15 -2 2 -10z m230 -20 c0 -5 -7 -7 -15 -4 -8 4 -15 8 -15 10 0 2 7 4 15 4 8 0 15 -4 15 -10z m-160 -16 c0 -3 -7 -18 -16 -34 -20 -33 -13 -57 19 -69 19 -8 23 -16 22 -45 0 -20 3 -36 8 -36 5 0 7 -6 4 -14 -3 -8 -1 -32 5 -53 6 -21 12 -51 14 -68 1 -16 5 -48 9 -70 3 -22 7 -62 10 -90 3 -27 10 -52 16 -54 6 -2 4 -10 -6 -21 -9 -10 -17 -27 -18 -39 -1 -13 -6 -20 -14 -16 -8 3 -18 -6 -24 -22 -10 -27 -5 -39 21 -45 13 -3 16 2 19 37 2 21 31 19 33 -2 2 -24 5 -46 8 -58 2 -5 4 -14 5 -20 1 -5 5 -30 10 -55 4 -25 9 -58 11 -75 9 -82 34 -236 40 -246 3 -5 -5 -10 -18 -11 -29 -1 -39 -3 -58 -11 -44 -17 -52 -4 -66 113 -1 14 -5 48 -9 75 -11 84 -13 98 -19 154 -3 30 -8 56 -10 58 -2 2 0 20 5 40 6 29 4 39 -9 49 -9 7 -14 15 -10 19 3 4 2 20 -3 37 -4 17 -11 54 -15 82 -3 28 -7 60 -9 71 -2 11 -6 45 -9 75 -4 30 -9 62 -11 70 -3 8 -7 38 -10 65 -3 28 -8 66 -11 85 -12 91 -12 115 -4 120 12 8 90 11 90 4z m1587 -46 c22 -25 25 -80 5 -100 -7 -7 -38 -14 -70 -16 -55 -4 -58 -3 -70 23 -11 23 -10 31 4 52 9 14 25 28 35 30 10 3 19 9 19 13 0 5 10 11 23 13 12 2 25 5 28 6 3 0 15 -9 26 -21z m-1411 -20 c2 -28 9 -79 25 -178 6 -41 12 -85 11 -97 0 -13 3 -23 7 -23 4 0 6 -16 6 -35 -1 -19 2 -35 6 -35 5 0 8 -15 7 -33 -1 -19 2 -39 6 -45 4 -7 2 -12 -4 -12 -16 0 -75 50 -76 64 -1 32 -17 93 -27 105 -9 11 -9 15 1 18 6 3 10 8 7 12 -13 22 -23 195 -13 232 4 19 27 49 37 49 3 0 7 -10 7 -22z m1594 -143 c0 -9 -6 -12 -15 -9 -8 4 -12 10 -9 15 8 14 24 10 24 -6z m-158 -124 c51 -60 -1 -130 -85 -114 -54 10 -73 83 -27 104 14 6 32 15 40 20 26 14 55 10 72 -10z m28 -233 c45 -49 12 -111 -60 -111 -44 0 -83 30 -85 64 -2 25 4 32 45 52 47 22 75 21 100 -5z m-1379 -45 c4 -56 6 -71 13 -100 4 -17 9 -51 12 -75 3 -23 7 -56 9 -73 3 -16 7 -48 9 -70 3 -22 10 -64 16 -94 5 -30 9 -55 8 -57 -2 -1 -28 -5 -58 -8 -38 -4 -48 -3 -33 3 16 8 21 18 20 45 -1 20 -5 36 -9 36 -4 0 -7 10 -7 23 1 12 -4 56 -11 97 -7 41 -13 86 -14 100 -2 14 -8 35 -14 47 -10 18 -7 30 18 76 16 30 27 57 23 61 -3 3 -1 6 5 6 7 0 13 -8 13 -17z m1548 -129 c-9 -11 -15 -12 -23 -4 -8 8 -7 13 4 20 20 12 33 1 19 -16z m-272 -106 c15 -6 31 -11 36 -10 4 1 7 -5 7 -13 0 -8 4 -15 9 -15 5 0 11 -11 13 -23 5 -27 -22 -67 -46 -67 -9 0 -16 -4 -16 -10 0 -15 -48 10 -64 34 -7 12 -16 35 -20 53 -6 25 -3 34 16 47 27 19 29 19 65 4z m-178 -239 c17 -17 31 -37 31 -45 0 -8 4 -14 9 -14 13 0 2 -36 -17 -53 -51 -46 -124 -6 -116 63 1 14 3 32 3 41 1 14 32 36 53 38 3 1 20 -13 37 -30z m279 -124 c-11 -11 -37 7 -31 22 5 13 8 13 21 -1 9 -9 13 -18 10 -21z m-1474 -13 c3 -5 -1 -9 -9 -9 -8 0 -15 4 -15 9 0 4 4 8 9 8 6 0 12 -4 15 -8z m573 -122 c-1 -11 -2 -20 -3 -20 -1 0 -10 3 -18 6 -13 5 -14 9 -5 20 16 20 28 17 26 -6z m423 -19 c0 -6 -4 -13 -10 -16 -5 -3 -10 1 -10 9 0 9 5 16 10 16 6 0 10 -4 10 -9z" id="television"/>
    <path d="M28921 15383 c-24 -10 -60 -57 -61 -80 0 -36 18 -73 36 -73 10 0 25 -7 34 -15 35 -32 100 20 104 84 1 17 -4 33 -11 35 -7 3 -13 12 -13 20 0 19 -62 39 -89 29z m82 -78 c9 -48 -52 -79 -88 -45 -27 26 -23 80 6 80 11 0 19 5 19 11 0 19 58 -24 63 -46z"/>
    <path d="M30400 14367 c0 -8 6 -26 13 -40 11 -20 17 -23 25 -15 14 14 16 58 3 58 -5 0 -16 3 -25 6 -10 4 -16 1 -16 -9z"/>
    <path d="M30440 14060 c0 -36 2 -40 18 -31 24 13 25 49 1 61 -17 10 -19 7 -19 -30z"/>
    <path d="M30469 13869 c-10 -67 3 -90 28 -50 10 16 8 22 -8 37 -10 9 -19 15 -20 13z"/>
    <path d="M30420 13555 c0 -8 -10 -20 -22 -26 l-23 -12 24 -11 c19 -8 26 -7 37 9 18 24 18 41 -1 49 -9 3 -15 0 -15 -9z"/>
    <path d="M30207 13306 l-28 -12 26 -12 c37 -17 45 -15 45 13 0 28 -3 29 -43 11z"/>
    <path d="M32010 15472 c0 -9 -50 -32 -67 -32 -7 0 -13 -4 -13 -10 0 -5 -7 -10 -15 -10 -8 0 -15 -4 -15 -9 0 -5 -13 -11 -29 -14 -31 -6 -91 -79 -71 -85 6 -2 6 -10 0 -21 -5 -10 -7 -20 -5 -23 6 -6 21 -189 30 -388 2 -47 4 -85 5 -85 0 0 3 -43 5 -95 3 -52 7 -133 11 -180 3 -47 5 -94 5 -105 0 -11 7 -27 16 -37 22 -24 72 -48 78 -38 3 5 23 11 45 15 22 4 39 10 39 13 -3 19 2 23 16 12 12 -10 16 -9 21 4 5 14 8 14 21 1 8 -9 18 -13 23 -10 5 3 11 -3 14 -13 9 -27 53 -46 104 -45 67 2 92 35 66 88 -6 11 -12 38 -13 60 -2 22 -6 45 -9 50 -4 6 -8 19 -8 30 -5 58 -16 123 -28 172 -8 30 -12 61 -9 69 3 8 0 14 -7 14 -6 0 -8 4 -5 10 3 5 -1 34 -9 64 -7 30 -12 57 -9 59 2 3 -3 32 -12 66 -9 34 -13 66 -10 71 3 6 2 10 -3 10 -8 0 -13 29 -27 148 -2 18 -11 47 -19 65 -8 17 -14 46 -14 62 2 48 -12 112 -25 113 -54 8 -77 9 -77 4z m63 -60 c11 -23 11 -30 1 -40 -7 -7 -17 -12 -22 -12 -5 0 -15 -7 -22 -15 -15 -18 -32 -10 -28 12 3 17 -47 37 -65 26 -6 -3 -7 -1 -3 5 4 7 16 12 27 12 10 0 19 5 19 10 0 6 9 10 20 10 11 0 20 5 20 10 0 22 39 9 53 -18z m-158 -52 c-10 -32 10 -57 44 -54 17 1 28 -2 25 -7 -3 -5 -11 -9 -19 -9 -7 0 -15 -6 -18 -14 -8 -20 2 -116 14 -138 5 -10 8 -22 5 -27 -3 -4 -1 -23 4 -42 6 -19 12 -53 15 -76 l4 -42 -54 -12 c-54 -12 -59 -19 -45 -59 4 -9 -2 -55 -8 -65 -9 -15 -1 -89 10 -96 6 -4 8 -11 5 -16 -3 -5 -1 -27 4 -49 11 -45 21 -116 23 -158 1 -21 -5 -31 -20 -37 -20 -7 -22 -4 -20 22 1 16 0 29 -3 29 -6 0 -12 119 -15 262 0 38 -5 68 -9 68 -4 0 -3 8 2 19 6 10 8 21 6 23 -3 3 -7 43 -10 89 -6 115 -15 244 -21 303 -5 53 13 86 48 86 10 0 18 5 18 10 0 6 5 10 11 10 6 0 8 -8 4 -20z m165 -73 c-10 -10 -12 -9 -7 6 4 9 2 17 -3 17 -5 0 -6 8 -3 17 6 14 8 14 16 -5 8 -17 7 -26 -3 -35z m-55 -7 c3 -5 -1 -10 -10 -10 -9 0 -13 5 -10 10 3 6 8 10 10 10 2 0 7 -4 10 -10z m85 -68 c5 -20 8 -37 7 -38 -1 -1 -20 -7 -42 -13 -44 -12 -56 -2 -60 51 -3 29 7 35 57 35 23 0 30 -6 38 -35z m15 -100 c6 -4 11 -24 13 -44 3 -37 2 -38 -33 -38 -20 0 -35 -5 -35 -12 0 -27 -19 10 -26 49 -6 41 -6 42 27 46 19 2 36 4 39 5 3 1 10 -2 15 -6z m33 -167 c2 -39 0 -43 -24 -48 -44 -8 -64 2 -64 34 0 16 0 32 0 37 -1 4 8 8 20 10 11 2 20 7 20 11 0 5 10 6 23 4 18 -4 22 -12 25 -48z m-171 -62 c3 -16 6 -36 5 -45 0 -10 4 -20 9 -23 5 -4 7 -10 4 -15 -3 -5 1 -35 9 -66 8 -32 13 -61 10 -66 -3 -5 -2 -14 3 -21 5 -7 10 -29 12 -49 2 -36 1 -36 -27 -26 -20 8 -30 19 -30 32 0 12 -5 40 -11 64 -7 23 -9 47 -6 52 3 5 1 11 -5 15 -6 4 -8 11 -5 16 4 5 1 9 -5 9 -7 0 -10 6 -7 14 3 8 -1 38 -8 67 -16 60 -13 69 20 69 18 0 26 -7 32 -27z m60 -15 c-3 -8 -6 -5 -6 6 -1 11 2 17 5 13 3 -3 4 -12 1 -19z m123 -23 c0 -8 4 -15 9 -15 5 0 8 -12 7 -27 -3 -21 -10 -29 -35 -36 -42 -10 -61 5 -61 48 0 39 2 41 45 43 25 1 35 -3 35 -13z m-98 -90 c3 -13 1 -22 -3 -19 -9 5 -13 44 -5 44 2 0 6 -11 8 -25z m136 -72 c-1 -36 -5 -39 -50 -47 -22 -4 -28 0 -34 22 -15 56 -15 58 24 68 47 13 62 2 60 -43z m-111 -95 c-3 -8 -6 -5 -6 6 -1 11 2 17 5 13 3 -3 4 -12 1 -19z m129 -5 c-3 -8 -1 -23 4 -33 12 -22 -3 -33 -59 -45 -32 -7 -34 -6 -28 15 3 12 2 33 -3 45 -8 21 -5 24 28 32 44 11 65 6 58 -14z m21 -117 c-3 -7 0 -19 6 -25 8 -8 7 -11 -5 -11 -9 0 -18 11 -20 25 -4 17 -1 25 9 25 9 0 13 -6 10 -14z m-67 -48 c19 -5 47 -12 63 -15 20 -4 27 -11 27 -29 0 -23 -3 -24 -48 -23 -54 2 -95 28 -107 68 -6 21 -5 23 11 16 11 -4 35 -12 54 -17z m-234 -45 c-3 -3 -13 -2 -23 2 -17 7 -17 8 2 15 19 7 34 -5 21 -17z" id="satelites"/>
    <path d="M31999 14338 c-29 -7 -36 -13 -32 -28 3 -11 14 -22 24 -25 11 -4 17 -11 14 -15 -3 -5 -1 -29 6 -52 6 -24 11 -53 11 -65 0 -13 4 -23 9 -23 5 0 8 -15 7 -33 -1 -19 2 -39 6 -45 3 -6 9 -32 11 -58 8 -71 24 -124 40 -124 7 0 35 5 62 11 l49 12 -8 56 c-5 31 -10 72 -12 92 -3 20 -9 55 -16 78 -6 23 -8 46 -5 51 3 6 1 10 -4 10 -6 0 -11 14 -11 31 0 27 -18 118 -26 127 -7 9 -93 9 -125 0z m99 -26 c-1 -4 3 -34 9 -67 37 -187 44 -223 48 -258 2 -21 6 -41 9 -45 7 -12 -7 -29 -30 -36 -19 -6 -23 -1 -34 44 -7 27 -13 62 -15 77 -13 112 -19 143 -27 143 -6 0 -8 6 -5 14 3 8 0 36 -7 63 -7 26 -11 53 -9 59 4 12 64 17 61 6z" id="tecnologia"/>
    <path d="M30846 13459 c-3 -8 -7 -26 -10 -41 -3 -15 -8 -33 -12 -40 -13 -21 -10 -58 6 -73 9 -8 31 -16 48 -18 18 -2 35 -7 39 -10 11 -11 40 -8 51 6 5 6 12 27 15 45 3 18 11 40 17 48 8 8 8 14 2 14 -5 0 -8 9 -5 20 3 13 0 20 -8 21 -24 2 -33 5 -63 17 -16 7 -35 11 -42 8 -6 -2 -16 0 -22 6 -8 8 -13 7 -16 -3z"/>
    <path d="M 32652 12190 C 32633 12158 32638 12134 32668 12120 C 32691 12109 32692 12106 32676 12102 C 32666 12100 32653 12103 32647 12109 C 32635 12121 32599 12105 32601 12087 C 32605 12057 32597 12055 32511 12055 C 32430 12055 32419 12057 32400 12078 C 32385 12094 32370 12100 32352 12097 C 32337 12095 32330 12095 32335 12097 C 32341 12099 32351 12109 32357 12119 C 32367 12135 32365 12143 32344 12165 C 32318 12193 32287 12193 32264 12164 C 32258 12156 32247 12150 32241 12150 C 32229 12150 32205 12129 32182 12098 C 32171 12084 32172 12078 32188 12062 C 32198 12052 32215 12040 32224 12037 C 32234 12033 32240 12024 32237 12016 C 32234 12008 32244 11992 32258 11979 C 32281 11959 32282 11955 32268 11952 C 32258 11950 32249 11944 32249 11939 C 32248 11934 32247 11926 32246 11921 C 32246 11915 32239 11905 32233 11899 C 32226 11892 32220 11882 32220 11878 C 32220 11861 32176 11810 32161 11810 C 32144 11809 32108 11786 32109 11776 C 32110 11773 32110 11758 32110 11743 C 32110 11722 32107 11719 32101 11729 C 32096 11737 32094 11749 32097 11757 C 32110 11790 32033 11819 32014 11789 C 32004 11773 32002 11700 32012 11694 C 32016 11691 32015 11678 32010 11664 C 31990 11611 32074 11581 32097 11633 C 32103 11645 32103 11667 32099 11683 C 32095 11698 32095 11710 32099 11710 C 32103 11710 32111 11689 32116 11663 C 32123 11624 32129 11614 32148 11612 C 32165 11609 32170 11614 32170 11629 C 32170 11661 32190 11654 32197 11620 C 32200 11604 32205 11590 32209 11590 C 32212 11590 32224 11572 32234 11550 C 32245 11528 32257 11510 32262 11510 C 32274 11510 32272 11462 32260 11455 C 32252 11450 32252 11444 32259 11436 C 32265 11429 32267 11420 32263 11416 C 32259 11412 32267 11399 32281 11387 C 32295 11375 32300 11369 32293 11374 C 32286 11379 32280 11379 32280 11375 C 32280 11371 32273 11373 32265 11380 C 32252 11391 32245 11389 32225 11370 C 32195 11342 32194 11336 32219 11313 C 32245 11289 32336 11240 32354 11240 C 32361 11240 32375 11251 32384 11264 C 32401 11290 32396 11320 32375 11320 C 32369 11320 32355 11330 32344 11341 L 32325 11362 L 32364 11346 C 32400 11331 32404 11331 32422 11347 C 32438 11362 32439 11365 32425 11372 C 32417 11377 32410 11388 32410 11396 C 32410 11407 32417 11409 32438 11404 C 32453 11401 32494 11398 32530 11398 C 32586 11398 32599 11395 32622 11373 C 32644 11352 32655 11349 32681 11354 L 32713 11360 L 32692 11341 C 32665 11318 32665 11302 32691 11271 C 32708 11250 32714 11248 32731 11258 C 32741 11265 32755 11270 32761 11270 C 32767 11270 32778 11276 32785 11283 C 32818 11312 32830 11320 32838 11320 C 32854 11320 32859 11371 32844 11377 C 32836 11380 32830 11388 32830 11396 C 32830 11413 32808 11414 32792 11398 C 32772 11378 32765 11398 32785 11420 C 32807 11444 32798 11474 32771 11467 C 32736 11458 32738 11490 32776 11533 C 32795 11556 32814 11587 32817 11601 C 32822 11627 32863 11656 32880 11645 C 32893 11637 32920 11651 32920 11666 C 32920 11685 32930 11684 32946 11663 C 32962 11640 33017 11639 33023 11661 C 33031 11692 33023 11811 33012 11822 C 32983 11851 32924 11835 32935 11801 C 32937 11792 32936 11779 32931 11772 C 32925 11762 32921 11767 32917 11789 C 32910 11821 32870 11853 32870 11827 C 32870 11819 32861 11810 32851 11807 C 32835 11803 32830 11809 32824 11834 C 32821 11851 32802 11886 32784 11913 C 32750 11960 32741 11993 32760 12005 C 32781 12018 32769 12049 32735 12070 C 32716 12082 32700 12093 32700 12095 C 32700 12103 32727 12093 32750 12077 C 32763 12068 32778 12060 32783 12060 C 32797 12060 32829 12103 32830 12122 C 32830 12139 32797 12164 32788 12154 C 32785 12152 32777 12156 32770 12165 C 32763 12173 32752 12180 32745 12180 C 32738 12180 32727 12187 32720 12195 C 32702 12216 32667 12214 32652 12190 Z M 32715 12142 C 32712 12139 32704 12142 32697 12149 C 32688 12159 32689 12160 32703 12154 C 32713 12151 32718 12145 32715 12142 Z M 32770 12125 C 32780 12113 32780 12110 32767 12110 C 32759 12110 32747 12117 32740 12125 C 32730 12137 32730 12140 32743 12140 C 32751 12140 32763 12133 32770 12125 Z M 32267 12043 C 32258 12034 32247 12030 32243 12034 C 32239 12038 32244 12048 32254 12056 C 32279 12074 32289 12064 32267 12043 Z M 32570 12011 C 32570 12003 32563 11989 32554 11979 C 32542 11965 32541 11957 32550 11941 C 32556 11929 32567 11920 32574 11920 C 32582 11920 32593 11913 32600 11905 C 32607 11896 32615 11892 32618 11894 C 32620 11897 32635 11893 32651 11885 C 32688 11865 32700 11866 32700 11889 C 32700 11899 32706 11913 32713 11919 C 32724 11927 32732 11924 32747 11907 C 32763 11890 32790 11831 32790 11814 C 32790 11812 32772 11810 32751 11810 C 32729 11810 32710 11805 32708 11798 C 32701 11778 32707 11660 32715 11652 C 32718 11648 32736 11645 32753 11644 C 32783 11644 32785 11641 32783 11611 C 32783 11592 32773 11570 32761 11559 C 32749 11548 32740 11535 32740 11529 C 32740 11523 32733 11523 32720 11530 C 32709 11536 32700 11547 32700 11554 C 32700 11561 32691 11575 32680 11585 C 32669 11595 32660 11598 32660 11592 C 32660 11585 32653 11580 32645 11580 C 32638 11580 32627 11574 32623 11568 C 32619 11561 32602 11547 32585 11538 C 32553 11520 32540 11482 32561 11470 C 32567 11465 32570 11455 32567 11447 C 32560 11429 32509 11418 32493 11431 C 32486 11437 32481 11437 32478 11430 C 32476 11424 32466 11426 32452 11436 C 32430 11451 32429 11453 32446 11471 C 32477 11505 32472 11524 32427 11548 C 32404 11560 32380 11570 32374 11570 C 32368 11570 32357 11577 32350 11586 C 32338 11599 32334 11597 32316 11568 C 32305 11550 32295 11533 32294 11531 C 32288 11524 32252 11567 32237 11602 C 32218 11642 32216 11654 32228 11646 C 32233 11643 32253 11645 32272 11650 L 32306 11660 L 32306 11730 C 32306 11803 32302 11809 32251 11816 C 32217 11820 32214 11827 32237 11853 C 32248 11865 32260 11883 32263 11893 C 32267 11902 32274 11910 32280 11910 C 32293 11910 32293 11893 32280 11888 C 32273 11886 32275 11877 32284 11865 C 32296 11848 32301 11847 32326 11860 C 32342 11867 32357 11874 32360 11875 C 32381 11881 32420 11905 32420 11912 C 32420 11916 32426 11920 32433 11920 C 32441 11920 32453 11932 32460 11946 C 32473 11969 32472 11973 32457 11981 C 32417 12004 32455 12029 32528 12027 C 32558 12026 32570 12022 32570 12011 Z M 32990 11720 C 32990 11715 32988 11710 32986 11710 C 32983 11710 32978 11715 32975 11720 C 32972 11726 32974 11730 32979 11730 C 32985 11730 32990 11726 32990 11720 Z M 32306 11315 C 32333 11301 32350 11290 32343 11290 C 32332 11290 32263 11325 32251 11336 C 32241 11346 32260 11338 32306 11315 Z M 32415 13405 C 32407 13391 32393 13368 32384 13353 L 32367 13326 L 32346 13353 L 32325 13379 L 32245 13358 C 32201 13346 32163 13333 32160 13330 C 32157 13326 32140 13315 32121 13304 C 32069 13276 32048 13251 32046 13219 C 32045 13203 32051 13181 32061 13171 C 32070 13161 32090 13128 32106 13097 C 32121 13065 32137 13040 32142 13040 C 32146 13040 32160 13030 32172 13018 C 32186 13004 32195 13000 32198 13008 C 32200 13015 32206 13017 32211 13014 C 32217 13011 32226 13013 32233 13018 C 32240 13023 32263 13038 32285 13049 L 32325 13071 L 32281 13031 C 32257 13009 32229 12988 32219 12985 C 32208 12981 32200 12975 32200 12970 C 32200 12957 32155 12914 32120 12894 C 32104 12884 32090 12871 32090 12865 C 32089 12860 32073 12842 32053 12825 C 32033 12809 31996 12775 31970 12750 C 31943 12725 31892 12678 31855 12645 C 31818 12612 31773 12570 31755 12553 C 31737 12535 31720 12520 31717 12520 C 31714 12520 31689 12498 31662 12470 C 31635 12443 31610 12420 31607 12420 C 31604 12420 31579 12398 31552 12370 C 31525 12343 31497 12320 31491 12320 C 31484 12320 31482 12316 31485 12310 C 31488 12305 31487 12300 31482 12300 C 31477 12300 31455 12282 31432 12260 C 31410 12238 31386 12220 31380 12220 C 31374 12220 31371 12217 31373 12213 C 31375 12208 31358 12189 31334 12170 C 31311 12151 31291 12130 31291 12125 C 31290 12119 31276 12106 31260 12096 C 31224 12075 31180 12033 31180 12020 C 31180 12014 31172 12010 31163 12010 C 31153 12010 31136 11996 31125 11980 C 31114 11963 31097 11947 31088 11944 C 31078 11941 31070 11932 31070 11924 C 31070 11916 31065 11910 31059 11910 C 31049 11910 31012 11878 30918 11788 C 30897 11767 30873 11750 30865 11750 C 30857 11750 30851 11747 30852 11743 C 30855 11734 30743 11620 30733 11620 C 30711 11620 30628 11508 30625 11475 C 30625 11470 30622 11461 30618 11455 C 30609 11440 30628 11320 30642 11305 C 30649 11298 30664 11280 30674 11266 C 30684 11252 30698 11240 30704 11240 C 30710 11240 30721 11231 30728 11220 C 30735 11209 30747 11200 30755 11200 C 30762 11200 30784 11191 30804 11180 L 30838 11159 L 30814 11117 C 30785 11065 30785 11062 30813 11050 C 30825 11044 30842 11036 30850 11030 C 30858 11025 30876 11015 30890 11010 C 30924 10996 30959 10975 30973 10961 C 30979 10955 30991 10950 31000 10950 C 31014 10950 31039 10933 31092 10888 C 31114 10869 31119 10814 31102 10784 C 31089 10761 31130 10727 31170 10728 C 31186 10728 31204 10722 31210 10715 C 31216 10707 31234 10698 31250 10695 C 31266 10692 31284 10682 31291 10674 C 31297 10666 31308 10660 31315 10660 C 31322 10660 31333 10653 31340 10645 C 31347 10636 31355 10632 31358 10634 C 31360 10637 31383 10628 31409 10614 C 31434 10600 31462 10585 31470 10581 C 31478 10577 31496 10567 31510 10560 C 31621 10500 31748 10433 31815 10399 C 31859 10377 31909 10351 31925 10341 C 31942 10331 31958 10324 31961 10326 C 31965 10328 31973 10323 31980 10315 C 31987 10307 31998 10300 32005 10300 C 32012 10300 32023 10294 32029 10286 C 32036 10278 32053 10269 32068 10265 C 32082 10262 32114 10245 32138 10229 C 32161 10213 32185 10200 32190 10200 C 32195 10200 32222 10187 32250 10170 C 32278 10154 32306 10140 32312 10140 C 32318 10140 32331 10133 32341 10124 C 32350 10116 32370 10108 32384 10106 C 32399 10104 32416 10098 32422 10092 C 32429 10085 32440 10080 32447 10080 C 32453 10080 32463 10073 32468 10063 C 32473 10054 32489 10046 32503 10044 C 32518 10043 32545 10029 32564 10015 C 32583 10000 32605 9987 32612 9986 C 32644 9980 32669 9968 32674 9955 C 32677 9947 32686 9940 32693 9940 C 32711 9940 32771 9910 32788 9893 C 32795 9886 32809 9880 32817 9880 C 32826 9880 32848 9869 32866 9855 C 32884 9841 32903 9830 32909 9830 C 32915 9830 32929 9850 32940 9874 C 32951 9899 32964 9922 32970 9925 C 32986 9935 32982 9970 32965 9977 C 32951 9982 32951 9984 32964 9999 C 32972 10008 32978 10017 32978 10020 C 32977 10023 32980 10035 32984 10047 C 32992 10071 33011 10069 33043 10042 C 33052 10034 33060 10030 33060 10034 C 33060 10038 33085 10028 33116 10011 C 33162 9986 33181 9982 33232 9983 C 33270 9985 33295 9990 33298 9998 C 33300 10004 33308 10010 33315 10010 C 33342 10010 33408 10094 33391 10105 C 33385 10108 33386 10123 33391 10143 C 33397 10160 33403 10184 33405 10195 C 33412 10234 33419 10260 33425 10270 C 33428 10276 33426 10280 33419 10280 C 33411 10280 33411 10284 33418 10293 C 33423 10299 33430 10337 33434 10375 C 33438 10414 33443 10459 33446 10475 C 33449 10492 33452 10514 33453 10525 C 33454 10536 33458 10550 33461 10555 C 33464 10561 33466 10597 33465 10635 C 33464 10674 33466 10710 33471 10715 C 33479 10727 33490 10780 33494 10831 C 33495 10850 33499 10870 33502 10876 C 33504 10881 33508 10910 33509 10940 C 33511 10993 33517 11045 33520 11045 C 33523 11045 33527 11076 33534 11150 C 33538 11191 33546 11245 33551 11269 C 33557 11294 33563 11341 33566 11374 C 33570 11436 33573 11459 33584 11519 C 33588 11537 33591 11568 33592 11587 C 33593 11605 33596 11623 33599 11625 C 33603 11627 33607 11659 33608 11697 C 33610 11738 33619 11783 33632 11810 C 33643 11836 33652 11875 33651 11903 C 33650 11955 33624 12069 33609 12085 C 33604 12090 33600 12102 33600 12112 C 33600 12122 33596 12130 33590 12130 C 33585 12130 33580 12136 33580 12143 C 33580 12150 33569 12167 33555 12182 C 33541 12197 33530 12214 33530 12220 C 33530 12226 33517 12244 33500 12260 C 33484 12276 33470 12294 33470 12300 C 33470 12305 33467 12309 33463 12308 C 33458 12307 33437 12322 33416 12343 C 33395 12363 33374 12379 33371 12378 C 33351 12376 33340 12382 33340 12395 C 33340 12404 33334 12407 33325 12404 C 33317 12400 33310 12403 33310 12409 C 33310 12415 33304 12420 33298 12420 C 33291 12420 33255 12434 33218 12452 C 33163 12479 33152 12488 33154 12508 C 33156 12520 33162 12536 33168 12542 C 33175 12549 33180 12566 33180 12580 C 33180 12595 33189 12615 33200 12625 C 33211 12635 33220 12647 33220 12652 C 33220 12663 33245 12715 33300 12820 C 33336 12888 33338 12896 33323 12912 C 33315 12921 33305 12928 33301 12928 C 33290 12925 33245 12943 33210 12965 C 33191 12977 33165 12990 33152 12994 C 33140 12998 33111 13014 33089 13028 C 33066 13043 33045 13055 33041 13056 C 33021 13059 32980 13081 32980 13090 C 32980 13095 32974 13100 32966 13100 C 32959 13100 32947 13107 32940 13115 C 32933 13123 32922 13129 32916 13128 C 32910 13127 32882 13134 32855 13143 C 32827 13153 32777 13162 32744 13164 C 32710 13165 32678 13170 32672 13174 C 32665 13178 32660 13177 32660 13172 C 32660 13168 32644 13165 32625 13166 C 32606 13168 32590 13165 32590 13160 C 32590 13155 32584 13153 32576 13156 C 32559 13163 32479 13139 32420 13111 C 32396 13099 32371 13090 32364 13090 C 32357 13090 32350 13084 32347 13078 C 32345 13071 32340 13068 32336 13071 C 32332 13075 32349 13099 32374 13125 C 32425 13177 32439 13213 32421 13242 C 32409 13262 32406 13263 32471 13229 C 32483 13223 32493 13220 32495 13222 C 32496 13224 32512 13251 32529 13283 C 32564 13346 32564 13365 32528 13380 C 32515 13386 32498 13394 32490 13398 C 32433 13431 32431 13431 32415 13405 Z M 32635 12267 C 32646 12261 32661 12257 32668 12259 C 32676 12260 32693 12254 32707 12245 C 32720 12236 32734 12231 32737 12234 C 32745 12241 32800 12212 32800 12200 C 32800 12195 32809 12189 32820 12185 C 32846 12177 32980 12043 32980 12025 C 32980 12017 32985 12010 32990 12010 C 32996 12010 33000 12001 33000 11990 C 33000 11979 33005 11970 33010 11970 C 33016 11970 33020 11963 33020 11955 C 33020 11946 33027 11928 33036 11915 C 33045 11902 33049 11886 33045 11880 C 33042 11874 33044 11854 33050 11835 C 33066 11787 33070 11729 33059 11708 C 33053 11697 33053 11690 33058 11690 C 33074 11690 33038 11530 33015 11500 C 33002 11482 32984 11445 32970 11407 C 32965 11391 32956 11381 32951 11385 C 32946 11388 32939 11381 32935 11370 C 32932 11359 32925 11350 32920 11350 C 32915 11350 32896 11334 32877 11315 C 32858 11296 32840 11280 32837 11280 C 32834 11280 32811 11267 32787 11250 C 32762 11234 32735 11220 32726 11220 C 32717 11220 32710 11216 32710 11212 C 32710 11186 32454 11161 32401 11182 C 32387 11187 32364 11194 32351 11196 C 32337 11199 32322 11204 32316 11208 C 32310 11211 32301 11215 32295 11215 C 32273 11217 32242 11236 32180 11284 C 32105 11342 32070 11376 32070 11392 C 32070 11398 32059 11413 32045 11426 C 32031 11439 32020 11456 32020 11464 C 32020 11472 32016 11481 32011 11484 C 32006 11487 31996 11514 31990 11542 C 31983 11571 31974 11600 31970 11605 C 31958 11622 31951 11809 31962 11816 C 31966 11818 31969 11828 31968 11838 C 31968 11862 31975 11890 31994 11933 C 32002 11954 32010 11974 32011 11978 C 32018 11998 32053 12050 32061 12050 C 32066 12050 32070 12056 32070 12063 C 32070 12078 32190 12190 32207 12190 C 32214 12190 32220 12195 32220 12200 C 32220 12206 32227 12210 32235 12210 C 32243 12210 32250 12215 32250 12220 C 32250 12226 32258 12230 32268 12230 C 32278 12230 32290 12234 32296 12239 C 32328 12271 32588 12292 32635 12267 Z M 31287 11079 C 31294 11072 31292 11058 31279 11033 C 31255 10985 31248 10979 31231 10989 C 31220 10996 31222 11006 31241 11044 C 31265 11093 31270 11096 31287 11079 Z M 31359 10999 C 31392 10987 31399 10973 31375 10964 C 31359 10958 31307 10993 31317 11004 C 31325 11012 31321 11012 31359 10999 Z M 31500 10970 C 31521 10959 31541 10946 31544 10941 C 31547 10936 31534 10916 31515 10895 C 31484 10863 31477 10860 31463 10872 C 31454 10879 31444 10884 31441 10883 C 31431 10878 31400 10891 31400 10899 C 31400 10904 31410 10920 31423 10936 C 31435 10952 31444 10966 31443 10967 C 31441 10969 31440 10975 31440 10980 C 31440 10995 31456 10992 31500 10970 Z M 31614 10865 C 31625 10865 31635 10850 31625 10850 C 31602 10849 31570 10865 31570 10877 C 31570 10890 31572 10890 31586 10879 C 31595 10871 31608 10865 31614 10865 Z M 31753 10837 C 31779 10828 31785 10802 31766 10781 C 31757 10771 31750 10757 31750 10748 C 31750 10726 31739 10719 31724 10731 C 31717 10737 31699 10745 31683 10749 C 31650 10758 31650 10781 31682 10836 C 31700 10867 31704 10869 31719 10857 C 31728 10849 31743 10840 31753 10837 Z M 31863 10719 C 31853 10709 31800 10727 31800 10740 C 31800 10757 31815 10758 31842 10744 C 31862 10734 31869 10725 31863 10719 Z M 31660 10728 C 31679 10719 31702 10709 31710 10706 C 31718 10702 31739 10691 31755 10680 C 31772 10669 31793 10657 31803 10654 C 31823 10647 31823 10642 31807 10613 C 31796 10593 31793 10592 31770 10605 C 31756 10613 31738 10622 31730 10625 C 31722 10629 31707 10636 31696 10642 C 31634 10675 31604 10693 31597 10700 C 31588 10708 31609 10751 31620 10746 C 31623 10745 31641 10737 31660 10728 Z M 31965 10730 C 31968 10725 32000 10707 32036 10690 L 32101 10660 L 32094 10623 C 32090 10602 32081 10577 32072 10568 C 32058 10551 32055 10551 32021 10572 C 32001 10584 31984 10595 31982 10596 C 31980 10597 31984 10607 31991 10618 C 32001 10635 32001 10641 31991 10654 C 31983 10663 31972 10670 31965 10670 C 31959 10670 31945 10679 31935 10690 C 31920 10706 31920 10712 31930 10725 C 31944 10742 31956 10744 31965 10730 Z M 32188 10564 C 32189 10563 32188 10556 32184 10547 C 32179 10532 32176 10532 32155 10548 C 32126 10570 32132 10594 32163 10577 C 32175 10570 32186 10565 32188 10564 Z M 32010 10545 C 32032 10531 32056 10520 32064 10520 C 32071 10520 32083 10514 32089 10506 C 32095 10499 32126 10480 32158 10465 C 32280 10408 32280 10407 32257 10376 C 32246 10361 32240 10359 32222 10369 C 32210 10375 32200 10378 32200 10374 C 32200 10371 32193 10374 32184 10381 C 32159 10401 32111 10428 32070 10444 C 32062 10448 32042 10459 32025 10470 C 31995 10490 31982 10496 31955 10505 C 31937 10510 31935 10541 31952 10558 C 31967 10573 31964 10574 32010 10545 Z M 32297 10555 C 32314 10546 32333 10533 32339 10526 C 32352 10510 32343 10477 32326 10483 C 32320 10485 32307 10474 32297 10457 C 32281 10431 32277 10429 32262 10442 C 32253 10450 32237 10460 32228 10463 C 32218 10467 32210 10475 32210 10482 C 32210 10494 32257 10570 32264 10570 C 32266 10570 32281 10563 32297 10555 Z M 32405 10450 C 32408 10445 32407 10440 32401 10440 C 32396 10440 32388 10445 32385 10450 C 32382 10456 32383 10460 32389 10460 C 32394 10460 32402 10456 32405 10450 Z M 32450 10434 C 32450 10426 32431 10421 32426 10428 C 32423 10433 32427 10437 32435 10437 C 32443 10437 32450 10435 32450 10434 Z M 32540 10425 C 32547 10417 32558 10410 32565 10410 C 32572 10410 32583 10403 32590 10395 C 32600 10382 32600 10376 32588 10362 C 32579 10353 32569 10335 32566 10323 C 32558 10299 32536 10292 32525 10310 C 32522 10316 32511 10320 32501 10320 C 32463 10320 32456 10346 32479 10395 C 32501 10442 32519 10451 32540 10425 Z M 32675 10320 C 32702 10290 32682 10273 32642 10291 C 32617 10302 32613 10308 32621 10322 C 32634 10346 32653 10345 32675 10320 Z M 32475 10300 C 32486 10290 32506 10279 32519 10275 C 32533 10271 32558 10259 32574 10249 C 32591 10239 32629 10220 32658 10206 C 32715 10179 32717 10175 32695 10143 C 32681 10123 32678 10123 32652 10137 C 32637 10145 32594 10169 32555 10190 C 32517 10211 32464 10238 32439 10250 C 32392 10271 32392 10272 32407 10300 C 32422 10331 32439 10331 32475 10300 Z M 32773 10304 C 32777 10300 32773 10285 32766 10271 C 32758 10257 32749 10237 32746 10228 C 32740 10206 32710 10204 32710 10224 C 32710 10242 32749 10310 32759 10310 C 32763 10310 32770 10307 32773 10304 Z" id="redes"/>
    <path d="M30813 10126 c-8 -17 -25 -51 -39 -76 -27 -51 -30 -70 -11 -70 7 0 24 24 37 53 12 28 28 59 35 67 7 8 15 24 19 36 10 34 -24 25 -41 -10z"/>
    <path d="M30693 9882 c-20 -13 -91 -158 -84 -171 10 -16 18 -6 69 91 38 71 43 97 15 80z"/>
  </g>
</svg>