<svg xmlns="http://www.w3.org/2000/svg" version="1.0" preserveAspectRatio="xMidYMid meet" viewBox="2657.1 1545.57 1014.84 1514.43">
  <g transform="translate(0.000000,4383.000000) scale(0.100000,-0.100000)" fill="#000000" stroke="none">
    <path d="M28463 28362 c-4 -9 -19 -51 -34 -95 l-27 -78 222 -108 c215 -105 5922 -2915 6261 -3083 203 -101 236 -120 342 -209 152 -128 284 -328 352 -535 35 -108 59 -240 45 -253 -5 -5 -279 -11 -621 -13 l-613 -4 0 69 c0 289 -106 606 -282 843 -113 150 -290 299 -455 379 -43 21 -117 58 -165 81 l-86 43 -26 -44 c-14 -24 -26 -49 -26 -55 0 -6 53 -36 118 -67 216 -102 328 -180 463 -320 104 -108 196 -252 246 -388 73 -196 74 -203 83 -754 5 -271 11 -498 13 -505 3 -7 32 -11 78 -11 l74 0 3 288 2 287 603 -2 602 -3 3 -1303 2 -1303 98 3 97 3 3 955 c1 525 -2 1176 -7 1445 -9 484 -9 491 -35 592 -101 386 -323 686 -643 867 -54 30 -1448 719 -3098 1532 -3925 1932 -3585 1767 -3592 1746z"/>
    <path d="M28256 27875 c-4 -12 27 -31 130 -80 127 -60 135 -66 132 -91 -3 -25 8 -32 223 -140 256 -128 295 -158 350 -269 33 -67 34 -74 34 -182 0 -81 3 -113 12 -113 17 0 27 80 20 173 -4 66 -12 93 -40 149 -19 37 -32 68 -29 68 4 0 185 -88 402 -196 217 -108 411 -203 430 -211 35 -15 31 -16 -245 -60 -309 -49 -370 -50 -482 -12 -48 16 -63 25 -63 40 0 15 -42 40 -182 110 -200 100 -245 129 -250 162 -2 15 -20 31 -53 49 -131 71 -246 128 -260 128 -8 0 -22 -15 -31 -32 -9 -18 -18 -34 -19 -36 -2 -2 -30 10 -64 27 -33 17 -67 31 -76 31 -16 0 -55 -68 -55 -96 0 -9 13 -35 28 -58 15 -22 167 -315 337 -650 l310 -609 171 -191 171 -191 154 -99 c85 -55 363 -236 619 -402 l465 -303 160 -177 c157 -174 161 -179 236 -328 42 -83 93 -182 114 -220 29 -52 45 -100 66 -200 15 -72 35 -165 44 -206 9 -41 20 -106 25 -145 5 -38 25 -144 45 -235 19 -91 63 -295 96 -454 33 -160 63 -295 68 -300 4 -6 30 -116 56 -244 l49 -233 115 -223 116 -224 164 -182 c161 -178 168 -185 310 -278 80 -52 166 -112 190 -133 24 -22 54 -39 66 -39 24 0 56 11 275 90 80 29 186 68 235 86 94 34 260 95 429 157 54 21 106 37 115 37 9 0 34 10 56 21 22 12 87 39 145 59 58 21 143 53 190 70 101 38 180 60 235 67 55 6 121 -29 160 -85 27 -39 30 -53 33 -135 2 -51 9 -98 14 -104 7 -9 44 -13 119 -13 l109 0 1 63 c2 267 -3 563 -10 570 -4 4 -39 7 -77 5 l-69 -3 -3 -112 c-1 -64 -7 -113 -12 -113 -13 0 -13 -37 0 -45 6 -4 10 -70 10 -166 l0 -160 -22 3 c-21 3 -23 10 -29 89 -10 155 -86 239 -214 239 -53 0 -271 -65 -350 -104 -16 -8 -43 -17 -59 -20 -30 -5 -140 -47 -186 -71 -14 -7 -81 -32 -150 -55 -69 -23 -150 -52 -180 -65 -154 -65 -675 -244 -711 -245 -37 0 -133 50 -289 152 -128 83 -143 97 -297 265 l-162 178 -114 225 -114 225 -47 223 c-25 123 -46 235 -46 249 0 34 -197 964 -209 983 -5 9 -30 117 -56 240 l-48 225 -118 235 -118 235 -165 184 c-144 160 -189 202 -278 256 -22 13 -703 456 -948 617 l-195 127 -157 177 -158 177 -291 576 c-160 317 -299 590 -309 606 -17 29 -34 95 -25 95 3 0 208 -99 456 -220 248 -122 476 -227 507 -235 121 -32 189 -30 472 15 291 46 399 49 494 15 28 -9 276 -129 553 -265 l503 -248 20 26 c12 14 19 33 18 41 -2 10 -574 297 -1488 748 -817 402 -1488 732 -1491 732 -4 1 -9 -6 -13 -14z m1789 -955 c4 -6 -22 -10 -72 -10 -43 0 -197 -18 -343 -41 l-265 -41 -90 14 c-88 15 -180 46 -160 54 6 2 38 -5 70 -16 106 -37 200 -35 470 9 239 39 378 50 390 31z"/>
    <path d="M 30135 26656 C 30028 26623 29929 26533 29877 26422 C 29847 26359 29845 26348 29845 26244 C 29845 26135 29846 26132 29884 26056 C 29932 25961 30013 25882 30097 25849 C 30146 25829 30173 25825 30275 25825 C 30384 25825 30400 25827 30452 25852 C 30645 25942 30744 26166 30681 26369 C 30654 26455 30620 26509 30550 26573 C 30503 26617 30475 26634 30424 26650 C 30347 26673 30200 26676 30135 26656 Z M 30443 26602 C 30595 26527 30687.436 26375.339 30667 26208 C 30650.79 26075.263 30521.388 25910.534 30444 25889 C 30375.065 25869.818 30370 25855 30276 25855 C 30182 25855 30170 25857 30108 25888 C 29968 25956 30197.195 25809.421 30344.206 25844.418 C 30453.787 25870.504 30572.807 25936.716 30613.121 26022.272 C 30949.298 26735.726 30025.009 26689.587 30094 26597 C 30142.369 26532.089 30193 26639 30291 26637 C 30365 26634 30387 26629 30443 26602 Z M 32814 16952 C 32800 16934 32770 16918 32729 16905 C 32582 16859 32432 16722 32352 16561 L 32305 16467 L 32302 16299 C 32298 16148 32300 16124 32319 16067 C 32372 15910 32497 15763 32640 15690 C 32737 15641 32840 15616 32855 15639 C 32858 15644 32902 15649 32953 15649 C 33003 15649 33077 15655 33115 15662 L 33185 15676 L 33401 16086 C 33534 16336 33624 16496 33634 16498 C 33643 16500 33653 16495 33656 16486 C 33659 16478 33576 16308 33456 16079 C 33343 15864 33250 15683 33250 15678 C 33250 15673 33257 15670 33266 15672 C 33275 15674 33367 15838 33486 16065 C 33599 16279 33702 16474 33716 16498 C 33730 16522 33740 16543 33738 16545 C 33728 16555 32855 16980 32846 16979 C 32840 16979 32825 16967 32814 16952 Z M 33029 16801 C 33046 16790 33036 16760 33015 16760 C 33006 16760 33000 16769 33000 16785 C 33000 16812 33006 16815 33029 16801 Z M 32740 16740 C 32749 16724 32748 16718 32736 16714 C 32715 16706 32700 16717 32700 16741 C 32700 16766 32726 16766 32740 16740 Z M 33160 16730 C 33160 16725 33156 16720 33150 16720 C 33145 16720 33140 16725 33140 16730 C 33140 16736 33145 16740 33150 16740 C 33156 16740 33160 16736 33160 16730 Z M 32677 16705 C 32685 16683 32671 16672 32660 16690 C 32647 16710 32648 16720 32660 16720 C 32666 16720 32673 16713 32677 16705 Z M 33224 16701 C 33230 16691 33193 16654 33184 16662 C 33178 16669 33201 16710 33212 16710 C 33216 16710 33221 16706 33224 16701 Z M 32998 16679 C 32996 16673 32991 16669 32987 16669 C 32983 16670 32967 16670 32950 16670 C 32934 16670 32920 16675 32920 16680 C 32920 16686 32938 16690 32961 16690 C 32986 16690 33000 16686 32998 16679 Z M 32610 16659 C 32630 16623 32587 16592 32561 16624 C 32551 16636 32552 16643 32567 16658 C 32590 16684 32597 16684 32610 16659 Z M 33290 16666 C 33290 16663 33286 16658 33280 16655 C 33275 16652 33270 16654 33270 16659 C 33270 16665 33275 16670 33280 16670 C 33286 16670 33290 16668 33290 16666 Z M 33120 16650 C 33120 16645 33118 16640 33116 16640 C 33113 16640 33108 16645 33105 16650 C 33102 16656 33104 16660 33109 16660 C 33115 16660 33120 16656 33120 16650 Z M 33002 16629 C 33087 16611 33157 16571 33212 16510 C 33239 16480 33263 16444 33266 16430 C 33270 16416 33281 16376 33291 16341 C 33310 16279 33309 16240 33289 16240 C 33284 16240 33280 16247 33280 16255 C 33280 16279 33202 16357 33155 16380 C 33130 16392 33079 16404 33034 16408 L 32955 16415 L 32925 16500 C 32908 16547 32889 16595 32883 16607 C 32873 16624 32873 16629 32883 16633 C 32904 16642 32947 16640 33002 16629 Z M 33374 16621 C 33390 16604 33389 16602 33366 16587 C 33344 16572 33341 16572 33325 16590 C 33310 16606 33310 16612 33320 16625 C 33337 16645 33353 16644 33374 16621 Z M 32804 16553 C 32807 16526 32813 16493 32816 16478 C 32821 16455 32819 16451 32794 16448 C 32770 16446 32764 16439 32762 16416 C 32760 16400 32764 16376 32771 16364 C 32782 16343 32779 16337 32747 16301 C 32708 16258 32686 16220 32676 16177 C 32666 16137 32653 16152 32640 16218 C 32623 16302 32621 16307 32600 16313 C 32589 16316 32580 16325 32580 16334 C 32580 16363 32621 16458 32651 16499 C 32680 16539 32761 16600 32786 16600 C 32792 16600 32800 16579 32804 16553 Z M 33550 16544 C 33572 16535 33590 16526 33590 16524 C 33590 16521 33576 16492 33559 16458 C 33537 16414 33525 16401 33517 16409 C 33509 16417 33510 16426 33519 16444 C 33532 16468 33531 16479 33505 16543 C 33496 16564 33499 16564 33550 16544 Z M 33313 16476 C 33359 16396 33384 16253 33354 16243 C 33346 16240 33339 16262 33335 16302 C 33327 16374 33298 16457 33270 16493 C 33251 16517 33253 16534 33274 16527 C 33280 16525 33297 16502 33313 16476 Z M 32550 16468 C 32550 16457 32531 16458 32493 16472 C 32462 16483 32452 16499 32466 16513 C 32473 16520 32550 16479 32550 16468 Z M 33448 16465 C 33430 16448 33370 16429 33370 16440 C 33370 16453 33443 16490 33453 16483 C 33458 16480 33456 16472 33448 16465 Z M 32905 16440 C 32919 16413 32919 16410 32901 16401 C 32877 16388 32870 16396 32870 16437 C 32870 16478 32885 16479 32905 16440 Z M 32440 16410 C 32440 16405 32436 16400 32430 16400 C 32425 16400 32420 16405 32420 16410 C 32420 16416 32425 16420 32430 16420 C 32436 16420 32440 16416 32440 16410 Z M 33480 16411 C 33480 16397 33471 16393 33423 16385 C 33372 16377 33365 16392 33413 16408 C 33455 16421 33480 16422 33480 16411 Z M 32470 16400 C 32470 16395 32468 16390 32466 16390 C 32463 16390 32458 16395 32455 16400 C 32452 16406 32454 16410 32459 16410 C 32465 16410 32470 16406 32470 16400 Z M 32503 16353 C 32534 16345 32512 16336 32467 16339 C 32419 16342 32407 16347 32416 16361 C 32421 16370 32454 16367 32503 16353 Z M 33108 16335 C 33182 16303 33229 16233 33230 16152 C 33230 16099 33214 16067 33158 16013 C 33078 15935 32965 15904 32873 15934 C 32731 15981 32690 16160 32796 16266 C 32840 16309 32860 16310 32860 16270 C 32860 16251 32869 16230 32885 16215 C 32953 16146 33061 16247 33004 16328 C 32989 16350 32989 16350 33030 16350 C 33052 16350 33087 16343 33108 16335 Z M 32959 16309 C 32997 16296 32999 16272 32966 16241 C 32924 16201 32879 16236 32894 16296 C 32901 16323 32912 16325 32959 16309 Z M 33454 16255 C 33450 16247 33446 16240 33444 16240 C 33442 16240 33440 16247 33440 16255 C 33440 16263 33444 16270 33450 16270 C 33455 16270 33457 16263 33454 16255 Z M 32478 16153 C 32476 16143 32465 16134 32452 16132 C 32435 16129 32430 16134 32430 16149 C 32430 16165 32436 16170 32456 16170 C 32475 16170 32481 16165 32478 16153 Z M 32634 16094 C 32637 16086 32636 16082 32630 16085 C 32624 16088 32620 16095 32620 16101 C 32620 16115 32627 16112 32634 16094 Z M 32505 16050 C 32484 16027 32470 16024 32470 16044 C 32470 16059 32484 16068 32509 16069 C 32520 16070 32519 16065 32505 16050 Z M 33280 16044 C 33280 16030 33217 15960 33204 15960 C 33185 15960 33185 15961 33227 16008 C 33261 16047 33280 16059 33280 16044 Z M 32520 15976 C 32520 15973 32516 15968 32510 15965 C 32505 15962 32500 15964 32500 15969 C 32500 15975 32505 15980 32510 15980 C 32516 15980 32520 15978 32520 15976 Z M 32602 15928 C 32585 15910 32567 15900 32563 15904 C 32559 15908 32570 15925 32589 15941 C 32634 15978 32643 15969 32602 15928 Z M 32620 15875 C 32613 15866 32605 15862 32603 15864 C 32596 15871 32610 15890 32622 15890 C 32628 15890 32628 15884 32620 15875 Z M 33243 15874 C 33246 15870 33245 15858 33239 15848 C 33226 15824 33204 15839 33213 15864 C 33220 15881 33232 15885 33243 15874 Z M 32714 15827 C 32707 15807 32680 15804 32680 15823 C 32680 15842 32702 15862 32712 15852 C 32717 15847 32718 15836 32714 15827 Z M 32878 15794 C 32911 15785 32905 15745 32870 15745 C 32850 15745 32844 15751 32842 15773 C 32838 15802 32841 15803 32878 15794 Z M 33048 15773 C 33046 15756 33038 15744 33028 15742 C 33014 15739 33010 15745 33010 15769 C 33010 15794 33014 15800 33031 15800 C 33047 15800 33051 15795 33048 15773 Z M 32980 15771 C 32980 15760 32976 15748 32970 15745 C 32964 15741 32960 15750 32960 15764 C 32960 15778 32965 15790 32970 15790 C 32976 15790 32980 15781 32980 15771 Z" style="" id="submarino"/>
    <path d="M29474 26606 c-3 -7 -4 -42 -2 -77 l3 -64 83 -3 82 -3 0 81 0 80 -80 0 c-59 0 -82 -4 -86 -14z"/>
    <path d="M31257 26363 c-13 -21 -43 -78 -67 -128 -23 -49 -60 -125 -81 -168 -38 -77 -47 -107 -31 -107 4 0 6 -17 4 -39 -3 -32 0 -42 24 -60 18 -14 28 -32 29 -49 0 -24 12 -33 120 -89 135 -70 169 -77 187 -37 9 20 9 30 0 45 -7 10 -10 19 -7 19 14 0 215 -100 215 -107 0 -5 -5 -14 -11 -20 -18 -18 -1 -51 31 -58 26 -6 29 -10 24 -31 -6 -23 5 -30 219 -134 124 -61 233 -110 244 -110 10 0 24 9 31 21 16 26 5 42 -51 70 -30 16 -36 23 -27 34 6 7 22 16 35 19 21 5 41 38 111 179 47 94 97 186 110 204 13 17 24 35 24 38 0 4 -132 71 -294 151 -215 105 -295 149 -299 164 -4 15 -14 20 -41 20 -26 0 -96 30 -246 105 -115 58 -214 105 -220 105 -5 0 -20 -17 -33 -37z m83 -113 c0 -22 -31 -70 -45 -70 -18 0 -18 7 -4 49 7 20 18 31 30 31 10 0 19 -5 19 -10z m155 -103 c-8 -29 -35 -58 -35 -38 0 17 30 74 36 68 3 -3 2 -16 -1 -30z m-216 -14 c0 -10 -19 -56 -43 -103 -32 -65 -48 -86 -65 -88 -13 -2 -22 0 -20 5 43 97 102 203 114 203 8 0 15 -8 14 -17z m294 11 c8 -9 -31 -84 -44 -84 -19 0 -21 29 -3 59 18 30 34 38 47 25z m63 -38 c7 -19 -23 -76 -41 -76 -25 0 -27 20 -5 55 23 37 37 44 46 21z m-232 -150 c-33 -75 -54 -106 -54 -77 0 18 84 184 88 173 2 -6 -14 -49 -34 -96z m116 68 c0 -10 -79 -169 -94 -189 -11 -15 -17 -17 -27 -8 -18 18 75 203 102 203 10 0 19 -3 19 -6z m299 -7 c13 -17 -7 -77 -26 -77 -18 0 -143 63 -143 72 0 4 33 9 73 11 39 1 75 4 78 5 4 1 12 -4 18 -11z m-241 -20 c8 -9 0 -34 -29 -92 -47 -93 -55 -103 -70 -88 -8 8 -6 23 9 55 12 23 30 64 41 91 21 49 31 56 49 34z m132 -62 l69 -35 -31 -67 c-18 -38 -40 -82 -51 -100 l-18 -32 -75 37 c-41 20 -74 40 -74 43 0 17 91 189 100 189 6 0 42 -16 80 -35z m223 0 c-3 -37 -28 -64 -45 -47 -9 9 -8 20 5 48 20 41 43 40 40 -1z m77 -14 c0 -29 -24 -71 -41 -71 -23 0 -25 27 -3 58 15 21 44 30 44 13z m35 -61 c-9 -18 -19 -30 -21 -27 -3 3 2 19 11 37 9 18 19 30 21 27 3 -3 -2 -19 -11 -37z m-163 -16 c10 -9 -75 -184 -89 -184 -29 0 -23 32 18 110 39 73 56 90 71 74z m71 -40 c-5 -26 -94 -204 -102 -204 -27 0 -19 45 24 130 35 69 50 90 63 88 9 -3 16 -8 15 -14z m287 1 c0 -23 -29 -75 -41 -75 -19 0 -21 29 -3 59 19 33 44 41 44 16z m-281 -121 c-44 -97 -46 -100 -54 -92 -3 3 15 47 40 98 26 50 48 90 51 88 2 -3 -14 -45 -37 -94z m228 9 c2 -6 -10 -21 -27 -33 -34 -24 -41 -10 -14 28 16 23 35 25 41 5z m-486 -96 c-10 -9 -11 -8 -5 6 3 10 9 15 12 12 3 -3 0 -11 -7 -18z m439 -2 c0 -2 -11 -30 -25 -62 -23 -52 -27 -55 -41 -41 -19 19 -12 46 21 82 21 23 45 34 45 21z" id="tronco"/>
    <path d="M32388 25815 c-10 -13 -18 -29 -18 -35 0 -10 400 -210 418 -210 10 0 52 76 52 92 0 8 -72 49 -159 93 -132 65 -162 77 -175 66 -12 -10 -20 -9 -45 3 -40 21 -53 20 -73 -9z"/>
    <path d="M30234 25767 c-3 -8 -4 -45 -2 -83 l3 -69 83 -3 82 -3 0 86 0 85 -80 0 c-58 0 -82 -4 -86 -13z"/>
    <path d="M26600 25449 c0 -19 25 -72 71 -150 l70 -119 75 0 c41 0 74 4 74 9 0 6 -16 36 -35 68 -19 32 -35 64 -35 71 0 9 67 12 300 12 l300 0 0 70 0 70 -410 0 -410 0 0 -31z"/>
    <path d="M27047 24780 c-91 -23 -181 -99 -208 -176 -22 -62 -18 -190 7 -245 27 -58 78 -110 140 -140 68 -33 196 -34 269 -1 110 50 169 144 169 272 0 127 -59 223 -166 270 -55 24 -156 33 -211 20z m184 -172 c46 -25 69 -65 69 -118 0 -56 -23 -96 -68 -119 -89 -45 -181 -35 -244 29 -34 34 -38 43 -38 88 0 72 44 123 125 143 43 11 114 1 156 -23z"/>
    <path d="M31480 24370 c0 -5 -11 -10 -25 -10 -15 0 -28 -7 -32 -17 -8 -21 -103 -112 -118 -113 -15 0 -35 -50 -35 -87 0 -18 -4 -33 -10 -33 -5 0 -10 -22 -10 -49 0 -28 5 -53 10 -56 6 -3 10 -21 10 -39 0 -45 27 -96 50 -96 22 0 35 -16 21 -25 -19 -11 0 -32 39 -45 22 -7 42 -21 45 -32 5 -14 16 -18 54 -18 27 0 68 -7 91 -15 57 -20 68 -19 72 8 2 17 12 23 38 28 57 9 78 20 95 45 8 13 22 24 29 24 18 0 66 64 66 88 0 11 9 31 20 45 24 30 26 79 5 97 -21 18 -19 41 5 47 29 8 25 23 -20 83 -22 29 -40 61 -40 71 0 10 -8 20 -17 23 -10 4 -31 24 -46 46 -30 42 -52 50 -71 26 -8 -12 -21 -13 -56 -7 -91 17 -170 22 -170 11z m189 -51 c17 -6 31 -15 31 -19 0 -10 -59 8 -74 21 -14 12 4 11 43 -2z m101 -31 c13 -17 16 -28 9 -41 -12 -22 -3 -39 21 -35 20 3 60 -28 60 -48 0 -16 -87 31 -99 54 -12 23 -23 92 -16 92 4 0 15 -10 25 -22z m-165 -48 c-28 -12 -65 -12 -65 0 0 6 19 10 43 9 32 0 37 -2 22 -9z m-243 -42 c-7 -7 -12 -8 -12 -2 0 14 12 26 19 19 2 -3 -1 -11 -7 -17z m119 3 c-11 -19 -51 -36 -51 -21 0 10 40 40 53 40 4 0 3 -8 -2 -19z m369 -114 c0 -18 -7 -42 -15 -53 -14 -18 -14 -18 -15 11 0 39 10 75 21 75 5 0 9 -15 9 -33z m-80 -13 c0 -8 -4 -12 -10 -9 -5 3 -10 13 -10 21 0 8 5 12 10 9 6 -3 10 -13 10 -21z m-349 -82 c8 -39 -5 -33 -20 9 -8 23 -8 30 2 26 6 -2 14 -18 18 -35z m289 -57 c0 -21 -53 -51 -102 -59 -49 -8 -55 -4 -40 29 8 18 20 25 39 26 16 0 37 4 48 9 32 14 55 11 55 -5z m-332 -20 c17 -36 15 -41 -8 -20 -20 18 -27 45 -12 45 5 0 14 -11 20 -25z m113 15 c10 0 19 -6 19 -14 0 -27 -18 -27 -47 0 -19 18 -22 24 -10 20 10 -3 27 -6 38 -6z m9 -89 c0 -23 -29 -33 -65 -21 -19 6 -33 16 -30 21 8 12 95 12 95 0z m65 -35 c36 -29 30 -40 -13 -25 -21 7 -32 18 -32 30 0 25 9 24 45 -5z m115 15 c0 -10 -25 -21 -48 -21 -15 1 -14 3 2 15 22 17 46 20 46 6z" id="flores"/>
    <path d="M 33547 24341 C 33537 24313 33532 24311 33475 24308 L 33415 24305 L 33412 24249 C 33410 24202 33406 24191 33390 24187 C 33363 24180 33363 24140 33390 24133 C 33402 24130 33410 24119 33410 24108 C 33410 24090 33404 24088 33338 24090 C 33298 24092 33244 24092 33218 24091 C 33170 24090 33170 24090 33170 24055 C 33170 24032 33175 24020 33184 24020 C 33205 24020 33210 23997 33210 23899 C 33210 23829 33207 23808 33195 23804 C 33186 23800 33180 23785 33180 23764 L 33180 23730 L 33300 23730 L 33420 23730 L 33420 23695 L 33420 23660 L 33490 23660 C 33558 23660 33560 23659 33560 23636 C 33560 23622 33563 23609 33568 23607 C 33572 23604 33658 23601 33760 23599 L 33945 23595 L 33963 23633 C 33980 23667 33985 23670 34026 23670 C 34057 23670 34072 23675 34077 23686 C 34080 23694 34093 23706 34106 23710 C 34129 23719 34130 23721 34132 23897 L 34135 24074 L 34160 24080 C 34195 24088 34197 24123 34166 24161 C 34145 24186 34140 24202 34140 24246 C 34140 24291 34135 24305 34111 24332 L 34082 24365 L 33820 24368 L 33559 24371 L 33547 24341 Z M 34025 24256 C 34035 24241 34040 24216 34038 24193 L 34035 24155 L 33963 24152 L 33890 24149 L 33890 24115 L 33890 24081 L 33963 24078 L 34035 24075 L 34042 23910 C 34050 23717 34045 23700 33981 23700 C 33947 23700 33942 23703 33934 23733 C 33927 23755 33917 23766 33902 23768 C 33884 23771 33880 23767 33880 23743 C 33880 23692 33871 23690 33676 23690 C 33535 23691 33491 23694 33476 23705 C 33459 23718 33457 23739 33452 23980 C 33448 24221 33449 24242 33465 24260 C 33482 24279 33496 24280 33746 24280 L 34010 24280 L 34025 24256 Z M 34083 24267 C 34086 24259 34084 24247 34079 24239 C 34073 24229 34070 24232 34070 24253 C 34070 24282 34075 24288 34083 24267 Z M 34150 24120 C 34150 24114 34107 24111 34038 24112 C 33932 24113 33929 24114 33995 24120 C 34109 24131 34150 24131 34150 24120 Z M 34095 24071 C 34098 24066 34096 24059 34090 24055 C 34085 24052 34080 24056 34080 24064 C 34080 24082 34086 24085 34095 24071 Z M 33293 24053 C 33280 24051 33258 24051 33243 24053 C 33227 24055 33238 24057 33265 24057 C 33293 24057 33305 24055 33293 24053 Z M 33383 24053 C 33370 24051 33350 24051 33338 24053 C 33325 24055 33335 24057 33360 24057 C 33385 24057 33395 24055 33383 24053 Z M 33260 23999 C 33260 23993 33256 23992 33250 23995 C 33245 23998 33240 24006 33240 24011 C 33240 24017 33245 24018 33250 24015 C 33256 24012 33260 24004 33260 23999 Z M 33395 23910 C 33395 23836 33391 23805 33383 23803 C 33373 23799 33370 23825 33370 23910 C 33370 23995 33373 24021 33383 24018 C 33391 24015 33395 23984 33395 23910 Z M 33278 23763 C 33268 23761 33250 23761 33238 23763 C 33225 23765 33233 23767 33255 23767 C 33277 23768 33287 23766 33278 23763 Z M 33343 23763 C 33336 23761 33322 23761 33313 23763 C 33303 23766 33309 23768 33325 23768 C 33342 23768 33349 23766 33343 23763 Z M 33413 23763 C 33406 23761 33394 23761 33388 23763 C 33381 23766 33386 23768 33400 23768 C 33414 23768 33419 23766 33413 23763 Z M 33758 23633 C 33731 23631 33689 23631 33663 23633 C 33636 23635 33658 23636 33710 23636 C 33762 23636 33784 23635 33758 23633 Z M 33910 23630 C 33910 23625 33906 23620 33900 23620 C 33895 23620 33890 23625 33890 23630 C 33890 23636 33895 23640 33900 23640 C 33906 23640 33910 23636 33910 23630 Z M 32852 25606 C 32840 25582 32830 25558 32830 25551 C 32830 25545 32821 25540 32809 25540 C 32797 25540 32766 25528 32739 25513 C 32698 25490 32684 25474 32655 25417 C 32618 25345 32613 25321 32630 25304 C 32637 25297 32613 25237 32555 25117 C 32507 25020 32467 24940 32464 24940 C 32461 24940 32437 24951 32410 24965 C 32323 25009 32263 24993 32280 24930 C 32289 24895 32282 24880 32255 24880 C 32208 24880 32170 24792 32203 24758 C 32209 24751 32220 24732 32225 24716 C 32243 24665 32263 24661 32317 24699 C 32355 24726 32367 24730 32379 24721 C 32388 24714 32430 24693 32472 24672 C 32536 24642 32550 24631 32550 24612 C 32550 24580 32568 24550 32586 24550 C 32594 24550 32605 24539 32609 24526 C 32620 24499 32638 24490 32687 24490 C 32761 24490 32841 24619 32773 24628 C 32760 24630 32750 24634 32750 24636 C 32750 24649 32775 24686 32793 24700 C 32822 24724 32809 24766 32765 24792 C 32746 24803 32730 24814 32730 24816 C 32730 24824 32892 25145 32902 25157 C 32909 25166 32919 25165 32944 25153 L 32976 25138 L 32960 25032 L 32944 24925 L 32907 24928 C 32856 24933 32834 24924 32821 24892 C 32812 24871 32812 24857 32820 24839 C 32854 24764 32993 24582 33028 24569 C 33060 24557 33101 24565 33134 24591 C 33147 24602 33180 24614 33206 24619 C 33261 24629 33290 24658 33290 24700 C 33290 24731 33259 24776 33230 24785 C 33206 24792 33205 24820 33223 24925 C 33234 24986 33238 24995 33258 24998 C 33275 25001 33290 25020 33315 25070 C 33354 25147 33360 25206 33335 25274 C 33322 25310 33323 25318 33341 25356 C 33351 25380 33360 25404 33360 25410 C 33360 25420 32902 25650 32882 25650 C 32877 25650 32864 25630 32852 25606 Z M 32860 25500 C 32860 25495 32849 25490 32835 25490 C 32821 25490 32810 25495 32810 25500 C 32810 25506 32821 25510 32835 25510 C 32849 25510 32860 25506 32860 25500 Z M 32928 25440 C 32950 25426 32960 25413 32960 25395 C 32960 25371 32963 25370 33014 25370 C 33056 25370 33087 25361 33152 25331 C 33230 25296 33238 25289 33258 25246 C 33270 25221 33280 25196 33280 25191 C 33280 25184 33232 25071 33225 25062 C 33219 25055 33021 25160 33013 25174 C 33001 25194 32905 25240 32875 25240 C 32855 25240 32719 25299 32701 25316 C 32693 25323 32734 25403 32761 25431 C 32784 25456 32795 25460 32842 25460 C 32877 25460 32906 25453 32928 25440 Z M 33294 25275 C 33297 25267 33295 25260 33290 25260 C 33284 25260 33280 25267 33280 25275 C 33280 25283 33282 25290 33284 25290 C 33286 25290 33290 25283 33294 25275 Z M 32785 25238 C 32821 25220 32850 25202 32850 25198 C 32850 25193 32809 25109 32760 25010 L 32670 24830 L 32595 24867 C 32554 24888 32521 24907 32522 24911 C 32556 24995 32697 25270 32707 25270 C 32714 25270 32749 25256 32785 25238 Z M 33103 25079 C 33137 25062 33170 25044 33176 25039 C 33184 25033 33182 24999 33170 24920 C 33161 24860 33151 24808 33148 24805 C 33137 24794 33000 24869 33000 24886 C 33000 24912 33032 25110 33037 25110 C 33039 25110 33069 25096 33103 25079 Z M 32931 24872 C 32963 24847 33186 24740 33205 24740 C 33223 24740 33242 24706 33234 24686 C 33231 24677 33220 24670 33210 24670 C 33186 24670 33104 24635 33096 24621 C 33083 24601 33042 24609 33023 24635 C 33013 24649 32982 24690 32954 24726 C 32889 24808 32865 24853 32873 24874 C 32881 24895 32902 24894 32931 24872 Z M 32575 24833 C 32621 24810 32645 24790 32625 24790 C 32615 24790 32500 24850 32500 24855 C 32500 24865 32522 24859 32575 24833 Z M 32540 24781 C 32585 24759 32627 24739 32633 24737 C 32640 24735 32642 24729 32637 24724 C 32629 24715 32450 24799 32450 24812 C 32450 24824 32452 24823 32540 24781 Z M 32524 24719 C 32571 24696 32607 24674 32605 24669 C 32598 24659 32438 24732 32432 24748 C 32427 24765 32429 24764 32524 24719 Z M 33258 23584 C 33242 23576 33230 23565 33230 23560 C 33230 23555 33221 23548 33210 23545 C 33186 23537 33183 23502 33206 23493 C 33215 23490 33233 23476 33246 23464 C 33274 23435 33328 23432 33360 23458 C 33379 23473 33383 23487 33384 23536 L 33385 23595 L 33335 23597 C 33307 23598 33273 23592 33258 23584 Z M 33339 23536 C 33349 23524 33347 23517 33330 23500 C 33307 23477 33292 23477 33277 23502 C 33253 23539 33311 23570 33339 23536 Z" id="casita"/>
    <path d="M27185 24109 c-46 -13 -82 -57 -116 -140 -35 -85 -53 -109 -84 -109 -41 0 -48 73 -14 122 l22 30 -39 39 c-38 37 -40 38 -62 23 -32 -22 -63 -88 -69 -149 -13 -126 92 -226 206 -195 55 14 86 49 140 155 41 80 49 90 76 93 36 5 55 -18 55 -68 0 -42 -20 -75 -60 -95 l-30 -15 27 -55 c16 -33 34 -55 43 -55 25 0 98 67 120 109 28 55 33 102 20 167 -24 112 -126 175 -235 143z"/>
    <path d="M26600 23572 c-13 -11 -23 -33 -27 -59 -5 -37 -2 -46 25 -73 32 -32 64 -38 105 -19 54 25 66 101 22 144 -30 30 -92 34 -125 7z"/>
    <path d="M26830 23500 l0 -70 293 2 292 3 3 68 3 67 -296 0 -295 0 0 -70z"/>
    <path d="M26768 23296 c-63 -17 -111 -56 -139 -113 -22 -44 -24 -62 -27 -240 l-4 -193 412 0 411 0 -3 73 -3 72 -157 3 -158 3 0 97 c0 60 -6 119 -16 151 -37 124 -170 186 -316 147z m163 -175 c28 -28 29 -33 29 -125 l0 -96 -111 0 -111 0 4 101 c3 96 4 102 31 125 43 37 118 34 158 -5z"/>
    <path d="M33022 23240 c-78 -12 -82 -18 -82 -119 0 -47 5 -103 11 -123 l10 -38 99 0 100 0 1 -302 c0 -167 1 -345 2 -395 l2 -93 -75 -1 c-141 -1 -140 0 -140 -143 0 -76 4 -118 13 -130 12 -17 53 -18 734 -14 397 1 724 6 728 9 7 7 9 1318 2 1325 -11 11 -190 18 -602 21 -247 3 -517 6 -600 8 -82 2 -174 0 -203 -5z m133 -90 l0 -40 -77 0 c-65 0 -78 3 -78 16 0 14 3 14 16 4 12 -11 18 -10 32 3 13 13 14 19 4 29 -10 10 -17 10 -32 0 -17 -10 -20 -10 -20 2 0 15 28 21 115 24 l40 2 0 -40z m175 30 c0 -5 -9 -10 -20 -10 -13 0 -20 -7 -20 -20 0 -25 29 -38 40 -19 5 7 12 10 15 7 17 -17 -11 -28 -68 -27 -34 1 -52 4 -40 6 39 8 41 53 2 53 -10 0 -19 5 -19 10 0 6 25 10 55 10 30 0 55 -4 55 -10z m253 -20 c-3 -11 0 -27 7 -35 11 -13 4 -15 -54 -15 -61 0 -66 2 -52 15 13 13 19 14 36 3 17 -11 22 -11 30 2 5 8 10 19 10 23 0 15 -33 20 -51 8 -11 -6 -19 -7 -19 -2 0 5 -12 12 -27 14 -16 2 6 5 49 6 72 1 76 0 71 -19z m70 0 c-3 -11 0 -27 7 -35 11 -13 8 -15 -19 -15 -29 0 -31 2 -21 21 9 15 8 24 -1 35 -9 11 -7 14 14 14 20 0 24 -4 20 -20z m70 0 c-3 -11 0 -27 7 -35 11 -13 8 -15 -19 -15 -29 0 -31 2 -21 21 9 15 8 24 -1 35 -9 11 -7 14 14 14 20 0 24 -4 20 -20z m47 10 c0 -5 -2 -10 -4 -10 -3 0 -8 5 -11 10 -3 6 -1 10 4 10 6 0 11 -4 11 -10z m140 6 c0 -3 -4 -8 -10 -11 -5 -3 -10 -1 -10 4 0 6 5 11 10 11 6 0 10 -2 10 -4z m63 -20 c-6 -31 14 -43 35 -22 16 16 16 18 -2 32 -18 13 -17 14 19 14 35 0 37 -1 20 -14 -22 -16 -14 -46 14 -46 23 0 35 28 20 46 -10 12 2 14 67 13 44 -1 69 -4 56 -6 -17 -3 -22 -10 -20 -26 2 -14 10 -21 21 -21 9 1 17 -2 17 -7 0 -5 -74 -9 -165 -9 -146 0 -165 2 -165 16 0 14 3 14 16 4 12 -11 18 -10 32 4 16 16 16 18 -2 32 -19 13 -18 14 11 14 26 0 30 -3 26 -24z m-195 -28 c-2 -6 -10 -14 -16 -16 -7 -2 -10 2 -6 12 7 18 28 22 22 4z m-323 -8 c3 -5 1 -10 -4 -10 -6 0 -11 5 -11 10 0 6 2 10 4 10 3 0 8 -4 11 -10z m-367 -59 c-9 -15 -9 -23 1 -35 12 -14 8 -16 -35 -15 -27 1 -39 4 -26 6 12 2 23 9 24 14 4 28 0 34 -27 40 -24 5 -19 7 23 8 49 1 51 0 40 -18z m68 -16 c0 -30 -3 -35 -23 -35 -21 0 -22 2 -13 21 9 15 8 24 -1 35 -9 11 -7 14 12 14 21 0 24 -5 25 -35z m184 26 c0 -4 -11 -6 -25 -3 -20 3 -25 0 -25 -17 0 -26 28 -40 40 -20 5 7 12 10 15 7 17 -17 -11 -28 -68 -27 -34 1 -53 4 -42 6 38 10 45 39 13 53 -18 7 -10 9 35 9 31 1 57 -3 57 -8z m120 5 c0 -3 -4 -8 -10 -11 -5 -3 -10 -1 -10 4 0 6 5 11 10 11 6 0 10 -2 10 -4z m128 -16 c-15 -24 2 -46 27 -36 12 4 15 13 11 31 -6 22 -3 25 20 25 22 0 25 -2 14 -15 -15 -18 -6 -45 15 -45 21 0 30 27 15 45 -10 13 -8 15 12 15 21 0 25 -4 20 -25 -5 -29 24 -47 38 -24 5 7 12 10 15 7 4 -4 4 -11 0 -17 -8 -14 -335 -15 -335 -1 0 5 7 7 15 4 8 -4 22 -1 30 6 12 10 18 10 30 0 18 -15 45 -6 45 15 0 20 -26 30 -43 17 -8 -7 -18 -6 -31 4 -18 13 -13 14 47 14 64 0 67 -1 55 -20z m450 1 c-9 -15 -9 -23 1 -35 12 -14 5 -16 -68 -16 -68 0 -81 3 -81 16 0 14 3 14 16 4 12 -11 18 -11 31 2 20 21 7 41 -23 35 -13 -2 -24 0 -24 4 0 5 36 9 80 9 77 0 80 -1 68 -19z m154 10 c-19 -12 -10 -46 11 -45 9 1 17 -2 17 -7 0 -5 -36 -9 -81 -9 -73 0 -79 1 -65 16 9 8 16 17 16 19 0 2 -7 11 -16 19 -14 15 -9 16 58 16 44 0 68 -4 60 -9z m-932 -124 c0 -7 -9 -18 -20 -25 -18 -11 -20 -10 -20 13 0 18 5 25 20 25 11 0 20 -6 20 -13z m545 -67 l0 -75 -192 -3 -193 -2 0 74 0 75 43 4 c23 2 110 3 192 3 l150 -1 0 -75z m440 0 l0 -75 -192 -3 -193 -2 0 80 0 80 193 -2 192 -3 0 -75z m-891 54 c8 -22 -12 -56 -31 -52 -26 5 -39 34 -24 52 17 20 47 21 55 0z m-15 -82 l26 3 3 -292 c1 -199 -1 -293 -8 -293 -6 0 -13 7 -16 15 -4 8 -14 15 -25 15 -21 0 -60 -78 -56 -113 1 -13 -4 -23 -14 -25 -14 -2 -17 17 -22 140 -4 79 -7 243 -7 365 l0 222 47 -20 c26 -11 58 -19 72 -17z m466 -292 l0 -185 -192 -3 -193 -2 0 190 0 190 193 -2 192 -3 0 -185z m320 0 l0 -185 -132 -3 -133 -3 0 191 0 191 133 -3 132 -3 0 -185z m72 174 c3 -8 0 -26 -7 -39 -11 -20 -11 -27 0 -40 11 -13 11 -20 0 -40 -11 -20 -11 -27 0 -40 11 -13 11 -20 0 -39 -9 -18 -9 -28 0 -46 9 -18 9 -28 0 -46 -10 -19 -10 -26 -1 -38 14 -17 7 -36 -15 -36 -12 0 -14 31 -14 190 0 164 2 190 15 190 9 0 18 -7 22 -16z m56 -179 c1 -135 -1 -179 -10 -182 -10 -4 -13 38 -13 188 0 131 3 190 10 183 6 -6 11 -84 13 -189z m-448 -445 l0 -195 -192 -3 -193 -2 0 200 0 200 193 -2 192 -3 0 -195z m450 0 l0 -195 -197 -3 -198 -2 0 200 0 200 198 -2 197 -3 0 -195z m-907 118 c27 -27 -5 -73 -38 -53 -20 12 -4 65 20 65 3 0 11 -5 18 -12z m-247 -127 c-8 -5 -12 -19 -9 -34 6 -29 -6 -37 -53 -37 -18 0 -29 5 -29 14 0 9 8 12 24 9 26 -5 40 15 25 38 -7 11 -12 12 -29 1 -17 -10 -20 -10 -20 3 0 11 12 15 53 15 34 0 47 -3 38 -9z m57 -10 c-9 -15 -9 -23 1 -35 12 -14 10 -16 -13 -16 -28 0 -33 9 -14 28 8 8 8 15 -2 27 -11 13 -9 15 14 15 23 0 25 -2 14 -19z m165 12 c-17 -3 -23 -11 -23 -30 0 -20 4 -24 20 -20 11 3 20 1 20 -4 0 -5 -24 -9 -52 -9 -41 1 -49 3 -35 11 9 5 17 16 17 24 0 8 -8 19 -17 24 -14 8 -5 10 37 9 30 0 45 -3 33 -5z m-153 -101 c0 -4 -5 -13 -12 -20 -9 -9 -9 -15 0 -24 23 -23 11 -28 -68 -28 -65 0 -80 3 -80 15 0 13 3 13 20 3 17 -11 22 -10 30 2 15 23 6 35 -23 35 -41 -1 -32 13 11 18 71 7 122 7 122 -1z m142 -4 c-20 -20 -15 -50 8 -46 10 2 19 -1 20 -7 0 -5 -25 -11 -55 -13 -34 -2 -55 1 -55 8 0 5 5 9 11 8 6 -2 16 5 22 15 10 15 8 21 -7 33 -18 13 -16 14 24 14 34 0 41 -3 32 -12z" id="invernadero"/>
    <path d="M33080 23151 c0 -27 19 -36 37 -18 18 18 9 37 -18 37 -12 0 -19 -7 -19 -19z"/>
    <path d="M34107 23163 c-12 -11 -7 -33 8 -39 20 -8 45 13 38 32 -5 14 -34 19 -46 7z"/>
    <path d="M33970 23051 c0 -27 19 -36 37 -18 18 18 9 37 -18 37 -12 0 -19 -7 -19 -19z"/>
    <path d="M34107 23063 c-12 -11 -7 -33 8 -39 20 -8 45 13 38 32 -5 14 -34 19 -46 7z"/>
    <path d="M33090 21971 c0 -27 15 -34 34 -15 19 19 12 34 -15 34 -12 0 -19 -7 -19 -19z"/>
    <path d="M32092 22842 c-22 -11 -35 -26 -39 -43 -3 -17 -10 -26 -18 -23 -28 11 -72 -24 -87 -70 -21 -64 -11 -77 58 -72 34 2 63 11 75 21 18 17 19 17 19 -4 0 -12 -5 -31 -10 -41 -7 -13 -6 -27 2 -44 9 -22 18 -26 55 -26 l43 0 0 -205 0 -205 -43 0 -44 0 -27 99 c-16 55 -25 104 -21 110 3 6 16 11 29 11 31 0 56 30 56 66 0 30 -24 74 -40 74 -4 0 -37 18 -73 39 -35 22 -80 47 -98 56 -19 9 -47 23 -63 32 -46 25 -102 2 -135 -55 -14 -24 -40 -51 -58 -62 -70 -42 -48 -142 33 -148 21 -2 42 -7 46 -11 9 -8 57 -168 58 -188 0 -6 -9 -15 -20 -18 -18 -6 -20 -15 -20 -92 0 -78 3 -91 31 -140 48 -83 72 -91 328 -99 200 -7 212 -6 263 15 41 16 61 32 86 69 30 45 32 52 32 141 0 86 -2 93 -21 98 -17 5 -20 11 -15 36 3 16 6 105 6 198 l0 168 88 3 87 3 3 33 c2 22 -3 41 -14 53 -17 18 -16 20 4 40 12 11 22 28 22 37 0 32 -61 143 -83 151 -23 9 -57 -3 -57 -20 0 -5 -5 -15 -10 -22 -6 -7 -16 -19 -23 -28 -10 -13 -29 -15 -119 -11 -76 3 -108 8 -108 17 0 16 -33 45 -52 45 -9 0 -29 7 -44 15 -35 18 -40 18 -82 -3z m-55 -138 c10 -21 9 -26 -3 -31 -20 -8 -48 21 -41 41 9 24 30 19 44 -10z m93 12 c0 -8 -4 -18 -10 -21 -5 -3 -10 3 -10 14 0 12 5 21 10 21 6 0 10 -6 10 -14z m310 -6 c0 -6 -40 -10 -100 -10 -60 0 -100 4 -100 10 0 6 40 10 100 10 60 0 100 -4 100 -10z m5 -59 c3 -5 2 -11 -2 -13 -18 -7 -203 4 -203 13 0 12 197 12 205 0z m-25 -61 c0 -6 -32 -10 -75 -10 -43 0 -75 4 -75 10 0 6 32 10 75 10 43 0 75 -4 75 -10z m-365 -133 c38 -27 46 -39 34 -53 -14 -17 -389 -10 -400 8 -13 20 -12 22 31 57 22 17 47 45 56 62 26 52 47 51 153 -4 53 -27 110 -59 126 -70z m359 70 c18 -13 18 -26 10 -208 l-9 -194 -43 -3 c-24 -2 -50 2 -58 9 -7 6 -25 8 -39 5 l-25 -6 0 137 c0 76 3 168 7 206 l6 67 67 0 c39 0 74 -5 84 -13z m-441 -169 c17 -13 78 -206 70 -220 -2 -5 -42 -8 -89 -8 -73 0 -84 2 -84 18 0 9 -14 62 -30 117 -16 55 -30 101 -30 103 0 9 149 0 163 -10z m67 -262 c0 -3 -18 -15 -40 -27 -22 -13 -40 -26 -40 -30 0 -25 61 -139 75 -139 16 0 122 56 130 70 2 4 -4 26 -15 48 -11 23 -20 44 -20 47 0 3 24 5 54 5 30 0 57 4 60 9 3 5 47 8 98 7 l93 -1 3 -54 c4 -72 -10 -101 -63 -133 l-44 -27 -193 6 c-185 6 -195 7 -232 32 -46 30 -56 54 -56 132 l0 59 95 0 c52 0 95 -2 95 -4z m-140 -227 c0 -4 -7 -6 -15 -3 -8 4 -15 10 -15 15 0 4 7 6 15 3 8 -4 15 -10 15 -15z m510 1 c0 -5 -5 -10 -11 -10 -5 0 -7 5 -4 10 3 6 8 10 11 10 2 0 4 -4 4 -10z" id="puente"/>
    <path d="M29270 19690 c-25 -16 -56 -37 -70 -47 -32 -24 -131 -82 -230 -136 -30 -16 -82 -46 -115 -65 -33 -19 -100 -56 -150 -83 -49 -26 -112 -59 -140 -74 -27 -16 -70 -39 -95 -52 -88 -46 -84 -40 -155 -292 -36 -129 -65 -243 -65 -253 0 -11 70 -144 156 -296 86 -152 182 -322 212 -377 31 -55 60 -103 64 -106 9 -6 -11 30 737 -1299 299 -531 554 -988 567 -1016 38 -85 476 -866 504 -899 10 -11 149 -254 310 -540 161 -286 327 -581 369 -654 l76 -135 240 -68 c132 -37 245 -67 252 -68 6 0 85 42 175 94 89 51 303 171 473 266 171 95 402 226 515 290 113 64 273 154 355 200 83 46 252 141 377 212 125 70 233 128 240 128 30 0 108 59 108 82 0 4 -32 24 -72 44 -94 47 -156 94 -252 192 -68 69 -78 83 -66 96 7 9 17 16 23 16 6 0 42 -34 80 -75 100 -109 265 -221 289 -197 7 7 0 16 -18 28 -121 75 -172 115 -243 190 -45 47 -81 93 -81 102 0 10 -70 95 -157 190 -113 124 -162 172 -178 172 -15 0 -41 21 -79 66 -70 83 -72 104 -14 217 24 45 44 85 46 90 2 4 -5 7 -15 7 -12 0 -31 -25 -60 -80 -64 -120 -59 -183 21 -259 39 -38 44 -52 23 -70 -20 -16 -122 92 -132 139 -4 19 -11 40 -16 45 -10 13 10 75 51 155 35 70 35 70 11 70 -12 0 -29 -19 -50 -59 -28 -54 -31 -67 -31 -153 0 -89 2 -98 29 -134 15 -21 40 -50 55 -63 32 -30 32 -38 4 -68 -17 -18 -19 -28 -12 -52 5 -16 78 -104 163 -195 164 -178 181 -189 230 -148 21 17 23 15 114 -73 80 -79 188 -162 229 -178 9 -3 5 -13 -12 -30 -14 -14 -340 -203 -725 -420 -385 -216 -763 -430 -840 -474 -299 -171 -543 -303 -561 -303 -10 0 -118 27 -239 61 l-220 61 -94 167 c-52 91 -157 279 -234 416 -76 138 -200 356 -273 486 -74 130 -134 241 -134 248 0 17 -479 870 -500 890 -10 9 -54 84 -100 166 -46 83 -228 407 -405 720 -177 314 -440 782 -585 1040 -146 259 -270 475 -276 480 -6 6 -93 156 -194 335 l-182 325 16 65 c51 206 103 382 118 396 16 16 110 69 248 141 58 31 111 60 117 65 7 6 36 22 65 37 29 15 110 60 180 100 121 68 238 125 243 119 4 -5 145 -261 193 -352 24 -45 51 -92 60 -106 9 -14 38 -68 65 -120 27 -52 56 -102 63 -111 8 -8 14 -19 14 -23 0 -11 190 -357 215 -391 12 -16 47 -81 79 -143 31 -62 102 -194 157 -295 56 -100 119 -216 141 -257 107 -200 190 -288 346 -369 56 -28 103 -48 105 -44 2 5 7 25 11 45 l7 37 -83 42 c-129 67 -194 139 -301 334 -600 1094 -1024 1859 -1032 1862 -5 1 -30 -11 -55 -27z m4190 -4626 c83 -92 147 -170 143 -174 -4 -3 -33 -30 -65 -59 l-56 -52 -154 166 c-84 91 -154 171 -156 179 -4 17 97 106 119 106 10 0 85 -75 169 -166z"/>
    <path d="M 28794 19171 C 28773 19158 28756 19135 28745 19106 C 28729 19065 28729 19056 28741 19023 C 28773 18940 28878 18913 28945 18971 C 28977 18999 28980 19007 28980 19056 C 28980 19085 28975 19121 28968 19135 C 28944 19189 28853 19207 28794 19171 Z M 28905 19140 C 28908 19135 28904 19130 28896 19130 C 28888 19130 28878 19135 28875 19140 C 28872 19146 28876 19150 28884 19150 C 28892 19150 28902 19146 28905 19140 Z M 28831 19000 C 28849 18985 28851 18981 28839 18980 C 28830 18980 28815 18989 28805 19000 C 28782 19026 28801 19026 28831 19000 Z M 31809 16181 C 31774 16146 31770 16137 31770 16093 C 31770 16010 31827 15962 31911 15973 C 31992 15984 32036 16061 32008 16144 C 31992 16192 31952 16218 31891 16219 C 31853 16220 31842 16215 31809 16181 Z M 31946 16165 C 31961 16154 31962 16151 31949 16150 C 31941 16150 31925 16157 31914 16165 C 31899 16176 31898 16179 31911 16180 C 31919 16180 31935 16173 31946 16165 Z M 31860 16035 C 31889 16020 31900 16000 31881 16000 C 31869 16000 31812 16049 31823 16050 C 31827 16050 31844 16043 31860 16035 Z M 32125 15035 C 32074 15009 32060 14984 32060 14918 C 32060 14866 32063 14855 32089 14829 C 32115 14804 32126 14800 32174 14800 C 32221 14800 32235 14804 32261 14828 C 32324 14885 32308 15004 32232 15036 C 32188 15054 32162 15054 32125 15035 Z M 32220 14995 C 32234 14987 32241 14981 32235 14981 C 32230 14981 32214 14987 32200 14995 C 32186 15003 32180 15009 32185 15009 C 32191 15009 32206 15003 32220 14995 Z M 32141 14861 C 32158 14851 32167 14839 32162 14836 C 32156 14833 32139 14841 32123 14855 C 32090 14884 32098 14887 32141 14861 Z M 33153 14555 C 33110 14536 33080 14486 33080 14432 C 33080 14395 33086 14382 33114 14354 C 33143 14325 33155 14320 33194 14320 C 33277 14320 33330 14367 33330 14441 C 33330 14503 33266 14571 33208 14570 C 33195 14569 33170 14563 33153 14555 Z M 33239 14519 C 33256 14513 33270 14504 33270 14499 C 33270 14485 33258 14488 33225 14510 C 33191 14533 33194 14535 33239 14519 Z M 33179 14376 C 33192 14369 33198 14360 33192 14356 C 33187 14353 33171 14359 33159 14370 C 33132 14392 33143 14396 33179 14376 Z" id="aves"/>
    <path d="M 29471 17886 C 29456 17868 29466 17824 29487 17815 C 29514 17805 29552 17838 29548 17868 C 29546 17890 29539 17896 29514 17898 C 29496 17900 29478 17895 29471 17886 Z M 29253 18299 C 29205 18275 29154 18222 29134 18174 C 29105 18104 29127 17970 29175 17930 C 29185 17922 29184 17912 29169 17883 C 29121 17789 29179 17670 29280 17654 C 29310 17649 29325 17640 29339 17616 C 29390 17534 29470 17491 29571 17490 C 29652 17490 29711 17514 29760 17567 C 29814 17626 29823 17649 29828 17737 C 29832 17812 29830 17825 29805 17875 C 29790 17906 29761 17944 29739 17962 C 29704 17990 29700 17998 29700 18039 C 29700 18112 29645 18179 29583 18180 C 29573 18180 29554 18199 29539 18223 C 29487 18309 29348 18346 29253 18299 Z M 29411 18249 C 29431 18239 29431 18237 29415 18220 C 29392 18195 29403 18153 29435 18138 C 29456 18129 29463 18130 29480 18145 C 29509 18171 29524 18152 29524 18093 C 29524 18028 29505 17998 29435 17951 C 29349 17893 29288 17899 29222 17974 C 29184 18018 29181 18033 29214 18024 C 29254 18014 29287 18070 29262 18106 C 29250 18124 29220 18130 29199 18120 C 29175 18107 29173 18128 29194 18168 C 29232 18242 29345 18285 29411 18249 Z M 29605 18114 C 29613 18110 29628 18094 29636 18078 C 29648 18054 29649 18045 29638 18022 C 29627 18000 29617 17994 29581 17992 C 29540 17989 29538 17990 29544 18012 C 29547 18025 29553 18054 29556 18078 C 29563 18120 29572 18126 29605 18114 Z M 29647 17945 C 29668 17936 29692 17922 29702 17913 C 29719 17898 29719 17895 29705 17880 C 29694 17868 29691 17853 29695 17837 C 29704 17803 29723 17788 29752 17792 C 29772 17795 29775 17790 29778 17753 C 29780 17723 29774 17697 29755 17660 C 29730 17610 29727 17608 29695 17613 C 29660 17619 29637 17605 29614 17565 C 29599 17540 29529 17540 29481 17565 C 29451 17580 29449 17583 29464 17599 C 29487 17625 29484 17657 29455 17676 C 29431 17692 29428 17692 29410 17675 C 29386 17654 29382 17656 29374 17698 C 29368 17727 29370 17730 29393 17730 C 29433 17730 29442 17751 29438 17837 L 29435 17915 L 29480 17938 C 29532 17964 29595 17967 29647 17945 Z M 29270 17814 C 29270 17750 29267 17729 29258 17732 C 29236 17739 29209 17803 29215 17834 C 29220 17864 29246 17900 29262 17900 C 29266 17900 29270 17861 29270 17814 Z M 29330 17720 C 29330 17715 29321 17710 29311 17710 C 29300 17710 29288 17715 29285 17720 C 29281 17726 29290 17730 29304 17730 C 29318 17730 29330 17726 29330 17720 Z" id="sonidos"/>
    <path d="M27337 17944 c-4 -4 -7 -67 -7 -141 0 -73 -2 -133 -5 -133 -3 0 -69 49 -148 108 -191 145 -259 170 -370 138 -107 -31 -162 -110 -161 -231 0 -102 52 -187 139 -226 63 -29 72 -26 84 31 16 75 14 87 -15 94 -75 19 -100 112 -45 167 24 23 38 29 73 29 66 -1 107 -25 323 -194 164 -127 206 -156 233 -156 l32 0 -2 258 -3 257 -60 3 c-34 2 -64 0 -68 -4z"/>
    <path d="M30970 17871 c-5 -11 -10 -27 -10 -35 0 -11 77 -55 230 -131 130 -65 247 -131 269 -151 80 -72 131 -185 131 -291 0 -66 -18 -143 -34 -143 -6 0 -80 33 -163 74 l-151 74 -29 -36 c-16 -21 -33 -43 -37 -50 -5 -8 52 -41 196 -113 265 -131 290 -139 425 -139 59 0 135 5 168 10 233 35 423 64 500 75 l90 13 92 -47 93 -46 32 33 c20 19 29 35 23 40 -19 16 -1785 882 -1800 882 -8 0 -19 -9 -25 -19z m996 -547 c241 -119 441 -218 443 -220 2 -2 2 -6 0 -8 -2 -2 -128 -23 -279 -46 -219 -34 -291 -41 -351 -37 -78 6 -189 41 -189 59 0 5 7 38 16 72 24 91 16 214 -20 291 -15 33 -37 70 -48 82 -12 13 -19 23 -16 23 2 0 202 -97 444 -216z m524 -264 c0 -5 -4 -10 -10 -10 -5 0 -145 -20 -311 -45 -377 -56 -440 -57 -555 -5 -63 29 -51 33 21 8 111 -37 214 -34 530 16 310 49 325 50 325 36z"/>
    <path d="M30871 17546 c-6 -7 -22 -11 -36 -8 -22 4 -28 -2 -50 -49 -14 -30 -25 -68 -25 -86 0 -29 -3 -33 -37 -38 -21 -4 -53 -11 -71 -15 -28 -7 -35 -5 -47 14 -21 32 -99 86 -124 86 -40 0 -52 -59 -27 -141 14 -47 14 -47 -16 -75 -22 -22 -90 -108 -103 -131 -1 -2 -39 13 -84 32 -45 19 -89 35 -96 35 -22 0 -74 -67 -81 -106 -11 -62 3 -165 38 -269 l33 -100 50 3 c28 2 64 7 82 11 25 7 32 6 37 -8 7 -22 53 -98 82 -136 13 -18 24 -35 24 -38 0 -4 -20 -29 -45 -57 -25 -28 -45 -57 -45 -64 0 -27 66 -111 121 -153 59 -46 142 -72 192 -60 28 8 39 34 53 132 3 28 11 56 16 63 7 7 35 12 74 12 l64 0 1 -32 c1 -49 20 -92 62 -143 48 -57 101 -84 181 -92 57 -5 65 -3 89 19 39 37 57 88 57 165 0 95 -15 139 -65 191 l-42 46 35 50 c20 28 37 52 38 54 1 2 32 -11 69 -27 37 -17 85 -31 106 -31 32 0 40 5 60 36 18 31 22 51 22 123 1 93 -22 188 -50 217 -14 14 -29 15 -93 10 l-76 -7 -13 50 c-7 27 -28 73 -46 103 -19 29 -35 57 -35 62 0 4 14 26 31 47 17 21 28 43 24 49 -3 5 1 20 9 32 9 12 16 37 16 55 0 45 -64 113 -143 153 -50 25 -72 30 -132 30 -49 0 -76 -4 -84 -14z m-321 -236 c-25 -16 -40 -11 -40 14 0 13 -3 33 -6 43 -5 12 5 7 27 -15 28 -27 31 -34 19 -42z m339 -29 c33 -10 80 -30 104 -44 42 -25 127 -108 127 -125 0 -5 -43 -32 -95 -61 l-95 -52 -45 31 c-62 42 -94 40 -201 -18 -83 -45 -89 -51 -92 -83 -8 -120 -4 -113 -108 -169 -53 -28 -97 -50 -98 -48 -30 48 -44 175 -26 257 7 32 26 84 44 114 31 55 125 145 181 175 87 45 204 54 304 23z m-647 -193 c56 -24 76 -37 73 -47 -3 -8 -11 -47 -17 -87 l-11 -72 -71 -10 c-39 -5 -74 -7 -78 -3 -12 11 -29 143 -22 175 6 33 30 76 42 76 4 0 42 -14 84 -32z m947 -143 c18 -104 -6 -200 -76 -307 -51 -77 -73 -96 -180 -145 -70 -32 -87 -36 -158 -35 -91 0 -170 24 -238 71 -45 31 -117 105 -117 120 0 12 165 101 187 101 10 0 38 -14 63 -30 25 -16 51 -30 58 -30 22 0 192 91 213 113 14 16 19 36 19 83 l0 63 93 50 c90 50 92 50 108 31 9 -11 22 -49 28 -85z m-350 58 c38 -22 35 -32 -15 -60 -37 -21 -40 -22 -52 -5 -33 42 -33 51 -5 66 36 19 36 19 72 -1z m-125 -72 c14 -26 14 -30 -2 -44 -9 -8 -32 -22 -49 -31 l-33 -17 0 40 c0 31 6 44 26 60 35 27 41 27 58 -8z m674 6 c33 -39 53 -207 31 -250 -30 -57 -35 -58 -107 -26 -93 42 -92 41 -76 96 8 25 14 74 14 108 l0 63 58 10 c31 5 60 10 63 11 4 0 11 -5 17 -12z m-478 -67 c-6 -22 -21 -41 -40 -52 -30 -17 -30 -17 -45 12 -8 16 -15 31 -15 34 0 11 95 54 102 47 4 -3 3 -22 -2 -41z m-125 -70 c15 -29 15 -30 -17 -46 -30 -15 -34 -15 -65 1 -18 10 -33 23 -33 30 0 13 81 55 93 48 4 -2 14 -17 22 -33z m362 -323 c22 -24 46 -61 53 -81 16 -50 8 -129 -20 -190 l-22 -48 -50 6 c-28 4 -68 16 -88 26 -73 37 -138 139 -128 202 2 14 18 26 50 39 49 19 130 68 136 82 8 17 32 4 69 -36z m-623 -11 c31 -19 77 -40 102 -47 37 -11 44 -17 40 -34 -3 -11 -8 -44 -12 -74 -13 -98 -54 -108 -156 -39 -43 29 -118 114 -118 132 0 11 71 96 80 96 4 0 33 -15 64 -34z" id="tortugarenero"/>
    <path d="M27097 17050 c-91 -23 -165 -82 -201 -160 -29 -64 -29 -197 0 -261 27 -59 78 -109 140 -139 69 -34 197 -34 269 -2 110 50 169 144 169 272 0 127 -59 223 -166 270 -55 24 -156 33 -211 20z m182 -170 c48 -24 71 -63 71 -120 0 -87 -69 -144 -175 -144 -106 1 -175 57 -175 145 0 42 5 55 33 85 60 65 158 79 246 34z"/>
    <path d="M32860 16085 l0 -85 74 0 c92 0 98 6 94 97 l-3 68 -82 3 -83 3 0 -86z"/>
    <path d="M33751 16494 l-21 -35 33 -19 c17 -11 113 -59 212 -108 99 -48 308 -150 465 -228 157 -78 312 -149 345 -158 33 -10 71 -28 85 -41 14 -13 285 -152 603 -309 652 -323 865 -439 959 -526 35 -32 61 -60 58 -62 -5 -4 -1343 -300 -1875 -414 -328 -70 -383 -72 -572 -18 -17 5 -23 2 -23 -9 0 -37 215 -73 332 -57 85 13 476 96 1398 300 720 159 776 169 787 153 13 -17 17 -33 8 -33 -2 0 -487 -106 -1077 -236 -1071 -236 -1073 -237 -1193 -237 -88 0 -139 6 -192 20 -69 18 -73 18 -73 2 0 -29 131 -54 275 -53 118 1 140 6 1190 236 646 142 1103 238 1155 242 46 4 86 9 89 11 8 9 -110 154 -172 212 -131 123 -224 182 -475 305 -184 91 -249 118 -268 114 -19 -5 -215 87 -882 415 -913 449 -908 446 -992 491 -30 15 -78 39 -107 52 l-52 24 -20 -34z"/>
    <path d="M27235 16379 c-46 -13 -82 -57 -116 -140 -35 -85 -53 -109 -84 -109 -41 0 -48 73 -14 122 l22 30 -39 39 c-38 37 -40 38 -62 23 -31 -22 -62 -86 -69 -145 -15 -127 92 -230 207 -199 54 14 85 49 139 155 41 80 49 90 76 93 36 5 55 -18 55 -68 0 -42 -20 -75 -61 -95 l-29 -16 26 -52 c33 -64 28 -60 54 -52 33 11 89 64 111 107 87 170 -45 357 -216 307z"/>
    <path d="M26673 15855 c-61 -26 -72 -97 -24 -146 56 -55 128 -31 154 52 9 29 -21 79 -57 94 -41 18 -33 18 -73 0z"/>
    <path d="M26892 15842 c-9 -6 -12 -28 -10 -73 l3 -64 290 0 290 0 0 70 0 70 -280 2 c-154 2 -286 -1 -293 -5z"/>
    <path d="M 31351 15624 C 31272 15603 31146 15534 31086 15479 C 31038 15435 31027 15417 30962 15263 C 30866 15036 30859 14980 30928 14980 C 30941 14980 31005 14951 31069 14916 C 31133 14881 31222 14834 31268 14811 C 31313 14788 31350 14764 31350 14756 C 31350 14740 31371 14730 31404 14730 C 31436 14730 31476 14777 31567 14921 C 31683 15102 31682 15099 31688 15220 C 31692 15306 31689 15341 31672 15409 C 31642 15525 31616 15567 31550 15607 C 31488 15644 31441 15648 31351 15624 Z M 31529 15571 C 31581 15544 31589 15536 31609 15487 C 31655 15373 31670 15253 31651 15153 C 31638 15085 31430 14770 31398 14770 C 31383 14770 31390 14794 31414 14819 C 31427 14834 31478 14909 31528 14987 C 31609 15116 31618 15135 31624 15192 C 31633 15271 31617 15385 31587 15458 C 31569 15504 31556 15519 31516 15544 C 31468 15573 31466 15573 31401 15562 C 31321 15548 31188 15484 31133 15433 C 31103 15404 31080 15363 31035 15260 C 31003 15186 30969 15101 30960 15072 C 30951 15043 30939 15020 30934 15022 C 30914 15029 30933 15098 30997 15248 C 31074 15430 31107 15471 31231 15533 C 31372 15605 31443 15614 31529 15571 Z M 31491 15519 C 31514 15508 31530 15496 31527 15493 C 31520 15486 31440 15522 31440 15532 C 31440 15544 31447 15542 31491 15519 Z M 31383 15511 C 31370 15500 31360 15486 31360 15478 C 31360 15461 31530 15375 31540 15387 C 31545 15391 31550 15406 31552 15420 L 31556 15445 L 31568 15416 C 31587 15371 31601 15252 31594 15196 C 31589 15155 31571 15119 31500 15008 C 31452 14932 31400 14856 31385 14839 L 31359 14807 L 31242 14868 C 30984 15003 30985 15002 30988 15040 C 30991 15078 31113 15366 31138 15394 C 31167 15426 31238 15471 31308 15500 C 31388 15534 31415 15538 31383 15511 Z M 31301 14638 C 31151 14489 31080 14321 31080 14110 C 31080 13914 31154 13738 31297 13595 C 31388 13504 31477 13475 31665 13475 C 31807 13476 31876 13491 32000 13552 C 32111 13607 32247 13739 32302 13845 C 32347 13931 32382 14047 32378 14092 C 32376 14119 32371 14125 32351 14125 C 32329 14125 32325 14118 32309 14047 C 32274 13900 32177 13751 32061 13666 C 32034 13646 32008 13630 32002 13630 C 31993 13630 31940 13748 31940 13769 C 31940 13773 31962 13813 31988 13858 C 32015 13903 32049 13971 32065 14011 C 32081 14050 32099 14084 32106 14087 C 32113 14089 32150 14078 32190 14061 C 32276 14024 32290 14023 32290 14053 C 32290 14071 32277 14080 32222 14103 C 32119 14144 32116 14148 32130 14199 C 32139 14235 32139 14245 32127 14257 C 32110 14275 31686 14521 31642 14539 C 31610 14552 31608 14552 31574 14519 L 31540 14486 L 31465 14538 C 31424 14567 31384 14590 31376 14590 C 31352 14590 31349 14574 31368 14553 C 31381 14538 31478 14457 31498 14444 C 31500 14443 31482 14417 31458 14388 C 31412 14331 31354 14240 31324 14178 C 31305 14138 31294 14133 31199 14123 L 31137 14117 L 31144 14179 C 31161 14332 31224 14462 31336 14580 C 31377 14623 31410 14662 31410 14668 C 31410 14677 31380 14700 31368 14700 C 31366 14700 31336 14672 31301 14638 Z M 31639 14497 C 31647 14486 31644 14478 31625 14460 C 31605 14441 31598 14439 31585 14450 C 31571 14462 31572 14465 31591 14487 C 31617 14514 31623 14515 31639 14497 Z M 31865 14366 C 32017 14277 32025 14271 32022 14244 C 32021 14228 32010 14207 31999 14198 C 31983 14185 31980 14173 31985 14152 C 31989 14130 31980 14102 31945 14032 C 31889 13919 31825 13853 31728 13804 C 31668 13774 31556 13741 31512 13740 C 31496 13740 31456 13828 31441 13898 C 31424 13977 31427 14095 31445 14110 C 31454 14118 31458 14131 31454 14142 C 31442 14181 31563 14362 31608 14370 C 31627 14374 31635 14381 31635 14397 C 31635 14422 31667 14460 31689 14460 C 31698 14460 31777 14418 31865 14366 Z M 31549 14407 C 31557 14396 31550 14381 31519 14339 C 31497 14309 31461 14253 31439 14213 C 31407 14155 31396 14143 31380 14147 C 31369 14150 31360 14157 31360 14164 C 31360 14189 31514 14419 31531 14420 C 31535 14420 31543 14414 31549 14407 Z M 32100 14222 C 32099 14190 32085 14170 32064 14170 C 32037 14170 32036 14175 32051 14218 C 32060 14245 32065 14248 32081 14240 C 32091 14234 32100 14226 32100 14222 Z M 32060 14101 C 32060 14078 31939 13838 31925 13833 C 31919 13831 31909 13839 31902 13850 C 31892 13867 31896 13879 31934 13942 C 31958 13982 31988 14039 32000 14068 C 32016 14104 32028 14120 32041 14120 C 32053 14120 32060 14113 32060 14101 Z M 31314 14012 C 31318 13970 31328 13906 31337 13870 C 31356 13789 31422 13645 31443 13637 C 31463 13630 31595 13644 31665 13661 C 31693 13667 31753 13690 31799 13711 C 31845 13733 31886 13750 31890 13750 C 31894 13750 31912 13718 31930 13678 C 31969 13595 31969 13594 31864 13560 C 31743 13520 31603 13518 31475 13555 C 31423 13570 31405 13582 31339 13649 C 31231 13758 31167 13884 31146 14032 L 31139 14079 L 31187 14082 C 31213 14084 31251 14086 31271 14087 L 31308 14090 L 31314 14012 Z M 31402 13988 C 31407 13881 31441 13755 31474 13721 C 31507 13689 31702 13739 31801 13805 L 31851 13839 L 31860 13814 C 31866 13800 31870 13787 31870 13784 C 31870 13781 31837 13764 31798 13745 C 31712 13704 31598 13674 31515 13669 L 31455 13665 L 31423 13730 C 31385 13806 31355 13915 31346 14018 L 31339 14090 L 31368 14090 L 31398 14090 L 31402 13988 Z" id="barco"/>
    <path d="M26818 15567 c-64 -18 -111 -57 -139 -114 -22 -44 -24 -62 -27 -240 l-4 -193 412 0 411 0 -3 73 -3 72 -157 3 -158 3 0 98 c0 154 -36 238 -121 282 -51 25 -150 33 -211 16z m166 -178 c24 -28 26 -38 26 -125 l0 -94 -111 0 -111 0 4 101 c3 96 4 102 31 125 22 19 39 24 82 24 47 0 56 -3 79 -31z"/>
  </g>
</svg>