<?xml version="1.0" encoding="utf-8"?>
<svg xmlns="http://www.w3.org/2000/svg" version="1.0" preserveAspectRatio="xMidYMid meet" viewBox="2617.7 1452 1194.3 1331.52">
  <g transform="translate(0.000000,4324.000000) scale(0.100000,-0.100000)" fill="#000000" stroke="none">
    <path d="M35090 28343 c-1 -1596 1 -2364 7 -3480 l6 -1283 49 0 48 0 0 185 0 185 24 0 c24 0 24 1 31 133 3 72 5 173 3 222 -3 90 -3 90 -30 93 l-28 3 0 568 c0 312 -3 1284 -7 2159 l-6 1592 -49 0 -48 0 0 -377z"/>
    <path d="M35317 25843 c3 -1583 8 -3211 12 -3617 l6 -740 1375 -272 c756 -150 1383 -273 1393 -274 10 0 17 7 17 18 0 15 -168 51 -1371 289 -754 150 -1373 274 -1376 277 -4 4 -21 4978 -23 6559 0 626 0 637 -20 637 -19 0 -19 -25 -13 -2877z"/>
    <path d="M33768 28533 c-3 -174 -4 -179 -33 -237 -35 -70 -97 -136 -154 -165 -38 -20 -41 -24 -41 -62 0 -40 1 -41 27 -34 79 19 197 124 237 210 13 27 30 77 37 110 7 33 16 65 21 72 5 7 5 14 -2 18 -6 4 -10 56 -10 136 l0 129 -39 0 -39 0 -4 -177z"/>
    <path d="M33310 28352 c-67 -33 -96 -109 -69 -179 37 -100 166 -120 238 -38 26 30 31 44 31 87 0 66 -27 111 -80 132 -52 20 -77 20 -120 -2z"/>
    <path d="M 33080 27939 C 32852 27852 32625 27765 32575 27745 C 32526 27726 31959 27510 31315 27266 C 30672 27022 30137 26819 30128 26815 C 30105 26806 30103 26719 30125 26700 C 30147 26682 30143 26644 30117 26627 C 30105 26619 30082 26589 30066 26561 C 30042 26516 30039 26501 30042 26442 C 30044 26405 30050 26366 30054 26355 C 30058 26344 30031 26369 29993 26410 C 29956 26451 29909 26502 29889 26524 L 29853 26563 L 29720 26514 C 29646 26487 29585 26460 29583 26454 C 29579 26443 29738 26261 30564 25330 C 30796 25069 31046 24786 31120 24703 C 31194 24619 31262 24550 31269 24550 C 31277 24550 31339 24571 31407 24597 C 31539 24647 31547 24655 31508 24698 C 31487 24720 31490 24719 31534 24692 C 31562 24674 31615 24653 31659 24644 C 31767 24620 31844 24633 32044 24710 C 32132 24744 32237 24784 32279 24800 C 32606 24918 33498 25264 33590 25308 C 33655 25339 33749 25428 33779 25488 C 33805 25539 33842 25682 33832 25692 C 33828 25696 33826 25836 33828 26004 L 33831 26310 L 34016 26310 C 34227 26310 34220 26306 34201 26397 C 34176 26524 34093 26636 33989 26684 L 33938 26708 L 33999 26740 C 34105 26797 34176 26894 34200 27017 C 34219 27115 34229 27110 34010 27110 L 33820 27110 L 33818 27363 C 33815 27820 33818 27780 33787 27832 C 33754 27890 33710 27924 33650 27940 C 33625 27947 33595 27957 33583 27963 C 33570 27969 33557 27970 33553 27967 C 33536 27950 33520 27986 33520 28041 C 33520 28082 33516 28100 33508 28099 C 33501 28099 33308 28027 33080 27939 Z M 33462 28018 C 33455 28011 33450 28010 33450 28016 C 33450 28030 33462 28042 33469 28035 C 33471 28032 33468 28024 33462 28018 Z M 33404 27942 C 33406 27938 33418 27911 33429 27883 L 33449 27832 L 33377 27872 C 33337 27894 33303 27914 33301 27916 C 33296 27921 33362 27948 33382 27949 C 33391 27950 33401 27946 33404 27942 Z M 33548 27911 C 33600 27922 33661 27905 33708 27864 C 33792 27792 33782 27733 33685 27729 C 33637 27727 33580 27750 33543 27786 C 33524 27805 33489 27900 33497 27913 C 33502 27921 33505 27921 33507 27913 C 33510 27906 33523 27905 33548 27911 Z M 33244 27885 C 33248 27873 33241 27870 33212 27871 L 33175 27872 L 33205 27885 C 33222 27893 33236 27899 33236 27900 C 33237 27900 33240 27893 33244 27885 Z M 33120 27776 L 33120 27701 L 33166 27698 L 33211 27695 L 33102 27654 L 32993 27613 L 32965 27691 C 32949 27734 32937 27772 32937 27776 C 32938 27783 33095 27849 33113 27850 C 33117 27850 33120 27816 33120 27776 Z M 33420 27780 C 33420 27777 33400 27768 33376 27759 L 33333 27743 L 33316 27789 C 33307 27814 33300 27839 33300 27843 C 33300 27851 33420 27788 33420 27780 Z M 33290 27726 C 33283 27719 33280 27727 33281 27751 C 33281 27783 33282 27784 33291 27761 C 33297 27745 33297 27733 33290 27726 Z M 32922 27595 C 32924 27583 32910 27572 32864 27555 L 32803 27532 L 32777 27595 C 32756 27650 32754 27660 32768 27665 C 32776 27668 32791 27668 32802 27664 C 32815 27660 32829 27667 32847 27687 L 32874 27715 L 32896 27664 C 32908 27635 32920 27605 32922 27595 Z M 32685 27671 C 32672 27660 32479 27588 32474 27593 C 32471 27596 32671 27676 32690 27679 C 32692 27680 32690 27676 32685 27671 Z M 32423 27529 C 32433 27501 32440 27477 32438 27475 C 32434 27470 32240 27395 32117 27349 L 32039 27320 L 32024 27355 C 31993 27430 31986 27424 32195 27505 C 32300 27545 32390 27579 32395 27579 C 32401 27580 32413 27557 32423 27529 Z M 33635 27528 C 33656 27519 33661 27510 33659 27485 C 33657 27469 33659 27450 33663 27444 C 33666 27438 33663 27425 33656 27415 C 33645 27399 33639 27398 33614 27408 C 33560 27431 33527 27464 33534 27488 C 33538 27500 33549 27510 33559 27510 C 33569 27510 33583 27517 33590 27525 C 33605 27543 33603 27543 33635 27528 Z M 33012 27423 L 33048 27325 L 33002 27322 C 32938 27318 32879 27343 32831 27395 C 32808 27420 32790 27444 32790 27448 C 32790 27458 32934 27517 32960 27519 C 32971 27520 32987 27490 33012 27423 Z M 32486 27423 C 32490 27407 32494 27391 32494 27387 C 32495 27382 32396 27341 32275 27295 C 32076 27220 32054 27214 32048 27230 C 32029 27281 32026 27279 32250 27365 C 32368 27411 32468 27449 32471 27449 C 32475 27450 32481 27438 32486 27423 Z M 32758 27384 C 32760 27357 32757 27319 32751 27299 C 32739 27260 32666 27170 32646 27170 C 32640 27170 32619 27211 32600 27262 C 32581 27313 32564 27357 32562 27361 C 32559 27369 32730 27439 32745 27436 C 32751 27434 32756 27411 32758 27384 Z M 31984 27309 C 32005 27253 32018 27204 32013 27200 C 32009 27196 31909 27157 31792 27113 L 31579 27032 L 31568 27059 C 31505 27222 31500 27241 31518 27247 C 31776 27347 31936 27408 31941 27409 C 31944 27410 31964 27365 31984 27309 Z M 32538 27233 C 32563 27166 32567 27144 32558 27138 C 32539 27125 32466 27137 32422 27159 C 32386 27177 32320 27236 32320 27250 C 32320 27258 32469 27319 32490 27319 C 32500 27320 32516 27291 32538 27233 Z M 32285 27220 C 32294 27191 32280 27130 32252 27077 C 32225 27026 32174 26981 32161 26996 C 32151 27007 32103 27128 32098 27154 C 32096 27169 32111 27179 32180 27206 C 32282 27245 32277 27245 32285 27220 Z M 31509 27122 L 31548 27021 L 31476 26994 C 31437 26979 31374 26955 31335 26939 L 31265 26912 L 31249 26948 C 31221 27013 31185 27119 31190 27123 C 31199 27130 31465 27228 31468 27225 C 31470 27224 31488 27177 31509 27122 Z M 32086 26963 C 32072 26927 31940 26967 31881 27026 C 31857 27051 31839 27072 31841 27075 C 31844 27077 31886 27094 31935 27113 L 32025 27148 L 32058 27062 C 32076 27015 32088 26970 32086 26963 Z M 31153 27049 C 31163 27021 31170 26996 31168 26994 C 31164 26990 30890 26884 30807 26854 L 30769 26840 L 30754 26875 C 30723 26950 30716 26944 30925 27025 C 31030 27065 31120 27099 31125 27099 C 31131 27100 31143 27077 31153 27049 Z M 34173 27038 C 34153 26930 34083 26826 33996 26775 C 33951 26748 33852 26720 33833 26727 C 33823 26731 33820 26773 33820 26891 C 33820 27011 33817 27050 33808 27050 C 33799 27050 33800 27054 33810 27060 C 33818 27065 33905 27070 34002 27070 L 34180 27070 L 34173 27038 Z M 31807 27000 C 31801 26931 31767 26865 31718 26826 L 31685 26801 L 31653 26883 C 31636 26928 31621 26972 31621 26980 C 31620 26990 31649 27006 31703 27026 C 31817 27070 31814 27071 31807 27000 Z M 31216 26943 C 31220 26927 31224 26911 31224 26907 C 31225 26902 31126 26861 31005 26815 L 30785 26732 L 30772 26763 C 30765 26779 30762 26796 30766 26799 C 30771 26805 31189 26968 31201 26969 C 31205 26970 31211 26958 31216 26943 Z M 30713 26828 C 30734 26772 30747 26724 30743 26720 C 30739 26716 30639 26677 30522 26633 L 30309 26552 L 30298 26579 C 30235 26742 30230 26761 30248 26768 C 30315 26794 30666 26928 30670 26929 C 30673 26930 30693 26884 30713 26828 Z M 32910 26845 C 32910 26843 32901 26836 32890 26830 C 32878 26824 32870 26823 32870 26829 C 32870 26834 32878 26841 32888 26843 C 32897 26846 32906 26848 32908 26849 C 32909 26849 32910 26848 32910 26845 Z M 31268 26753 C 31293 26686 31297 26664 31288 26658 C 31269 26645 31196 26657 31152 26679 C 31115 26698 31050 26757 31050 26771 C 31050 26779 31197 26838 31220 26839 C 31230 26840 31246 26811 31268 26753 Z M 32948 26790 C 32955 26779 32967 26770 32974 26770 C 32995 26770 33005 26731 32989 26715 C 32971 26698 32889 26671 32874 26677 C 32859 26682 32848 26720 32861 26720 C 32866 26720 32870 26733 32870 26750 C 32870 26772 32877 26783 32898 26794 C 32933 26814 32933 26814 32948 26790 Z M 30165 26760 C 30168 26755 30166 26750 30161 26750 C 30155 26750 30150 26755 30150 26760 C 30150 26766 30152 26770 30154 26770 C 30157 26770 30162 26766 30165 26760 Z M 31015 26740 C 31023 26714 31011 26653 30989 26609 C 30967 26565 30912 26508 30897 26513 C 30886 26516 30835 26638 30828 26675 C 30826 26688 30845 26700 30910 26726 C 31012 26765 31007 26765 31015 26740 Z M 30220 26698 C 30220 26695 30211 26694 30200 26697 C 30184 26701 30182 26705 30191 26717 C 30201 26728 30205 26728 30211 26718 C 30216 26711 30220 26702 30220 26698 Z M 32600 26716 C 32600 26714 32593 26710 32585 26706 C 32577 26703 32570 26705 32570 26710 C 32570 26716 32577 26720 32585 26720 C 32593 26720 32600 26718 32600 26716 Z M 32638 26670 C 32645 26659 32659 26650 32669 26650 C 32686 26650 32700 26632 32700 26609 C 32700 26599 32649 26574 32597 26559 C 32575 26553 32568 26555 32559 26572 C 32551 26586 32551 26595 32559 26603 C 32565 26609 32570 26624 32570 26636 C 32570 26648 32580 26665 32593 26673 C 32622 26694 32623 26694 32638 26670 Z M 33956 26661 C 34066 26609 34135 26527 34165 26415 C 34173 26383 34180 26352 34180 26348 C 34180 26344 34101 26340 34005 26340 L 33830 26340 L 33830 26448 C 33830 26507 33827 26585 33823 26623 L 33817 26690 L 33856 26690 C 33878 26690 33921 26678 33956 26661 Z M 30816 26483 C 30802 26447 30670 26487 30611 26546 C 30587 26571 30569 26592 30571 26595 C 30574 26597 30616 26614 30665 26633 L 30755 26667 L 30788 26582 C 30806 26535 30818 26490 30816 26483 Z M 30210 26642 C 30210 26630 30207 26630 30195 26640 C 30183 26650 30180 26650 30180 26640 C 30180 26632 30177 26629 30174 26633 C 30165 26642 30177 26657 30195 26657 C 30203 26657 30210 26650 30210 26642 Z M 33380 26645 C 33387 26636 33388 26630 33382 26630 C 33377 26630 33370 26637 33366 26645 C 33363 26653 33362 26660 33364 26660 C 33366 26660 33373 26653 33380 26645 Z M 33243 26388 C 33339 26202 33372 26128 33364 26120 C 33354 26110 32773 25886 32724 25874 C 32691 25866 32682 25890 32610 26178 C 32556 26395 32549 26434 32561 26445 C 32582 26466 33061 26649 33088 26647 C 33108 26645 33131 26607 33243 26388 Z M 33326 26641 C 33348 26639 33348 26599 33326 26557 C 33313 26534 33297 26515 33289 26515 C 33282 26515 33260 26540 33242 26570 C 33216 26615 33212 26627 33223 26635 C 33235 26643 33277 26646 33326 26641 Z M 30537 26520 C 30531 26450 30496 26383 30446 26345 C 30428 26331 30409 26320 30404 26320 C 30391 26320 30324 26503 30336 26507 C 30341 26509 30383 26526 30430 26544 C 30547 26591 30544 26591 30537 26520 Z M 30071 26268 C 30194 26129 30310 25999 30328 25979 L 30360 25942 L 30253 25902 C 30175 25873 30141 25865 30132 25872 C 30114 25887 29636 26430 29632 26439 C 29629 26447 29811 26518 29836 26519 C 29842 26520 29948 26406 30071 26268 Z M 31700 26400 C 31692 26395 31681 26390 31675 26390 C 31670 26390 31672 26395 31680 26400 C 31688 26405 31700 26410 31705 26410 C 31711 26410 31708 26405 31700 26400 Z M 33538 26375 C 33535 26372 33529 26377 33526 26387 C 33520 26401 33521 26402 33531 26393 C 33538 26386 33541 26378 33538 26375 Z M 33499 26368 C 33510 26337 33484 26294 33464 26311 C 33452 26320 33420 26376 33420 26387 C 33420 26388 33436 26390 33455 26390 C 33483 26390 33492 26385 33499 26368 Z M 33404 26338 C 33413 26320 33428 26295 33436 26283 C 33446 26269 33448 26260 33441 26260 C 33428 26260 33370 26348 33370 26368 C 33370 26388 33386 26374 33404 26338 Z M 33820 26370 C 33820 26365 33818 26360 33816 26360 C 33813 26360 33808 26365 33805 26370 C 33802 26376 33804 26380 33809 26380 C 33815 26380 33820 26376 33820 26370 Z M 31758 26350 C 31765 26339 31776 26330 31784 26330 C 31803 26330 31813 26300 31799 26284 C 31793 26277 31766 26263 31738 26254 C 31689 26238 31686 26238 31674 26255 C 31664 26268 31663 26277 31671 26286 C 31677 26293 31680 26309 31678 26322 C 31672 26366 31734 26388 31758 26350 Z M 31435 26300 C 31432 26295 31421 26290 31412 26290 C 31397 26290 31397 26292 31410 26300 C 31430 26313 31443 26313 31435 26300 Z M 31470 26258 C 31470 26251 31484 26237 31500 26228 C 31542 26204 31538 26186 31485 26161 C 31429 26135 31404 26134 31390 26160 C 31383 26172 31383 26180 31389 26180 C 31394 26180 31400 26197 31402 26217 C 31404 26247 31410 26256 31430 26261 C 31467 26271 31470 26271 31470 26258 Z M 32022 25970 C 32060 25824 32089 25695 32087 25682 C 32085 25661 32057 25648 31821 25558 C 31642 25490 31552 25460 31543 25466 C 31525 25477 31280 25946 31280 25969 C 31280 25978 31284 25990 31288 25996 C 31298 26011 31911 26240 31935 26237 C 31952 26235 31963 26202 32022 25970 Z M 33255 25958 C 33258 25951 33257 25925 33252 25901 C 33246 25864 33240 25855 33217 25847 C 33193 25839 33186 25841 33174 25859 C 33166 25871 33153 25880 33146 25880 C 33126 25880 33117 25911 33132 25926 C 33145 25940 33215 25968 33238 25969 C 33245 25970 33253 25964 33255 25958 Z M 30285 25870 C 30230 25848 30181 25831 30176 25833 C 30165 25837 30348 25908 30370 25908 C 30378 25909 30340 25891 30285 25870 Z M 31238 25885 C 31264 25852 31283 25803 31277 25786 C 31273 25776 31258 25773 31224 25775 C 31186 25778 31174 25783 31161 25804 C 31147 25827 31147 25831 31163 25848 C 31172 25858 31180 25874 31180 25882 C 31180 25897 31192 25907 31212 25909 C 31216 25910 31227 25899 31238 25885 Z M 30434 25862 C 30450 25844 30446 25841 30339 25801 C 30278 25777 30224 25762 30220 25766 C 30196 25791 30209 25804 30300 25840 C 30412 25885 30412 25885 30434 25862 Z M 32982 25826 C 32977 25820 32973 25802 32972 25786 C 32969 25738 32917 25722 32890 25760 C 32882 25771 32870 25780 32863 25780 C 32856 25780 32850 25782 32850 25784 C 32850 25786 32847 25795 32844 25804 C 32838 25820 32883 25848 32935 25860 C 32967 25868 32997 25846 32982 25826 Z M 33245 25810 C 33242 25805 33231 25800 33222 25801 C 33208 25801 33209 25803 33225 25810 C 33252 25821 33252 25821 33245 25810 Z M 30809 25435 C 30991 25229 31140 25058 31140 25055 C 31140 25052 31127 25050 31112 25050 C 31083 25050 31058 25030 31047 24997 C 31041 24981 31034 24986 31003 25027 C 30937 25114 30568 25510 30553 25510 C 30544 25510 30540 25502 30542 25491 C 30544 25480 30648 25349 30773 25199 C 30918 25028 30998 24924 30992 24918 C 30986 24912 30850 25059 30621 25317 C 30423 25541 30260 25727 30260 25730 C 30260 25737 30440 25808 30461 25809 C 30470 25810 30618 25650 30809 25435 Z M 31131 25783 C 31144 25767 31143 25766 31128 25779 C 31111 25792 31106 25800 31114 25800 C 31116 25800 31124 25792 31131 25783 Z M 32967 25704 C 32964 25701 32955 25700 32948 25703 C 32940 25706 32943 25709 32954 25709 C 32965 25710 32971 25707 32967 25704 Z M 32139 25584 C 32134 25578 32130 25568 32131 25564 C 32137 25531 32127 25511 32102 25502 C 32079 25494 32072 25496 32057 25516 C 32047 25529 32033 25540 32026 25540 C 32018 25540 32009 25547 32006 25556 C 31998 25577 32022 25596 32080 25614 C 32120 25626 32126 25626 32137 25612 C 32146 25602 32146 25593 32139 25584 Z M 31377 25583 C 31388 25567 31402 25542 31409 25525 C 31425 25487 31408 25473 31352 25478 C 31322 25481 31307 25489 31295 25507 C 31279 25530 31279 25533 31298 25553 C 31308 25565 31320 25583 31323 25593 C 31332 25618 31356 25614 31377 25583 Z M 31264 25494 C 31274 25469 31263 25465 31250 25489 C 31244 25501 31243 25510 31249 25510 C 31254 25510 31261 25503 31264 25494 Z M 31844 25501 C 31847 25497 31846 25474 31842 25451 C 31837 25420 31828 25404 31808 25392 C 31781 25376 31779 25376 31764 25398 C 31756 25410 31743 25420 31735 25420 C 31713 25420 31698 25456 31713 25469 C 31751 25500 31833 25520 31844 25501 Z M 33006 25384 C 33030 25324 33049 25263 33049 25249 C 33050 25234 33056 25217 33064 25211 C 33072 25204 33077 25187 33076 25173 C 33073 25150 33062 25142 32975 25109 C 32890 25075 32876 25072 32863 25085 C 32845 25103 32841 25103 32799 25086 C 32780 25079 32754 25069 32741 25065 L 32717 25058 L 32722 25146 C 32727 25245 32754 25319 32811 25392 C 32844 25433 32938 25502 32954 25497 C 32959 25495 32983 25445 33006 25384 Z M 32135 25470 C 32132 25465 32121 25460 32112 25461 C 32098 25461 32099 25463 32115 25470 C 32142 25481 32142 25481 32135 25470 Z M 31840 25365 C 31840 25363 31830 25356 31818 25350 C 31796 25339 31796 25340 31814 25354 C 31835 25371 31840 25373 31840 25365 Z M 31010 25301 C 31010 25289 30990 25276 30983 25283 C 30976 25290 30989 25310 31001 25310 C 31006 25310 31010 25306 31010 25301 Z M 32206 25241 C 32211 25235 32232 25235 32260 25241 C 32381 25270 32536 25216 32629 25114 C 32657 25083 32680 25055 32680 25051 C 32680 25046 32659 25035 32633 25025 C 32574 25003 32560 24992 32560 24970 C 32560 24957 32540 24944 32488 24924 C 32448 24910 32400 24891 32382 24884 C 32364 24877 32352 24875 32355 24880 C 32358 24885 32351 24894 32340 24900 C 32324 24909 32322 24915 32330 24929 C 32338 24944 32335 24951 32314 24965 C 32300 24974 32282 24979 32274 24976 C 32265 24973 32258 24980 32254 24998 C 32250 25013 32244 25030 32240 25035 C 32230 25048 32170 25224 32170 25239 C 32170 25252 32192 25254 32206 25241 Z M 31326 24848 C 31391 24775 31454 24703 31467 24689 L 31490 24664 L 31410 24633 C 31366 24616 31330 24607 31330 24613 C 31330 24625 31163 24850 31142 24866 C 31130 24875 31134 24881 31164 24899 C 31192 24917 31200 24928 31200 24951 C 31200 24967 31202 24980 31204 24980 C 31207 24980 31262 24920 31326 24848 Z M 31172 24733 C 31288 24602 31294 24594 31282 24586 C 31277 24583 31232 24627 31183 24683 C 31042 24843 31036 24850 31053 24850 C 31062 24850 31115 24797 31172 24733 Z M 31453 24785 C 31450 24776 31445 24771 31443 24774 C 31440 24777 31441 24783 31445 24789 C 31454 24805 31460 24802 31453 24785 Z M 32875 26428 C 32804 26401 32740 26374 32733 26368 C 32724 26361 32725 26348 32739 26312 C 32749 26286 32774 26221 32795 26168 C 32820 26101 32837 26070 32848 26070 C 32862 26070 33130 26167 33139 26175 C 33146 26183 33026 26480 33016 26479 C 33010 26479 32947 26456 32875 26428 Z M 33054 26318 C 33079 26252 33099 26196 33097 26194 C 33096 26193 33041 26171 32975 26147 L 32855 26102 L 32827 26174 C 32812 26213 32791 26268 32780 26297 L 32761 26348 L 32853 26384 C 32904 26403 32956 26424 32970 26429 C 32984 26434 32998 26439 33001 26439 C 33004 26440 33028 26385 33054 26318 Z M 32903 26346 C 32874 26334 32845 26319 32840 26314 C 32826 26300 32877 26160 32895 26160 C 32913 26160 33013 26201 33028 26215 C 33038 26224 33035 26240 33012 26296 C 32996 26334 32977 26366 32969 26367 C 32961 26368 32931 26358 32903 26346 Z M 31655 25995 C 31568 25963 31514 25937 31512 25928 C 31509 25912 31603 25653 31617 25639 C 31628 25628 31920 25739 31920 25753 C 31920 25772 31819 26025 31807 26036 C 31798 26045 31760 26035 31655 25995 Z M 31836 25890 C 31861 25823 31881 25767 31878 25765 C 31872 25758 31638 25669 31635 25672 C 31634 25674 31612 25730 31588 25797 L 31543 25918 L 31664 25963 C 31730 25988 31786 26009 31787 26009 C 31788 26010 31810 25956 31836 25890 Z M 31683 25913 C 31643 25899 31610 25884 31610 25878 C 31610 25858 31653 25750 31664 25741 C 31672 25734 31699 25739 31745 25756 C 31783 25770 31816 25783 31818 25785 C 31824 25790 31778 25914 31766 25926 C 31758 25935 31736 25931 31683 25913 Z" id="baylab"/>
    <path d="M32827 27644 c-4 -4 -7 -16 -7 -26 0 -13 7 -18 26 -18 21 0 25 4 22 22 -3 23 -27 35 -41 22z"/>
    <path d="M29392 26863 c-71 -34 -97 -112 -63 -187 48 -109 204 -109 255 -1 58 122 -71 248 -192 188z"/>
    <path d="M28215 26089 c-1023 -389 -1878 -717 -1900 -727 -22 -11 -61 -25 -87 -32 -32 -8 -48 -18 -51 -32 -4 -15 844 -1210 3365 -4742 3720 -5210 3538 -4956 3584 -5009 18 -22 45 -63 61 -93 23 -44 32 -53 48 -48 36 10 70 40 89 78 l18 37 28 -33 c20 -23 32 -30 39 -23 7 7 -2 29 -31 70 -212 303 -1417 1987 -1438 2010 -15 17 -33 41 -40 55 -7 14 -28 46 -47 72 -29 41 -37 46 -53 38 -17 -9 38 -90 531 -781 303 -424 549 -772 547 -773 -1 -1 -22 -17 -46 -35 -24 -19 -47 -30 -51 -25 -21 23 -6531 9146 -6531 9152 0 8 44 27 82 36 26 6 65 -47 1188 -1619 1045 -1462 1163 -1624 1180 -1615 17 9 -18 63 -378 566 -218 306 -395 559 -393 562 4 7 1100 426 2545 972 428 162 780 300 783 307 4 10 -469 550 -1450 1653 -164 184 -303 335 -310 335 -7 0 -12 -5 -12 -12 0 -7 121 -148 269 -315 l269 -302 -29 -13 c-44 -18 -51 -16 -64 21 -6 19 -16 39 -23 44 -13 11 -449 -148 -455 -166 -2 -6 4 -27 13 -48 8 -21 12 -41 8 -44 -12 -10 -73 -33 -77 -29 -8 9 -287 751 -284 755 4 4 159 64 283 109 50 18 225 85 390 148 l300 115 3 46 c2 25 -1 46 -5 45 -4 -1 -845 -320 -1868 -710z m883 179 c11 -29 74 -196 141 -371 67 -174 121 -321 121 -326 0 -4 -18 -15 -40 -24 l-41 -16 -10 27 c-36 91 -253 664 -265 695 -13 37 -13 37 19 51 49 22 54 20 75 -36z m7 -373 c76 -198 141 -373 146 -390 5 -16 13 -39 19 -50 5 -11 30 -73 55 -139 35 -92 43 -121 34 -132 -17 -20 187 -554 211 -554 23 0 142 -310 148 -386 9 -110 -66 -233 -166 -270 -26 -10 -51 -20 -57 -24 -5 -4 -50 -22 -100 -40 -50 -18 -107 -48 -128 -66 -106 -89 -261 -144 -432 -151 -66 -3 -124 -9 -130 -13 -5 -4 -122 -49 -259 -101 -166 -63 -251 -99 -253 -110 -3 -11 -67 -40 -184 -84 -155 -59 -182 -66 -194 -54 -8 8 -306 424 -664 924 l-650 910 75 3 74 3 0 84 0 84 -75 3 -76 3 1228 467 c844 321 1230 463 1235 455 3 -7 68 -174 143 -372z m805 -111 c0 -14 -286 -124 -335 -129 -20 -2 -42 -11 -49 -21 -12 -15 -14 -14 -25 16 -6 18 -9 36 -6 39 4 3 92 38 198 77 191 72 192 72 204 51 7 -12 12 -27 13 -33z m140 1 c0 -8 -73 -36 -84 -32 -8 3 31 20 82 36 1 1 2 -1 2 -4z m47 -54 c11 -17 6 -21 -44 -40 -67 -26 -62 -26 -72 2 -7 19 -4 24 33 38 55 23 69 22 83 0z m-144 -53 c4 -12 5 -23 4 -23 -12 -8 -385 -145 -394 -145 -6 0 -13 9 -16 19 -4 16 0 19 26 19 18 -1 35 6 44 17 11 16 287 131 319 134 7 1 14 -9 17 -21z m381 -213 c102 -115 182 -213 178 -216 -10 -8 -864 -331 -867 -327 -1 2 -45 116 -97 255 l-95 251 341 130 c187 72 344 127 348 123 3 -3 90 -100 192 -216z m-834 110 c0 -7 -70 -35 -84 -34 -6 0 7 9 29 19 42 20 55 23 55 15z m-12 -98 c-33 -14 -43 -15 -50 -5 -15 24 -8 35 30 50 35 14 38 13 49 -6 11 -19 8 -23 -29 -39z m-118 43 c-8 -5 -22 -10 -30 -10 -13 0 -13 1 0 10 8 5 22 10 30 10 13 0 13 -1 0 -10z m240 -597 c118 -312 221 -592 229 -622 18 -69 5 -172 -29 -244 -37 -78 -112 -153 -194 -192 -97 -46 -118 -50 -133 -26 -11 18 -7 22 58 46 118 46 200 124 235 229 12 35 15 70 12 134 -5 77 -13 106 -67 246 -38 99 -59 166 -55 178 9 29 -186 539 -208 545 -10 3 -33 50 -63 130 -38 101 -45 127 -34 134 8 5 19 9 24 9 6 0 107 -255 225 -567z m-245 412 c25 -66 45 -124 44 -130 0 -12 -99 236 -99 249 0 20 11 -4 55 -119z m-2883 -66 l-4 -71 -38 53 -39 54 37 17 c20 9 39 17 42 17 3 1 3 -31 2 -70z m48 37 c0 -3 -4 -8 -10 -11 -5 -3 -10 -1 -10 4 0 6 5 11 10 11 6 0 10 -2 10 -4z m4350 -456 c179 -203 326 -373 327 -377 2 -4 -311 -127 -695 -272 -383 -146 -712 -271 -729 -278 l-33 -13 40 52 c52 68 80 145 87 233 7 90 -2 121 -121 434 -53 140 -94 256 -92 258 8 9 862 331 876 331 8 0 161 -165 340 -368z m-1217 -297 c19 -51 32 -93 28 -93 -6 0 -71 169 -71 185 0 17 9 -3 43 -92z m92 -313 l3 -85 -7 80 c-4 44 -13 93 -19 108 -18 43 -14 57 5 17 9 -21 17 -69 18 -120z m-10 -121 c-3 -13 -15 -35 -26 -49 -17 -22 -17 -19 3 26 24 54 33 63 23 23z m-45 -82 c0 -2 -17 -19 -37 -38 l-38 -34 34 38 c33 34 41 42 41 34z m-85 -77 c-9 -14 -45 -32 -45 -23 0 7 24 22 48 32 2 0 0 -3 -3 -9z m-210 -90 c-55 -22 -104 -40 -110 -39 -15 1 177 77 195 78 8 0 -30 -18 -85 -39z m9 -56 c9 -24 7 -34 -8 -34 -7 0 -16 11 -18 25 -6 28 16 36 26 9z m-93 -66 c-24 -10 -41 -9 -41 2 0 6 7 10 15 10 9 0 15 9 15 23 0 22 1 22 13 -3 11 -21 11 -26 -2 -32z m-115 -45 c-10 -10 -19 5 -10 18 6 11 8 11 12 0 2 -7 1 -15 -2 -18z m-83 -20 c4 -6 -928 -369 -978 -381 -7 -2 -15 8 -17 21 -4 21 1 26 45 42 37 14 51 15 57 6 5 -9 127 33 441 153 239 91 437 165 441 166 4 0 9 -3 11 -7z m-914 -267 c-10 -9 -302 -116 -306 -112 -2 2 29 16 69 31 40 16 105 41 143 56 61 24 107 37 94 25z m-143 -120 c10 -21 9 -25 -6 -29 -13 -3 -19 2 -23 19 -7 40 12 47 29 10z m-93 -58 c-2 -3 -20 -12 -40 -19 -31 -10 -37 -9 -45 5 -14 25 -12 29 34 46 42 15 43 15 49 -5 3 -11 4 -23 2 -27z m5237 -7524 c94 -133 105 -158 90 -200 -14 -35 -39 -64 -56 -64 -17 0 -238 310 -228 319 30 28 98 70 105 66 4 -3 44 -57 89 -121z"/>
    <path d="M28610 26040 l0 -80 85 0 85 0 0 80 0 80 -85 0 -85 0 0 -80z"/>
    <path d="M27772 23518 l3 -83 80 0 80 0 0 80 0 80 -83 3 -83 3 3 -83z"/>
    <path d="M31165 23804 c-166 -26 -280 -62 -430 -135 -368 -180 -626 -517 -710 -927 -25 -125 -6 -153 113 -160 96 -5 102 0 131 128 49 217 142 388 292 539 53 52 189 161 203 161 3 0 23 11 44 24 66 41 214 94 325 115 132 26 272 28 281 6 4 -12 23 -15 82 -15 49 0 103 -8 148 -21 151 -45 381 -181 388 -230 2 -16 13 -25 33 -31 54 -14 191 -200 253 -344 39 -88 77 -237 86 -330 l7 -72 -98 -160 c-82 -136 -100 -159 -115 -151 -56 30 -88 -1 -218 -216 -56 -93 -107 -173 -112 -176 -6 -4 -40 -9 -77 -13 -118 -11 -634 -36 -716 -34 -92 1 -117 -8 -135 -53 -12 -28 -10 -41 18 -129 18 -53 41 -105 52 -115 15 -14 76 -22 327 -45 l308 -29 22 22 c12 12 118 182 236 377 118 195 226 363 240 374 17 12 30 15 41 9 13 -7 10 -18 -26 -78 -22 -39 -51 -81 -64 -95 -27 -30 -244 -386 -244 -401 0 -6 11 -8 29 -4 51 11 43 -12 -16 -47 -62 -37 -86 -75 -67 -106 9 -14 30 -18 110 -20 54 -1 103 -7 108 -12 23 -23 74 -10 128 32 29 22 59 46 66 52 10 7 10 0 -3 -29 -22 -53 -22 -58 -5 -62 10 -2 25 22 49 79 23 55 57 111 100 164 132 163 205 312 264 534 28 106 30 129 31 290 1 200 -10 276 -61 430 -151 455 -519 783 -993 885 -73 16 -362 29 -425 19z m295 -128 c0 -3 -4 -8 -10 -11 -5 -3 -10 -1 -10 4 0 6 5 11 10 11 6 0 10 -2 10 -4z m691 -203 c13 -16 12 -17 -3 -4 -17 13 -22 21 -14 21 2 0 10 -8 17 -17z m139 -130 c0 -8 -9 0 -50 45 l-45 47 48 -45 c26 -24 47 -45 47 -47z m-1600 63 c0 -2 -7 -6 -15 -10 -8 -3 -15 -1 -15 4 0 6 7 10 15 10 8 0 15 -2 15 -4z m1630 -167 c85 -114 179 -294 204 -391 6 -28 6 -28 -44 -28 l-50 0 -1 -62 -1 -63 -18 70 c-43 166 -119 313 -227 443 l-45 52 31 0 c31 0 31 0 31 57 l0 57 31 -30 c17 -16 57 -63 89 -105z m41 14 c13 -16 12 -17 -3 -4 -17 13 -22 21 -14 21 2 0 10 -8 17 -17z m97 -158 c-3 -3 -9 2 -12 12 -6 14 -5 15 5 6 7 -7 10 -15 7 -18z m-2353 -307 l0 -83 61 -3 60 -3 -4 -30 c-7 -45 -37 -60 -101 -50 -52 8 -70 21 -71 51 0 23 43 200 49 200 4 0 6 -37 6 -82z m2425 -31 c0 -2 -10 -12 -22 -23 l-23 -19 19 23 c18 21 26 27 26 19z m67 -69 c-3 -8 -6 -5 -6 6 -1 11 2 17 5 13 3 -3 4 -12 1 -19z m10 -70 c-3 -8 -6 -5 -6 6 -1 11 2 17 5 13 3 -3 4 -12 1 -19z m-207 -258 c0 -15 -7 -20 -25 -20 -23 0 -24 2 -13 20 7 11 18 20 25 20 7 0 13 -9 13 -20z m-111 -207 c14 -11 12 -12 -16 -13 l-33 0 0 -56 c0 -53 -5 -64 -112 -242 -126 -212 -158 -248 -196 -224 -13 9 -6 23 139 264 150 251 194 318 198 301 2 -10 11 -23 20 -30z m-29 -211 c0 -14 -11 -21 -26 -15 -8 3 -11 9 -8 14 7 11 34 12 34 1z m-510 -188 c0 -22 -75 -125 -93 -128 -43 -9 -442 -27 -459 -21 -9 4 -35 33 -58 66 l-41 59 58 1 c32 1 155 7 273 14 266 15 320 17 320 9z m110 -284 c0 -20 -5 -30 -15 -30 -18 0 -20 31 -3 48 17 17 18 16 18 -18z" id="interdisciplina"/>
    <path d="M 34330 23549 L 33775 23460 L 33748 23430 C 33715 23395 33715 23388 33736 23261 C 33754 23146 33766 23113 33795 23094 C 33810 23084 33926 23071 34181 23051 C 34381 23035 34553 23019 34562 23015 C 34571 23011 34581 23001 34584 22993 C 34588 22984 34624 22635 34665 22216 C 34706 21797 34742 21445 34745 21433 C 34748 21420 34763 21404 34778 21397 C 34815 21378 34941 21359 34979 21366 L 35010 21373 L 35012 21654 C 35016 22054 35016 22059 35006 22543 C 34999 22868 35000 22980 35009 22980 C 35015 22980 35020 22991 35020 23005 C 35020 23028 35024 23030 35060 23030 L 35100 23030 L 35100 22190 L 35100 21350 L 35157 21350 L 35213 21350 L 35207 22123 C 35203 22547 35200 23045 35200 23228 L 35200 23560 L 35149 23560 C 35108 23560 35092 23566 35061 23590 C 35019 23624 34972 23641 34920 23639 C 34901 23638 34635 23598 34330 23549 Z M 34640 23280 L 34640 23140 L 34400 23140 L 34160 23140 L 34160 23280 L 34160 23420 L 34400 23420 L 34640 23420 L 34640 23280 Z M 34682 23348 C 34673 23339 34670 23341 34670 23360 C 34670 23379 34673 23381 34682 23372 C 34691 23363 34691 23357 34682 23348 Z M 34960 23087 C 34960 23085 34950 23075 34938 23064 L 34915 23045 L 34934 23068 C 34952 23089 34960 23095 34960 23087 Z M 34825 23018 C 34852 23006 34860 22970 34836 22970 C 34822 22970 34790 23006 34790 23022 C 34790 23033 34794 23032 34825 23018 Z M 34786 22883 C 34772 22857 34761 22842 34761 22850 C 34760 22873 34802 22957 34807 22943 C 34809 22937 34800 22910 34786 22883 Z M 34754 22804 C 34766 22799 34768 22794 34760 22785 C 34751 22775 34742 22774 34719 22782 C 34703 22787 34693 22796 34696 22801 C 34702 22811 34731 22813 34754 22804 Z M 34738 22743 C 34750 22740 34767 22743 34775 22750 C 34788 22761 34790 22758 34790 22736 C 34790 22722 34786 22710 34781 22710 C 34772 22710 34725 22604 34725 22585 C 34725 22572 34677 22530 34669 22536 C 34666 22538 34660 22579 34656 22627 C 34652 22676 34647 22730 34643 22748 L 34638 22781 L 34676 22764 C 34698 22755 34725 22745 34738 22743 Z M 34880 22715 C 34880 22708 34876 22699 34872 22696 C 34858 22687 34820 22720 34820 22741 C 34820 22759 34822 22760 34850 22745 C 34867 22736 34880 22723 34880 22715 Z M 34817 22620 C 34806 22592 34792 22570 34787 22570 C 34782 22570 34780 22573 34782 22578 C 34784 22582 34793 22606 34804 22632 C 34814 22658 34826 22677 34830 22675 C 34835 22672 34829 22647 34817 22620 Z M 34775 22527 C 34786 22518 34789 22511 34782 22506 C 34767 22497 34717 22518 34725 22530 C 34734 22544 34753 22543 34775 22527 Z M 34811 22050 C 34834 22037 34835 22017 34814 21996 C 34802 21984 34794 21983 34779 21990 C 34758 22002 34754 22030 34772 22048 C 34787 22063 34787 22063 34811 22050 Z M 34960 22036 C 34960 22034 34952 22026 34943 22019 C 34927 22006 34926 22007 34939 22023 C 34952 22039 34960 22044 34960 22036 Z M 34878 21558 C 34896 21540 34893 21512 34872 21501 C 34833 21480 34799 21537 34838 21559 C 34860 21572 34864 21572 34878 21558 Z M 34322 23328 L 34325 23245 L 34408 23242 L 34490 23239 L 34490 23325 L 34490 23410 L 34405 23410 L 34319 23410 L 34322 23328 Z M 34420 23337 C 34420 23335 34410 23325 34398 23314 L 34375 23295 L 34394 23318 C 34412 23339 34420 23345 34420 23337 Z" id="innovacion"/>
    <path d="M31300 23495 c0 -8 5 -15 10 -15 6 0 10 7 10 15 0 8 -4 15 -10 15 -5 0 -10 -7 -10 -15z"/>
    <path d="M29010 22200 c-58 -4 -126 -8 -152 -9 -63 -1 -92 -30 -85 -83 4 -33 1 -41 -30 -68 -19 -17 -33 -35 -31 -39 8 -24 624 -880 633 -880 6 0 21 8 35 19 21 16 35 18 81 13 54 -5 58 -4 75 23 10 16 41 56 69 89 146 169 161 195 135 235 -5 8 -10 11 -10 6 0 -5 -103 138 -230 318 -126 179 -230 330 -230 336 0 14 -41 50 -57 50 -8 0 -12 -4 -8 -9 3 -5 1 -13 -5 -16 -6 -4 -9 -1 -8 7 4 16 -37 18 -182 8z m120 -14 c0 -8 -51 -13 -56 -5 -3 5 9 9 25 9 17 0 31 -2 31 -4z m49 -8 c-4 -31 2 -36 36 -33 43 4 44 -5 4 -29 -30 -18 -31 -18 -25 1 6 18 2 19 -54 15 -33 -2 -60 0 -60 5 0 4 15 8 33 8 26 0 33 4 35 23 2 12 10 22 18 22 8 0 14 -6 13 -12z m-226 -5 c-7 -2 -19 -2 -25 0 -7 3 -2 5 12 5 14 0 19 -2 13 -5z m264 -8 c0 -8 -4 -12 -9 -9 -5 3 -6 10 -3 15 9 13 12 11 12 -6z m-147 -5 c0 -5 -5 -10 -11 -10 -5 0 -7 5 -4 10 3 6 8 10 11 10 2 0 4 -4 4 -10z m63 3 c-7 -2 -19 -2 -25 0 -7 3 -2 5 12 5 14 0 19 -2 13 -5z m-237 -30 c-3 -3 -20 -1 -38 5 l-33 12 33 -5 c21 -3 32 0 33 8 0 9 2 8 6 -1 3 -7 2 -16 -1 -19z m-96 -14 c0 -5 -4 -9 -10 -9 -5 0 -10 7 -10 16 0 8 5 12 10 9 6 -3 10 -10 10 -16z m349 -8 c17 -4 26 -15 28 -34 2 -15 -1 -27 -7 -27 -5 0 -10 7 -10 15 0 9 -10 16 -22 16 -18 1 -17 3 7 8 28 7 26 8 -25 18 -33 6 -43 11 -25 11 17 0 41 -3 54 -7z m131 -35 c0 -5 -7 -3 -15 4 -8 7 -15 20 -15 28 0 13 3 12 15 -4 8 -10 15 -23 15 -28z m-347 27 c-7 -2 -21 -2 -30 0 -10 3 -4 5 12 5 17 0 24 -2 18 -5z m87 -18 c0 -9 -12 -20 -26 -25 -32 -13 -44 -13 -44 0 0 6 9 10 20 10 13 0 18 5 14 15 -4 10 0 15 15 15 12 0 21 -6 21 -15z m85 -24 l1 -39 -26 21 c-31 25 -29 57 4 57 18 0 21 -6 21 -39z m135 28 c0 -6 -7 -8 -16 -5 -14 6 -15 4 -4 -9 10 -13 15 -13 21 -3 4 7 11 10 14 6 4 -3 1 -15 -6 -27 -13 -20 -13 -20 -31 6 -9 15 -15 30 -12 35 8 12 34 10 34 -3z m-410 -28 c0 -16 6 -32 13 -34 8 -4 7 -6 -4 -6 -8 -1 -23 15 -32 34 -16 34 -16 35 3 35 15 0 20 -7 20 -29z m90 4 c0 -28 -15 -34 -24 -9 -10 25 -7 34 9 34 9 0 15 -9 15 -25z m17 -7 c-3 -7 -5 -2 -5 12 0 14 2 19 5 13 2 -7 2 -19 0 -25z m201 -25 c14 -12 14 -13 0 -13 -16 0 -29 21 -27 43 0 7 3 5 6 -3 3 -8 12 -21 21 -27z m12 27 c0 -5 -4 -10 -10 -10 -5 0 -10 5 -10 10 0 6 5 10 10 10 6 0 10 -4 10 -10z m348 -247 c164 -232 169 -242 144 -245 -23 -2 -27 -8 -27 -33 0 -27 3 -30 30 -30 22 0 30 5 35 23 5 23 5 23 23 -7 10 -17 22 -31 28 -31 22 0 6 -57 -26 -94 -21 -24 -35 -33 -35 -24 0 8 -8 26 -18 39 -22 29 -349 668 -334 654 5 -5 86 -119 180 -252z m-648 155 c68 -100 66 -96 44 -114 -18 -14 -18 -14 3 -5 29 15 28 15 48 -15 16 -24 16 -26 -2 -39 -10 -7 -21 -11 -25 -9 -4 2 -44 57 -89 121 -74 103 -81 117 -66 128 9 7 14 15 10 19 -4 4 -1 4 7 1 8 -3 40 -42 70 -87z m23 77 c-3 -9 -8 -14 -10 -11 -3 3 -2 9 2 15 9 16 15 13 8 -4z m427 -6 c0 -5 -4 -9 -10 -9 -5 0 -10 7 -10 16 0 8 5 12 10 9 6 -3 10 -10 10 -16z m-85 -16 c2 -10 4 -22 4 -26 1 -5 7 -5 14 -1 6 4 5 -1 -5 -11 -9 -10 -21 -14 -28 -10 -9 6 -9 9 1 16 7 4 11 10 8 13 -2 3 -11 1 -19 -4 -11 -7 -12 -11 0 -24 22 -28 7 -25 -28 4 l-34 28 32 7 c17 4 34 13 37 21 7 18 13 13 18 -13z m62 -17 c-2 -6 5 -23 15 -38 11 -16 15 -28 9 -28 -15 0 -59 73 -53 88 6 16 35 -5 29 -22z m40 8 c-3 -3 -12 -4 -19 -1 -8 3 -5 6 6 6 11 1 17 -2 13 -5z m2 -36 c-5 -10 -12 -18 -14 -18 -3 0 -5 8 -5 18 0 10 7 19 14 19 11 0 13 -5 5 -19z m-66 -21 c-3 -5 0 -13 6 -17 7 -4 -1 -7 -18 -8 -17 0 -31 1 -31 3 0 17 15 33 30 32 10 -1 16 -5 13 -10z m94 -11 c0 -18 -34 -39 -42 -26 -4 6 -3 9 2 8 4 -2 9 1 10 6 1 7 21 24 29 26 0 0 1 -6 1 -14z m-63 -28 c4 3 4 -2 0 -12 -5 -14 -4 -17 5 -12 6 4 11 4 10 -1 -4 -22 2 -34 14 -27 6 4 9 4 5 -1 -4 -4 -3 -16 2 -26 6 -10 6 -20 1 -23 -8 -5 -56 57 -73 94 -6 13 -7 13 -7 0 -1 -9 4 -21 10 -27 12 -12 3 -37 -11 -28 -4 3 -13 19 -19 35 -5 17 -6 28 -1 25 5 -3 11 -1 15 5 4 7 12 7 24 0 10 -5 21 -6 25 -2z m80 -19 c-3 -5 -10 -7 -15 -3 -5 3 -7 10 -3 15 3 5 10 7 15 3 5 -3 7 -10 3 -15z m29 -32 c3 -8 -1 -14 -9 -14 -8 0 -14 6 -14 14 0 7 4 13 9 13 5 0 11 -6 14 -13z m-23 -37 c-1 -12 -4 -11 -15 4 -8 10 -12 23 -8 29 7 11 23 -12 23 -33z m-39 -23 c10 10 19 1 46 -43 31 -52 42 -76 26 -61 -3 4 -13 1 -21 -5 -12 -10 -21 -6 -48 26 -24 28 -32 46 -28 59 4 12 2 17 -4 13 -12 -7 -42 31 -42 54 0 9 12 1 30 -20 23 -28 31 -32 41 -23z m73 16 c4 -10 4 -14 0 -10 -4 4 -14 1 -22 -6 -13 -10 -14 -9 -3 11 14 27 17 27 25 5z m-235 -307 c186 -263 190 -270 173 -290 -16 -20 -16 -20 2 -6 16 13 21 12 43 -14 22 -26 23 -30 9 -45 -15 -14 -18 -14 -35 4 -16 17 -402 557 -425 594 -10 16 23 46 35 34 4 -5 93 -129 198 -277z m301 127 c-17 -61 -35 -83 -26 -30 8 44 27 89 34 82 3 -2 -1 -26 -8 -52z m-57 4 c-3 -5 -11 0 -18 10 -7 10 -11 21 -8 26 3 5 11 0 18 -10 7 -10 11 -21 8 -26z m91 17 c4 -10 2 -13 -6 -8 -8 5 -9 1 -4 -12 5 -14 4 -16 -4 -8 -6 6 -8 18 -4 27 8 21 10 21 18 1z m-70 -42 c-4 -15 -7 -30 -6 -34 1 -5 -8 -8 -20 -8 -21 1 -21 2 -5 11 9 5 17 18 17 29 0 10 3 26 7 36 10 27 16 -2 7 -34z m112 -57 c-3 -8 0 -15 6 -15 6 0 9 -2 6 -5 -3 -3 -12 -3 -21 1 -13 5 -14 9 -4 20 16 18 20 17 13 -1z m124 -30 c0 -20 -5 -25 -25 -25 -20 0 -25 5 -25 25 0 20 5 25 25 25 20 0 25 -5 25 -25z m-300 11 c0 -3 -4 -8 -10 -11 -5 -3 -10 -1 -10 4 0 6 5 11 10 11 6 0 10 -2 10 -4z m145 -27 c-8 -12 2 -11 25 3 14 9 23 9 30 2 8 -8 -1 -19 -28 -37 -45 -32 -52 -33 -52 -9 0 15 2 15 11 2 7 -11 9 -5 6 22 -3 21 -1 35 4 32 5 -3 7 -10 4 -15z m-195 -25 c0 -32 -1 -34 -16 -20 -8 9 -21 16 -27 16 -9 0 30 39 41 40 1 0 2 -16 2 -36z m-32 -28 c7 1 8 0 2 -3 -7 -3 -4 -10 7 -19 13 -11 14 -14 3 -12 -8 2 -21 10 -28 18 -12 13 -13 12 -9 -7 3 -15 1 -20 -9 -16 -16 6 -19 33 -4 33 6 0 10 5 10 11 0 5 -5 7 -12 3 -7 -5 -8 -3 -3 6 6 10 10 10 19 -2 6 -8 17 -14 24 -12z m320 -10 c9 -21 8 -25 -11 -30 -56 -15 -73 0 -40 36 22 24 38 23 51 -6z m-20 -66 c15 0 38 -9 51 -19 l24 -18 -79 -96 c-69 -85 -83 -96 -111 -97 -23 0 -33 5 -38 20 -4 11 -10 18 -14 16 -10 -7 -4 60 7 81 7 12 4 22 -9 37 -21 22 -25 46 -8 46 5 0 7 5 4 10 -4 6 -3 10 2 9 20 -3 34 2 28 11 -4 6 -3 9 2 8 15 -5 72 35 66 46 -3 6 7 -4 22 -21 18 -22 35 -33 53 -33z m-238 3 c0 -3 -3 -3 -7 0 -3 4 -14 0 -23 -8 -16 -14 -17 -14 -15 7 1 13 3 24 4 26 2 5 41 -19 41 -25z m288 7 c7 -12 8 -20 2 -20 -5 0 -10 5 -10 10 0 6 -17 10 -37 11 -34 1 -35 2 -13 9 39 12 44 11 58 -10z m-290 -52 c-16 -12 -25 -13 -30 -5 -10 16 -3 22 26 22 l26 0 -22 -17z m65 -53 c2 -14 1 -22 -3 -20 -4 3 -11 -5 -14 -18 -6 -22 -7 -22 -30 7 -22 26 -31 65 -16 64 21 -2 30 4 24 15 -4 6 2 4 13 -6 12 -10 23 -29 26 -42z m-3 -75 c0 -5 -2 -10 -4 -10 -3 0 -8 5 -11 10 -3 6 -1 10 4 10 6 0 11 -4 11 -10z" id="generacion"/>
    <path d="M29325 21761 c-8 -14 40 -65 53 -57 7 4 6 15 -6 36 -17 30 -36 38 -47 21z m45 -43 c0 -6 -6 -5 -15 2 -8 7 -15 14 -15 16 0 2 7 1 15 -2 8 -4 15 -11 15 -16z"/>
    <path d="M29630 21535 c0 -8 7 -15 15 -15 8 0 15 7 15 15 0 8 -7 15 -15 15 -8 0 -15 -7 -15 -15z"/>
    <path d="M31678 21383 l-27 -26 20 -40 c11 -21 18 -45 15 -53 -3 -8 1 -17 8 -20 8 -3 46 -76 86 -162 40 -86 79 -165 87 -174 11 -12 39 -19 93 -24 l78 -6 38 -82 c21 -44 65 -139 99 -211 34 -71 92 -196 130 -277 39 -85 74 -148 82 -148 15 0 113 47 113 54 0 3 -66 146 -146 318 -80 172 -148 318 -150 324 -3 6 13 10 43 10 40 -1 49 3 61 25 14 24 11 40 -48 235 -35 115 -64 218 -65 229 -2 18 -9 20 -94 20 -56 0 -95 4 -99 11 -4 7 -64 13 -153 17 l-145 6 -26 -26z m396 -350 c21 -44 25 -58 14 -64 -25 -16 -34 -9 -62 48 -21 44 -25 58 -14 64 25 16 34 9 62 -48z m185 -407 c94 -203 112 -249 100 -257 -7 -5 -16 -9 -19 -9 -3 0 -57 114 -122 252 -111 240 -122 277 -83 265 5 -2 61 -115 124 -251z m151 -327 c24 -45 20 -76 -6 -61 -23 13 -56 89 -41 96 23 9 27 6 47 -35z" id="interpretacion"/>
    <path d="M35332 20913 c4 -436 4 -450 27 -518 46 -141 134 -268 243 -350 68 -52 176 -105 248 -123 45 -12 1961 -392 1974 -392 12 0 6 30 -6 31 -7 1 -23 3 -35 4 -12 1 -42 7 -65 13 -53 14 -134 31 -168 36 -14 2 -36 7 -50 10 -14 3 -38 9 -54 12 -16 2 -32 7 -36 9 -7 4 -46 13 -90 20 -58 10 -77 14 -110 21 -19 3 -43 7 -52 8 -10 0 -18 4 -18 8 0 4 -3 7 -7 6 -5 -1 -24 2 -43 6 -19 4 -46 9 -60 11 -27 4 -230 45 -350 71 -41 9 -95 20 -120 25 -25 5 -67 14 -95 19 -27 6 -66 13 -85 16 -19 2 -48 9 -65 14 -16 4 -97 21 -180 36 -300 54 -411 93 -526 187 -102 83 -185 215 -220 351 -17 63 -19 115 -19 470 l0 398 43 -6 c67 -10 97 -16 162 -31 33 -7 76 -16 95 -19 19 -3 44 -8 55 -10 54 -12 282 -57 304 -60 15 -2 73 -13 131 -25 151 -30 202 -40 230 -45 14 -3 52 -10 85 -16 33 -6 74 -15 90 -20 17 -5 50 -12 75 -15 25 -4 77 -14 115 -22 39 -9 82 -16 98 -17 15 0 27 -4 27 -8 0 -4 10 -7 23 -7 24 2 53 -3 154 -27 37 -8 81 -17 98 -20 58 -8 148 -25 155 -29 4 -3 39 -9 76 -15 94 -13 124 -19 159 -30 17 -5 44 -11 60 -14 17 -2 32 -5 35 -6 3 -1 16 -3 30 -5 14 -1 27 -3 30 -4 7 -3 49 -11 80 -15 14 -2 25 -5 25 -6 0 -1 18 -4 40 -6 21 -3 44 -9 50 -14 6 -5 19 -8 29 -6 11 1 44 -3 75 -11 71 -16 81 -16 81 1 0 18 9 16 -272 72 l-237 47 25 38 c27 44 30 59 10 59 -8 0 -25 -17 -38 -37 -13 -20 -26 -41 -29 -45 -3 -5 -494 88 -1091 207 -597 118 -1093 215 -1102 215 -16 0 -17 -31 -14 -447z"/>
    <path d="M34980 21260 l0 -90 60 0 c54 0 60 -2 65 -22 3 -13 6 -176 8 -363 3 -379 5 -388 77 -541 117 -252 337 -421 621 -479 41 -8 101 -20 134 -26 33 -6 76 -14 95 -19 19 -5 416 -84 882 -177 667 -132 850 -165 860 -155 7 7 8 15 3 21 -6 5 -242 54 -525 110 -1428 281 -1514 299 -1595 331 -112 45 -199 106 -297 209 -99 103 -163 220 -199 361 -21 79 -22 114 -26 498 -5 398 -5 412 -24 412 -17 0 -19 -8 -19 -65 l0 -65 -45 0 -45 0 0 75 c0 60 -3 75 -15 75 -12 0 -15 -17 -15 -90z"/>
    <path d="M29365 21100 c-4 -7 1211 -1726 1251 -1769 3 -3 11 2 19 10 14 14 -54 112 -611 892 -344 482 -632 877 -639 877 -8 0 -17 -4 -20 -10z"/>
    <path d="M 34216 20885 C 34190 20854 34170 20826 34172 20822 C 34178 20807 34277 20720 34288 20720 C 34301 20720 34390 20819 34390 20834 C 34390 20851 34297 20940 34279 20940 C 34271 20940 34242 20915 34216 20885 Z M 34287 20813 C 34284 20803 34282 20809 34282 20825 C 34282 20842 34284 20849 34287 20843 C 34289 20836 34289 20822 34287 20813 Z M 34207 21079 C 34186 21074 34096 21027 34007 20974 C 33918 20921 33830 20873 33812 20868 C 33783 20860 33779 20855 33784 20832 C 33786 20817 33791 20784 33795 20759 C 33802 20705 33795 20708 34029 20650 C 34216 20605 34300 20599 34365 20629 C 34453 20669 34499 20746 34500 20850 C 34500 20964 34429 21054 34320 21079 C 34268 21091 34258 21091 34207 21079 Z M 34365 21026 C 34386 21015 34418 20985 34435 20962 C 34462 20923 34465 20910 34465 20845 C 34465 20780 34462 20767 34435 20729 C 34346 20603 34156 20613 34081 20749 C 34028 20846 34067 20976 34165 21028 C 34234 21064 34296 21063 34365 21026 Z M 34033 20904 C 34016 20837 34028 20765 34066 20708 C 34079 20687 34088 20670 34085 20670 C 34082 20670 34032 20682 33974 20696 C 33850 20727 33818 20748 33822 20794 C 33825 20824 33861 20851 34046 20959 C 34046 20960 34041 20935 34033 20904 Z" id="fenomenos"/>
    <path d="M33371 21018 c-28 -35 -51 -68 -51 -75 0 -6 49 -52 109 -103 61 -50 113 -100 116 -111 4 -11 3 -34 0 -51 l-7 -32 -19 35 c-15 31 -155 154 -238 211 -32 22 -63 23 -101 3 -23 -12 -33 -28 -44 -68 -12 -42 -68 -393 -147 -924 -14 -96 -4 -135 44 -159 38 -20 62 -15 211 43 82 32 129 57 152 79 l33 33 -10 -28 c-15 -43 -32 -54 -176 -116 -78 -34 -133 -63 -133 -71 0 -7 12 -43 27 -79 20 -49 31 -65 47 -65 21 0 192 67 266 105 80 41 150 134 150 199 0 44 49 385 95 657 33 196 35 219 24 279 l-12 65 -134 115 c-73 63 -137 116 -142 118 -4 1 -31 -26 -60 -60z m168 -73 c176 -150 175 -145 122 -462 -22 -131 -54 -337 -71 -458 -36 -251 -48 -282 -127 -333 -26 -17 -82 -44 -123 -60 -41 -17 -92 -38 -113 -46 l-38 -17 -23 53 -23 53 127 55 c140 61 157 72 172 110 5 14 25 130 43 257 19 128 48 320 66 427 28 167 30 198 20 225 -8 17 -54 64 -112 112 -54 45 -99 83 -99 86 0 9 64 83 71 83 5 0 53 -38 108 -85z m-382 -187 c-3 -8 -6 -5 -6 6 -1 11 2 17 5 13 3 -3 4 -12 1 -19z m-10 -70 c-3 -7 -5 -2 -5 12 0 14 2 19 5 13 2 -7 2 -19 0 -25z m-10 -60 c-3 -8 -6 -5 -6 6 -1 11 2 17 5 13 3 -3 4 -12 1 -19z m380 -65 c-3 -10 -5 -4 -5 12 0 17 2 24 5 18 2 -7 2 -21 0 -30z m-390 -5 c-3 -7 -5 -2 -5 12 0 14 2 19 5 13 2 -7 2 -19 0 -25z m220 -45 c-3 -10 -5 -4 -5 12 0 17 2 24 5 18 2 -7 2 -21 0 -30z m-230 -15 c-3 -8 -6 -5 -6 6 -1 11 2 17 5 13 3 -3 4 -12 1 -19z m-10 -60 c-3 -8 -6 -5 -6 6 -1 11 2 17 5 13 3 -3 4 -12 1 -19z m-10 -70 c-3 -7 -5 -2 -5 12 0 14 2 19 5 13 2 -7 2 -19 0 -25z m-10 -60 c-3 -8 -6 -5 -6 6 -1 11 2 17 5 13 3 -3 4 -12 1 -19z m-10 -70 c-3 -7 -5 -2 -5 12 0 14 2 19 5 13 2 -7 2 -19 0 -25z m-10 -60 c-3 -8 -6 -5 -6 6 -1 11 2 17 5 13 3 -3 4 -12 1 -19z m-10 -70 c-3 -8 -6 -5 -6 6 -1 11 2 17 5 13 3 -3 4 -12 1 -19z m-10 -60 c-3 -8 -6 -5 -6 6 -1 11 2 17 5 13 3 -3 4 -12 1 -19z m343 -141 c0 -2 -10 -12 -22 -23 l-23 -19 19 23 c18 21 26 27 26 19z" id="escenarios"/>
    <path d="M30915 21026 c-43 -18 -93 -79 -101 -121 -10 -53 1 -114 26 -148 l22 -29 -62 -92 -62 -91 -77 0 c-70 0 -81 -3 -115 -29 -47 -35 -66 -79 -66 -149 0 -101 79 -173 181 -165 l47 3 50 -107 50 -107 -25 -23 c-76 -69 -66 -209 18 -268 39 -29 133 -39 179 -20 36 15 87 71 96 104 5 21 10 23 47 19 23 -2 75 -7 116 -11 l74 -7 14 -42 c20 -58 79 -110 135 -118 118 -18 208 59 208 176 0 44 -6 65 -25 94 -14 20 -25 40 -23 44 2 4 30 46 63 93 l60 87 56 -6 c72 -7 120 9 158 52 79 91 55 226 -51 281 -15 8 -52 14 -82 14 l-56 0 -48 103 -49 102 24 22 c81 77 64 226 -32 281 -32 18 -52 22 -101 20 -74 -4 -128 -39 -153 -100 -15 -38 -17 -39 -56 -34 -22 3 -74 8 -116 12 l-77 6 -5 34 c-16 99 -144 163 -242 120z m192 -146 c11 -79 -44 -140 -125 -140 -66 0 -130 70 -120 132 3 18 8 12 22 -29 9 -29 23 -53 29 -53 30 0 177 56 177 67 0 7 -9 36 -20 65 l-20 52 26 -25 c16 -17 28 -42 31 -69z m-84 38 c10 -23 14 -45 9 -49 -4 -3 -29 -13 -55 -22 l-48 -16 -9 25 c-25 64 -24 68 22 85 62 24 63 23 81 -23z m517 18 c0 -2 -16 -24 -36 -47 l-36 -44 68 -62 c38 -35 73 -63 78 -63 4 0 25 19 47 43 29 32 36 37 32 20 -8 -33 -50 -71 -92 -84 -129 -39 -211 161 -93 225 30 17 32 18 32 12z m115 -27 c19 -17 35 -38 35 -46 0 -9 -17 -35 -39 -58 l-38 -42 -51 42 -50 42 40 46 c22 26 46 47 53 47 8 0 30 -14 50 -31z m-315 -271 c53 -17 102 -51 148 -103 73 -83 95 -203 57 -315 -26 -77 -118 -169 -195 -195 -117 -40 -234 -16 -324 66 -142 130 -149 324 -18 462 86 91 211 122 332 85z m-625 -159 c63 -38 82 -106 45 -166 -35 -58 -102 -78 -161 -47 -41 21 -34 24 25 13 27 -5 52 -7 54 -4 7 7 31 135 32 167 0 25 -3 26 -61 33 -41 5 -57 10 -48 16 24 15 77 10 114 -12z m-51 -103 c-4 -28 -9 -54 -13 -58 -3 -4 -26 -2 -51 3 l-46 10 10 58 9 57 49 -9 48 -10 -6 -51z m1227 18 c42 -21 31 -27 -32 -16 -30 6 -56 9 -58 7 -7 -7 -30 -130 -31 -162 0 -30 2 -31 50 -38 30 -4 48 -11 44 -17 -11 -17 -84 -1 -111 24 -53 48 -62 109 -25 166 32 50 106 66 163 36z m6 -60 l29 -6 -9 -59 c-8 -47 -13 -59 -26 -55 -9 2 -31 7 -49 11 -33 7 -33 7 -26 53 4 26 8 50 11 55 5 9 30 9 70 1z m-926 -387 c81 -54 79 -163 -4 -212 l-31 -18 23 31 c12 17 26 34 31 37 23 14 6 45 -47 92 -84 72 -80 71 -124 22 -22 -25 -36 -35 -32 -24 11 35 32 59 66 77 44 24 78 22 118 -5z m591 -43 c36 -19 60 -66 56 -112 l-3 -37 -18 52 c-10 29 -23 55 -27 58 -10 6 -158 -42 -174 -56 -5 -4 -1 -29 8 -56 l16 -48 -22 23 c-36 35 -32 111 7 152 47 49 93 56 157 24z m-649 -55 c20 -17 37 -36 37 -43 0 -7 -13 -25 -30 -41 l-30 -29 -32 30 c-18 16 -37 32 -42 36 -8 6 40 78 53 78 4 0 23 -14 44 -31z m660 -74 c22 -59 18 -72 -29 -91 -55 -23 -76 -13 -97 46 -10 29 -16 54 -14 56 10 10 102 43 112 40 5 -1 18 -24 28 -51z" id="modelos"/>
    <path d="M 33730 19789 C 33716 19783 33698 19781 33690 19783 C 33681 19785 33669 19781 33662 19773 C 33653 19764 33653 19760 33661 19760 C 33667 19760 33656 19742 33636 19720 C 33617 19698 33598 19669 33594 19656 C 33590 19640 33583 19633 33574 19637 C 33558 19643 33554 19605 33570 19595 C 33576 19592 33580 19570 33580 19546 C 33580 19488 33623 19405 33672 19370 C 33770 19299 33911 19310 33991 19397 C 34137 19553 34028 19802 33816 19799 C 33782 19799 33744 19794 33730 19789 Z M 33867 19764 C 33864 19761 33855 19760 33848 19763 C 33840 19766 33843 19769 33854 19769 C 33865 19770 33871 19767 33867 19764 Z M 33898 19712 C 33983 19673 34014 19542 33957 19467 C 33924 19423 33864 19390 33819 19390 C 33776 19390 33705 19425 33681 19458 C 33631 19529 33636 19614 33693 19676 C 33749 19737 33818 19750 33898 19712 Z M 33617 19598 C 33614 19590 33611 19593 33611 19604 C 33610 19615 33613 19621 33616 19617 C 33619 19614 33620 19605 33617 19598 Z M 34027 19553 C 34024 19543 34022 19549 34022 19565 C 34022 19582 34024 19589 34027 19583 C 34029 19576 34029 19562 34027 19553 Z M 33833 19353 C 33826 19351 33812 19351 33803 19353 C 33793 19356 33799 19358 33815 19358 C 33832 19358 33839 19356 33833 19353 Z M 33807 19602 C 33781 19576 33760 19547 33760 19538 C 33760 19522 33859 19430 33876 19430 C 33888 19430 33980 19535 33980 19549 C 33980 19560 33877 19650 33864 19650 C 33858 19650 33833 19628 33807 19602 Z" id="evidencias"/>
    <path d="M30741 19359 c-30 -21 -60 -39 -68 -39 -45 0 3 -73 539 -824 524 -733 554 -773 573 -760 11 8 29 14 40 14 28 0 41 8 237 149 220 157 218 156 218 201 0 37 -4 43 -96 171 l-34 47 50 32 c57 37 80 64 80 97 0 22 -275 424 -308 451 -26 20 -53 14 -120 -30 -52 -34 -66 -39 -72 -27 -5 8 -29 42 -54 77 -44 58 -49 62 -87 62 -36 0 -59 -13 -196 -111 -85 -61 -158 -107 -162 -103 -19 21 -151 213 -151 219 0 4 9 18 20 32 31 40 27 98 -10 135 -26 25 -36 29 -68 26 -20 -3 -44 -8 -53 -12 -13 -6 -35 20 -100 113 -61 87 -89 120 -104 120 -11 0 -44 -18 -74 -40z m365 -246 c17 -17 17 -18 -2 -22 -10 -2 -24 -7 -29 -12 -7 -5 -16 0 -24 13 -11 17 -10 22 1 29 20 13 35 11 54 -8z m592 -215 c105 -144 153 -218 139 -218 -7 0 -55 59 -106 130 -51 72 -97 130 -103 130 -6 0 -94 -59 -197 -131 -102 -73 -193 -137 -201 -142 -11 -8 -12 -8 -5 0 29 33 393 283 412 283 15 0 34 -17 61 -52z m445 -627 c59 -83 107 -158 107 -169 0 -10 -10 -28 -22 -39 -23 -20 -359 -261 -388 -278 -40 -23 17 21 198 150 109 79 197 148 196 156 -1 8 -41 71 -90 139 -142 198 -137 190 -121 190 7 0 62 -67 120 -149z m-602 -8 c13 -16 12 -17 -3 -4 -17 13 -22 21 -14 21 2 0 10 -8 17 -17z m-29 -65 c12 -17 17 -28 10 -25 -6 4 -21 22 -34 39 -12 17 -17 28 -10 25 6 -4 21 -22 34 -39z" id="exploracion"/>
    <path d="M35055 19061 c-35 -15 -141 -121 -387 -386 -18 -19 -18 -19 -56 18 -21 20 -45 37 -53 37 -21 0 -424 -431 -452 -483 -17 -33 -21 -58 -21 -117 0 -65 12 -113 83 -350 46 -151 89 -281 95 -288 10 -10 20 -10 55 3 24 8 49 15 56 15 6 0 32 -69 60 -162 106 -357 120 -389 189 -422 19 -9 369 -95 778 -190 409 -96 755 -177 770 -181 24 -6 27 -4 37 31 8 29 8 41 -2 50 -6 6 -75 26 -152 44 -77 18 -145 35 -151 39 -7 3 82 106 224 256 500 531 517 551 530 592 7 22 12 50 12 61 0 12 -36 137 -79 279 -43 142 -82 272 -86 289 -8 42 -69 102 -114 113 -20 5 -196 47 -391 92 -195 45 -359 86 -363 90 -5 4 19 105 52 224 34 120 59 220 57 222 -10 10 -589 143 -619 143 -18 0 -50 -9 -72 -19z" id="simulador"/>
    <path d="M36985 16766 c-91 -41 -117 -150 -55 -229 11 -14 20 -34 20 -45 0 -11 34 -52 78 -95 103 -102 124 -103 180 -4 30 52 28 71 -12 126 -25 34 -32 51 -26 61 15 24 11 100 -7 130 -20 35 -81 70 -119 70 -16 -1 -42 -7 -59 -14z m69 -62 c30 -11 16 -23 -31 -26 l-48 -3 -5 -60 -5 -60 -19 37 c-15 29 -17 44 -10 70 9 29 14 33 41 30 17 -2 34 2 38 7 7 12 17 14 39 5z m55 -213 c-21 -16 -22 -22 -11 -45 14 -32 32 -33 65 -2 15 14 29 21 32 15 6 -9 -40 -95 -57 -105 -6 -4 -44 27 -86 69 l-75 76 39 -6 c21 -2 50 0 64 6 41 16 54 13 29 -8z" id="resultados"/>
  </g>
</svg>