<?xml version="1.0" encoding="utf-8"?>
<svg xmlns="http://www.w3.org/2000/svg" version="1.0" preserveAspectRatio="xMidYMid meet" viewBox="1719.9 2147.33 1299.78 1525.77">
  <g transform="translate(0.000000,4324.000000) scale(0.100000,-0.100000)" fill="#000000" stroke="none">
    <path d="M27230 21765 c-8 -2 -1043 -162 -2300 -355 -1257 -193 -2337 -360 -2400 -371 -63 -11 -506 -80 -985 -154 -871 -134 -921 -144 -1060 -205 -85 -37 -207 -125 -286 -207 -144 -149 -230 -306 -273 -498 -9 -38 -599 -3013 -1312 -6610 -712 -3597 -1298 -6550 -1301 -6562 -5 -20 -11 -23 -59 -23 l-55 0 3 -132 3 -133 138 -3 137 -3 0 56 0 55 -115 0 -115 0 0 59 0 60 47 3 47 3 1311 6620 c722 3641 1321 6650 1333 6686 108 343 410 607 772 673 88 16 1687 264 1750 271 19 2 80 9 135 14 55 6 123 17 150 26 28 8 95 21 150 30 55 8 1034 160 2175 336 1520 235 2107 323 2196 326 323 14 634 -83 894 -280 135 -103 270 -252 351 -388 17 -30 116 -207 219 -395 103 -187 227 -401 276 -475 88 -134 204 -350 204 -380 0 -9 8 -27 18 -40 10 -13 22 -31 25 -39 4 -8 26 -49 50 -91 23 -42 215 -391 427 -776 321 -583 388 -699 403 -695 10 2 16 10 13 17 -2 6 -193 356 -423 776 -231 420 -429 782 -440 804 -11 22 -33 63 -47 90 -15 28 -38 75 -51 106 -29 68 -181 319 -205 339 -4 3 -102 181 -220 395 -117 215 -236 423 -263 463 -70 102 -210 247 -314 326 -49 36 -145 95 -215 130 -207 106 -373 146 -623 152 -82 1 -157 1 -165 -1z"/>
    <path d="M27225 21603 c-16 -2 -931 -143 -2032 -314 -1101 -170 -2017 -309 -2035 -309 -18 -1 -60 -8 -93 -16 -33 -9 -114 -22 -180 -29 -66 -8 -158 -21 -205 -29 -47 -9 -502 -81 -1011 -160 -510 -80 -953 -152 -985 -162 -33 -9 -95 -35 -139 -56 -181 -91 -299 -209 -391 -393 -51 -104 -57 -124 -105 -355 -27 -135 -56 -279 -64 -320 -8 -41 -23 -111 -34 -155 -11 -44 -29 -138 -40 -210 -18 -116 -366 -1872 -390 -1970 -6 -22 -17 -78 -25 -125 -16 -85 -1427 -7210 -1532 -7737 l-57 -281 -38 24 c-21 13 -43 24 -49 24 -22 0 -8 -29 23 -49 17 -11 38 -24 45 -29 10 -7 -33 -241 -203 -1094 -118 -597 -215 -1093 -215 -1102 0 -16 31 -17 448 -14 435 4 449 4 517 27 141 46 268 134 350 243 52 68 105 176 123 248 7 25 104 513 217 1085 113 572 255 1289 316 1594 61 304 108 556 105 559 -3 3 -6 1 -7 -4 0 -5 -3 -18 -6 -29 -2 -11 -8 -43 -13 -72 -4 -28 -11 -56 -14 -61 -3 -5 -8 -24 -11 -43 -4 -30 -23 -117 -56 -259 -6 -25 -12 -58 -14 -75 -3 -16 -8 -43 -11 -60 -4 -16 -9 -37 -10 -45 -3 -16 -14 -76 -19 -100 -2 -8 -4 -15 -6 -15 -1 0 -3 -9 -13 -60 -2 -11 -6 -27 -10 -36 -4 -9 -6 -20 -5 -25 1 -5 -1 -17 -6 -27 -4 -10 -5 -21 -2 -24 4 -3 2 -13 -2 -22 -5 -9 -12 -38 -15 -65 -4 -27 -9 -53 -12 -57 -2 -4 -8 -27 -13 -51 -5 -24 -12 -54 -16 -68 -9 -33 -13 -55 -20 -109 -3 -25 -8 -48 -11 -52 -4 -7 -30 -130 -38 -179 -2 -14 -7 -36 -10 -50 -3 -14 -9 -38 -12 -54 -2 -16 -7 -32 -9 -36 -4 -7 -13 -46 -20 -90 -10 -58 -14 -77 -21 -110 -3 -19 -7 -43 -8 -52 0 -10 -4 -18 -8 -18 -4 0 -7 -3 -6 -7 1 -5 -2 -24 -6 -43 -4 -19 -9 -46 -11 -60 -4 -27 -45 -230 -71 -350 -9 -41 -20 -95 -25 -120 -5 -25 -14 -67 -19 -95 -6 -27 -13 -66 -16 -85 -2 -19 -9 -48 -14 -65 -4 -16 -21 -97 -36 -180 -54 -300 -93 -411 -187 -526 -83 -102 -215 -185 -351 -220 -63 -17 -115 -19 -470 -19 l-398 0 6 43 c10 67 16 97 31 162 7 33 16 76 19 95 3 19 8 44 10 55 12 54 57 282 60 304 2 15 13 73 25 131 30 151 40 202 45 230 3 14 10 52 16 85 6 33 15 74 20 90 5 17 12 50 15 75 4 25 14 77 22 115 9 39 16 82 17 97 0 16 4 28 8 28 4 0 7 10 7 23 -2 24 3 53 27 154 8 37 17 81 20 98 8 58 25 148 29 155 3 4 9 39 15 76 13 94 19 124 30 159 5 17 11 44 14 60 2 17 5 32 6 35 1 3 3 16 5 30 1 14 3 27 4 30 3 7 11 49 15 80 2 14 5 25 6 25 1 0 3 16 6 35 2 19 7 42 11 50 4 8 7 26 8 40 1 14 10 63 20 110 26 125 32 158 45 229 6 36 13 68 15 71 3 4 7 32 11 61 3 30 10 62 16 72 5 9 7 17 4 17 -2 0 2 26 9 58 7 31 16 79 20 106 3 27 8 52 10 56 5 7 15 54 20 90 1 14 8 48 15 75 6 28 14 64 16 80 5 32 17 96 40 210 23 114 34 178 40 215 2 19 7 43 10 52 6 21 13 54 20 98 3 19 7 42 10 50 6 16 33 165 40 215 2 16 7 39 11 50 8 25 11 40 18 89 3 21 7 42 9 45 2 3 7 31 11 61 4 30 9 59 12 63 3 5 6 18 8 30 16 100 24 144 29 157 3 8 8 29 10 45 12 81 35 168 47 176 6 3 42 0 82 -8 40 -7 81 -15 92 -17 11 -2 31 -7 45 -10 14 -4 39 -8 55 -10 17 -2 41 -6 55 -9 14 -4 39 -9 55 -11 17 -3 68 -12 115 -21 47 -8 123 -22 170 -31 47 -8 99 -17 115 -20 58 -11 90 -16 110 -18 11 -1 31 -6 45 -10 14 -4 43 -9 65 -11 71 -7 130 -18 146 -26 8 -4 20 -4 27 0 6 4 -226 53 -516 110 -493 96 -641 126 -647 133 -4 3 73 389 77 393 5 4 521 34 598 35 41 0 102 5 135 10 80 13 332 30 439 30 97 0 93 5 76 -89 -6 -31 -14 -81 -19 -111 -5 -30 -12 -68 -15 -85 -4 -16 -22 -115 -42 -220 -24 -126 -42 -194 -52 -202 -13 -11 -13 -13 -1 -14 8 -1 20 -1 27 0 8 1 16 -7 19 -18 4 -15 19 -23 59 -31 30 -6 54 -12 54 -13 0 -1 -11 -58 -25 -127 -70 -346 -85 -432 -80 -440 11 -17 35 -11 35 9 0 11 4 22 8 25 5 3 14 36 20 73 46 280 116 643 197 1018 36 170 39 195 21 195 -9 0 -18 -10 -20 -22 -3 -13 -16 -70 -30 -128 -14 -58 -28 -123 -31 -145 -13 -76 -77 -410 -80 -413 -1 -2 -32 2 -67 8 l-65 12 39 191 c44 217 77 399 85 471 4 36 11 50 24 53 11 3 19 9 19 14 0 5 9 9 20 9 18 0 20 7 20 75 l0 75 -47 0 c-51 -1 -371 -26 -413 -33 -14 -2 -61 -11 -105 -20 -44 -9 -102 -18 -130 -22 -44 -5 -169 -27 -231 -40 -15 -3 -24 -15 -28 -38 l-6 -33 -183 -12 c-244 -16 -220 -20 -212 31 4 23 14 50 23 60 9 10 17 28 19 40 5 39 34 199 58 315 13 63 19 115 14 118 -5 3 -2 12 7 21 10 10 12 18 5 22 -10 7 198 1083 218 1126 9 19 22 72 36 140 3 17 8 55 10 87 2 31 47 271 99 535 161 811 229 1157 231 1183 2 14 4 27 5 30 1 3 3 10 4 15 1 6 6 28 11 50 5 22 8 46 6 54 -2 10 3 11 16 6 10 -4 34 -11 53 -14 19 -4 100 -44 180 -89 l144 -81 15 22 c8 12 26 33 38 47 28 30 24 14 73 265 21 110 35 203 31 207 -4 5 -76 21 -161 38 -229 45 -270 54 -280 60 -10 6 -1 59 40 250 12 52 28 131 35 175 64 349 309 1565 321 1587 8 14 14 36 14 47 0 12 7 50 14 84 8 34 22 112 31 172 9 61 27 160 40 220 13 61 27 128 30 150 24 148 109 571 126 626 24 78 89 200 144 270 87 111 240 216 390 267 36 12 434 78 975 161 503 77 947 145 985 151 39 6 95 15 125 20 30 5 93 14 140 20 123 17 200 32 205 40 3 5 22 6 43 3 20 -2 57 0 82 6 120 29 3995 623 4095 628 271 13 564 -78 782 -244 91 -70 216 -199 273 -283 24 -36 163 -281 308 -544 145 -264 272 -492 283 -507 10 -15 19 -30 19 -33 0 -3 25 -47 57 -98 31 -51 71 -126 90 -166 18 -39 44 -87 56 -105 13 -19 203 -361 422 -760 220 -400 405 -727 412 -727 6 0 14 4 18 10 3 5 -173 335 -391 732 -219 398 -424 775 -457 838 -32 63 -65 122 -73 131 -8 8 -14 22 -14 29 0 19 -110 210 -121 210 -5 0 -9 4 -9 9 0 6 -13 29 -28 53 -16 24 -125 219 -242 433 -117 215 -231 419 -253 455 -100 162 -244 311 -391 405 -88 56 -251 131 -336 155 -150 42 -374 61 -505 43z m-7559 -4983 c183 -37 184 -37 184 -58 0 -56 -103 -207 -166 -243 -29 -17 -30 -16 -124 38 -52 30 -99 58 -104 63 -8 8 -2 49 26 183 5 26 15 47 22 47 7 0 80 -14 162 -30z m137 -305 c-9 -44 -17 -81 -18 -83 -1 -1 -23 9 -49 24 l-46 26 43 33 c24 18 51 45 61 60 10 15 19 25 21 23 2 -1 -4 -39 -12 -83z m-264 16 l85 -49 -54 -16 c-69 -20 -78 -20 -118 4 -30 19 -32 23 -26 58 7 41 12 52 22 52 4 0 45 -22 91 -49z m181 -103 c55 -31 58 -35 53 -63 -14 -69 -9 -69 -127 -3 l-109 61 49 17 c68 24 68 24 134 -12z"/>
    <path d="M 27800 20145 C 27800 20125 27793 20119 27759 20109 C 27737 20102 27712 20087 27704 20076 C 27674 20033 27686 19999 27792 19824 C 27848 19731 27901 19650 27910 19643 C 27936 19622 27998 19628 28046 19656 C 28101 19688 28120 19715 28120 19758 C 28120 19796 28006 20085 27978 20116 C 27968 20127 27960 20144 27960 20153 C 27960 20168 27948 20170 27880 20170 C 27802 20170 27800 20169 27800 20145 Z M 27800 20040 L 27800 20000 L 27879 20000 L 27959 20000 L 27962 20037 C 27965 20071 27968 20066 28008 19969 C 28052 19861 28055 19848 28042 19853 C 28029 19856 27960 19816 27960 19805 C 27960 19787 28010 19720 28023 19720 C 28030 19720 28046 19727 28058 19736 C 28090 19758 28085 19736 28051 19708 C 28004 19668 27964 19655 27940 19671 C 27929 19679 27877 19757 27824 19845 C 27723 20016 27715 20044 27760 20067 C 27797 20086 27800 20084 27800 20040 Z M 28160 19486 C 28079 19458 28064 19449 28053 19424 C 28046 19408 28043 19385 28045 19374 C 28052 19344 28247 19018 28267 19003 C 28307 18973 28408 19006 28457 19064 C 28476 19087 28481 19102 28477 19129 C 28472 19175 28346 19468 28323 19491 C 28292 19520 28259 19519 28160 19486 Z M 28299 19456 L 28322 19431 L 28264 19428 L 28205 19425 L 28202 19343 L 28199 19260 L 28281 19260 C 28354 19260 28362 19262 28367 19281 C 28372 19298 28376 19295 28391 19260 C 28413 19212 28414 19207 28401 19215 C 28387 19223 28320 19188 28320 19172 C 28320 19150 28362 19080 28375 19080 C 28381 19080 28395 19087 28406 19095 C 28433 19115 28442 19114 28428 19091 C 28410 19062 28344 19028 28313 19032 C 28290 19035 28271 19059 28181 19207 C 28055 19415 28055 19415 28177 19453 C 28276 19485 28272 19485 28299 19456 Z M 27310 21029 C 27222 20958 27220 20955 27220 20912 C 27220 20887 27244 20844 27322 20727 C 27378 20644 27431 20570 27439 20563 C 27463 20544 27513 20548 27567 20571 C 27674 20617 27680 20648 27611 20795 C 27563 20896 27560 20908 27560 20981 L 27560 21060 L 27526 21060 C 27508 21060 27479 21067 27464 21075 C 27415 21101 27390 21093 27310 21029 Z M 27461 20890 L 27521 20890 L 27571 20785 C 27598 20728 27620 20675 27620 20667 C 27620 20637 27540 20590 27490 20590 C 27462 20590 27452 20601 27360 20741 C 27305 20824 27260 20902 27260 20915 C 27260 20931 27279 20953 27328 20992 L 27395 21047 L 27398 20969 L 27401 20890 L 27461 20890 Z M 28516 18720 C 28377 18673 28376 18650 28506 18428 C 28608 18255 28636 18220 28676 18220 C 28706 18220 28766 18250 28809 18285 C 28849 18319 28850 18358 28813 18443 C 28795 18485 28785 18530 28781 18585 C 28775 18664 28775 18665 28747 18668 C 28731 18670 28716 18679 28713 18688 C 28710 18697 28698 18715 28687 18728 C 28660 18757 28619 18755 28516 18720 Z M 28670 18691 C 28679 18674 28676 18671 28648 18668 L 28615 18665 L 28612 18583 L 28609 18500 L 28679 18500 C 28738 18500 28751 18497 28760 18481 C 28772 18457 28773 18449 28762 18453 C 28750 18456 28680 18417 28680 18407 C 28680 18402 28690 18380 28702 18358 C 28725 18318 28735 18315 28783 18335 C 28815 18348 28800 18323 28761 18297 C 28710 18263 28674 18254 28655 18270 C 28646 18277 28597 18354 28544 18442 C 28425 18640 28425 18644 28530 18682 C 28621 18715 28656 18717 28670 18691 Z M 26930 21195 C 26746 21166 26576 21139 26552 21135 C 26514 21129 26507 21124 26485 21079 L 26460 21030 L 26545 20874 C 26592 20788 26630 20710 26630 20700 C 26630 20691 26641 20671 26654 20657 C 26679 20630 26991 20065 26994 20040 C 26998 20013 27019 19970 27029 19970 C 27034 19970 27087 19881 27146 19773 C 27205 19664 27263 19557 27275 19535 C 27346 19404 27482 19156 27512 19100 C 27531 19064 27583 18970 27627 18890 C 27671 18810 27728 18705 27755 18655 C 27781 18606 27853 18473 27915 18360 C 27977 18247 28089 18043 28163 17905 C 28237 17768 28311 17637 28326 17616 C 28364 17564 28430 17531 28496 17530 C 28560 17530 28602 17545 28715 17607 C 28878 17698 29120 17820 29134 17820 C 29142 17820 29164 17829 29182 17839 C 29200 17850 29297 17903 29397 17958 L 29579 18058 L 29613 17997 C 29631 17964 29650 17935 29656 17933 C 29661 17932 29678 17940 29694 17953 L 29722 17976 L 29412 18540 L 29101 19105 L 29135 19122 C 29154 19132 29171 19144 29175 19150 C 29181 19160 29116 19287 29096 19305 C 29089 19311 29057 19364 29025 19424 C 28992 19483 28960 19534 28954 19537 C 28947 19539 28927 19534 28910 19525 C 28883 19511 28875 19510 28865 19522 C 28853 19536 28280 20576 28280 20585 C 28280 20588 28316 20590 28360 20590 L 28440 20590 L 28440 20670 L 28440 20750 L 28355 20750 L 28271 20750 L 28268 20678 L 28265 20605 L 28211 20704 C 28182 20758 28146 20821 28131 20844 C 28051 20970 27923 21082 27779 21153 C 27636 21223 27559 21241 27400 21245 C 27276 21248 27237 21244 26930 21195 Z M 27486 21160 C 27687 21134 27903 21008 28024 20848 C 28054 20807 28298 20375 28580 19860 C 28856 19357 29086 18943 29090 18940 C 29094 18937 29177 18792 29273 18616 C 29445 18303 29467 18250 29419 18265 C 29406 18269 29398 18266 29393 18254 C 29388 18240 29385 18240 29369 18261 L 29351 18285 L 29133 18175 C 29014 18115 28805 18009 28670 17941 C 28535 17874 28423 17816 28420 17814 C 28418 17811 28421 17796 28427 17780 C 28437 17754 28436 17750 28422 17750 C 28412 17750 28390 17741 28373 17730 C 28355 17719 28340 17715 28340 17720 C 28340 17726 28332 17730 28323 17730 C 28297 17731 28101 18093 28108 18127 C 28111 18142 28126 18158 28151 18171 C 28187 18189 28199 18208 28184 18223 C 28181 18226 28159 18220 28136 18209 C 28067 18175 28058 18184 27948 18386 C 27839 18589 27834 18610 27892 18636 C 27912 18645 27931 18659 27934 18667 C 27943 18690 27910 18694 27872 18673 C 27843 18658 27830 18656 27813 18664 C 27799 18670 27754 18742 27692 18857 C 27580 19062 27577 19077 27641 19105 C 27666 19117 27680 19130 27680 19142 C 27680 19166 27653 19165 27616 19141 C 27592 19125 27582 19123 27566 19132 C 27554 19138 27543 19142 27541 19141 C 27539 19140 27492 19223 27436 19326 C 27323 19533 27322 19540 27387 19576 C 27406 19586 27420 19601 27420 19612 C 27420 19635 27403 19635 27361 19609 C 27339 19596 27324 19592 27317 19599 C 27312 19604 27302 19607 27296 19604 C 27290 19602 27239 19685 27182 19790 C 27081 19977 27080 19980 27096 20005 C 27107 20022 27119 20029 27130 20025 C 27143 20021 27151 20028 27160 20050 C 27174 20085 27174 20085 27138 20094 C 27118 20098 27108 20096 27101 20083 C 27096 20073 27079 20065 27063 20064 C 27035 20063 27028 20073 26873 20357 C 26729 20621 26714 20654 26724 20676 C 26731 20692 26743 20700 26761 20700 C 26782 20700 26789 20706 26794 20726 C 26798 20741 26800 20753 26798 20754 C 26796 20755 26782 20761 26767 20768 C 26742 20779 26739 20778 26730 20755 C 26725 20741 26718 20730 26715 20730 C 26711 20730 26712 20735 26715 20740 C 26718 20746 26712 20750 26701 20750 C 26689 20750 26680 20745 26680 20738 C 26680 20716 26663 20742 26586 20883 C 26518 21008 26504 21050 26531 21050 C 26539 21050 27192 21149 27280 21163 C 27326 21171 27414 21169 27486 21160 Z M 29363 18205 C 29372 18185 29380 18167 29380 18165 C 29380 18159 29239 18088 29236 18092 C 29235 18094 29224 18111 29213 18130 L 29191 18164 L 29258 18201 C 29295 18222 29330 18239 29336 18239 C 29342 18240 29354 18224 29363 18205 Z M 29519 18169 C 29537 18136 29550 18107 29549 18106 C 29538 18098 29432 18040 29427 18040 C 29424 18040 29426 18057 29432 18077 C 29437 18097 29440 18129 29437 18148 C 29430 18188 29447 18230 29469 18230 C 29479 18230 29499 18205 29519 18169 Z M 29184 18113 C 29201 18077 29201 18075 29183 18062 C 29167 18049 29046 17990 29036 17990 C 29030 17990 28989 18062 28992 18066 C 28998 18071 29155 18150 29161 18150 C 29164 18150 29174 18133 29184 18113 Z M 29400 18110 C 29400 18079 29376 18027 29350 18005 C 29315 17973 29285 17978 29265 18019 C 29256 18039 29252 18056 29257 18058 C 29261 18059 29292 18076 29325 18094 C 29398 18135 29400 18135 29400 18110 Z M 29233 17995 C 29242 17976 29245 17960 29240 17960 C 29234 17960 29230 17954 29230 17946 C 29230 17919 29005 17800 28967 17807 C 28938 17813 28903 17874 28923 17887 C 28951 17906 29196 18029 29206 18029 C 29212 18030 29224 18014 29233 17995 Z M 28899 17962 L 28919 17924 L 28844 17887 C 28803 17867 28768 17850 28766 17850 C 28760 17850 28719 17922 28722 17925 C 28729 17931 28866 17999 28872 18000 C 28876 18000 28888 17983 28899 17962 Z M 28710 17870 L 28730 17830 L 28649 17790 C 28604 17767 28567 17750 28565 17752 C 28560 17758 28530 17819 28530 17824 C 28530 17828 28675 17907 28687 17910 C 28689 17910 28699 17892 28710 17870 Z M 28895 17819 C 28904 17803 28907 17784 28903 17777 C 28899 17770 28895 17761 28895 17757 C 28895 17745 28650 17617 28650 17629 C 28650 17635 28642 17640 28632 17640 C 28614 17640 28570 17704 28580 17713 C 28595 17727 28866 17857 28873 17853 C 28877 17851 28887 17835 28895 17819 Z M 28465 17699 C 28476 17679 28486 17670 28496 17674 C 28504 17677 28516 17683 28524 17686 C 28547 17695 28579 17622 28566 17593 C 28557 17574 28547 17570 28507 17570 C 28425 17570 28355 17614 28367 17659 C 28371 17676 28426 17724 28447 17729 C 28448 17730 28457 17716 28465 17699 Z" id="luz"/>
    <path d="M 26235 21185 C 26125 21166 26033 21151 26031 21151 C 26030 21150 26030 21130 26032 21105 C 26035 21066 26032 21059 26015 21055 C 25943 21038 24826 20871 24819 20876 C 24814 20879 24810 20893 24810 20908 C 24810 20963 24810 20963 24576 20928 L 24358 20895 L 24363 20848 C 24369 20805 24367 20800 24347 20795 C 24277 20779 23156 20611 23149 20616 C 23144 20619 23140 20637 23140 20657 L 23140 20693 L 23053 20687 C 23004 20684 22903 20672 22826 20659 L 22688 20637 L 22693 20589 C 22699 20542 22699 20542 22667 20536 C 22649 20533 22357 20488 22018 20435 C 21678 20382 21370 20330 21334 20319 C 21050 20231 20813 19996 20734 19724 C 20725 19692 20715 19659 20713 19653 C 20709 19644 20721 19640 20751 19640 L 20795 19640 L 20819 19715 C 20864 19859 20997 20036 21123 20122 C 21201 20175 21329 20234 21410 20253 C 21446 20262 21961 20343 22555 20435 C 23149 20526 23646 20603 23660 20606 C 23680 20610 23675 20604 23639 20576 C 23597 20545 23530 20459 23530 20439 C 23530 20430 23622 20359 23656 20342 C 23674 20333 23679 20336 23695 20367 C 23717 20408 23787 20464 23833 20479 C 23881 20495 24967 20660 25020 20660 C 25078 20660 25154 20624 25201 20574 C 25240 20533 25344 20357 25332 20353 C 25328 20351 25271 20342 25205 20332 C 25105 20317 25081 20316 25060 20327 C 25029 20343 24956 20344 24927 20329 C 24915 20323 24896 20309 24884 20299 C 24869 20285 24811 20272 24643 20246 C 24521 20227 24413 20207 24402 20201 C 24346 20171 24303 20080 24315 20016 C 24326 19957 24448 19833 24599 19725 C 24673 19673 24747 19628 24766 19624 C 24806 19617 24836 19623 24973 19667 C 25060 19695 25115 19722 25248 19802 C 25340 19858 25420 19908 25425 19914 C 25452 19944 25540 20010 25577 20028 C 25599 20040 25633 20063 25650 20079 L 25682 20108 L 25637 20186 C 25613 20230 25576 20297 25556 20335 C 25375 20675 25330 20733 25207 20795 C 25169 20814 25144 20832 25151 20834 C 25159 20837 25246 20851 25345 20865 C 25444 20879 25547 20897 25574 20905 C 25600 20913 25660 20920 25705 20920 C 25751 20920 25790 20924 25792 20928 C 25794 20932 25937 20958 26110 20984 C 26283 21010 26426 21033 26426 21034 C 26427 21034 26439 21058 26454 21087 C 26489 21158 26488 21221 26451 21219 C 26442 21219 26345 21203 26235 21185 Z M 25132 20790 C 25225 20762 25318 20690 25363 20614 C 25367 20607 25349 20592 25321 20577 L 25273 20551 L 25219 20604 C 25158 20662 25095 20690 25023 20690 C 24977 20690 24979 20687 24965 20773 L 24959 20810 L 25013 20810 C 25043 20810 25097 20801 25132 20790 Z M 24937 20748 C 24944 20704 24943 20694 24930 20688 C 24922 20684 24704 20649 24445 20610 C 24187 20571 23967 20536 23958 20534 C 23940 20529 23938 20535 23926 20610 L 23920 20645 L 24413 20721 C 24683 20764 24910 20798 24917 20799 C 24923 20800 24932 20777 24937 20748 Z M 23897 20588 C 23907 20529 23908 20531 23835 20511 C 23782 20497 23710 20449 23685 20410 C 23674 20394 23663 20380 23660 20380 C 23650 20380 23580 20452 23580 20462 C 23580 20482 23677 20568 23730 20595 C 23777 20619 23835 20637 23872 20639 C 23884 20640 23891 20627 23897 20588 Z M 25470 20406 C 25506 20340 25557 20246 25583 20199 L 25630 20112 L 25595 20091 C 25575 20079 25556 20070 25552 20070 C 25548 20070 25514 20128 25476 20198 C 25438 20268 25392 20348 25375 20375 C 25357 20403 25331 20446 25317 20472 L 25292 20520 L 25333 20545 L 25375 20570 L 25390 20549 C 25398 20537 25434 20473 25470 20406 Z M 25430 20186 C 25470 20112 25502 20048 25502 20044 C 25502 20040 25478 20021 25449 20001 C 25420 19981 25397 19961 25399 19957 C 25400 19952 25334 19908 25253 19858 C 25172 19809 25101 19766 25097 19763 C 25092 19760 25095 19772 25104 19788 C 25146 19870 25099 19986 25014 20009 C 24972 20020 24974 20037 25018 20044 C 25064 20051 25104 20080 25125 20120 C 25144 20157 25144 20240 25126 20266 C 25112 20284 25115 20286 25208 20301 C 25368 20328 25346 20339 25430 20186 Z M 25050 20295 C 25136 20250 25126 20123 25034 20084 C 24988 20065 24982 20066 24978 20098 C 24975 20122 24970 20125 24933 20128 C 24895 20131 24890 20135 24880 20165 C 24850 20257 24960 20341 25050 20295 Z M 24847 20191 C 24847 20142 24844 20131 24828 20127 C 24813 20123 24810 20111 24810 20048 C 24810 19957 24796 19923 24754 19916 C 24738 19912 24709 19894 24690 19875 C 24663 19847 24656 19831 24652 19786 L 24648 19732 L 24566 19790 C 24482 19850 24367 19970 24351 20013 C 24332 20062 24370 20143 24425 20173 C 24436 20179 24535 20198 24645 20216 C 24755 20233 24845 20248 24846 20249 C 24846 20249 24847 20223 24847 20191 Z M 24950 20090 C 24950 20085 24948 20080 24946 20080 C 24943 20080 24938 20085 24935 20090 C 24932 20096 24934 20100 24939 20100 C 24945 20100 24950 20096 24950 20090 Z M 25029 19965 C 25062 19948 25090 19895 25090 19851 C 25090 19812 25051 19770 25016 19770 C 24996 19770 24990 19776 24985 19803 C 24974 19854 24934 19908 24887 19932 L 24845 19955 L 24905 19958 C 24938 19960 24969 19965 24975 19971 C 24987 19983 24996 19983 25029 19965 Z M 24869 19865 C 24904 19835 24924 19783 24914 19746 C 24905 19708 24855 19662 24816 19654 C 24752 19643 24680 19702 24680 19767 C 24680 19869 24793 19928 24869 19865 Z M 25006 19740 C 25030 19740 25050 19736 25050 19732 C 25050 19724 24941 19686 24935 19692 C 24934 19694 24937 19717 24944 19745 C 24953 19784 24956 19789 24958 19767 C 24961 19742 24965 19740 25006 19740 Z M 25248 20288 C 25218 20277 25217 20277 25220 20207 C 25222 20150 25188 20090 25140 20065 C 25103 20046 25102 20027 25135 20012 C 25260 19955 25410 20034 25410 20155 C 25410 20253 25330 20319 25248 20288 Z M 25352 20233 C 25385 20197 25385 20122 25350 20084 C 25311 20042 25247 20017 25197 20025 L 25156 20032 L 25183 20052 C 25224 20082 25250 20140 25250 20204 C 25250 20248 25253 20259 25268 20262 C 25299 20269 25328 20259 25352 20233 Z M 24557 20120 C 24562 20067 24560 20056 24536 20020 C 24521 19997 24498 19974 24485 19968 C 24452 19953 24452 19911 24486 19871 C 24562 19781 24720 19861 24720 19990 C 24720 20082 24644 20180 24571 20180 C 24554 20180 24552 20175 24557 20120 Z M 24654 20090 C 24718 20013 24690 19906 24596 19870 C 24560 19857 24536 19864 24510 19897 C 24484 19930 24485 19934 24514 19948 C 24551 19964 24592 20041 24592 20094 C 24593 20134 24595 20138 24610 20130 C 24620 20125 24639 20107 24654 20090 Z" id="patrones"/>
    <path d="M23274 20019 c-131 -215 -243 -393 -249 -395 -19 -6 -689 -51 -709 -46 -13 2 -69 67 -144 167 -127 167 -146 184 -194 166 -28 -11 -85 -80 -99 -121 -10 -27 0 -49 121 -279 74 -142 139 -252 148 -255 34 -11 893 -35 917 -26 35 13 145 203 145 250 0 20 -4 40 -9 45 -6 6 19 57 66 135 358 588 391 645 380 659 -11 13 -122 91 -130 91 -3 0 -112 -176 -243 -391z m301 308 l37 -32 -172 -285 c-95 -157 -224 -371 -288 -476 l-115 -191 -48 30 c-27 16 -47 32 -45 36 6 12 410 677 493 814 47 75 88 137 92 137 4 0 25 -15 46 -33z m-1429 -607 c95 -127 125 -161 151 -169 22 -6 137 -2 369 15 185 13 339 23 340 21 2 -2 -21 -43 -51 -92 -30 -50 -54 -94 -54 -100 -1 -12 122 -85 142 -85 9 0 36 35 60 78 25 42 52 86 61 97 15 20 15 20 16 -3 0 -28 -106 -209 -129 -222 -19 -10 -882 17 -892 28 -20 21 -249 467 -249 484 0 30 68 108 95 108 17 0 49 -36 141 -160z" id="texturas"/>
    <path d="M 26186 19483 C 26161 19451 26140 19418 26140 19409 C 26140 19393 26320 19240 26339 19240 C 26350 19240 26450 19365 26450 19379 C 26450 19391 26260 19540 26244 19540 C 26237 19540 26211 19514 26186 19483 Z M 26315 19418 C 26351 19390 26380 19364 26380 19361 C 26379 19358 26370 19344 26360 19331 L 26340 19308 L 26270 19364 L 26200 19421 L 26217 19445 C 26227 19458 26239 19470 26243 19470 C 26247 19470 26280 19447 26315 19418 Z M 25955 19663 C 25930 19632 25910 19599 25912 19589 C 25915 19568 26088 19430 26110 19430 C 26123 19430 26220 19547 26220 19563 C 26220 19575 26033 19720 26017 19720 C 26008 19720 25980 19695 25955 19663 Z M 26120 19572 L 26155 19542 L 26131 19517 L 26108 19491 L 26039 19547 L 25970 19602 L 25991 19631 L 26012 19660 L 26048 19631 C 26068 19615 26101 19588 26120 19572 Z M 25680 20065 C 25661 20051 25620 20025 25590 20009 C 25560 19992 25513 19959 25486 19934 C 25448 19899 25439 19885 25444 19867 C 25449 19844 26310 19153 26354 19136 C 26394 19121 26437 19145 26454 19194 C 26487 19285 26511 19384 26506 19406 C 26502 19420 26370 19544 26167 19722 C 25985 19883 25819 20029 25800 20047 C 25749 20092 25722 20096 25680 20065 Z M 26097 19739 C 26289 19570 26453 19423 26462 19413 C 26479 19395 26478 19389 26450 19289 C 26433 19232 26420 19184 26420 19183 C 26420 19182 26411 19176 26399 19170 C 26372 19155 26379 19151 26066 19399 L 25806 19605 L 25858 19608 C 25888 19610 25910 19616 25910 19622 C 25910 19628 25928 19657 25950 19686 C 25972 19715 25990 19743 25990 19748 C 25990 19752 25944 19792 25887 19835 C 25799 19903 25779 19924 25752 19977 C 25734 20011 25720 20042 25720 20045 C 25720 20066 25786 20013 26097 19739 Z M 25730 19928 C 25730 19924 25711 19911 25689 19899 C 25644 19876 25645 19876 25615 19932 C 25593 19972 25596 19979 25643 19999 L 25685 20017 L 25707 19976 C 25719 19954 25729 19932 25730 19928 Z M 25589 19895 C 25606 19865 25627 19840 25635 19840 C 25644 19840 25676 19854 25707 19872 C 25767 19906 25768 19901 25713 19833 C 25695 19810 25680 19785 25680 19776 C 25680 19768 25696 19748 25715 19733 C 25740 19713 25750 19697 25750 19678 C 25750 19652 25744 19655 25620 19753 C 25545 19812 25490 19862 25490 19872 C 25490 19885 25545 19950 25557 19950 C 25557 19950 25572 19925 25589 19895 Z M 25845 19790 C 25849 19784 25828 19780 25795 19780 C 25736 19780 25734 19783 25768 19822 C 25782 19839 25784 19838 25811 19819 C 25827 19808 25842 19795 25845 19790 Z M 21395 19469 C 21376 19460 21309 19346 21310 19325 C 21310 19320 21337 19270 21370 19215 C 21403 19160 21430 19108 21430 19100 C 21430 19074 21359 18872 21347 18862 C 21340 18857 21307 18843 21273 18831 C 21190 18800 21181 18788 21178 18706 C 21176 18642 21178 18636 21203 18614 C 21219 18601 21238 18590 21247 18590 C 21267 18590 21530 18660 21551 18671 C 21560 18675 21572 18692 21578 18707 C 21595 18750 21670 19152 21670 19198 C 21670 19234 21660 19250 21579 19349 C 21470 19483 21450 19496 21395 19469 Z M 21535 19314 L 21622 19209 L 21574 18962 L 21525 18715 L 21392 18682 C 21319 18663 21252 18651 21244 18654 C 21233 18658 21230 18672 21232 18707 L 21235 18754 L 21298 18778 C 21386 18812 21409 18839 21448 18956 C 21494 19099 21492 19124 21425 19232 L 21370 19321 L 21395 19371 C 21409 19398 21426 19420 21434 19420 C 21441 19420 21487 19372 21535 19314 Z" id="palabras"/>
    <path d="M20649 19332 l-55 -287 -30 4 c-73 10 -64 26 -110 -204 -26 -132 -38 -214 -32 -222 5 -6 27 -14 49 -18 21 -4 39 -11 39 -16 0 -5 -31 -156 -70 -335 -38 -180 -70 -328 -70 -330 0 -2 -6 -4 -13 -4 -13 0 -30 -80 -187 -875 -37 -192 -74 -363 -81 -380 -21 -48 -18 -293 4 -385 21 -87 59 -187 95 -249 l26 -45 -54 31 c-30 17 -102 58 -160 91 l-104 59 -24 -36 c-14 -20 -35 -49 -47 -66 l-23 -30 391 -220 c215 -121 394 -221 398 -223 3 -1 12 26 18 60 7 35 15 73 18 84 4 18 -6 27 -54 54 -33 19 -97 73 -149 125 -78 79 -98 107 -142 196 -64 130 -93 242 -94 366 -1 51 1 96 5 99 3 3 55 -4 115 -15 60 -12 116 -21 124 -21 19 0 27 35 98 405 27 143 72 377 100 520 28 143 57 291 64 328 l13 69 -28 10 c-16 5 -29 16 -29 23 0 7 11 67 25 135 14 68 25 138 25 158 0 19 12 97 26 173 15 77 24 142 20 146 -3 3 -35 12 -71 18 -74 14 -77 13 -89 -60 -18 -97 -28 -134 -40 -138 -8 -3 -2 46 21 167 18 94 35 181 38 192 5 21 6 21 72 8 36 -8 70 -11 74 -7 4 5 19 69 34 143 34 175 32 168 63 172 27 3 27 4 30 85 2 62 0 82 -11 85 -11 2 -6 40 24 193 21 105 38 200 38 211 1 18 -8 23 -56 33 -31 6 -81 11 -112 11 l-56 0 -56 -288z m205 223 l38 -6 -7 -47 c-4 -26 -9 -50 -11 -53 -2 -3 -28 -1 -59 4 -43 8 -54 14 -51 26 2 9 7 33 11 54 5 29 10 37 23 33 9 -2 34 -7 56 -11z m-3 -141 c11 -3 15 -12 11 -29 -5 -28 -18 -30 -74 -14 -31 8 -38 15 -38 35 0 25 2 25 43 19 23 -3 49 -8 58 -11z m-3 -89 c2 -2 -7 -52 -24 -132 -3 -19 -12 -22 -57 -25 l-52 -3 0 -80 0 -80 36 -3 c31 -3 36 -6 32 -23 -3 -11 -11 -18 -18 -15 -7 2 -33 7 -57 11 l-45 7 33 161 c19 89 36 171 39 183 4 20 8 21 57 11 29 -5 54 -11 56 -12z m-93 -285 c3 -5 1 -10 -4 -10 -6 0 -11 5 -11 10 0 6 2 10 4 10 3 0 8 -4 11 -10z m-2 -106 c16 -5 24 -34 12 -46 -3 -2 -30 0 -60 5 -41 8 -55 15 -55 27 0 9 3 20 7 24 7 7 55 2 96 -10z m-8 -80 c9 -4 9 -18 1 -62 -7 -31 -16 -56 -21 -55 -6 0 -31 4 -57 7 -53 7 -52 5 -37 76 l11 52 45 -7 c25 -4 51 -9 58 -11z m-28 -368 c1 -1 -2 -19 -7 -41 -4 -22 -11 -57 -14 -77 l-7 -38 -51 0 c-36 0 -49 4 -45 13 2 6 10 45 17 85 l13 73 46 -7 c25 -4 47 -7 48 -8z m-212 -435 c-14 -72 -25 -133 -25 -136 0 -2 -6 -2 -13 1 -11 4 -6 42 22 187 31 157 36 175 39 130 2 -28 -8 -110 -23 -182z m145 98 c0 -13 -109 -585 -116 -610 -4 -13 -12 -15 -45 -9 -22 4 -42 9 -44 12 -4 3 91 517 110 596 5 19 12 22 50 22 27 0 45 -5 45 -11z m-180 -281 c-1 -7 -16 -87 -34 -178 -18 -91 -32 -168 -30 -171 6 -10 131 -32 143 -25 6 4 13 23 17 44 4 20 10 42 15 48 5 5 19 65 32 132 13 67 27 125 31 129 17 17 22 -17 11 -72 -7 -33 -34 -171 -60 -307 -27 -137 -52 -248 -56 -248 -5 0 -15 15 -23 34 -26 63 -100 76 -157 29 l-32 -28 6 25 c3 14 27 133 52 265 62 321 65 335 76 335 5 0 9 -6 9 -12z m7 -624 c15 -24 15 -29 2 -53 -27 -48 -109 -32 -109 22 0 56 76 77 107 31z m-112 -101 c48 -42 137 -21 157 38 30 83 -28 -269 -87 -536 -15 -68 -19 -74 -38 -70 -12 3 -61 13 -108 23 l-85 17 60 309 c48 243 62 302 68 275 3 -18 18 -44 33 -56z"/>
    <path d="M20296 16929 c-6 -17 -36 -168 -36 -178 0 -12 141 -34 149 -25 11 12 42 174 36 184 -3 4 -26 11 -52 15 -27 3 -58 9 -70 12 -14 3 -25 0 -27 -8z m105 -45 c4 -2 1 -30 -5 -61 -12 -58 -12 -58 -47 -55 -18 1 -37 6 -40 10 -4 4 -2 33 4 65 l10 57 36 -6 c20 -4 39 -8 42 -10z"/>
    <path d="M23799 18550 c-46 -24 -47 -25 -113 -170 -32 -69 -61 -129 -66 -134 -4 -4 -52 2 -105 14 -53 12 -100 18 -105 14 -13 -15 -30 -98 -21 -107 4 -4 37 -15 72 -23 35 -8 74 -16 86 -19 21 -5 20 -9 -33 -126 -61 -137 -67 -177 -29 -207 14 -11 25 -24 25 -30 0 -13 -11 -11 400 -79 190 -31 366 -57 391 -58 57 0 63 4 352 287 216 212 218 213 217 255 0 85 3 84 -540 252 -267 83 -487 151 -490 150 -3 -1 -21 -9 -41 -19z m302 -124 c152 -47 282 -86 288 -86 6 0 11 -3 11 -7 1 -5 -32 -151 -72 -325 -55 -240 -77 -318 -88 -318 -49 0 -709 114 -727 126 -13 8 -23 23 -23 32 0 10 24 72 54 138 52 115 54 119 82 116 16 -2 47 -12 69 -22 51 -25 377 -100 430 -99 22 0 56 -5 75 -10 58 -18 68 -14 79 27 6 20 11 49 11 64 0 24 -5 27 -50 37 -28 6 -56 11 -62 11 -6 0 -16 6 -22 14 -14 17 -402 105 -441 100 -61 -9 -61 3 1 140 58 130 78 161 98 153 6 -3 135 -43 287 -91z m509 -157 c91 -28 173 -55 183 -60 10 -6 17 -21 17 -37 0 -23 -40 -66 -241 -258 -213 -202 -279 -256 -279 -227 0 21 144 633 150 633 3 0 80 -23 170 -51z m-1107 -40 c28 -7 37 -15 33 -26 -3 -8 -6 -21 -6 -28 0 -10 -10 -11 -51 -1 -27 6 -50 14 -50 19 1 4 1 16 1 27 0 23 17 25 73 9z m97 -33 c0 -25 -12 -46 -26 -46 -15 0 -18 18 -8 44 8 20 34 21 34 2z m315 -59 c249 -57 270 -64 267 -82 -2 -11 -8 -24 -12 -28 -6 -7 -537 107 -546 116 -5 5 9 57 15 57 3 0 128 -29 276 -63z m338 -106 c-8 -34 -8 -34 -32 -26 -11 3 -18 12 -15 21 2 7 6 20 8 28 3 9 13 12 25 9 17 -4 20 -11 14 -32z"/>
    <path d="M21795 18265 c-5 -2 -45 -11 -89 -21 -44 -9 -87 -25 -97 -35 -24 -24 -25 -81 -3 -114 l16 -25 -78 -35 c-43 -20 -81 -41 -85 -47 -4 -6 7 -41 25 -79 22 -49 36 -68 50 -69 10 0 51 18 89 40 54 31 72 38 78 28 17 -26 7 -36 -71 -72 -44 -20 -80 -41 -80 -46 0 -5 14 -39 32 -75 38 -77 46 -79 134 -30 34 19 66 35 72 35 13 0 45 -73 45 -103 0 -32 -31 -212 -44 -253 -5 -17 -9 -44 -9 -60 -1 -31 -137 -715 -165 -823 -9 -36 -14 -75 -11 -87 4 -13 36 -44 79 -73 78 -55 119 -64 156 -33 14 11 63 140 152 392 73 206 139 395 147 420 40 126 43 130 74 130 44 0 98 29 120 64 15 24 18 44 15 89 -3 49 -8 62 -36 91 l-34 35 19 50 c14 40 23 51 45 56 88 20 134 121 91 204 -27 54 -65 76 -127 76 l-55 0 -188 188 c-173 172 -191 187 -223 186 -19 0 -38 -2 -44 -4z m103 -108 c19 -17 92 -94 164 -169 l130 -138 -18 -45 c-15 -39 -15 -51 -4 -88 7 -23 27 -56 46 -74 30 -28 32 -33 19 -47 -8 -8 -15 -28 -15 -45 0 -27 -5 -31 -39 -41 -79 -21 -117 -76 -109 -154 3 -24 15 -58 27 -74 12 -18 18 -37 15 -47 -5 -13 -30 6 -116 92 -60 59 -114 118 -119 130 -9 24 5 122 24 160 8 17 7 27 -4 40 -8 10 -22 32 -31 49 l-17 31 35 17 c28 13 34 21 29 34 -16 37 -16 59 -1 71 9 8 16 20 16 27 0 8 -27 68 -60 134 -59 119 -61 120 -95 120 -24 0 -37 6 -45 19 -14 27 -13 29 18 34 61 11 115 -2 150 -36z m-140 -132 l42 -85 -35 0 c-33 0 -36 3 -75 80 -22 44 -40 82 -40 85 0 3 15 5 33 5 31 0 35 -4 75 -85z m32 75 c0 -5 -7 -10 -15 -10 -8 0 -15 5 -15 10 0 6 7 10 15 10 8 0 15 -4 15 -10z m-140 -111 c12 -23 20 -42 18 -43 -34 -22 -58 -36 -62 -36 -7 0 -46 76 -46 88 0 10 38 30 57 31 7 1 22 -17 33 -40z m-106 -48 c14 -27 22 -51 19 -55 -15 -15 -31 -3 -52 41 -18 37 -20 48 -9 54 7 5 14 9 15 9 2 0 14 -22 27 -49z m337 -64 c-8 -8 -11 -7 -11 4 0 20 13 34 18 19 3 -7 -1 -17 -7 -23z m-90 -14 c13 -16 12 -17 -3 -4 -17 13 -22 21 -14 21 2 0 10 -8 17 -17z m-81 -58 c0 -20 5 -25 24 -25 37 0 40 -27 6 -45 -41 -21 -44 -20 -68 30 l-22 46 22 9 c35 13 38 12 38 -15z m642 -2 c22 -20 23 -70 1 -95 -20 -22 -70 -23 -95 -1 -10 9 -18 29 -18 45 0 57 70 89 112 51z m-712 -54 c20 -39 21 -69 2 -69 -8 0 -52 84 -52 100 0 25 32 6 50 -31z m617 -331 c13 -12 23 -30 23 -40 0 -76 -98 -99 -129 -31 -15 32 -14 36 10 67 25 32 64 34 96 4z m-204 -209 c9 -7 -8 -45 -27 -64 -8 -7 -37 17 -99 82 l-89 92 7 41 7 42 97 -93 c53 -51 100 -96 104 -100z m-92 -81 c7 -12 -17 -91 -86 -289 -52 -150 -99 -277 -103 -281 -5 -5 -25 -11 -45 -15 -29 -4 -37 -2 -37 10 0 17 128 675 136 696 3 10 23 -3 65 -45 33 -32 65 -67 70 -76z m68 -107 c-12 -34 -23 -60 -25 -58 -2 2 6 32 17 66 12 34 23 60 25 58 2 -2 -6 -32 -17 -66z m-60 -170 c-12 -34 -23 -60 -25 -58 -2 2 6 32 17 66 12 34 23 60 25 58 2 -2 -6 -32 -17 -66z m-65 -185 c-14 -42 -28 -75 -30 -73 -2 2 8 38 22 81 14 42 28 75 30 73 2 -2 -8 -38 -22 -81z m-51 -144 c-16 -50 -17 -51 -62 -57 -25 -3 -61 -7 -79 -10 -19 -2 -30 0 -27 6 4 5 21 9 38 9 18 0 49 3 69 6 34 6 39 11 54 56 9 27 18 48 20 46 2 -2 -4 -27 -13 -56z m-23 -99 c0 -25 -27 -72 -44 -77 -23 -6 -106 42 -106 61 0 6 17 14 38 16 68 7 112 7 112 0z" id="historias"/>
    <path d="M22287 17774 c-4 -4 -7 -16 -7 -26 0 -13 7 -18 26 -18 21 0 25 4 22 22 -3 23 -27 35 -41 22z"/>
    <path d="M22184 17385 c-8 -20 4 -35 27 -35 14 0 19 7 19 25 0 18 -5 25 -20 25 -11 0 -23 -7 -26 -15z"/>
    <path d="M 21031 17026 C 21022 17015 21000 16890 21000 16847 C 21000 16825 21006 16822 21071 16811 C 21110 16804 21145 16802 21150 16806 C 21163 16821 21201 16993 21193 17001 C 21189 17005 21152 17015 21113 17023 C 21060 17033 21038 17034 21031 17026 Z M 21143 16984 C 21152 16981 21160 16972 21160 16963 C 21160 16950 21152 16949 21113 16955 C 21056 16963 21050 16966 21050 16987 C 21050 16999 21057 17001 21088 16996 C 21108 16992 21133 16987 21143 16984 Z M 21131 16914 C 21145 16910 21146 16903 21138 16869 C 21130 16840 21123 16831 21111 16834 C 21102 16836 21080 16841 21063 16845 C 21027 16852 21027 16853 21036 16900 C 21043 16930 21044 16931 21079 16925 C 21099 16922 21122 16917 21131 16914 Z M 20911 17345 C 20880 17222 20880 17223 20948 17210 C 20979 17204 21015 17196 21026 17193 C 21038 17191 21051 17193 21054 17199 C 21066 17218 21091 17393 21083 17400 C 21073 17408 20976 17430 20950 17430 C 20936 17430 20928 17412 20911 17345 Z M 21019 17384 C 21049 17378 21051 17375 21048 17341 L 21045 17305 L 21000 17308 C 20945 17312 20938 17318 20946 17358 C 20953 17392 20962 17395 21019 17384 Z M 20989 17269 C 21027 17261 21037 17255 21033 17243 C 21028 17231 21017 17230 20981 17235 C 20931 17242 20914 17252 20924 17269 C 20933 17282 20928 17282 20989 17269 Z M 21155 17868 C 21152 17861 21144 17816 21137 17768 C 21127 17707 21126 17678 21134 17670 C 21141 17663 21125 17661 21080 17662 L 21015 17665 L 20999 17590 C 20989 17549 20981 17498 20981 17478 L 20980 17441 L 21038 17429 C 21069 17423 21111 17417 21130 17416 L 21165 17415 L 21182 17495 C 21206 17602 21203 17642 21170 17651 C 21130 17662 21170 17661 21219 17649 C 21253 17642 21266 17642 21275 17652 C 21294 17673 21333 17831 21322 17842 C 21313 17851 21202 17879 21172 17880 C 21165 17880 21157 17874 21155 17868 Z M 21290 17807 C 21290 17790 21285 17789 21253 17794 C 21191 17805 21180 17811 21180 17829 C 21180 17845 21185 17846 21235 17837 C 21279 17829 21290 17823 21290 17807 Z M 21268 17755 C 21270 17753 21268 17736 21265 17716 C 21257 17678 21255 17677 21198 17686 C 21167 17691 21160 17697 21160 17715 C 21160 17765 21169 17772 21219 17765 C 21244 17761 21266 17757 21268 17755 Z M 21123 17606 C 21149 17600 21150 17597 21144 17562 C 21128 17476 21127 17475 21080 17477 C 21057 17478 21036 17481 21034 17483 C 21030 17487 21046 17579 21056 17608 C 21058 17615 21068 17619 21077 17617 C 21087 17614 21108 17609 21123 17606 Z M 20904 16822 C 20893 16815 20860 16664 20860 16622 C 20860 16593 20894 16580 20979 16577 L 21045 16575 L 21058 16625 C 21065 16653 21073 16702 21077 16736 L 21083 16796 L 21006 16813 C 20919 16832 20919 16832 20904 16822 Z M 21023 16750 C 21027 16746 21025 16717 21017 16684 L 21004 16625 L 20965 16628 C 20943 16630 20922 16634 20918 16638 C 20912 16644 20923 16720 20936 16758 C 20940 16771 21006 16766 21023 16750 Z M 20781 16553 C 20760 16475 20748 16409 20753 16396 C 20758 16383 20851 16360 20896 16360 C 20916 16360 20919 16367 20929 16428 C 20935 16465 20941 16511 20943 16530 C 20945 16564 20944 16565 20895 16576 C 20805 16598 20792 16595 20781 16553 Z M 20883 16546 C 20904 16541 20910 16534 20910 16512 C 20910 16475 20896 16457 20874 16463 C 20863 16466 20842 16471 20827 16474 C 20801 16480 20799 16484 20805 16513 C 20815 16556 20819 16562 20838 16556 C 20848 16554 20867 16549 20883 16546 Z M 20892 16422 C 20896 16418 20896 16409 20891 16402 C 20885 16392 20872 16392 20832 16401 C 20782 16411 20772 16419 20787 16434 C 20796 16442 20881 16432 20892 16422 Z M 21017 18125 C 20968 18108 20937 18079 20916 18032 C 20908 18012 20837 17675 20760 17283 C 20644 16694 20621 16565 20628 16533 C 20639 16485 20788 16260 20824 16236 C 20856 16216 21008 16181 21067 16180 C 21153 16180 21221 16231 21245 16315 C 21253 16342 21288 16516 21324 16700 C 21360 16884 21394 17053 21399 17075 C 21404 17097 21436 17257 21470 17431 C 21523 17703 21530 17753 21521 17786 C 21512 17819 21401 17999 21358 18051 C 21331 18083 21292 18099 21193 18119 C 21075 18143 21068 18144 21017 18125 Z M 21175 18090 C 21293 18066 21314 18054 21366 17981 C 21461 17849 21492 17792 21492 17747 C 21492 17724 21431 17395 21356 17015 C 21205 16256 21206 16259 21129 16225 C 21089 16207 21084 16206 20987 16223 C 20932 16233 20873 16248 20856 16258 C 20820 16278 20674 16487 20661 16537 C 20653 16563 20679 16709 20790 17270 C 20866 17655 20934 17986 20940 18004 C 20953 18044 20983 18074 21030 18094 C 21074 18113 21061 18113 21175 18090 Z" id="infolink"/>
    <path d="M 22966 15738 C 22940 15697 22820 15475 22820 15467 C 22820 15463 22842 15446 22869 15430 C 22898 15412 22917 15393 22916 15383 C 22915 15360 22997 15313 23012 15328 C 23020 15336 23034 15333 23061 15319 C 23132 15283 23137 15287 23218 15429 C 23257 15500 23290 15567 23290 15579 C 23290 15594 23277 15606 23245 15622 C 23213 15637 23200 15650 23200 15664 C 23200 15692 23123 15735 23104 15719 C 23094 15711 23079 15714 23046 15734 C 22992 15766 22984 15766 22966 15738 Z M 23039 15698 L 23077 15676 L 23045 15621 C 23027 15590 22996 15535 22976 15498 L 22939 15430 L 22900 15450 C 22878 15461 22860 15473 22860 15476 C 22860 15484 22993 15720 22998 15720 C 22999 15720 23018 15710 23039 15698 Z M 23160 15664 C 23160 15649 22994 15370 22986 15370 C 22949 15371 22956 15392 23037 15537 C 23113 15673 23124 15688 23141 15679 C 23152 15674 23160 15667 23160 15664 Z M 23248 15582 C 23258 15575 23246 15547 23195 15459 C 23158 15396 23125 15341 23121 15337 C 23112 15328 23038 15368 23044 15378 C 23047 15385 23107 15490 23157 15578 C 23180 15619 23181 15620 23208 15605 C 23223 15597 23241 15587 23248 15582 Z M 23200 17116 C 22950 17056 22772 16915 22670 16697 C 22616 16583 22596 16475 22602 16336 C 22608 16215 22647 16064 22677 16053 C 22685 16050 22767 16083 22862 16129 L 23033 16210 L 23049 16188 C 23142 16055 23291 15996 23438 16034 C 23508 16052 23539 16069 23590 16117 L 23625 16150 L 23619 16082 C 23605 15925 23644 15749 23722 15615 C 23783 15513 23906 15395 24008 15342 C 24053 15318 24100 15300 24111 15302 C 24128 15304 24143 15337 24196 15480 C 24231 15576 24263 15663 24266 15672 C 24270 15685 24259 15695 24223 15714 C 24119 15767 24052 15867 24043 15984 C 24040 16032 24044 16064 24066 16130 C 24101 16243 24111 16432 24086 16542 C 24051 16696 23974 16828 23855 16937 C 23778 17007 23649 17078 23545 17106 C 23465 17128 23271 17133 23200 17116 Z M 23525 17069 C 23662 17033 23770 16970 23867 16867 C 23929 16802 23995 16701 23983 16690 C 23979 16686 23910 16652 23830 16615 L 23685 16548 L 23671 16572 C 23643 16616 23564 16686 23516 16708 C 23443 16743 23368 16754 23296 16740 C 23262 16734 23229 16728 23221 16727 C 23206 16725 23066 17016 23075 17030 C 23081 17039 23190 17076 23230 17083 C 23305 17096 23450 17089 23525 17069 Z M 23117 16841 C 23175 16718 23179 16705 23163 16696 C 23124 16675 23052 16598 23028 16553 C 22980 16465 22972 16372 23002 16251 C 23004 16242 22957 16215 22860 16169 C 22780 16132 22710 16101 22703 16101 C 22697 16100 22685 16121 22677 16148 C 22621 16323 22629 16504 22701 16671 C 22752 16788 22879 16927 22998 16996 L 23035 17017 L 23045 16996 C 23050 16985 23083 16915 23117 16841 Z M 23365 16693 C 23294 16684 23230 16668 23230 16659 C 23230 16654 23222 16650 23212 16650 C 23166 16650 23048 16511 23071 16483 C 23080 16473 23079 16470 23067 16470 C 23046 16470 23036 16415 23043 16337 C 23047 16290 23046 16281 23038 16300 C 23022 16341 23034 16459 23059 16508 C 23120 16627 23232 16699 23355 16697 C 23386 16697 23388 16696 23365 16693 Z M 23485 16666 C 23513 16654 23542 16635 23550 16625 C 23559 16614 23550 16618 23526 16634 C 23505 16648 23482 16660 23475 16660 C 23468 16660 23447 16667 23429 16675 C 23405 16685 23401 16689 23415 16690 C 23426 16690 23458 16679 23485 16666 Z M 24031 16585 C 24067 16484 24067 16220 24031 16162 C 24025 16152 23986 16163 23869 16204 L 23715 16258 L 23718 16332 C 23720 16375 23716 16429 23707 16461 L 23693 16515 L 23844 16586 C 23927 16625 23998 16654 24002 16651 C 24006 16647 24019 16618 24031 16585 Z M 23656 16477 C 23678 16411 23671 16299 23641 16238 C 23609 16170 23493 16064 23473 16083 C 23471 16086 23484 16096 23502 16104 C 23571 16137 23651 16240 23628 16267 C 23620 16277 23621 16280 23633 16280 C 23641 16280 23650 16290 23654 16303 C 23670 16362 23652 16500 23629 16500 C 23623 16500 23622 16505 23625 16510 C 23629 16516 23620 16538 23605 16558 L 23579 16595 L 23609 16561 C 23626 16542 23647 16504 23656 16477 Z M 23409 16514 C 23491 16481 23527 16371 23480 16294 C 23437 16225 23332 16202 23270 16248 C 23185 16311 23177 16417 23252 16487 C 23298 16531 23347 16539 23409 16514 Z M 23560 16470 C 23560 16465 23555 16460 23549 16460 C 23544 16460 23542 16465 23545 16470 C 23548 16476 23553 16480 23556 16480 C 23558 16480 23560 16476 23560 16470 Z M 23155 16450 C 23158 16445 23157 16440 23151 16440 C 23146 16440 23138 16445 23135 16450 C 23132 16456 23133 16460 23139 16460 C 23144 16460 23152 16456 23155 16450 Z M 23565 16300 C 23568 16295 23567 16290 23561 16290 C 23556 16290 23548 16295 23545 16300 C 23542 16306 23543 16310 23549 16310 C 23554 16310 23562 16306 23565 16300 Z M 23160 16286 C 23160 16283 23156 16278 23150 16275 C 23145 16272 23140 16274 23140 16279 C 23140 16285 23145 16290 23150 16290 C 23156 16290 23160 16288 23160 16286 Z M 23075 16240 C 23068 16229 23124 16156 23162 16127 C 23217 16085 23283 16068 23376 16072 C 23433 16074 23453 16072 23442 16065 C 23411 16048 23279 16056 23228 16078 C 23170 16104 23095 16172 23069 16222 C 23046 16267 23045 16277 23065 16260 C 23073 16253 23078 16244 23075 16240 Z M 23851 16175 C 23936 16145 24005 16120 24005 16120 C 24005 16120 24005 16074 24005 16017 C 24005 15921 24007 15910 24038 15848 C 24074 15774 24130 15713 24187 15685 L 24226 15666 L 24167 15506 C 24135 15417 24107 15344 24106 15343 C 24101 15337 23979 15407 23931 15444 C 23830 15520 23735 15655 23690 15786 C 23660 15872 23647 15999 23659 16083 C 23669 16152 23688 16230 23694 16230 C 23696 16230 23766 16205 23851 16175 Z M 23270 16126 C 23270 16123 23266 16118 23260 16115 C 23255 16112 23250 16114 23250 16119 C 23250 16125 23255 16130 23260 16130 C 23266 16130 23270 16128 23270 16126 Z" id="mensajes"/>
    <path d="M 24686 13336 C 24654 13306 24650 13298 24660 13281 C 24673 13256 24703 13255 24750 13278 C 24780 13293 24785 13300 24785 13330 C 24785 13362 24782 13365 24754 13368 C 24729 13370 24714 13363 24686 13336 Z M 24760 13330 C 24760 13321 24709 13290 24694 13290 C 24690 13290 24697 13301 24710 13315 C 24734 13340 24760 13348 24760 13330 Z M 24618 13455 C 24576 13417 24574 13412 24594 13385 C 24607 13367 24609 13367 24661 13387 C 24706 13404 24716 13412 24718 13434 C 24726 13496 24674 13507 24618 13455 Z M 24690 13440 C 24690 13433 24636 13409 24621 13410 C 24618 13411 24628 13422 24644 13435 C 24672 13457 24690 13460 24690 13440 Z M 25248 13588 C 25184 13550 25161 13520 25195 13520 C 25203 13520 25232 13534 25260 13551 C 25288 13568 25312 13581 25314 13579 C 25315 13577 25324 13563 25333 13548 C 25353 13517 25386 13509 25377 13538 C 25352 13613 25343 13630 25330 13630 C 25322 13629 25285 13611 25248 13588 Z M 24960 13821 C 24960 13795 25051 13651 25068 13650 C 25085 13650 25083 13681 25063 13709 C 25047 13732 25048 13734 25071 13752 C 25129 13798 25132 13802 25122 13812 C 25115 13819 25098 13815 25068 13797 L 25025 13772 L 25002 13806 C 24977 13844 24960 13850 24960 13821 Z M 25025 14021 C 24825 13958 24820 13956 24820 13932 C 24821 13923 24914 13767 25029 13585 C 25213 13293 25240 13255 25263 13255 C 25297 13255 25560 13536 25560 13574 C 25560 13595 25305 14013 25262 14063 C 25254 14072 25237 14080 25226 14079 C 25214 14079 25124 14053 25025 14021 Z M 25113 13992 C 25064 13961 25061 13947 25094 13905 C 25113 13882 25121 13878 25130 13886 C 25139 13895 25139 13903 25130 13921 C 25116 13946 25120 13951 25197 13997 C 25242 14023 25261 14022 25253 13991 C 25250 13981 25255 13959 25263 13943 C 25278 13915 25277 13914 25244 13892 C 25210 13870 25206 13850 25236 13850 C 25244 13850 25267 13861 25287 13875 C 25307 13888 25324 13898 25325 13897 C 25326 13896 25334 13882 25344 13866 C 25354 13850 25358 13840 25352 13844 C 25340 13851 25282 13820 25275 13802 C 25266 13777 25301 13778 25334 13804 L 25368 13830 L 25408 13766 L 25447 13703 L 25412 13690 C 25376 13677 25376 13677 25350 13720 C 25343 13732 25336 13733 25311 13723 C 25290 13716 25280 13715 25280 13722 C 25280 13731 25197 13875 25184 13889 C 25182 13891 25169 13888 25155 13882 C 25126 13868 25122 13840 25149 13840 C 25162 13840 25181 13820 25205 13780 C 25225 13747 25248 13716 25257 13712 C 25269 13705 25265 13699 25236 13681 C 25200 13658 25188 13630 25215 13630 C 25223 13630 25250 13643 25276 13660 L 25323 13690 L 25342 13660 C 25364 13622 25387 13622 25428 13659 C 25446 13676 25462 13684 25466 13679 C 25469 13673 25464 13663 25455 13656 C 25440 13645 25442 13640 25473 13593 C 25502 13549 25506 13539 25494 13529 C 25484 13521 25480 13521 25480 13529 C 25480 13548 25441 13541 25419 13519 C 25391 13491 25409 13468 25443 13489 C 25457 13498 25453 13490 25431 13466 C 25404 13439 25393 13433 25383 13442 C 25373 13450 25357 13444 25315 13416 C 25285 13396 25258 13380 25256 13380 C 25254 13380 25242 13396 25230 13415 L 25208 13450 L 25232 13469 C 25249 13484 25252 13491 25243 13500 C 25227 13517 25170 13482 25170 13455 C 25170 13440 25162 13447 25140 13479 L 25111 13524 L 25140 13538 C 25176 13555 25181 13583 25148 13578 C 25135 13576 25120 13582 25113 13590 C 25104 13602 25099 13602 25089 13593 C 25079 13583 25057 13612 24984 13728 C 24896 13868 24892 13875 24914 13881 C 24952 13892 24980 13910 24980 13925 C 24980 13933 24973 13940 24965 13940 C 24949 13940 24900 13912 24889 13896 C 24885 13891 24877 13897 24871 13909 C 24858 13933 24865 13937 24951 13960 C 24992 13971 24995 13971 25015 13946 C 25052 13900 25069 13914 25045 13972 C 25040 13985 25048 13991 25087 14003 C 25156 14024 25160 14023 25113 13992 Z M 25320 13345 C 25271 13295 25264 13292 25250 13306 C 25237 13319 25237 13322 25250 13330 C 25258 13335 25285 13352 25310 13369 C 25377 13413 25380 13406 25320 13345 Z M 24962 14712 C 24928 14681 24900 14650 24900 14644 C 24900 14638 24909 14621 24921 14606 L 24942 14579 L 24918 14585 C 24902 14589 24889 14586 24881 14576 C 24864 14556 24888 14521 25022 14372 L 25128 14254 L 24952 14201 C 24854 14172 24750 14142 24720 14133 C 24589 14093 24550 14062 24550 13997 C 24550 13985 24609 13880 24680 13766 C 24752 13652 24810 13555 24810 13550 C 24810 13542 24786 13530 24770 13530 C 24765 13530 24758 13539 24755 13550 C 24746 13579 24705 13576 24575 13537 C 24484 13510 24464 13501 24462 13484 C 24460 13471 24501 13393 24566 13286 C 24652 13146 24678 13110 24695 13110 C 24722 13110 24890 13279 24890 13306 C 24890 13317 24881 13339 24871 13356 L 24852 13388 L 24877 13401 C 24895 13410 24903 13411 24908 13403 C 24912 13397 24947 13340 24985 13277 L 25055 13163 L 25205 13157 C 25288 13153 25369 13148 25386 13145 C 25415 13138 25417 13140 25443 13198 C 25473 13265 25475 13284 25456 13320 C 25442 13344 25445 13348 25526 13437 C 25646 13567 25646 13556 25514 13764 L 25407 13934 L 25459 13979 C 25527 14040 25538 14074 25511 14136 C 25492 14178 25491 14185 25505 14200 C 25526 14224 25525 14228 25478 14279 C 25454 14305 25348 14426 25241 14548 C 25135 14670 25042 14770 25036 14770 C 25030 14769 24997 14743 24962 14712 Z M 25060 14690 C 25060 14687 25039 14667 25014 14646 C 24971 14610 24968 14609 24955 14626 C 24942 14643 24945 14649 24988 14687 C 25030 14725 25036 14728 25048 14713 C 25054 14704 25060 14693 25060 14690 Z M 25235 14496 L 25374 14337 L 25331 14298 C 25308 14276 25285 14260 25280 14262 C 25268 14266 25000 14572 25000 14581 C 25000 14592 25081 14661 25089 14658 C 25094 14656 25159 14584 25235 14496 Z M 25419 14263 C 25413 14256 25390 14250 25369 14250 L 25330 14250 L 25362 14279 C 25392 14306 25396 14307 25412 14293 C 25426 14281 25427 14274 25419 14263 Z M 25490 14083 C 25490 14058 25481 14043 25444 14011 C 25418 13988 25394 13970 25390 13970 C 25384 13970 25320 14066 25320 14075 C 25320 14077 25353 14080 25393 14082 C 25464 14085 25465 14085 25468 14114 C 25473 14153 25490 14128 25490 14083 Z M 25427 13840 C 25516 13700 25589 13579 25590 13572 C 25590 13560 25497 13453 25359 13306 C 25250 13191 25259 13185 25081 13473 C 25002 13601 24906 13752 24868 13810 C 24797 13918 24792 13935 24813 13963 C 24828 13984 25193 14100 25235 14097 C 25262 14095 25277 14075 25427 13840 Z M 24858 13481 C 24880 13442 24880 13441 24861 13431 C 24834 13416 24835 13416 24810 13457 C 24789 13492 24789 13495 24806 13507 C 24831 13526 24834 13524 24858 13481 Z M 24768 13413 L 24829 13315 L 24765 13250 C 24730 13215 24699 13188 24697 13190 C 24680 13211 24540 13449 24540 13457 C 24540 13466 24663 13507 24696 13509 C 24703 13510 24735 13466 24768 13413 Z" id="color"/>
    <path d="M 22662 14288 C 22628 14226 22601 14171 22604 14165 C 22609 14151 22817 14030 22836 14030 C 22843 14030 22856 14044 22865 14060 C 22874 14077 22887 14090 22895 14090 C 22914 14090 22914 14088 22893 14045 C 22883 14023 22880 14006 22886 14001 C 22906 13981 23093 13880 23109 13880 C 23119 13880 23137 13898 23149 13921 C 23166 13950 23175 13959 23183 13951 C 23191 13943 23189 13930 23177 13905 C 23168 13885 23160 13863 23160 13856 C 23160 13839 23375 13716 23393 13723 C 23400 13725 23432 13775 23465 13834 C 23503 13902 23529 13939 23537 13936 C 23574 13921 23661 13858 23683 13828 C 23737 13757 23754 13653 23725 13569 C 23694 13482 23693 13481 23596 13536 C 23528 13575 23510 13590 23510 13608 C 23510 13629 23506 13630 23430 13630 L 23350 13630 L 23350 13538 C 23350 13461 23346 13441 23330 13420 C 23302 13384 23305 13374 23350 13349 C 23372 13336 23390 13323 23390 13319 C 23390 13300 23367 13300 23336 13319 C 23318 13331 23298 13340 23292 13340 C 23280 13340 23150 13125 23150 13106 C 23151 13100 23200 13067 23260 13032 C 23383 12961 23382 12962 23314 12896 C 23257 12840 23203 12820 23088 12809 C 23032 12804 22984 12797 22982 12795 C 22980 12793 22982 12759 22986 12719 L 22995 12646 L 23065 12649 C 23151 12652 23255 12672 23312 12698 C 23408 12740 23506 12864 23630 13098 C 23684 13199 23725 13267 23761 13315 C 23904 13505 23936 13693 23853 13859 C 23804 13955 23744 14004 23520 14129 C 23407 14192 23307 14248 23298 14254 C 23285 14262 23276 14260 23262 14244 C 23252 14234 23245 14220 23247 14215 C 23248 14209 23239 14192 23227 14176 L 23203 14147 L 23112 14198 C 23062 14227 23016 14250 23012 14250 C 23007 14250 22997 14238 22990 14223 L 22976 14195 L 22970 14239 L 22965 14284 L 22860 14342 C 22803 14374 22749 14400 22740 14400 C 22731 14400 22699 14354 22662 14288 Z M 22895 14283 L 22934 14261 L 22870 14258 L 22805 14255 L 22802 14177 C 22799 14105 22801 14099 22821 14091 C 22836 14086 22839 14081 22832 14076 C 22823 14071 22667 14152 22642 14175 C 22640 14176 22663 14220 22692 14273 L 22745 14368 L 22800 14337 C 22830 14320 22873 14296 22895 14283 Z M 23194 14114 C 23212 14103 23210 14097 23160 14009 C 23131 13957 23107 13914 23106 13913 C 23105 13912 23066 13933 23020 13960 C 22973 13987 22931 14011 22925 14013 C 22914 14018 22948 14090 22962 14090 C 22966 14090 22970 14096 22970 14104 C 22970 14111 22982 14138 22996 14163 L 23021 14209 L 23098 14167 C 23140 14144 23183 14120 23194 14114 Z M 22881 14183 C 22894 14167 22893 14166 22878 14179 C 22861 14192 22856 14200 22864 14200 C 22866 14200 22874 14192 22881 14183 Z M 23270 14085 C 23270 14073 23235 14010 23229 14010 C 23211 14010 23210 14032 23227 14060 C 23241 14085 23270 14102 23270 14085 Z M 23401 13999 L 23490 13947 L 23458 13891 C 23441 13860 23417 13818 23406 13798 C 23394 13777 23382 13760 23379 13760 C 23376 13760 23332 13783 23282 13811 L 23190 13862 L 23222 13919 C 23239 13950 23263 13992 23274 14012 C 23286 14033 23299 14050 23304 14050 C 23309 14050 23352 14027 23401 13999 Z M 23618 13410 C 23601 13380 23581 13348 23573 13339 C 23566 13331 23560 13319 23560 13313 C 23560 13307 23554 13297 23546 13291 C 23535 13282 23514 13291 23446 13331 C 23399 13359 23360 13387 23360 13392 C 23360 13397 23367 13414 23375 13430 C 23390 13458 23394 13460 23450 13460 L 23510 13460 L 23510 13505 L 23510 13549 L 23580 13508 L 23649 13466 L 23618 13410 Z M 23392 13248 C 23440 13219 23480 13193 23480 13189 C 23480 13185 23457 13142 23429 13093 L 23377 13003 L 23283 13058 C 23232 13088 23191 13116 23192 13120 C 23201 13140 23296 13300 23299 13300 C 23302 13300 23343 13277 23392 13248 Z M 23499 13263 C 23528 13246 23537 13230 23524 13217 C 23515 13208 23450 13251 23450 13266 C 23450 13285 23462 13284 23499 13263 Z M 20651 15707 C 20646 15690 20638 15646 20635 15610 C 20631 15574 20564 15217 20485 14815 C 20406 14414 20330 14022 20315 13945 C 20300 13868 20286 13798 20283 13790 C 20280 13782 20276 13766 20275 13755 C 20268 13710 20260 13667 20255 13650 C 20252 13640 20248 13619 20246 13604 C 20244 13588 20237 13546 20230 13510 C 20223 13474 20216 13430 20214 13411 C 20211 13392 20205 13356 20199 13331 C 20193 13306 20186 13268 20184 13246 C 20181 13225 20174 13187 20169 13161 C 20160 13122 20152 13074 20138 12985 C 20136 12974 20131 12959 20127 12953 C 20122 12946 20121 12936 20125 12931 C 20128 12926 20125 12900 20119 12873 C 20105 12811 20102 12797 20089 12726 C 20083 12694 20072 12661 20064 12653 C 20056 12645 20050 12632 20050 12624 C 20050 12616 20043 12610 20035 12610 C 20023 12610 20020 12594 20020 12530 L 20020 12450 L 20060 12450 C 20093 12450 20100 12453 20100 12470 C 20100 12485 20107 12490 20125 12490 C 20139 12490 20289 12499 20458 12510 C 20627 12521 20842 12534 20935 12540 C 21029 12546 21123 12553 21145 12555 C 21211 12561 21454 12574 21468 12571 C 21474 12570 21480 12578 21480 12590 C 21480 12615 21463 12615 21115 12592 C 20877 12576 20864 12576 20847 12593 C 20836 12604 20830 12625 20830 12655 C 20830 12693 20827 12700 20810 12700 C 20793 12700 20790 12693 20790 12649 C 20790 12618 20784 12593 20775 12584 C 20763 12572 20693 12564 20459 12549 C 20294 12538 20152 12531 20144 12534 C 20132 12539 20123 12600 20134 12600 C 20136 12600 20182 12591 20235 12580 C 20288 12569 20340 12560 20349 12560 C 20363 12560 20370 12579 20385 12659 C 20399 12738 20407 12759 20422 12763 C 20438 12768 20440 12779 20440 12857 C 20440 12931 20474 13121 20645 14012 C 20758 14598 20850 15087 20850 15098 C 20850 15115 20837 15120 20755 15136 C 20703 15146 20655 15157 20649 15160 C 20642 15165 20653 15242 20686 15407 C 20732 15637 20735 15647 20756 15644 C 20769 15643 20864 15592 20968 15531 C 21072 15470 21163 15420 21170 15420 C 21179 15420 21180 15417 21171 15407 C 21164 15397 21164 15390 21171 15383 C 21177 15377 21178 15370 21173 15367 C 21168 15364 21099 15399 21020 15445 C 20886 15524 20875 15528 20858 15513 C 20849 15505 20838 15489 20835 15479 C 20829 15461 20827 15461 20799 15476 C 20764 15494 20754 15488 20725 15435 L 20706 15398 L 20734 15375 C 20763 15352 20763 15351 20747 15326 C 20738 15312 20730 15296 20730 15291 C 20730 15283 20983 15130 21022 15115 C 21033 15110 21043 15118 21056 15139 C 21077 15174 21086 15176 21118 15154 C 21133 15144 21139 15132 21135 15120 C 21131 15107 21137 15096 21155 15084 C 21169 15075 21180 15062 21180 15056 C 21180 15042 21461 14880 21484 14880 C 21492 14880 21504 14888 21509 14898 C 21519 14914 21519 14913 21520 14895 C 21520 14880 21549 14858 21632 14811 C 21733 14753 21744 14748 21755 14764 C 21767 14779 21772 14778 21816 14752 C 21845 14735 21863 14717 21861 14709 C 21848 14664 21854 14659 22069 14534 C 22268 14418 22320 14395 22320 14420 C 22320 14437 22337 14431 22390 14399 C 22430 14374 22443 14370 22455 14380 C 22474 14395 22520 14478 22520 14496 C 22520 14504 22495 14524 22465 14541 C 22420 14566 22411 14576 22415 14593 C 22420 14612 22405 14624 22300 14684 C 22234 14721 22180 14758 22180 14765 C 22180 14772 22192 14780 22208 14783 C 22236 14789 22257 14779 22513 14628 C 22577 14590 22628 14554 22624 14549 C 22621 14543 22623 14533 22629 14527 C 22636 14518 22634 14506 22620 14485 C 22609 14468 22600 14447 22600 14437 C 22600 14406 22633 14422 22655 14463 C 22685 14518 22709 14514 22873 14417 C 23189 14232 23180 14236 23196 14251 C 23208 14264 23179 14284 22983 14398 C 22811 14499 22755 14528 22748 14518 C 22742 14508 22740 14510 22742 14523 C 22744 14536 22728 14550 22685 14574 C 22633 14602 22271 14814 22230 14840 C 22222 14846 22114 14909 21990 14981 C 21866 15053 21760 15116 21753 15122 C 21745 15128 21743 15125 21747 15111 C 21751 15096 21748 15090 21735 15090 C 21722 15090 21719 15096 21722 15114 C 21728 15145 21704 15157 21695 15129 C 21689 15112 21686 15111 21673 15121 C 21660 15133 21660 15135 21673 15145 C 21688 15156 21654 15178 21318 15373 C 21286 15391 21272 15395 21276 15385 C 21282 15369 21264 15365 21235 15376 C 21221 15382 21221 15384 21234 15399 C 21249 15415 21246 15418 21207 15440 C 21102 15498 20803 15674 20789 15686 C 20781 15694 20758 15703 20739 15706 C 20720 15710 20695 15719 20683 15726 C 20663 15739 20661 15737 20651 15707 Z M 21128 15344 C 21130 15343 21123 15326 21113 15306 C 21101 15280 21092 15271 21081 15276 C 21043 15291 21032 15291 21026 15273 C 21021 15261 21026 15250 21041 15237 C 21063 15220 21063 15219 21044 15185 C 21034 15166 21025 15150 21024 15150 C 21022 15150 20779 15291 20772 15296 C 20770 15297 20775 15309 20783 15322 C 20791 15334 20816 15377 20839 15417 L 20880 15489 L 21003 15418 C 21070 15378 21126 15345 21128 15344 Z M 20800 15430 C 20800 15415 20788 15390 20781 15390 C 20778 15390 20769 15394 20762 15399 C 20751 15406 20750 15411 20761 15428 C 20773 15447 20800 15448 20800 15430 Z M 21456 15248 C 21622 15150 21649 15131 21654 15107 C 21662 15069 21648 15047 21618 15046 C 21598 15045 21594 15049 21598 15065 C 21601 15083 21580 15099 21457 15168 C 21377 15213 21302 15250 21291 15250 C 21279 15250 21261 15256 21249 15263 C 21232 15273 21227 15272 21215 15257 C 21202 15239 21201 15239 21174 15257 C 21154 15270 21150 15276 21161 15278 C 21170 15279 21184 15296 21193 15315 C 21203 15335 21218 15350 21232 15353 C 21245 15355 21257 15358 21259 15359 C 21261 15359 21350 15309 21456 15248 Z M 21270 15210 C 21270 15194 21244 15181 21230 15190 C 21219 15197 21219 15201 21229 15214 C 21241 15228 21270 15226 21270 15210 Z M 21425 15099 L 21551 15027 L 21530 15005 C 21519 14993 21510 14976 21510 14967 C 21510 14958 21507 14950 21504 14950 C 21498 14950 21303 15062 21260 15090 C 21247 15098 21247 15104 21264 15135 C 21275 15154 21287 15170 21292 15170 C 21296 15170 21357 15138 21425 15099 Z M 21490 15110 C 21537 15083 21572 15060 21567 15060 C 21563 15060 21520 15082 21472 15110 C 21424 15137 21390 15160 21395 15160 C 21401 15160 21443 15137 21490 15110 Z M 21213 15134 C 21222 15124 21209 15100 21195 15100 C 21178 15100 21167 15117 21175 15130 C 21182 15141 21203 15143 21213 15134 Z M 20743 15106 C 20780 15098 20813 15090 20815 15088 C 20821 15083 20749 14707 20741 14698 C 20731 14687 20567 14724 20562 14738 C 20560 14744 20575 14835 20595 14939 C 20630 15121 20633 15130 20654 15125 C 20665 15122 20706 15114 20743 15106 Z M 22017 14917 C 22113 14861 22139 14841 22143 14821 C 22146 14807 22145 14791 22141 14787 C 22137 14783 22098 14800 22054 14825 C 21965 14876 21954 14878 21945 14850 C 21937 14824 21928 14825 21874 14856 C 21839 14877 21831 14886 21835 14903 C 21840 14922 21829 14932 21761 14970 C 21717 14995 21680 15020 21680 15026 C 21680 15043 21704 15068 21725 15072 C 21736 15074 21778 15056 21820 15032 C 21861 15008 21950 14956 22017 14917 Z M 21395 14967 C 21411 14952 21347 14987 21325 15005 C 21314 15014 21323 15012 21345 14999 C 21367 14987 21390 14973 21395 14967 Z M 21630 15000 C 21630 14995 21637 14990 21646 14990 C 21655 14990 21689 14974 21721 14954 C 21771 14924 21779 14916 21770 14900 C 21765 14890 21756 14880 21750 14878 C 21744 14876 21738 14865 21735 14852 C 21730 14824 21721 14810 21709 14810 C 21704 14810 21666 14829 21626 14853 L 21552 14896 L 21584 14953 C 21613 15006 21630 15023 21630 15000 Z M 21470 14924 C 21470 14922 21457 14926 21440 14935 C 21424 14944 21410 14953 21410 14956 C 21410 14958 21424 14954 21440 14945 C 21457 14936 21470 14927 21470 14924 Z M 22180 14860 C 22191 14853 22191 14850 22182 14850 C 22175 14850 22172 14845 22176 14839 C 22180 14832 22177 14829 22169 14832 C 22154 14837 22143 14870 22157 14870 C 22161 14870 22172 14865 22180 14860 Z M 22236 14829 C 22244 14815 22225 14796 22211 14804 C 22200 14811 22207 14840 22220 14840 C 22225 14840 22232 14835 22236 14829 Z M 22049 14789 C 22097 14762 22117 14744 22113 14734 C 22108 14721 22076 14735 21971 14799 C 21960 14806 21962 14830 21975 14830 C 21977 14830 22010 14812 22049 14789 Z M 22086 14694 C 22160 14652 22220 14615 22220 14611 C 22220 14607 22214 14596 22208 14587 C 22196 14573 22189 14575 22130 14609 C 22094 14630 22031 14667 21990 14690 C 21949 14714 21921 14735 21928 14738 C 21934 14740 21940 14748 21940 14756 C 21940 14764 21943 14770 21946 14770 C 21949 14770 22012 14736 22086 14694 Z M 22278 14658 C 22327 14630 22354 14606 22309 14630 C 22294 14639 22285 14638 22274 14629 C 22266 14623 22260 14621 22260 14626 C 22260 14631 22231 14650 22196 14669 C 22147 14696 22135 14707 22144 14716 C 22153 14726 22162 14724 22190 14708 C 22209 14697 22249 14674 22278 14658 Z M 20731 14657 C 20734 14656 20720 14570 20700 14465 C 20672 14323 20659 14275 20649 14277 C 20641 14278 20600 14286 20558 14295 C 20499 14308 20480 14316 20480 14329 C 20480 14343 20530 14612 20545 14677 L 20550 14698 L 20637 14679 C 20686 14668 20728 14659 20731 14657 Z M 22063 14609 C 22181 14540 22204 14530 22218 14541 C 22232 14552 22233 14552 22223 14540 C 22201 14516 22208 14501 22251 14480 C 22274 14468 22290 14456 22287 14454 C 22278 14445 21891 14675 21890 14689 C 21890 14708 21904 14701 22063 14609 Z M 22380 14594 C 22380 14592 22371 14594 22360 14600 C 22349 14606 22340 14613 22340 14616 C 22340 14618 22349 14616 22360 14610 C 22371 14604 22380 14597 22380 14594 Z M 22452 14511 C 22486 14492 22486 14487 22459 14443 C 22439 14412 22436 14410 22416 14423 C 22405 14430 22365 14454 22328 14474 C 22248 14518 22237 14531 22285 14523 C 22312 14519 22321 14521 22327 14535 C 22331 14548 22327 14558 22312 14568 C 22300 14576 22290 14587 22290 14592 C 22290 14600 22328 14581 22452 14511 Z M 20547 14265 C 20584 14256 20624 14248 20636 14245 C 20657 14240 20656 14239 20621 14056 C 20601 13954 20582 13869 20578 13865 C 20575 13861 20533 13866 20486 13876 C 20423 13888 20400 13897 20400 13908 C 20400 13925 20458 14234 20466 14263 C 20472 14283 20464 14283 20547 14265 Z M 20488 13844 C 20558 13830 20570 13824 20570 13807 C 20570 13788 20513 13480 20505 13453 C 20502 13445 20477 13447 20413 13461 C 20365 13472 20324 13483 20321 13485 C 20317 13490 20368 13772 20378 13798 C 20381 13807 20393 13799 20412 13776 C 20428 13756 20446 13740 20451 13740 C 20456 13740 20460 13763 20460 13790 C 20460 13847 20443 13858 20438 13805 L 20435 13770 L 20407 13805 C 20382 13836 20378 13860 20398 13860 C 20402 13860 20442 13853 20488 13844 Z M 20387 13435 C 20424 13426 20464 13418 20476 13415 C 20497 13410 20497 13410 20462 13228 C 20443 13127 20425 13042 20421 13038 C 20412 13027 20247 13064 20243 13077 C 20239 13087 20293 13388 20306 13433 C 20312 13453 20304 13453 20387 13435 Z M 20416 12996 C 20417 12996 20415 12981 20413 12963 C 20408 12931 20408 12931 20341 12928 L 20275 12925 L 20275 12845 L 20275 12765 L 20323 12762 C 20349 12760 20370 12755 20370 12750 C 20370 12739 20340 12597 20337 12594 C 20334 12591 20160 12627 20155 12631 C 20153 12633 20169 12725 20191 12835 C 20212 12945 20230 13036 20230 13036 C 20230 13038 20414 12998 20416 12996 Z M 21765 13954 C 21714 13899 21742 13802 21814 13784 C 21846 13776 21896 13796 21915 13824 C 21939 13858 21934 13927 21905 13955 C 21870 13991 21799 13990 21765 13954 Z M 21874 13927 C 21900 13908 21898 13860 21870 13838 C 21843 13816 21831 13816 21802 13836 C 21776 13854 21773 13896 21797 13922 C 21816 13943 21849 13945 21874 13927 Z M 21511 13944 C 21482 13907 21477 13884 21490 13845 C 21505 13800 21534 13780 21586 13780 C 21645 13780 21680 13816 21680 13877 C 21680 13940 21648 13970 21581 13970 C 21540 13970 21528 13966 21511 13944 Z M 21628 13917 C 21660 13892 21628 13820 21586 13820 C 21559 13820 21546 13829 21531 13858 C 21503 13912 21576 13957 21628 13917 Z M 21545 13405 C 21526 13387 21520 13370 21520 13335 C 21520 13272 21551 13240 21613 13240 C 21676 13240 21710 13273 21710 13335 C 21710 13399 21679 13430 21615 13430 C 21580 13430 21563 13424 21545 13405 Z M 21658 13377 C 21675 13364 21673 13315 21654 13296 C 21617 13259 21556 13293 21562 13346 C 21567 13392 21618 13408 21658 13377 Z M 21763 13425 C 21729 13401 21716 13349 21734 13305 C 21763 13237 21864 13224 21905 13283 C 21929 13318 21924 13387 21895 13415 C 21867 13444 21798 13449 21763 13425 Z M 21864 13384 C 21910 13339 21855 13266 21798 13296 C 21764 13313 21757 13357 21782 13388 C 21797 13405 21845 13403 21864 13384 Z M 20985 13140 C 20969 13129 20947 13120 20938 13120 C 20928 13120 20920 13116 20920 13110 C 20920 13105 20902 13091 20879 13080 C 20853 13066 20840 13053 20842 13042 C 20845 13025 21001 12930 21026 12930 C 21037 12930 21040 12953 21040 13045 C 21040 13171 21038 13175 20985 13140 Z M 20970 13045 C 20983 13031 20991 13020 20988 13020 C 20986 13020 20973 13031 20960 13045 C 20947 13059 20939 13070 20942 13070 C 20944 13070 20957 13059 20970 13045 Z M 21502 12720 C 21492 12704 21492 12696 21502 12680 C 21512 12665 21512 12658 21502 12648 C 21488 12634 21486 12584 21499 12576 C 21504 12572 21519 12574 21533 12579 C 21562 12590 21577 12635 21559 12657 C 21549 12669 21549 12673 21560 12680 C 21572 12687 21572 12693 21560 12714 C 21544 12745 21519 12747 21502 12720 Z" id="arte"/>
    <path d="M23195 14210 c3 -5 16 -10 28 -10 18 0 19 2 7 10 -20 13 -43 13 -35 0z"/>
    <path d="M25123 13123 c-56 -3 -75 -8 -82 -21 -22 -42 -151 -426 -151 -451 0 -21 38 -72 161 -215 115 -135 158 -193 154 -205 -24 -58 -85 -243 -85 -256 0 -9 98 -117 217 -240 196 -203 221 -225 250 -225 40 0 26 -25 232 427 83 182 151 343 151 358 0 19 -77 131 -264 385 -146 198 -270 368 -276 379 -16 30 -47 43 -125 52 -38 4 -79 9 -90 12 -11 2 -53 2 -92 0z m-18 -157 c25 -31 31 -43 17 -35 -12 7 -23 11 -25 9 -14 -15 -137 -259 -137 -271 0 -15 299 -387 324 -404 16 -10 56 18 56 39 0 6 -28 45 -63 86 -35 41 -102 122 -149 180 l-86 106 58 111 58 111 27 -38 27 -39 -43 -79 -43 -79 138 -216 c96 -152 136 -222 131 -236 -7 -22 -45 -59 -45 -44 0 6 -15 20 -34 31 -28 17 -384 426 -394 453 -3 8 63 204 120 358 5 13 12 20 16 15 5 -5 25 -31 47 -58z m-39 -175 c-26 -50 -48 -91 -51 -91 -3 0 16 43 42 95 26 52 49 93 51 91 2 -2 -17 -45 -42 -95z m393 -269 c94 -129 171 -240 171 -247 0 -7 -16 -48 -36 -91 -20 -44 -47 -104 -61 -134 l-24 -55 -30 35 c-16 19 -38 47 -49 61 l-19 26 35 52 35 52 -40 67 c-23 37 -86 137 -140 222 l-99 155 31 58 c24 47 33 55 42 45 7 -7 90 -118 184 -246z m-314 -23 c121 -149 174 -218 148 -194 -6 6 -46 53 -89 105 -42 52 -106 130 -142 173 -35 42 -60 77 -55 76 4 0 67 -72 138 -160z" id="composicion"/>
    <path d="M23391 11751 c-31 -37 -51 -51 -85 -60 -61 -15 -106 -67 -106 -124 -1 -40 -10 -53 -261 -342 -144 -165 -265 -310 -270 -323 -5 -13 -9 -37 -9 -53 0 -35 391 -1337 416 -1386 11 -22 53 -56 127 -105 61 -40 128 -87 149 -105 21 -17 48 -35 61 -39 12 -4 78 -43 146 -87 111 -72 129 -81 170 -80 38 0 138 41 551 225 278 124 529 234 558 244 30 11 52 25 52 33 0 14 -60 175 -166 449 -24 62 -44 117 -44 122 0 6 -4 18 -10 28 -15 25 -118 299 -125 331 -4 20 3 45 30 94 19 37 35 73 35 80 0 13 -80 57 -103 57 -7 0 -30 -30 -52 -67 -30 -52 -40 -82 -43 -126 -4 -50 -7 -57 -21 -50 -9 4 -44 8 -79 8 -61 0 -65 -2 -98 -37 -30 -33 -34 -44 -34 -90 0 -62 25 -110 69 -133 66 -34 159 -8 192 55 l18 33 11 -24 c46 -107 226 -596 222 -604 -4 -5 -9 5 -13 24 -8 37 -23 51 -54 51 -27 0 -45 -18 -45 -47 0 -36 -32 -29 -54 12 -11 19 -24 35 -30 35 -19 0 -160 -61 -171 -74 -10 -12 -150 -76 -397 -181 -95 -41 -138 -64 -138 -75 0 -17 -165 -94 -181 -84 -5 3 -9 21 -9 41 0 28 -8 44 -40 75 -39 40 -40 40 -107 37 -64 -3 -72 -1 -131 35 -34 20 -67 46 -72 56 -19 36 -137 430 -129 430 14 0 49 77 49 107 1 15 36 -70 79 -191 45 -124 88 -228 100 -239 15 -16 33 -21 64 -21 43 1 154 30 173 45 5 4 116 45 245 90 280 97 293 103 308 135 23 50 16 74 -124 459 -18 50 -36 105 -40 124 -4 18 -16 54 -27 79 -12 25 -56 145 -99 266 -51 144 -86 227 -100 239 -12 9 -37 17 -56 17 -26 0 -503 -161 -697 -236 -21 -8 -46 -55 -46 -86 0 -13 21 -82 46 -153 158 -446 156 -440 131 -417 -13 13 -40 27 -59 32 l-34 10 -83 269 c-79 259 -82 270 -68 302 8 19 118 152 244 297 180 207 238 267 271 282 43 20 82 69 82 106 0 11 23 45 50 76 28 31 50 63 50 71 0 16 -123 127 -140 127 -4 0 -27 -22 -49 -49z m67 -52 c-25 -33 -28 -34 -52 -16 -17 12 -16 15 9 46 26 30 29 31 46 15 17 -16 17 -17 -3 -45z m72 -14 c11 -13 9 -20 -11 -43 -13 -15 -27 -31 -31 -36 -4 -5 -13 3 -19 18 -11 23 -10 29 11 51 27 29 33 30 50 10z m-119 -64 c42 -42 40 -92 -5 -137 -24 -24 -43 -34 -66 -34 -41 0 -100 56 -100 95 0 92 107 140 171 76z m-185 -159 c10 -16 -22 -57 -237 -305 -137 -158 -249 -293 -249 -300 0 -7 41 -148 91 -315 84 -274 91 -305 79 -327 -7 -14 -16 -25 -20 -25 -8 0 -200 639 -200 665 0 11 8 32 18 46 24 37 494 579 501 579 4 0 11 -8 17 -18z m73 -51 c11 -7 -10 -36 -89 -127 -57 -66 -109 -126 -117 -134 -11 -12 -15 -12 -29 2 -20 19 -26 10 110 166 48 56 93 102 100 102 6 0 17 -4 25 -9z m-272 -320 c-113 -123 -178 -208 -188 -245 -10 -37 -7 -54 29 -173 27 -93 35 -133 27 -133 -15 0 -85 211 -92 275 -5 47 -2 51 135 209 51 59 98 104 103 100 7 -4 1 -17 -14 -33z m1529 -482 c-23 -43 -31 -46 -64 -23 l-22 15 22 38 22 39 32 -15 31 -15 -21 -39z m-46 -106 c0 -19 67 -210 150 -430 83 -218 149 -397 148 -397 -16 -9 -61 -26 -63 -24 -1 2 -70 182 -154 401 -147 387 -161 435 -145 494 6 22 7 22 35 6 23 -14 29 -25 29 -50z m-1547 -112 c20 -66 37 -122 37 -124 0 -3 -11 -7 -24 -9 -22 -4 -25 2 -59 115 -20 66 -34 123 -31 128 3 5 13 9 23 9 13 0 25 -26 54 -119z m1339 12 c-3 -18 1 -30 13 -40 17 -12 17 -13 2 -13 -9 0 -17 5 -17 10 0 6 -7 10 -15 10 -8 0 -15 -9 -15 -20 0 -11 -5 -20 -11 -20 -7 0 -9 -10 -5 -27 6 -27 6 -27 -9 -9 -24 32 -19 74 14 107 37 36 50 37 43 2z m101 -32 c3 -14 1 -18 -9 -14 -8 3 -14 14 -14 25 0 23 16 16 23 -11z m-1322 -168 c41 -25 57 -79 35 -121 -16 -32 -61 -62 -91 -62 -31 0 -73 30 -89 64 -15 31 -15 39 -2 69 26 64 88 85 147 50z m-28 -389 c26 -87 58 -195 72 -240 l24 -80 78 -50 c42 -27 80 -51 85 -54 4 -3 4 -18 0 -33 l-7 -27 -95 64 c-55 36 -101 74 -108 90 -6 14 -39 117 -73 228 -34 112 -67 222 -74 245 l-13 42 32 -13 c29 -12 33 -20 79 -172z m92 -19 c32 -104 66 -206 77 -225 11 -20 43 -51 74 -70 55 -36 64 -50 41 -68 -10 -9 -31 1 -87 38 l-75 50 -67 222 c-37 123 -68 226 -68 230 0 5 38 16 46 13 1 0 27 -85 59 -190z m1455 -154 c0 -11 -26 -22 -34 -14 -12 12 -5 23 14 23 11 0 20 -4 20 -9z m120 -31 c0 -10 -159 -85 -496 -233 l-495 -219 -74 47 c-74 46 -83 57 -66 83 6 11 19 7 56 -17 90 -57 89 -57 605 173 290 129 458 198 462 192 4 -6 8 -18 8 -26z m120 -10 c15 -46 14 -48 -27 -56 -26 -5 -31 -3 -37 19 -3 14 -9 32 -12 41 -4 11 2 19 17 25 39 16 45 13 59 -29z m-95 -83 c-23 -12 -917 -409 -968 -428 -58 -23 -75 -18 -197 64 -83 56 -83 56 -57 68 24 11 33 8 105 -40 43 -28 87 -51 99 -51 11 0 242 98 514 218 479 212 494 218 506 198 9 -17 9 -23 -2 -29z m-1241 -77 c29 -11 56 -57 56 -96 0 -35 -59 -94 -94 -94 -39 0 -76 21 -92 51 -45 89 35 175 130 139z m283 -166 c-3 -3 -12 -4 -19 -1 -8 3 -5 6 6 6 11 1 17 -2 13 -5z" id="proporcion"/>
    <path d="M19647 11031 c-4 -17 -3 -21 5 -13 5 5 8 16 6 23 -3 8 -7 3 -11 -10z"/>
    <path d="M19775 11018 c-3 -13 -61 -309 -130 -657 -81 -412 -121 -637 -114 -641 5 -4 39 -12 74 -18 l63 -12 154 -153 c143 -143 218 -227 218 -245 0 -34 29 -28 252 47 125 43 238 87 249 97 12 11 28 32 36 48 16 30 276 1336 268 1344 -11 11 -95 14 -95 3 0 -6 -12 -11 -26 -11 -31 0 -231 43 -324 70 -36 10 -162 42 -280 70 -118 28 -241 58 -273 66 -32 8 -60 14 -63 14 -2 0 -6 -10 -9 -22z m108 -34 c28 -5 37 -10 33 -23 -2 -9 -33 -161 -68 -338 l-63 -323 -52 0 -53 0 0 -80 0 -80 35 0 c19 0 35 -4 35 -8 0 -13 -79 -404 -82 -408 -8 -7 -98 19 -98 29 0 7 55 290 122 630 102 515 125 616 138 613 8 -3 32 -8 53 -12z m137 -38 c30 -8 109 -28 175 -46 66 -18 136 -36 155 -40 19 -5 60 -15 90 -23 30 -9 93 -25 140 -36 142 -35 161 -43 156 -60 -3 -9 -12 -52 -20 -96 -159 -831 -228 -1145 -249 -1145 -2 0 -94 -31 -206 -70 -111 -38 -207 -70 -212 -70 -5 0 -14 11 -19 25 -5 14 -18 29 -27 32 -33 12 -303 296 -299 312 3 9 7 32 11 51 3 19 10 44 16 55 5 11 22 83 37 160 27 137 28 140 55 143 27 3 27 4 27 82 0 43 -4 80 -10 82 -6 2 8 98 35 238 24 129 50 273 56 320 6 47 14 88 16 93 6 9 9 9 73 -7z m790 -148 c0 -19 -242 -1242 -246 -1247 -3 -3 -9 0 -16 7 -8 8 19 166 106 609 65 329 120 608 123 621 5 23 33 31 33 10z m-263 -1301 c-26 -40 -62 -57 -265 -127 -112 -38 -205 -70 -207 -70 -1 0 -5 6 -8 14 -4 11 47 32 210 87 177 60 219 78 235 100 25 34 57 29 35 -4z" id="movimiento"/>
    <path d="M19626 10923 c-6 -14 -5 -15 5 -6 7 7 10 15 7 18 -3 3 -9 -2 -12 -12z"/>
    <path d="M19611 10834 c0 -11 3 -14 6 -6 3 7 2 16 -1 19 -3 4 -6 -2 -5 -13z"/>
    <path d="M19601 10784 c0 -11 3 -14 6 -6 3 7 2 16 -1 19 -3 4 -6 -2 -5 -13z"/>
    <path d="M19592 10735 c0 -16 2 -22 5 -12 2 9 2 23 0 30 -3 6 -5 -1 -5 -18z"/>
    <path d="M19582 10680 c0 -14 2 -19 5 -12 2 6 2 18 0 25 -3 6 -5 1 -5 -13z"/>
    <path d="M19572 10630 c0 -14 2 -19 5 -12 2 6 2 18 0 25 -3 6 -5 1 -5 -13z"/>
    <path d="M19553 10555 c-6 -25 -7 -45 -3 -45 8 0 23 80 17 86 -2 2 -8 -16 -14 -41z"/>
    <path d="M24916 10176 c-141 -15 -201 -25 -204 -34 -2 -7 4 -16 14 -18 16 -4 19 -17 21 -72 2 -36 6 -69 10 -72 5 -4 32 -5 61 -2 51 4 52 5 52 35 0 18 -3 49 -6 70 -6 36 -8 37 -53 39 -44 1 -43 2 14 7 l60 6 12 -68 c15 -91 18 -97 50 -98 l28 -1 -25 -7 c-69 -21 -80 -22 -80 -5 0 14 -7 15 -42 10 -23 -4 -44 -9 -46 -11 -9 -9 11 -65 24 -65 8 0 62 11 121 25 59 14 112 24 119 21 14 -5 224 -408 224 -429 0 -8 -180 -174 -400 -368 -347 -307 -399 -356 -394 -375 5 -19 -10 -38 -80 -106 -55 -53 -89 -95 -95 -116 -7 -24 2 -164 34 -505 24 -260 45 -490 47 -512 l3 -40 50 3 c100 5 125 12 125 33 0 11 -20 240 -45 509 -25 269 -42 495 -39 502 4 7 28 33 55 57 38 34 52 42 61 33 7 -7 20 -12 29 -12 9 0 87 63 172 140 164 146 164 146 296 171 l63 12 177 206 c216 252 221 258 221 292 0 15 -49 164 -109 331 -59 167 -116 327 -125 355 -10 29 -27 60 -39 68 -28 20 -109 18 -361 -9z m335 -25 c28 -22 20 -38 -9 -22 -36 19 -51 12 -76 -36 l-25 -48 2 57 c2 53 4 57 27 61 50 8 58 7 81 -12z m-4 -63 c8 -7 7 -17 -5 -39 -18 -31 -28 -34 -51 -20 -13 8 -12 15 4 45 18 33 24 35 52 14z m-417 -7 c0 -5 3 -23 6 -40 6 -29 5 -31 -25 -31 -23 0 -31 5 -31 18 0 9 -3 27 -6 40 -6 19 -3 22 25 22 17 0 31 -4 31 -9z m478 -60 c7 -21 12 -41 12 -45 0 -6 -161 -89 -164 -84 -1 2 -11 20 -21 41 -19 37 -20 37 -85 39 l-65 2 65 3 c46 3 69 9 78 20 11 16 16 15 58 -5 25 -12 49 -20 53 -18 4 3 16 23 26 46 10 22 21 40 25 40 4 0 12 -17 18 -39z m5 -177 c-35 -29 -40 -29 -54 -2 -10 19 -8 25 17 45 l29 23 18 -22 c18 -21 17 -22 -10 -44z m-88 -13 c15 -22 24 -45 20 -50 -10 -17 -19 -13 -37 19 -10 18 -25 30 -38 30 -27 0 -26 14 3 28 12 6 23 11 23 11 1 1 14 -17 29 -38z m29 -155 c34 -90 32 -95 -8 -16 -19 35 -31 71 -29 78 7 17 8 17 37 -62z m211 -108 c7 -27 6 -28 -31 -28 -56 0 -84 -10 -85 -29 0 -9 -5 -2 -10 15 -5 19 -18 34 -31 39 -17 5 -5 10 49 19 40 7 76 15 80 19 10 10 20 -3 28 -35z m5 -88 c0 -28 -2 -30 -40 -30 -38 0 -40 2 -40 30 0 28 2 30 40 30 38 0 40 -2 40 -30z m-87 -64 c9 0 40 1 67 2 44 2 50 5 51 25 l2 22 4 -22 c3 -16 -11 -41 -49 -88 -29 -35 -54 -58 -56 -51 -2 7 -14 19 -28 27 -14 7 -43 34 -65 60 -35 42 -37 48 -22 60 9 8 24 13 35 11 10 -2 21 4 26 15 5 13 8 8 12 -22 4 -30 9 -40 23 -39z m-143 -92 c-12 -19 -21 -37 -18 -39 2 -2 29 -19 61 -38 43 -26 54 -37 44 -45 -9 -8 -29 0 -74 29 -34 21 -68 39 -76 39 -16 0 -137 -138 -137 -156 0 -7 23 -39 50 -72 28 -33 47 -63 42 -66 -5 -3 -28 -9 -51 -15 l-43 -9 26 27 c14 15 26 32 26 38 0 6 -21 29 -46 52 -49 46 -46 46 -101 -3 -30 -26 -29 -35 12 -83 l35 -41 -28 -7 c-15 -3 -35 -14 -44 -22 -16 -15 -18 -15 -18 0 0 20 -67 97 -85 97 -6 0 -43 -27 -81 -61 -74 -65 -162 -135 -129 -102 11 11 77 70 146 131 95 84 129 108 137 100 18 -18 67 23 67 55 1 38 191 207 226 200 17 -3 31 3 49 22 32 34 38 15 10 -31z m113 -22 c3 -4 -1 -15 -8 -25 -12 -17 -15 -17 -44 -2 -33 16 -39 33 -20 52 9 9 19 8 40 -2 15 -8 30 -18 32 -23z m-323 -306 l-20 -20 -27 26 c-26 27 -26 28 -8 48 l18 20 29 -27 28 -27 -20 -20z m-191 -50 l22 -23 -63 -56 -63 -56 -25 25 -25 24 60 55 c33 30 63 54 66 55 3 0 16 -11 28 -24z m51 -50 c0 -5 -227 -205 -255 -226 -40 -28 7 16 130 124 120 105 125 109 125 102z m-228 -149 c-33 -37 -54 -42 -74 -17 -19 23 -18 24 14 57 l32 33 22 -27 c21 -26 21 -29 6 -46z m-116 -61 c15 -24 14 -26 -27 -63 -72 -64 -79 -72 -79 -95 0 -13 18 -214 39 -448 22 -234 39 -425 38 -426 -1 -1 -28 -4 -59 -7 -58 -6 -58 -5 -58 21 -1 15 -18 209 -39 432 -33 342 -37 410 -26 436 12 30 165 174 185 174 5 0 17 -11 26 -24z m-21 -1107 c9 -50 -1 -59 -67 -59 l-48 0 0 44 c0 49 5 53 72 55 35 1 36 0 43 -40z" id="figuras"/>
    <path d="M19390 9068 c-366 -1853 -378 -1912 -410 -1993 -45 -112 -106 -199 -209 -297 -103 -99 -220 -163 -361 -199 -79 -21 -114 -22 -497 -26 -377 -4 -413 -6 -413 -21 0 -16 25 -17 293 -14 631 5 630 5 793 82 252 117 421 337 479 621 8 41 20 101 26 134 6 33 14 76 19 95 5 19 106 527 225 1129 218 1099 220 1110 184 1111 -3 0 -61 -280 -129 -622z"/>
    <path d="M25315 8128 c-3 -7 -10 -40 -17 -73 -12 -55 -16 -60 -47 -69 -31 -9 -33 -12 -29 -48 2 -26 0 -38 -9 -38 -8 0 -13 -13 -13 -34 0 -19 -5 -38 -11 -41 -6 -4 -9 -21 -8 -39 2 -17 -3 -42 -10 -55 -7 -12 -11 -32 -8 -42 3 -10 1 -21 -3 -24 -4 -3 -11 -31 -15 -63 -7 -63 7 -117 28 -109 10 4 8 -21 -7 -105 l-21 -110 -98 -54 c-53 -30 -101 -63 -105 -72 -5 -9 -14 -43 -21 -74 -7 -31 -18 -61 -26 -68 -7 -6 -90 -15 -197 -20 -100 -5 -217 -11 -258 -14 l-75 -4 50 18 c28 9 54 15 58 13 5 -3 16 1 25 9 9 8 38 22 64 32 26 10 50 21 53 26 7 12 -58 180 -70 180 -12 0 -265 -97 -273 -104 -3 -3 9 -43 26 -90 l31 -84 -127 -7 c-70 -3 -158 -7 -195 -8 l-68 -2 -90 215 c-250 593 -340 805 -348 813 -9 9 -181 -62 -181 -74 0 -7 424 -1014 518 -1230 39 -90 -6 -84 687 -80 656 3 646 3 680 55 20 30 127 568 115 580 -4 4 -23 11 -42 15 -32 7 -33 8 -30 52 3 37 9 50 43 79 32 29 41 45 50 93 11 53 14 57 40 57 16 0 37 8 48 19 19 19 37 103 26 121 -4 6 -1 17 5 25 7 8 10 28 8 45 -3 18 1 35 9 41 7 6 13 24 13 40 0 16 5 29 11 29 6 0 9 14 8 33 -2 17 3 45 11 60 17 36 5 58 -38 71 -26 8 -30 14 -26 35 13 63 12 65 -41 77 -67 16 -95 16 -100 2z m112 -41 c3 -3 1 -23 -4 -44 -9 -38 -10 -38 -53 -35 -24 2 -45 4 -46 5 -2 1 2 23 7 48 l10 46 40 -7 c22 -4 42 -10 46 -13z m-46 -116 l26 -6 -52 -264 -52 -264 -37 -31 c-24 -20 -40 -43 -45 -66 -4 -22 -13 -36 -25 -38 -13 -3 -17 1 -13 15 3 10 34 163 68 341 69 353 60 330 130 313z m-1866 -93 c17 -39 31 -75 33 -79 1 -3 -11 -12 -28 -19 -35 -15 -44 -9 -112 73 l-40 47 53 25 c30 13 56 24 59 24 3 1 19 -31 35 -71z m-17 -197 c17 -31 118 -265 227 -521 108 -256 203 -470 211 -476 18 -14 18 -54 0 -54 -38 0 -66 57 -292 590 -130 305 -238 562 -241 570 -14 36 68 -58 95 -109z m77 60 c6 -19 -13 -61 -27 -61 -4 0 -15 12 -25 26 -16 25 -16 27 2 40 26 19 43 17 50 -5z m13 -120 c6 -16 85 -208 177 -427 124 -296 175 -406 197 -427 l29 -28 540 3 541 3 23 27 c16 18 28 55 41 123 10 54 20 93 22 87 4 -14 -35 -218 -48 -250 l-10 -22 -575 2 -576 3 -198 468 c-120 281 -193 467 -186 467 7 0 18 -13 23 -29z m1614 -376 c-5 -36 -11 -45 -28 -45 -11 0 -14 5 -10 16 3 9 6 25 6 36 0 13 5 18 18 16 10 -2 16 -11 14 -23z m-82 -33 c0 -22 -62 -321 -72 -346 -20 -51 -60 -66 -173 -65 -55 0 -93 3 -85 6 35 12 55 73 29 88 -6 4 -31 -1 -57 -10 -25 -10 -68 -18 -96 -19 -38 -1 -51 -5 -51 -16 0 -10 21 -21 65 -32 l65 -17 -153 0 c-139 -1 -152 0 -138 15 9 8 16 27 16 40 0 23 1 24 16 10 20 -20 68 -21 84 -1 7 8 10 31 8 50 -2 19 -4 35 -3 35 0 0 71 5 157 10 87 5 167 14 178 20 18 10 22 6 40 -35 11 -26 23 -58 26 -71 7 -25 46 -34 59 -13 8 13 -52 180 -70 194 -16 13 -8 70 13 87 19 16 124 76 135 77 4 1 7 -3 7 -7z m170 -5 c0 -7 -20 -116 -45 -243 -25 -126 -45 -230 -45 -231 0 -6 -26 -2 -38 6 -11 6 -5 51 28 222 54 280 48 259 76 259 13 0 24 -6 24 -13z m-772 -23 c35 -10 26 -20 -13 -16 -19 2 -41 0 -48 -6 -6 -6 -30 -13 -52 -16 -37 -6 -35 -5 20 18 70 29 64 27 93 20z m659 -64 c-6 -33 -15 -50 -25 -50 -11 0 -13 8 -8 38 3 20 6 43 6 50 0 6 8 12 19 12 16 0 17 -4 8 -50z m-682 10 c-3 -5 -11 -10 -16 -10 -6 0 -7 5 -4 10 3 6 11 10 16 10 6 0 7 -4 4 -10z m-110 -31 c33 -8 44 -16 48 -34 2 -13 -1 -26 -8 -29 -8 -3 -10 4 -7 20 4 24 3 24 -36 18 -34 -5 -42 -3 -51 15 -14 25 -9 26 54 10z m145 -9 c0 -13 -7 -20 -20 -20 -25 0 -25 9 -2 26 22 17 22 17 22 -6z m587 -112 c-3 -8 -6 -5 -6 6 -1 11 2 17 5 13 3 -3 4 -12 1 -19z m-645 -58 c-4 -28 -5 -29 -28 -14 -24 16 -62 11 -76 -10 -13 -19 -9 -64 6 -79 13 -12 8 -15 -37 -21 -29 -3 -101 -6 -160 -6 -134 0 -175 17 -201 81 -9 23 -15 44 -12 47 3 2 108 10 233 17 125 7 240 13 254 14 23 1 25 -2 21 -29z m635 8 c-3 -8 -6 -5 -6 6 -1 11 2 17 5 13 3 -3 4 -12 1 -19z m-16 -73 c-11 -43 -37 -75 -59 -75 -9 0 -5 8 11 21 15 11 32 38 38 60 15 49 24 44 10 -6z m-305 -10 c-23 -17 -36 -19 -36 -6 0 5 8 12 18 14 32 9 37 6 18 -8z m403 -151 c11 -10 -45 -54 -73 -59 -17 -2 -280 -6 -584 -7 l-552 -3 0 28 0 27 569 0 c497 0 570 2 581 15 11 14 44 13 59 -1z" id="sonidosexpreso"/>
  </g>
</svg>