<?xml version="1.0" encoding="utf-8"?>
<svg version="1.2" viewBox="1337.845 2834.414 989.945 961.486" xmlns="http://www.w3.org/2000/svg">
  <title>MapaPapalote</title>
  <style>
		tspan { white-space:pre } 
		.s0 { fill: #ff7923;stroke: #ff7923;stroke-linecap: round;stroke-linejoin: round;stroke-width: 2 } 
		.s1 { fill: #ff311b;stroke: #ff311b;stroke-linecap: round;stroke-linejoin: round;stroke-width: 2 } 
		.s2 { fill: #55cdd0;stroke: #55cdd0;stroke-linecap: round;stroke-linejoin: round;stroke-width: 2 } 
		.s3 { fill: #7946a4;stroke: #7745a3;stroke-linecap: round;stroke-linejoin: round;stroke-width: 2 } 
		.s4 { fill: #00b5ce } 
		.s5 { fill: #5c1799 } 
		.s6 { fill: #b95719 } 
		.s7 { fill: #c72014 } 
	</style>
  <g id="Piso1">
    <path id="Path 21" class="s0" d="m2145.7 3251.2c0 0 11.8-21.7 32.3-16.6l95.4 18.9c0 0 24 3.2 25.2 30.4l27.4 177.9c0 0 5.5 23-12.5 32.7l-88 48.2-36-64.7 18.9-11.1c0 0 20.5-15.1 20.9-40.6 0 0-1.3-37.5-17.5-49.8-16.2-12.3-43.2-11.9-59.2 14.6 0 0-37.5 65.1-118.3 48.7 0 0-69.7-19.2-108.6-21.9 0 0-47.8-3.6-93.6 0.5l-41.4-79.9 67.8 0.2 68.8-31.9-17.3-101 132.3 25.4z"/>
    <path id="Path 22" class="s1" d="m1789.3 3337.9l-74.4 20.8-36.1-38.4c0 0-3 3.3-7.7 3l-20.6 0.3c0 0-12.1-0.3-16.8 10.8l-68.8 136.5 216.5 303.9c0 0 5.3 10 10.8 14.3 5.5 4.2 12.8 6.1 21.9 5.7l223.9 0.1c0 0 16.4-1.7 21.3-7.8l-19.7-102.7-58.6-93.5-25.2 10c0 0-32.5 11.2-72.2-12.1l-100.8-58.9 10.9-19.7c0 0-36.4-23.1-19.7-62 16.7-38.8 57.7-30.6 57.7-30.6z"/>
    <path id="Path 23" class="s2" d="m2189 3477.2l-208.9 114.4 58.6 93.5 19.7 102.9 11.4-9.8 56-115.2c0 0 5.8-8.1 4.1-18.6-1.7-10.6-5.1-13.1 2.9-29.1l10.2-21.5c0 0 2.9-8.9 12.6-13.1l69.4-38.8z"/>
    <path id="Path 31" class="s3" d="m1802.5 2866.3h41.5c0 0 1.4 248.1 0 292-1.1 32.9 24 38.2 24 38.2l41.5 8.5 17.3 101-68.7 31.9h-68.8l-232.2-323.2c0 0 225.7-86.4 233.7-89.5 7.9-3 11.8-5.5 11.8-19 0-13.6-0.1-39.9-0.1-39.9z"/>
  </g>
  <path id="Path 25" class="s0" d="M 1555.976 3218.106 L 1511.376 3265.906 L 1497.676 3253.606 L 1485.476 3209.006 C 1485.476 3209.006 1484.976 3199.806 1476.776 3194.806 L 1358.376 3105.706 C 1358.376 3105.706 1342.876 3095.706 1342.876 3072.906 C 1342.876 3050.206 1366.076 3040.406 1366.076 3040.406 L 1495.276 2988.806 C 1495.276 2988.806 1524.076 2974.406 1543.776 2996.906 L 1789.276 3338.906 L 1749.776 3350.306 L 1667.076 3264.006 L 1645.676 3223.506 L 1518.076 3067.606 C 1518.076 3067.606 1508.276 3054.306 1493.276 3058.806 L 1446.776 3076.606 C 1446.776 3076.606 1430.276 3083.506 1442.676 3099.806 L 1555.976 3218.106 Z" style="fill: rgb(119, 117, 104); stroke: none; stroke-linecap: butt; stroke-linejoin: miter; stroke-width: 1px;"/>
  <path d="M 1487.358 3143.05 C 1488.181 3143.666 1489.103 3144.076 1490.027 3144.281 C 1492.181 3144.794 1494.233 3145.307 1496.389 3145.614 C 1498.338 3145.82 1500.39 3145.923 1502.338 3146.026 C 1504.082 3146.127 1505.724 3146.127 1507.468 3146.127 C 1508.494 3146.127 1509.417 3146.127 1510.341 3145.923 C 1512.29 3145.614 1514.135 3145.307 1515.982 3145 C 1517.419 3144.794 1518.854 3144.794 1520.393 3144.794 C 1521.316 3144.692 1521.522 3144.897 1521.83 3145.82 C 1521.933 3146.333 1522.138 3146.846 1522.343 3147.359 C 1522.549 3148.385 1523.062 3149.309 1523.473 3150.231 C 1523.782 3151.052 1524.294 3151.77 1524.705 3152.591 C 1525.424 3154.13 1526.247 3155.566 1527.374 3156.9 C 1528.505 3158.131 1529.53 3159.362 1530.762 3160.49 C 1531.685 3161.516 1532.814 3162.234 1533.84 3163.158 C 1534.353 3163.671 1534.969 3164.081 1535.585 3164.594 C 1534.661 3164.696 1533.943 3164.696 1533.122 3164.901 C 1531.483 3165.209 1529.84 3165.619 1528.301 3166.338 C 1527.584 3166.645 1526.866 3166.851 1526.25 3167.261 C 1524.712 3167.979 1523.173 3168.697 1521.532 3169.005 C 1520.403 3169.313 1519.173 3169.518 1518.147 3169.826 C 1516.814 3170.236 1515.583 3170.749 1514.352 3171.466 C 1513.941 3171.673 1513.736 3171.979 1513.736 3172.492 C 1513.737 3173.005 1513.942 3173.313 1514.455 3173.622 C 1515.481 3174.135 1516.609 3174.237 1517.635 3174.443 C 1519.38 3174.648 1521.227 3175.057 1522.971 3174.852 C 1524.304 3174.75 1525.536 3174.852 1526.766 3174.852 C 1527.894 3174.75 1529.126 3174.648 1530.254 3174.544 C 1531.69 3174.339 1533.093 3174.135 1534.461 3173.93 C 1535.383 3173.826 1536.204 3173.622 1537.025 3173.417 C 1538.05 3173.212 1538.974 3173.212 1540 3172.904 C 1541.436 3172.596 1542.77 3172.8 1544.104 3173.005 C 1545.95 3173.417 1547.489 3174.544 1548.824 3175.776 C 1550.363 3177.109 1551.595 3178.751 1552.929 3180.29 C 1552.929 3180.495 1553.236 3180.597 1553.34 3180.803 C 1553.544 3181.213 1553.955 3181.623 1554.161 3182.034 C 1554.674 3183.06 1555.494 3183.983 1556.317 3184.907 C 1556.625 3185.316 1556.83 3185.829 1557.239 3186.24 C 1557.651 3186.548 1558.06 3186.855 1558.265 3187.163 C 1559.191 3188.805 1560.831 3189.626 1561.962 3190.857 C 1562.576 3191.472 1563.192 3191.985 1563.707 3192.6 C 1564.629 3193.524 1565.553 3194.242 1566.477 3194.857 C 1567.298 3195.473 1568.118 3195.986 1568.836 3196.601 C 1569.761 3197.422 1570.787 3198.14 1571.607 3199.064 C 1572.429 3199.782 1573.455 3200.295 1574.071 3201.321 C 1574.071 3201.423 1574.173 3201.423 1574.276 3201.423 C 1574.686 3201.423 1574.686 3201.629 1574.687 3202.038 C 1574.584 3202.346 1574.687 3202.655 1575.2 3202.551 C 1575.405 3202.449 1575.508 3202.551 1575.61 3202.756 C 1575.61 3203.064 1575.61 3203.269 1575.918 3203.269 C 1576.329 3203.269 1576.636 3203.269 1576.636 3203.782 C 1576.739 3204.398 1577.355 3203.782 1577.559 3204.194 C 1577.629 3204.262 1577.662 3204.33 1577.662 3204.398 C 1577.766 3204.707 1577.971 3204.603 1578.175 3204.398 C 1578.483 3204.194 1578.585 3204.09 1578.893 3204.398 C 1579.1 3204.707 1579.51 3204.603 1579.611 3204.194 C 1579.611 3203.885 1579.714 3203.577 1580.022 3203.577 C 1580.74 3203.269 1580.227 3203.064 1579.919 3202.859 C 1579.817 3202.756 1579.714 3202.756 1579.714 3202.655 C 1580.022 3202.551 1580.022 3202.551 1580.022 3202.346 C 1580.123 3201.834 1579.816 3201.321 1580.021 3200.91 C 1580.123 3200.603 1579.918 3200.704 1579.816 3200.603 C 1579.508 3200.499 1579.2 3200.295 1579.405 3199.885 C 1579.61 3199.577 1579.404 3199.473 1579.097 3199.372 C 1578.993 3199.269 1578.686 3199.269 1578.789 3199.064 C 1578.789 3198.551 1578.686 3198.346 1578.173 3198.346 C 1578.173 3198.448 1578.071 3198.346 1578.071 3198.346 C 1578.173 3197.833 1577.763 3197.627 1577.558 3197.422 C 1577.146 3196.909 1577.146 3196.396 1576.736 3195.883 C 1576.223 3195.165 1575.914 3194.242 1575.504 3193.421 C 1575.162 3192.6 1574.819 3191.779 1574.476 3190.959 C 1573.86 3189.42 1573.142 3187.984 1572.32 3186.548 C 1571.397 3185.009 1570.883 3183.368 1570.062 3181.726 C 1569.446 3180.495 1568.726 3179.469 1568.009 3178.341 C 1567.29 3177.212 1566.366 3176.186 1565.545 3175.16 C 1564.826 3174.443 1564.313 3173.518 1563.698 3172.699 C 1562.979 3171.673 1562.466 3170.544 1561.644 3169.621 C 1561.644 3169.621 1561.644 3169.586 1561.644 3169.518 C 1561.336 3168.595 1560.721 3167.979 1560.309 3167.158 C 1559.899 3166.338 1559.386 3165.518 1559.18 3164.492 C 1559.18 3163.979 1559.18 3163.466 1559.18 3163.055 C 1558.871 3161.516 1559.486 3160.08 1559.793 3158.644 C 1560.305 3156.387 1561.638 3154.54 1562.56 3152.488 C 1563.175 3151.155 1563.893 3149.822 1564.508 3148.487 C 1565.533 3146.333 1566.455 3144.179 1567.07 3141.819 C 1567.479 3140.075 1567.992 3138.332 1568.196 3136.588 C 1568.263 3135.697 1568.127 3134.877 1567.785 3134.125 C 1567.477 3133.407 1566.861 3133.202 1566.143 3133.407 C 1565.528 3133.612 1565.117 3134.125 1564.81 3134.637 C 1563.785 3136.176 1562.964 3137.614 1561.939 3139.153 C 1561.118 3140.485 1560.094 3141.819 1558.863 3142.845 C 1558.043 3143.666 1557.325 3144.487 1556.608 3145.307 C 1555.788 3146.333 1554.863 3147.257 1554.351 3148.385 C 1553.942 3149.205 1553.737 3150.026 1553.43 3151.052 C 1552.916 3149.822 1552.3 3148.692 1551.786 3147.564 C 1551.171 3146.333 1550.452 3145.102 1549.734 3143.871 C 1549.014 3142.742 1548.296 3141.614 1547.372 3140.588 C 1546.962 3140.109 1546.551 3139.666 1546.141 3139.254 C 1545.628 3138.741 1545.012 3138.332 1544.499 3137.819 C 1543.986 3137.101 1543.267 3136.485 1542.549 3136.075 C 1541.42 3135.254 1540.291 3134.33 1539.06 3133.51 C 1538.957 3133.407 1538.855 3133.304 1538.854 3132.997 C 1538.854 3132.484 1538.751 3131.971 1538.854 3131.458 C 1539.058 3130.329 1539.366 3129.303 1539.776 3128.277 C 1540.288 3126.738 1540.698 3125.2 1541.416 3123.764 C 1542.304 3121.986 1543.02 3120.173 1543.567 3118.327 C 1543.977 3117.198 1544.181 3116.069 1544.489 3114.941 C 1545.001 3112.786 1545.513 3110.735 1545.717 3108.581 C 1545.921 3106.188 1545.851 3103.793 1545.51 3101.399 C 1545.406 3100.682 1545.304 3100.065 1544.791 3099.45 C 1544.277 3098.835 1543.251 3098.63 1542.636 3099.553 C 1542.226 3100.169 1541.918 3100.784 1541.611 3101.502 C 1541.098 3102.836 1540.69 3104.169 1540.073 3105.503 C 1538.946 3108.068 1537.614 3110.428 1535.974 3112.684 C 1535.154 3113.812 1534.538 3115.044 1534.231 3116.377 C 1534.027 3116.993 1534.027 3117.608 1533.923 3118.224 C 1533.72 3119.454 1533.207 3120.48 1532.695 3121.506 C 1531.976 3122.738 1531.362 3124.071 1530.028 3124.892 C 1529.823 3125.097 1529.618 3125.097 1529.31 3124.892 C 1528.694 3124.379 1527.976 3123.969 1527.257 3123.456 C 1526.129 3122.636 1525.103 3121.712 1523.973 3120.993 C 1523.051 3120.378 1522.23 3119.763 1521.306 3119.045 C 1519.972 3118.121 1518.741 3116.89 1517.406 3115.762 C 1517.098 3115.454 1516.79 3115.249 1516.483 3114.941 C 1515.97 3114.428 1515.457 3113.915 1514.943 3113.402 C 1514.19 3112.65 1513.404 3111.897 1512.582 3111.146 C 1511.761 3110.324 1511.043 3109.503 1510.12 3108.786 C 1509.401 3108.17 1508.785 3107.35 1508.067 3106.734 C 1507.245 3105.811 1506.322 3104.99 1505.501 3104.067 C 1504.782 3103.451 1504.167 3102.733 1503.449 3102.015 C 1502.524 3101.297 1501.703 3100.373 1500.883 3099.553 C 1500.37 3099.04 1499.856 3098.424 1499.138 3098.117 C 1498.933 3098.014 1498.83 3097.809 1498.625 3098.014 C 1498.317 3098.219 1498.522 3098.322 1498.625 3098.527 C 1499.036 3099.553 1499.549 3100.373 1500.165 3101.297 C 1500.679 3102.015 1501.089 3102.733 1501.5 3103.554 C 1502.116 3104.785 1502.732 3106.016 1503.553 3107.144 C 1504.374 3108.273 1504.888 3109.607 1505.606 3110.735 C 1506.12 3111.555 1506.427 3112.48 1506.94 3113.197 C 1507.659 3114.428 1508.276 3115.762 1508.892 3116.993 C 1509.302 3117.711 1509.611 3118.634 1510.022 3119.454 C 1510.946 3121.199 1511.767 3123.045 1512.588 3124.892 C 1513.41 3126.842 1514.129 3128.79 1514.847 3130.637 C 1515.328 3131.8 1515.805 3132.962 1516.285 3134.125 C 1516.388 3134.33 1516.388 3134.536 1516.183 3134.637 C 1515.67 3134.946 1515.055 3135.254 1514.439 3135.562 C 1512.491 3136.28 1510.542 3136.588 1508.387 3136.382 C 1507.464 3136.28 1506.644 3136.28 1505.72 3136.28 C 1503.976 3136.382 1502.437 3136.895 1500.898 3137.51 C 1498.847 3138.228 1496.899 3138.946 1494.847 3139.459 C 1493.923 3139.666 1492.898 3139.767 1491.872 3139.87 C 1491.153 3139.972 1490.435 3140.179 1489.717 3140.179 C 1488.589 3140.28 1487.768 3140.588 1487.154 3141.511 C 1486.949 3141.819 1487.05 3142.845 1487.358 3143.05 Z" class="s1" id="Path 68" style="fill: rgb(204, 233, 198); stroke: none; stroke-linecap: butt; stroke-linejoin: miter; stroke-width: 1px;"/>
</svg>