<?xml version="1.0" encoding="utf-8"?>
<svg xmlns="http://www.w3.org/2000/svg" version="1.0" preserveAspectRatio="xMidYMid meet" viewBox="777 1387.19 1225.92 2376.62">
  <g transform="translate(0.000000,4384.000000) scale(0.100000,-0.100000)" fill="#000000" stroke="none">
    <path d="M 13985 29960 C 13917 29951 13869 29941 13760 29912 C 13657 29884 13614 29867 13512 29815 C 13421 29767 13331 29707 13154 29575 C 13125 29553 13053 29501 12995 29460 C 12936 29419 12866 29368 12840 29348 C 12813 29327 12788 29310 12785 29310 C 12782 29310 12757 29293 12730 29273 C 12703 29252 12656 29217 12625 29195 C 12595 29173 12545 29137 12515 29115 C 12485 29093 12438 29059 12410 29040 C 12382 29021 12335 28987 12305 28965 C 12275 28943 12227 28908 12198 28887 C 12169 28866 12087 28807 12015 28755 C 11944 28703 11861 28644 11832 28623 C 11803 28602 11755 28567 11725 28545 C 11695 28523 11648 28489 11620 28470 C 11567 28433 11486 28374 11409 28316 C 11384 28297 11342 28270 11316 28256 C 11290 28242 11254 28217 11237 28200 C 11219 28183 11183 28153 11155 28134 C 11128 28115 11071 28075 11030 28045 C 10989 28015 10939 27979 10920 27966 C 10901 27952 10860 27923 10830 27901 C 10800 27879 10753 27846 10725 27827 C 10683 27797 10649 27772 10585 27722 C 10580 27718 10550 27698 10520 27677 C 10449 27629 10389 27586 10315 27529 C 10282 27505 10235 27471 10210 27455 C 10185 27439 10161 27421 10155 27416 C 10150 27410 10125 27392 10100 27375 C 10075 27359 10051 27342 10045 27337 C 9996 27300 9959 27273 9940 27260 C 9927 27252 9905 27235 9890 27223 C 9875 27210 9857 27200 9852 27200 C 9846 27200 9837 27194 9833 27187 C 9829 27181 9805 27161 9780 27145 C 9755 27128 9731 27112 9725 27107 C 9678 27071 9639 27043 9620 27030 C 9600 27016 9539 26972 9515 26952 C 9510 26948 9481 26929 9453 26910 C 9424 26892 9400 26873 9400 26868 C 9400 26864 9395 26860 9389 26860 C 9383 26860 9364 26849 9346 26835 C 9306 26802 9303 26800 9250 26765 C 9225 26749 9184 26719 9159 26700 C 9134 26681 9103 26658 9090 26650 C 9078 26642 9053 26624 9035 26610 C 9017 26596 8992 26578 8980 26570 C 8968 26562 8941 26542 8921 26526 C 8901 26511 8860 26482 8830 26462 C 8800 26442 8773 26423 8770 26420 C 8767 26417 8743 26398 8715 26379 C 8688 26361 8661 26342 8655 26337 C 8625 26315 8524 26240 8478 26207 C 8194 26005 8094 25922 8005 25818 C 7896 25689 7880 25664 7842 25558 C 7775 25372 7770 25345 7770 25179 C 7770 25055 7774 25011 7791 24950 C 7802 24909 7825 24826 7841 24766 C 7861 24692 7878 24648 7894 24631 C 7909 24615 7927 24575 7939 24530 C 7950 24489 7966 24430 7975 24400 C 7984 24370 8000 24314 8010 24275 C 8020 24237 8037 24176 8048 24140 C 8068 24078 8095 23982 8125 23875 C 8132 23848 8148 23792 8159 23753 C 8186 23661 8217 23549 8235 23485 C 8256 23409 8318 23186 8346 23085 C 8360 23036 8378 22973 8386 22945 C 8406 22882 8436 22776 8460 22685 C 8476 22621 8542 22388 8591 22215 C 8602 22177 8618 22123 8625 22095 C 8655 21988 8682 21892 8702 21830 C 8713 21794 8730 21734 8740 21695 C 8750 21657 8766 21600 8775 21570 C 8799 21490 8828 21385 8849 21305 C 8859 21267 8879 21196 8894 21148 C 8908 21100 8924 21043 8929 21023 C 8934 21002 8948 20954 8959 20915 C 8970 20877 8992 20798 9008 20740 C 9025 20682 9049 20597 9063 20550 C 9077 20503 9103 20413 9120 20350 C 9183 20119 9219 19993 9244 19908 C 9258 19860 9274 19803 9279 19783 C 9290 19740 9321 19630 9344 19555 C 9352 19528 9375 19447 9395 19375 C 9415 19304 9438 19223 9447 19195 C 9455 19168 9470 19114 9480 19075 C 9490 19037 9506 18980 9515 18950 C 9524 18920 9540 18864 9550 18825 C 9568 18759 9580 18715 9631 18538 C 9642 18498 9657 18443 9665 18415 C 9672 18388 9685 18343 9693 18315 C 9702 18288 9725 18207 9745 18135 C 9765 18064 9790 17974 9801 17935 C 9812 17897 9827 17843 9835 17815 C 9842 17788 9858 17731 9870 17690 C 9882 17649 9900 17584 9910 17545 C 9921 17507 9936 17450 9945 17420 C 9965 17351 9997 17240 10015 17175 C 10022 17148 10036 17100 10045 17070 C 10063 17008 10094 16901 10115 16825 C 10122 16798 10137 16744 10149 16705 C 10160 16667 10185 16577 10205 16505 C 10225 16434 10250 16344 10261 16305 C 10272 16267 10287 16213 10295 16185 C 10308 16135 10319 16097 10380 15885 C 10444 15661 10452 15634 10465 15585 C 10472 15558 10488 15501 10500 15460 C 10512 15419 10537 15329 10556 15260 C 10576 15191 10600 15104 10611 15065 C 10622 15027 10636 14977 10641 14955 C 10646 14933 10663 14872 10680 14820 C 10696 14768 10718 14694 10728 14655 C 10739 14617 10760 14542 10775 14490 C 10811 14364 10838 14266 10855 14205 C 10862 14178 10878 14121 10890 14080 C 10902 14039 10917 13983 10925 13955 C 10937 13908 10962 13819 10997 13705 C 11005 13678 11016 13638 11021 13617 C 11026 13597 11042 13540 11056 13492 C 11070 13444 11095 13356 11111 13295 C 11128 13235 11147 13165 11155 13140 C 11162 13115 11194 13003 11225 12890 C 11304 12604 11317 12558 11351 12451 C 11367 12400 11380 12351 11380 12342 C 11380 12334 11458 12342 11452 12363 C 11432 12431 11420 12476 11410 12515 C 11405 12537 11391 12587 11379 12625 C 11367 12664 11351 12722 11343 12755 C 11335 12788 11324 12824 11320 12835 C 11315 12846 11305 12880 11297 12910 C 11289 12940 11272 13001 11260 13045 C 11248 13089 11234 13141 11230 13160 C 11225 13179 11214 13220 11205 13250 C 11186 13313 11170 13376 11165 13405 C 11163 13416 11152 13452 11141 13485 C 11117 13556 11082 13674 11065 13745 C 11058 13772 11040 13833 11026 13879 C 11012 13926 11000 13973 11000 13984 C 11000 13996 10990 14030 10979 14060 C 10967 14090 10956 14129 10953 14145 C 10951 14162 10945 14184 10940 14195 C 10926 14230 10918 14254 10909 14290 C 10896 14349 10856 14492 10780 14765 C 10763 14826 10740 14907 10730 14945 C 10720 14984 10701 15049 10689 15090 C 10678 15131 10665 15181 10661 15201 C 10657 15220 10650 15242 10646 15249 C 10642 15255 10630 15293 10620 15333 C 10599 15414 10542 15620 10510 15725 C 10499 15764 10476 15847 10460 15910 C 10443 15973 10419 16061 10405 16105 C 10392 16149 10369 16230 10354 16285 C 10340 16340 10313 16414 10295 16450 C 10277 16486 10250 16546 10235 16583 C 10211 16643 10210 16655 10221 16682 C 10233 16712 10227 16757 10200 16840 C 10196 16854 10187 16885 10180 16910 C 10156 16996 10147 17025 10139 17045 C 10131 17066 10125 17095 10111 17168 C 10107 17191 10100 17213 10097 17217 C 10093 17220 10105 17244 10124 17269 C 10173 17338 10174 17340 10148 17337 C 10129 17335 10124 17341 10119 17375 C 10115 17397 10107 17431 10101 17450 C 10096 17469 10083 17517 10074 17555 C 10065 17594 10054 17632 10050 17640 C 10046 17649 10039 17676 10035 17700 C 10031 17725 10024 17752 10019 17761 C 10015 17769 10002 17819 9991 17871 C 9980 17923 9962 17997 9951 18035 C 9940 18074 9926 18125 9919 18150 C 9907 18195 9882 18289 9854 18385 C 9847 18413 9823 18507 9801 18595 C 9779 18683 9751 18791 9739 18835 C 9699 18985 9689 19025 9680 19065 C 9675 19087 9663 19130 9654 19160 C 9645 19190 9628 19256 9615 19305 C 9602 19355 9582 19429 9570 19470 C 9558 19511 9543 19568 9535 19595 C 9528 19623 9512 19679 9500 19720 C 9488 19761 9470 19827 9459 19865 C 9440 19935 9425 19988 9395 20090 C 9386 20120 9372 20168 9365 20195 C 9352 20243 9335 20302 9289 20463 C 9278 20502 9264 20552 9259 20573 C 9254 20593 9238 20650 9224 20698 C 9209 20746 9190 20817 9180 20855 C 9161 20928 9133 21026 9105 21120 C 9096 21150 9080 21207 9071 21245 C 9061 21284 9045 21335 9036 21360 C 9015 21419 9016 21428 9043 21451 L 9065 21470 L 9044 21476 C 9030 21480 9020 21493 9016 21513 C 9013 21531 9001 21577 8989 21615 C 8978 21654 8962 21710 8954 21740 C 8945 21770 8934 21806 8929 21819 C 8922 21837 8923 21847 8936 21861 C 8956 21884 8949 21894 8913 21895 C 8894 21895 8885 21902 8879 21920 C 8854 22004 8797 22211 8790 22245 C 8778 22305 8744 22426 8735 22440 C 8731 22447 8717 22491 8703 22539 C 8652 22718 8628 22807 8615 22855 C 8603 22902 8533 23150 8489 23305 C 8478 23344 8462 23398 8455 23425 C 8427 23525 8398 23626 8390 23650 C 8385 23664 8372 23709 8360 23750 C 8349 23791 8333 23848 8325 23876 C 8317 23904 8310 23939 8310 23953 C 8310 23990 8241 24240 8223 24269 C 8207 24294 8194 24336 8160 24465 C 8139 24547 8068 24796 8039 24890 C 8028 24926 8013 24993 8004 25040 C 7996 25087 7983 25161 7975 25205 C 7949 25344 7953 25372 8020 25525 C 8030 25547 8041 25576 8045 25590 C 8049 25604 8070 25647 8093 25686 C 8135 25760 8138 25762 8391 25928 C 8406 25937 8454 25972 8499 26005 C 8544 26038 8596 26074 8614 26085 C 8632 26096 8672 26124 8702 26148 C 8732 26171 8760 26190 8763 26190 C 8767 26190 8790 26205 8814 26223 C 8839 26240 8875 26266 8895 26280 C 8915 26294 8937 26310 8944 26316 C 8950 26322 8969 26334 8986 26343 C 9002 26351 9024 26367 9034 26379 C 9045 26391 9058 26400 9063 26400 C 9069 26400 9084 26410 9096 26421 C 9109 26433 9145 26459 9178 26479 C 9210 26499 9252 26528 9271 26543 C 9290 26558 9334 26589 9370 26612 C 9406 26635 9472 26682 9517 26716 C 9562 26751 9609 26784 9622 26791 C 9635 26797 9666 26819 9692 26839 C 9718 26859 9762 26891 9790 26910 C 9818 26929 9883 26977 9933 27015 C 9984 27054 10035 27092 10046 27100 C 10075 27120 10246 27252 10289 27287 C 10307 27302 10330 27319 10339 27324 C 10362 27338 10536 27471 10689 27592 C 10719 27616 10753 27642 10765 27650 C 10777 27658 10834 27701 10890 27745 C 10946 27789 11007 27835 11024 27847 C 11076 27884 11123 27920 11288 28046 C 11375 28113 11457 28173 11470 28180 C 11484 28187 11506 28203 11520 28215 C 11544 28237 11735 28375 11939 28519 C 12240 28731 12479 28902 12505 28923 C 12522 28936 12552 28953 12573 28960 C 12594 28966 12639 28997 12673 29027 C 12707 29057 12748 29089 12765 29097 C 12781 29106 12822 29136 12855 29165 C 12946 29244 13345 29527 13414 29561 C 13448 29578 13482 29597 13490 29603 C 13513 29622 13542 29637 13730 29733 C 13975 29859 13936 29862 14425 29685 C 14701 29585 14808 29550 14819 29557 C 14830 29564 14839 29562 14850 29550 C 14858 29540 14937 29484 15025 29424 C 15113 29365 15232 29285 15289 29246 C 15346 29207 15400 29171 15409 29165 C 15418 29160 15441 29144 15460 29130 C 15479 29116 15502 29101 15512 29095 C 15522 29090 15558 29065 15592 29041 C 15679 28980 15912 28821 16050 28730 C 16344 28534 16489 28436 16519 28413 C 16532 28403 16562 28384 16586 28370 C 16610 28356 16673 28315 16727 28278 C 16833 28206 17134 28002 17295 27892 C 17469 27773 17681 27629 17788 27556 C 17845 27517 17902 27478 17915 27470 C 17937 27456 18013 27404 18250 27241 C 18516 27058 18611 26997 18619 27006 C 18624 27011 18636 27057 18647 27108 L 18667 27200 L 18566 27268 C 18510 27306 18400 27381 18320 27435 C 18240 27489 18121 27570 18055 27615 C 17934 27697 17820 27775 17632 27904 C 17575 27943 17518 27982 17505 27990 C 17473 28011 17275 28145 17150 28231 C 16708 28534 16519 28660 16507 28660 C 16501 28660 16478 28678 16454 28700 C 16430 28722 16406 28740 16400 28740 C 16390 28740 16310 28791 16090 28941 C 16021 28988 15895 29074 15810 29132 C 15725 29190 15610 29268 15555 29305 C 15500 29343 15392 29416 15315 29468 C 15238 29520 15107 29610 15023 29667 C 14747 29855 14595 29917 14312 29959 C 14232 29971 14077 29971 13985 29960 Z"/>
    <path d="M13980 29380 c-41 -10 -99 -27 -128 -38 -51 -20 -176 -96 -217 -132 -11 -10 -39 -28 -62 -40 -24 -12 -43 -26 -43 -30 0 -4 -16 -19 -37 -32 -20 -12 -50 -32 -67 -43 -17 -11 -41 -29 -53 -39 -20 -18 -21 -21 -7 -48 15 -30 27 -34 47 -18 31 25 116 88 157 115 25 17 50 33 55 38 6 4 33 25 60 46 129 99 285 153 449 152 87 0 139 -8 266 -38 51 -13 138 -65 375 -228 55 -37 163 -111 240 -163 77 -52 147 -101 156 -108 8 -8 24 -14 34 -14 10 0 32 -11 49 -23 68 -51 136 -97 146 -97 10 0 45 48 39 54 -2 2 -26 19 -54 38 -125 85 -490 332 -585 397 -57 39 -110 71 -117 71 -11 0 -138 49 -215 83 -18 8 -40 18 -48 21 -8 3 -22 10 -30 15 -23 15 -100 49 -149 66 -56 20 -165 18 -261 -5z"/>
    <path d="M13305 28978 c-11 -7 -25 -16 -32 -22 -6 -6 -50 -38 -98 -71 -47 -33 -110 -78 -140 -100 -30 -22 -77 -56 -105 -75 -28 -19 -66 -46 -85 -60 -19 -14 -57 -41 -85 -60 -28 -19 -84 -60 -125 -90 -41 -30 -89 -65 -107 -78 -41 -29 -236 -168 -303 -217 -27 -20 -99 -71 -160 -115 -179 -128 -213 -152 -283 -205 -37 -28 -92 -67 -122 -88 -83 -57 -251 -177 -260 -187 -3 -3 -34 -25 -70 -49 -68 -47 -72 -50 -185 -134 -38 -29 -95 -69 -125 -90 -30 -20 -89 -62 -130 -92 -41 -31 -86 -63 -100 -73 -34 -23 -172 -122 -245 -177 -33 -24 -89 -65 -125 -90 -36 -26 -90 -64 -120 -86 -30 -22 -71 -51 -90 -65 -19 -13 -69 -49 -110 -79 -41 -30 -86 -63 -100 -72 -23 -16 -144 -103 -275 -198 -27 -20 -75 -53 -105 -75 -96 -69 -159 -114 -215 -155 -53 -39 -199 -144 -218 -156 -18 -12 5 -53 100 -174 5 -5 16 -22 26 -37 23 -37 38 -35 96 10 26 20 58 44 71 52 12 8 46 33 75 55 30 22 72 53 95 69 30 20 39 33 35 45 -18 41 -17 51 2 51 10 0 43 16 73 35 30 19 57 35 61 35 9 0 19 -55 19 -109 0 -56 27 -117 69 -160 17 -17 31 -35 31 -40 0 -4 -14 -19 -30 -31 -34 -26 -37 -56 -8 -74 13 -8 24 -5 47 12 17 12 34 22 39 22 5 0 23 -22 40 -49 39 -60 57 -75 75 -64 8 4 150 141 316 303 l301 296 2 104 c2 128 -14 170 -63 170 -17 0 -41 -8 -54 -17 -12 -10 -33 -25 -45 -33 -12 -8 -46 -33 -75 -55 -30 -22 -79 -58 -110 -80 -30 -22 -76 -55 -102 -74 -50 -37 -44 -38 -83 19 -8 13 -26 36 -39 52 -28 34 -35 25 99 115 47 32 87 60 90 63 3 3 27 22 55 41 53 36 52 35 106 77 20 15 47 34 59 42 13 8 44 31 69 50 25 19 66 49 91 65 25 17 50 33 55 38 6 4 28 21 50 38 90 69 146 102 157 91 10 -10 69 12 102 39 33 26 117 88 156 114 25 17 54 38 64 48 11 9 25 17 30 17 6 -1 29 -26 51 -56 22 -30 48 -64 57 -76 23 -28 38 -82 38 -140 0 -64 19 -69 108 -24 72 36 157 90 167 106 3 5 50 39 105 75 55 37 102 76 105 86 4 10 14 19 23 19 9 0 29 8 43 18 42 27 100 68 154 107 28 20 62 44 77 53 28 18 48 51 48 81 0 24 -35 54 -78 66 -25 7 -45 24 -67 55 -118 168 -109 150 -86 166 85 60 106 81 109 110 2 25 16 39 73 80 39 27 94 67 123 89 30 22 64 47 76 55 12 8 37 26 55 40 18 14 43 32 55 40 20 14 105 77 155 115 10 8 22 15 26 15 5 0 59 39 134 97 6 5 36 26 68 47 56 38 58 39 71 20 8 -10 28 -36 45 -58 17 -21 31 -44 31 -50 -1 -6 -24 -28 -53 -49 -67 -49 -153 -110 -195 -139 -56 -38 -92 -76 -92 -96 0 -11 10 -32 22 -47 19 -25 20 -28 5 -37 -31 -17 -14 -68 22 -68 8 0 32 12 53 26 33 23 41 25 69 15 18 -6 42 -11 55 -11 22 0 765 370 792 394 10 9 5 21 -20 56 -18 25 -38 51 -45 58 -18 18 -18 18 28 62 35 33 39 41 29 59 -14 28 -36 26 -77 -5 -39 -29 -48 -26 -57 18 -10 54 -77 114 -146 131 -14 4 -38 17 -54 30 l-30 24 62 48 c34 27 62 51 62 55 0 3 -6 15 -14 25 -13 18 -17 18 -56 5 l-42 -14 -29 35 c-15 18 -33 46 -40 62 -13 30 -16 31 -44 15z m45 -141 c0 -16 -39 -53 -100 -93 -24 -16 -51 -35 -60 -42 -8 -8 -40 -31 -70 -52 -83 -59 -155 -111 -214 -155 -30 -22 -64 -47 -76 -55 -13 -8 -44 -31 -69 -50 -56 -43 -142 -100 -151 -100 -4 0 -13 12 -21 28 -7 15 -15 30 -17 33 -1 3 28 27 65 53 37 26 93 65 123 87 30 22 71 51 90 65 67 46 135 96 190 138 58 44 96 71 207 148 66 45 68 46 86 28 9 -11 17 -25 17 -33z m60 -42 c-7 -9 -15 -13 -19 -10 -3 3 1 10 9 15 21 14 24 12 10 -5z m-55 -44 c-3 -6 -11 -11 -17 -11 -6 0 -6 6 2 15 14 17 26 13 15 -4z m-40 -30 c-3 -6 -14 -11 -23 -11 -15 1 -15 2 2 15 21 16 32 13 21 -4z m123 -90 c23 -12 42 -26 42 -31 0 -5 -17 -20 -37 -34 -21 -13 -63 -43 -95 -67 -31 -24 -66 -51 -78 -59 -12 -8 -36 -25 -53 -37 -17 -13 -36 -23 -43 -23 -13 0 -62 58 -83 98 -14 26 -3 40 66 86 46 31 59 52 43 71 -15 18 33 47 64 39 14 -3 36 1 53 9 26 15 30 14 53 -8 14 -12 44 -32 68 -44z m166 -57 c11 -28 6 -39 -9 -20 -8 11 -15 23 -15 28 0 14 18 9 24 -8z m-48 -19 c26 -40 12 -85 -36 -115 -22 -14 -40 -32 -40 -40 -1 -8 -16 -25 -35 -37 l-34 -22 -25 30 c-24 29 -26 29 -53 15 -15 -9 -47 -30 -71 -48 -41 -31 -43 -31 -60 -14 -16 17 -16 19 2 29 10 7 51 37 91 67 40 30 83 62 96 70 12 8 43 32 68 52 55 44 75 46 97 13z m-476 -9 c0 -3 -4 -8 -10 -11 -5 -3 -10 -1 -10 4 0 6 5 11 10 11 6 0 10 -2 10 -4z m-60 -40 c0 -3 -4 -8 -10 -11 -5 -3 -10 -1 -10 4 0 6 5 11 10 11 6 0 10 -2 10 -4z m-50 -36 c0 -5 -5 -10 -11 -10 -5 0 -7 5 -4 10 3 6 8 10 11 10 2 0 4 -4 4 -10z m637 -12 c-3 -8 -6 -5 -6 6 -1 11 2 17 5 13 3 -3 4 -12 1 -19z m-542 2 c3 -5 2 -10 -4 -10 -5 0 -13 5 -16 10 -3 6 -2 10 4 10 5 0 13 -4 16 -10z m-155 -35 c-7 -9 -15 -13 -17 -11 -7 7 7 26 19 26 6 0 6 -6 -2 -15z m770 -5 c0 -5 8 -18 18 -28 19 -21 45 -63 40 -66 -2 -2 -169 -87 -371 -190 -285 -146 -374 -187 -393 -182 -42 11 -39 15 81 101 31 22 78 57 106 78 38 29 57 37 75 33 32 -8 204 77 211 105 4 12 33 34 77 56 39 20 84 51 100 69 27 33 56 45 56 24z m-575 -20 c3 -5 1 -10 -4 -10 -6 0 -11 5 -11 10 0 6 2 10 4 10 3 0 8 -4 11 -10z m445 0 c0 -5 -4 -10 -10 -10 -5 0 -10 5 -10 10 0 6 5 10 10 10 6 0 10 -4 10 -10z m-685 -10 c-3 -5 -11 -10 -16 -10 -6 0 -7 5 -4 10 3 6 11 10 16 10 6 0 7 -4 4 -10z m-60 -40 c-3 -5 -11 -10 -16 -10 -6 0 -7 5 -4 10 3 6 11 10 16 10 6 0 7 -4 4 -10z m335 0 c0 -5 -2 -10 -4 -10 -3 0 -8 5 -11 10 -3 6 -1 10 4 10 6 0 11 -4 11 -10z m256 -52 l14 -28 -71 -35 c-39 -20 -72 -35 -74 -33 -2 2 -7 20 -13 40 -10 37 -10 37 41 76 49 37 53 39 71 23 10 -9 24 -28 32 -43z m-636 18 c0 -3 -4 -8 -10 -11 -5 -3 -10 -1 -10 4 0 6 5 11 10 11 6 0 10 -2 10 -4z m-217 -43 c9 -17 15 -37 12 -44 -4 -11 -41 -38 -76 -57 -3 -1 -14 16 -24 39 l-19 42 34 28 c40 34 49 33 73 -8z m643 10 c-7 -7 -26 7 -26 19 0 6 6 6 15 -2 9 -7 13 -15 11 -17z m-37 -19 c26 -34 14 -52 -37 -56 -30 -2 -38 -8 -40 -25 -4 -28 -146 -133 -180 -133 -15 0 -26 -7 -29 -20 -7 -25 -45 -27 -64 -4 -15 18 0 33 106 109 30 22 64 47 75 55 11 8 35 26 55 40 20 14 45 33 57 43 28 23 33 22 57 -9z m-499 -24 c0 -5 -5 -10 -11 -10 -5 0 -7 5 -4 10 3 6 8 10 11 10 2 0 4 -4 4 -10z m515 -69 c-3 -6 -11 -11 -17 -11 -6 0 -6 6 2 15 14 17 26 13 15 -4z m-620 -11 c-3 -5 -11 -10 -16 -10 -6 0 -7 5 -4 10 3 6 11 10 16 10 6 0 7 -4 4 -10z m-244 -42 c10 -13 18 -27 18 -33 0 -10 -37 -39 -159 -125 -30 -21 -86 -62 -123 -91 -37 -29 -76 -57 -86 -63 -30 -18 -73 -48 -136 -95 -60 -46 -113 -85 -194 -141 l-44 -31 -22 27 c-18 23 -20 32 -11 46 6 10 13 18 16 18 3 0 37 22 75 50 39 27 78 55 88 62 11 7 44 33 75 57 32 24 75 55 96 70 22 14 49 33 61 41 31 20 95 67 159 115 29 22 64 47 76 55 13 8 35 25 49 37 33 28 38 28 62 1z m639 -98 c0 -5 -5 -10 -11 -10 -5 0 -7 5 -4 10 3 6 8 10 11 10 2 0 4 -4 4 -10z m-45 -40 c-3 -5 -11 -10 -16 -10 -6 0 -7 5 -4 10 3 6 11 10 16 10 6 0 7 -4 4 -10z m-55 -40 c0 -5 -5 -10 -11 -10 -5 0 -7 5 -4 10 3 6 8 10 11 10 2 0 4 -4 4 -10z m-615 -10 c-3 -5 -11 -10 -16 -10 -6 0 -7 5 -4 10 3 6 11 10 16 10 6 0 7 -4 4 -10z m-155 -110 c0 -5 -5 -10 -11 -10 -5 0 -7 5 -4 10 3 6 8 10 11 10 2 0 4 -4 4 -10z m52 -22 c-7 -7 -12 -8 -12 -2 0 14 12 26 19 19 2 -3 -1 -11 -7 -17z m-102 -12 c0 -3 -4 -8 -10 -11 -5 -3 -10 -1 -10 4 0 6 5 11 10 11 6 0 10 -2 10 -4z m-60 -46 c0 -5 -5 -10 -11 -10 -5 0 -7 5 -4 10 3 6 8 10 11 10 2 0 4 -4 4 -10z m65 -10 c-3 -5 -11 -10 -16 -10 -6 0 -7 5 -4 10 3 6 11 10 16 10 6 0 7 -4 4 -10z m-115 -24 c0 -3 -4 -8 -10 -11 -5 -3 -10 -1 -10 4 0 6 5 11 10 11 6 0 10 -2 10 -4z m10 -50 c0 -3 -4 -8 -10 -11 -5 -3 -10 -1 -10 4 0 6 5 11 10 11 6 0 10 -2 10 -4z m90 -9 c20 -17 60 -74 60 -87 0 -5 -5 -10 -12 -10 -6 0 -29 -14 -52 -30 -23 -17 -66 -49 -96 -70 -89 -64 -157 -112 -215 -155 -30 -22 -77 -56 -105 -75 -29 -19 -65 -46 -82 -59 l-31 -25 -24 30 c-63 77 -76 103 -62 120 8 10 22 12 43 9 26 -5 43 2 101 40 38 26 81 57 96 68 15 12 50 38 78 57 45 31 90 63 240 175 39 28 41 29 61 12z m-200 -17 c0 -5 -4 -10 -10 -10 -5 0 -10 5 -10 10 0 6 5 10 10 10 6 0 10 -4 10 -10z m-50 -34 c0 -3 -4 -8 -10 -11 -5 -3 -10 -1 -10 4 0 6 5 11 10 11 6 0 10 -2 10 -4z m-109 -84 c-6 -2 -25 -15 -40 -28 -29 -24 -51 -31 -51 -16 0 14 95 70 99 59 2 -6 -1 -13 -8 -15z m453 2 c19 -7 21 -34 3 -34 -17 0 -97 -52 -97 -63 0 -18 -74 -77 -97 -77 -14 0 -53 -23 -94 -56 -69 -55 -71 -57 -64 -93 10 -57 15 -71 29 -71 21 0 216 149 216 166 0 22 16 35 82 68 42 21 67 42 90 77 18 27 35 49 38 49 10 0 70 -40 70 -47 -1 -19 -41 -53 -175 -146 -22 -16 -60 -44 -85 -62 -25 -19 -65 -47 -90 -62 -25 -15 -83 -57 -130 -93 -47 -36 -107 -79 -133 -95 -26 -17 -64 -43 -84 -58 -44 -33 -64 -32 -74 7 -9 32 4 66 25 66 23 0 139 69 174 104 31 31 33 35 20 57 -7 13 -14 25 -14 27 -5 11 -134 -64 -157 -90 -23 -27 -29 -30 -37 -18 -5 8 -10 23 -10 32 0 16 56 66 120 108 13 8 35 24 49 35 14 11 46 34 71 50 25 17 47 32 50 35 6 6 103 78 140 103 14 9 47 33 74 52 49 36 62 40 90 29z m-394 -14 c0 -5 -5 -10 -11 -10 -5 0 -7 5 -4 10 3 6 8 10 11 10 2 0 4 -4 4 -10z m-327 -54 l16 -35 -65 -48 c-35 -26 -86 -64 -112 -84 -26 -20 -59 -42 -74 -50 -14 -8 -38 -24 -54 -37 -94 -73 -147 -112 -155 -112 -4 0 -28 -17 -53 -37 -24 -21 -67 -54 -96 -73 -28 -19 -67 -47 -87 -62 -20 -16 -39 -28 -42 -28 -4 0 -17 13 -29 29 l-22 30 30 23 c15 13 53 40 82 61 29 21 98 71 153 110 55 40 111 80 125 90 14 9 59 42 100 72 41 30 100 72 130 92 57 39 59 41 100 73 33 26 34 25 53 -14z m221 -21 c-4 -8 -11 -15 -16 -15 -6 0 -5 6 2 15 7 8 14 15 16 15 2 0 1 -7 -2 -15z m506 -9 c0 -15 -37 -32 -47 -22 -3 3 -3 12 0 21 8 19 47 20 47 1z m-550 -26 c0 -5 -4 -10 -10 -10 -5 0 -10 5 -10 10 0 6 5 10 10 10 6 0 10 -4 10 -10z m-60 -39 c0 -5 -7 -11 -15 -15 -15 -5 -20 5 -8 17 9 10 23 9 23 -2z m436 -63 c4 -6 -3 -19 -17 -30 -13 -10 -31 -24 -39 -30 -33 -29 -79 -56 -84 -50 -17 16 -1 44 45 81 52 41 82 51 95 29z m-616 -8 c0 -5 -5 -10 -11 -10 -5 0 -7 5 -4 10 3 6 8 10 11 10 2 0 4 -4 4 -10z m-50 -34 c0 -3 -4 -8 -10 -11 -5 -3 -10 -1 -10 4 0 6 5 11 10 11 6 0 10 -2 10 -4z m-8 -68 c-7 -7 -12 -8 -12 -2 0 14 12 26 19 19 2 -3 -1 -11 -7 -17z m-97 -8 c-3 -5 -11 -10 -16 -10 -6 0 -7 5 -4 10 3 6 11 10 16 10 6 0 7 -4 4 -10z m55 -14 c0 -3 -4 -8 -10 -11 -5 -3 -10 -1 -10 4 0 6 5 11 10 11 6 0 10 -2 10 -4z m-160 -60 c0 -3 -4 -8 -10 -11 -5 -3 -10 -1 -10 4 0 6 5 11 10 11 6 0 10 -2 10 -4z m580 -10 c0 -20 -26 -40 -35 -26 -10 16 2 40 20 40 8 0 15 -6 15 -14z m-530 -16 c0 -5 -4 -10 -10 -10 -5 0 -10 5 -10 10 0 6 5 10 10 10 6 0 10 -4 10 -10z m-55 -40 c-3 -5 -11 -10 -16 -10 -6 0 -7 5 -4 10 3 6 11 10 16 10 6 0 7 -4 4 -10z m-105 -14 c0 -3 -4 -8 -10 -11 -5 -3 -10 -1 -10 4 0 6 5 11 10 11 6 0 10 -2 10 -4z m-50 -36 c0 -5 -5 -10 -11 -10 -5 0 -7 5 -4 10 3 6 8 10 11 10 2 0 4 -4 4 -10z m-100 -74 c0 -3 -4 -8 -10 -11 -5 -3 -10 -1 -10 4 0 6 5 11 10 11 6 0 10 -2 10 -4z m-208 -46 c16 -33 16 -36 -3 -55 -23 -23 -45 -14 -69 28 -13 23 -13 28 5 47 25 28 47 22 67 -20z m93 -40 c-3 -5 -11 -10 -16 -10 -6 0 -7 5 -4 10 3 6 11 10 16 10 6 0 7 -4 4 -10z m-205 -55 c0 -11 -44 -53 -85 -83 -42 -30 -136 -92 -140 -92 -2 0 -12 14 -20 31 -20 37 -17 41 76 106 38 26 84 58 101 71 l33 23 17 -21 c10 -12 18 -28 18 -35z m92 -27 c-7 -7 -12 -8 -12 -2 0 14 12 26 19 19 2 -3 -1 -11 -7 -17z m-150 -110 c-7 -7 -12 -8 -12 -2 0 14 12 26 19 19 2 -3 -1 -11 -7 -17z m-52 -32 c0 -3 -4 -8 -10 -11 -5 -3 -10 -1 -10 4 0 6 5 11 10 11 6 0 10 -2 10 -4z m-50 -36 c0 -5 -5 -10 -11 -10 -5 0 -7 5 -4 10 3 6 8 10 11 10 2 0 4 -4 4 -10z m-227 -42 l18 -32 -33 -25 c-49 -39 -102 -78 -248 -181 l-85 -61 -22 26 c-13 14 -23 30 -23 35 0 5 10 15 23 21 12 7 49 33 82 58 33 26 71 55 85 64 14 9 59 41 100 71 41 30 77 55 80 55 3 1 13 -13 23 -31z m591 -34 c12 -30 6 -43 -21 -46 -19 -2 -32 -12 -41 -30 -7 -16 -17 -28 -21 -28 -4 0 -18 -8 -29 -17 -12 -10 -38 -29 -57 -43 -20 -14 -56 -40 -80 -57 -24 -18 -54 -33 -66 -33 -11 0 -39 -10 -61 -22 -33 -19 -41 -20 -48 -8 -11 18 7 40 74 84 28 19 67 47 87 62 20 16 47 36 59 44 13 8 35 25 49 36 87 71 142 91 155 58z m-579 -84 c-3 -5 -11 -10 -16 -10 -6 0 -7 5 -4 10 3 6 11 10 16 10 6 0 7 -4 4 -10z m585 -87 c0 -23 -38 -65 -217 -242 -368 -361 -385 -377 -390 -363 -3 7 -16 26 -30 43 -36 42 -26 70 36 99 27 12 69 42 92 66 24 24 52 44 64 44 28 0 170 143 162 164 -6 15 19 40 73 76 12 8 28 20 34 25 40 35 156 115 167 115 5 0 9 -12 9 -27z m-571 -44 c23 -33 39 -65 35 -70 -3 -5 -22 -21 -42 -34 -21 -14 -68 -47 -106 -74 -38 -28 -73 -48 -78 -45 -4 3 -8 18 -8 33 0 16 -8 52 -17 82 -16 50 -16 53 1 63 43 26 111 71 116 76 6 8 43 29 51 30 3 0 25 -27 48 -61z m16 51 c3 -5 1 -10 -4 -10 -6 0 -11 5 -11 10 0 6 2 10 4 10 3 0 8 -4 11 -10z m-185 -24 c0 -3 -4 -8 -10 -11 -5 -3 -10 -1 -10 4 0 6 5 11 10 11 6 0 10 -2 10 -4z m-279 -88 c22 -28 24 -47 4 -54 -8 -4 -15 -17 -15 -30 0 -35 -11 -29 -42 20 -33 51 -34 61 -10 75 26 16 42 13 63 -11z m729 -22 c0 -3 -4 -8 -10 -11 -5 -3 -10 -1 -10 4 0 6 5 11 10 11 6 0 10 -2 10 -4z m-830 -24 c0 -5 18 -33 40 -62 22 -29 40 -57 40 -61 0 -4 -21 -21 -47 -38 l-47 -32 -38 73 c-20 40 -37 76 -38 80 0 9 62 48 78 48 6 0 12 -4 12 -8z m627 -9 c4 -10 -3 -24 -20 -39 -33 -28 -33 -34 -6 -68 20 -26 20 -28 3 -40 -9 -7 -33 -19 -53 -26 -20 -7 -49 -24 -65 -37 -31 -26 -53 -24 -96 6 -40 29 -36 46 22 85 29 20 85 59 123 86 39 27 74 50 78 50 4 0 10 -7 14 -17z m-457 -3 c0 -5 -5 -10 -11 -10 -5 0 -7 5 -4 10 3 6 8 10 11 10 2 0 4 -4 4 -10z m602 -12 c-7 -7 -12 -8 -12 -2 0 14 12 26 19 19 2 -3 -1 -11 -7 -17z m-51 -68 c9 0 25 7 34 16 9 9 18 14 20 12 3 -2 -17 -26 -43 -52 l-47 -48 -32 38 c-31 35 -32 39 -17 55 16 18 18 18 42 -1 13 -11 33 -20 43 -20z m-911 -110 c17 -33 33 -60 36 -60 2 0 23 9 45 21 55 28 60 18 9 -17 -23 -16 -57 -41 -77 -56 -20 -16 -39 -28 -42 -28 -10 0 -93 110 -95 125 -1 13 70 74 86 75 4 0 21 -27 38 -60z m745 -48 c-8 -8 -25 10 -19 20 4 6 9 5 15 -3 4 -7 6 -15 4 -17z" id="viento"/>
    <path d="M15446 28662 c-9 -17 -19 -32 -23 -34 -10 -4 -301 -412 -309 -432 -5 -14 129 -111 1206 -876 173 -123 386 -275 473 -337 87 -62 167 -117 176 -123 16 -8 40 22 173 208 169 236 172 242 181 289 6 29 3 33 -32 51 -21 11 -73 47 -117 79 -84 63 -389 281 -749 535 -121 85 -380 269 -575 408 -195 139 -363 255 -372 257 -11 3 -22 -5 -32 -25z m439 -326 c209 -148 598 -425 865 -614 267 -190 493 -352 503 -361 17 -16 10 -27 -129 -222 -80 -112 -152 -203 -159 -203 -7 1 -145 96 -306 211 -162 115 -460 328 -664 473 -747 531 -805 573 -805 584 1 9 81 125 253 364 24 34 42 50 50 46 7 -4 183 -129 392 -278z" id="especies"/>
    <path d="M14335 27478 c-100 -18 -201 -41 -230 -53 -16 -7 -55 -23 -85 -35 -106 -43 -182 -84 -236 -128 -5 -5 -21 -15 -34 -22 -14 -7 -47 -31 -75 -52 -94 -73 -108 -83 -159 -118 -28 -19 -55 -40 -61 -46 -5 -5 -30 -23 -55 -40 -24 -16 -51 -35 -60 -41 -8 -7 -64 -49 -125 -93 -129 -93 -132 -96 -207 -155 -32 -25 -60 -45 -64 -45 -3 0 -28 -17 -55 -37 -27 -21 -72 -55 -99 -75 -27 -21 -52 -38 -55 -38 -3 0 -48 -33 -100 -72 -52 -40 -145 -109 -206 -153 -148 -106 -221 -161 -240 -180 -9 -8 -19 -15 -23 -15 -5 0 -21 -10 -36 -22 -15 -13 -37 -30 -50 -38 -12 -8 -47 -33 -76 -55 -30 -22 -79 -58 -109 -80 -31 -22 -68 -50 -83 -63 -15 -13 -52 -40 -82 -60 -30 -20 -76 -52 -101 -72 -25 -19 -56 -42 -69 -50 -28 -19 -131 -96 -150 -113 -8 -7 -35 -26 -60 -42 -25 -17 -47 -32 -50 -35 -3 -3 -34 -27 -70 -52 -36 -26 -89 -64 -118 -85 -28 -21 -88 -65 -131 -98 -44 -33 -107 -80 -141 -104 -62 -45 -145 -130 -161 -166 -5 -11 -17 -33 -27 -50 -31 -50 -70 -186 -76 -260 -13 -152 46 -336 151 -475 34 -46 74 -100 173 -236 30 -41 81 -108 113 -149 31 -41 57 -77 57 -80 0 -3 17 -28 38 -55 20 -26 62 -83 92 -125 30 -41 74 -100 98 -130 23 -29 42 -56 42 -60 0 -3 18 -29 40 -58 22 -29 47 -61 55 -72 8 -11 48 -65 88 -120 84 -115 154 -181 241 -230 116 -65 203 -81 471 -90 308 -10 482 -16 725 -25 135 -5 252 -8 260 -7 8 1 96 -2 195 -6 99 -5 232 -10 295 -12 190 -7 280 -16 390 -37 58 -11 119 -22 135 -25 17 -3 35 -9 40 -13 6 -4 42 -17 80 -29 39 -13 98 -36 133 -52 35 -16 65 -29 67 -29 8 0 201 -113 245 -144 142 -98 302 -248 391 -366 27 -36 56 -74 65 -85 34 -45 85 -132 140 -243 70 -140 78 -160 99 -237 10 -33 23 -79 31 -102 13 -40 23 -98 41 -223 15 -103 9 -523 -12 -920 -2 -41 -7 -138 -10 -215 -4 -77 -8 -176 -11 -220 -2 -44 -7 -154 -10 -245 -4 -91 -8 -190 -9 -220 -2 -30 -6 -125 -9 -210 -4 -85 -8 -186 -11 -225 -3 -38 -7 -133 -10 -210 -3 -77 -12 -297 -21 -490 -9 -196 -13 -400 -10 -463 11 -186 57 -398 112 -519 8 -17 14 -36 14 -42 0 -13 100 -205 135 -258 49 -76 71 -105 98 -134 15 -16 27 -34 27 -39 0 -11 165 -178 316 -320 313 -296 412 -390 454 -430 47 -45 316 -301 415 -395 29 -27 93 -88 142 -135 283 -270 481 -457 748 -709 165 -156 336 -318 380 -360 44 -43 125 -119 180 -171 55 -51 145 -137 200 -189 55 -53 145 -139 200 -191 56 -52 150 -142 211 -200 61 -58 177 -168 259 -245 190 -179 180 -169 391 -371 98 -94 204 -194 234 -222 l55 -51 3 32 c4 35 18 20 -348 366 -324 306 -529 501 -630 598 -52 50 -104 100 -116 110 -12 10 -102 95 -200 189 -98 95 -195 186 -214 204 -30 28 -228 215 -369 349 -25 24 -96 93 -158 152 -61 60 -113 109 -115 109 -2 0 -49 44 -104 98 -55 53 -141 135 -190 181 -114 108 -256 243 -364 346 -47 45 -132 125 -190 180 -58 54 -145 137 -195 184 -49 48 -133 127 -185 176 -52 49 -133 125 -180 170 -47 45 -132 126 -190 180 -142 134 -340 327 -366 358 -48 56 -130 163 -151 196 -49 82 -125 226 -139 264 -43 119 -73 219 -83 277 -6 36 -13 76 -16 90 -8 41 -20 191 -20 255 1 104 16 508 19 514 2 3 7 85 10 181 10 267 18 448 31 710 2 47 7 155 10 240 3 85 8 191 10 235 5 101 13 283 20 445 3 69 7 175 10 235 20 422 22 515 15 640 -15 234 -37 337 -125 583 -42 118 -143 297 -242 431 -126 170 -322 357 -466 443 -28 17 -59 37 -67 44 -8 7 -73 42 -145 77 -178 88 -392 154 -565 172 -30 4 -57 8 -60 10 -6 3 -343 17 -730 30 -96 3 -220 8 -275 10 -55 3 -230 10 -390 15 -576 20 -584 20 -668 47 -121 38 -241 131 -332 258 -22 31 -58 80 -80 110 -22 29 -47 63 -55 75 -8 12 -33 46 -55 75 -22 30 -58 79 -80 109 -22 31 -47 65 -55 76 -25 32 -214 292 -297 408 -21 29 -56 77 -78 107 -22 29 -47 63 -55 75 -8 12 -31 43 -51 69 -46 58 -92 150 -114 226 -14 46 -17 84 -13 179 5 130 17 172 84 286 32 54 145 180 163 180 5 0 33 19 64 43 30 23 65 49 77 57 12 8 47 34 78 58 32 23 66 49 77 57 11 8 34 26 51 40 18 14 36 25 42 25 5 0 12 7 16 15 3 8 10 15 16 15 9 0 83 52 130 92 9 7 36 27 60 43 24 17 52 37 61 45 9 8 40 31 69 50 29 19 60 42 69 50 9 8 41 32 71 53 67 46 129 90 195 140 28 20 59 44 70 52 11 8 34 26 51 40 18 14 36 25 42 25 5 0 12 7 16 15 3 8 10 15 16 15 6 0 34 18 63 40 29 23 61 47 72 56 84 62 142 104 186 134 28 19 59 42 68 50 9 8 37 29 61 45 24 17 51 36 60 43 19 16 120 92 150 112 13 8 60 43 106 78 46 34 86 62 89 62 3 0 29 18 58 40 29 22 61 46 72 54 11 8 46 35 77 60 32 25 60 46 63 46 6 0 63 41 120 85 11 8 36 26 55 40 19 14 44 32 55 40 46 36 135 101 155 115 13 8 48 34 79 58 47 36 110 78 201 131 69 41 249 102 355 122 68 13 365 19 380 8 6 -4 35 -12 65 -18 134 -27 153 -31 164 -40 6 -4 29 -14 51 -21 44 -14 201 -95 225 -116 8 -7 98 -68 200 -136 102 -68 216 -145 253 -171 38 -26 71 -47 74 -47 3 0 22 -12 42 -27 20 -16 44 -32 53 -38 9 -5 157 -104 328 -220 171 -115 322 -217 334 -225 87 -56 182 -118 209 -137 58 -39 797 -536 1152 -774 193 -129 379 -251 415 -272 36 -20 83 -50 105 -66 22 -16 74 -51 115 -78 41 -27 207 -138 369 -247 161 -108 303 -201 316 -206 13 -5 26 -14 30 -20 8 -13 123 -90 136 -90 5 0 9 11 9 24 0 31 -7 37 -400 299 -179 119 -351 235 -384 257 -32 22 -59 40 -61 40 -2 0 -69 45 -150 100 -80 55 -150 100 -156 100 -6 0 -25 10 -42 23 -17 12 -39 27 -49 32 -9 6 -133 88 -275 184 -142 96 -337 227 -433 291 -96 63 -185 122 -197 130 -12 8 -128 87 -258 175 -130 88 -243 165 -252 170 -32 21 -289 193 -616 413 -186 125 -346 231 -355 237 -9 5 -31 20 -49 32 -17 13 -135 93 -263 178 -219 146 -337 213 -440 247 -25 9 -61 21 -80 27 -117 39 -404 60 -525 39z"/>
    <path d="M9084 25945 c-32 -25 -72 -55 -89 -67 -49 -36 -195 -187 -195 -202 0 -7 -7 -19 -15 -26 -24 -20 -71 -120 -104 -224 -53 -165 -50 -340 9 -546 11 -41 29 -106 40 -145 10 -38 26 -95 35 -125 9 -30 25 -86 35 -125 55 -210 56 -211 89 -200 49 15 48 25 -54 385 -58 206 -67 236 -76 260 -55 155 -40 399 35 564 65 142 167 264 294 350 38 26 78 56 88 67 17 19 17 22 2 47 -9 14 -20 28 -25 29 -5 2 -36 -17 -69 -42z"/>
    <path d="M8984 24639 c-3 -6 -2 -14 2 -18 14 -12 88 -31 119 -31 16 0 42 -4 59 -9 17 -5 101 -26 186 -47 161 -38 196 -51 243 -90 58 -48 157 -193 157 -229 0 -7 9 -41 21 -76 17 -55 59 -209 154 -574 13 -49 33 -124 45 -165 26 -91 42 -147 73 -265 13 -50 28 -99 34 -110 6 -11 22 -67 36 -125 14 -58 32 -132 41 -165 21 -84 103 -387 126 -465 62 -209 73 -249 80 -290 5 -25 14 -58 20 -75 7 -16 26 -79 42 -140 66 -240 59 -221 83 -212 19 8 19 44 1 99 -14 41 -34 114 -76 273 -10 39 -30 113 -45 165 -15 52 -31 109 -35 125 -4 17 -22 82 -40 145 -17 63 -40 147 -50 185 -10 39 -30 113 -45 165 -14 52 -35 127 -45 165 -10 39 -28 104 -40 145 -11 41 -32 116 -45 165 -60 229 -103 384 -110 395 -18 29 37 110 75 110 8 0 35 18 59 41 47 44 48 54 19 132 -24 62 -27 63 -128 37 -55 -15 -93 -20 -99 -14 -8 9 -20 48 -67 224 -59 222 -148 349 -295 421 -74 36 -109 45 -383 94 -159 29 -162 29 -172 14z m1096 -787 c0 -11 -14 -25 -35 -35 -33 -16 -35 -16 -46 4 -17 33 -4 49 41 49 32 0 40 -4 40 -18z m-100 -63 c33 -64 33 -86 0 -107 -23 -14 -25 -11 -54 87 -12 40 -13 57 -5 67 19 23 27 16 59 -47z" id="mamiferos"/>
    <path d="M8974 24569 c-4 -7 -8 -30 -10 -53 -10 -126 -27 -236 -38 -236 -6 0 -21 -8 -34 -18 l-23 -18 29 -110 c42 -152 78 -277 101 -354 12 -36 35 -117 52 -180 17 -63 39 -142 49 -175 15 -51 16 -62 4 -75 -11 -13 -11 -24 2 -70 9 -30 24 -86 34 -125 11 -38 26 -95 35 -125 30 -101 56 -195 66 -235 11 -44 46 -165 59 -205 5 -14 18 -59 30 -100 11 -41 29 -104 40 -140 30 -104 49 -173 56 -205 12 -56 67 -186 93 -220 14 -19 37 -53 51 -75 14 -23 52 -67 85 -99 46 -44 74 -61 120 -75 33 -10 69 -22 80 -26 11 -5 47 -18 80 -30 33 -12 68 -26 77 -31 10 -5 26 -9 36 -9 10 0 22 -3 26 -7 7 -7 48 -23 141 -54 96 -31 114 -42 126 -73 12 -27 14 -28 62 -22 28 3 54 9 59 14 8 8 -8 80 -72 327 -48 185 -72 273 -91 326 -10 31 -42 145 -70 255 -28 109 -59 231 -70 269 -29 106 -65 241 -87 327 -12 42 -25 85 -30 95 -5 10 -15 43 -22 73 -6 30 -21 79 -31 109 -11 29 -24 79 -28 110 -5 31 -17 76 -27 101 -9 25 -20 63 -24 85 -8 39 -55 218 -124 465 -84 301 -99 334 -189 417 -58 54 -92 70 -201 100 -86 23 -376 83 -402 83 -7 0 -16 -5 -20 -11z m150 -74 c50 -9 118 -20 151 -26 178 -30 258 -67 335 -158 36 -42 67 -108 55 -120 -3 -2 -85 -26 -182 -52 -98 -26 -238 -63 -312 -84 -73 -20 -139 -34 -145 -32 -7 3 -20 38 -29 79 -13 59 -14 94 -6 188 13 170 20 220 31 220 6 0 51 -7 102 -15z m585 -417 c12 -46 35 -131 51 -189 42 -148 43 -143 -37 -168 -38 -11 -95 -27 -128 -35 -33 -8 -98 -25 -145 -39 -47 -13 -98 -27 -115 -31 -16 -4 -61 -16 -98 -27 -37 -12 -73 -19 -80 -16 -7 3 -18 24 -24 48 -6 24 -19 69 -28 99 -9 30 -25 87 -35 125 -10 39 -23 85 -29 102 -5 18 -6 35 -3 37 7 4 210 60 407 112 50 13 122 32 160 43 39 10 73 20 76 20 4 1 17 -36 28 -81z m116 -423 c28 -84 97 -356 92 -361 -6 -7 -85 -29 -212 -60 -55 -14 -113 -29 -130 -35 -76 -25 -252 -72 -274 -73 -19 -1 -26 6 -33 29 -5 17 -15 50 -23 75 -20 68 -66 231 -75 268 -4 17 -5 34 -1 36 6 4 69 22 216 61 28 7 124 34 215 59 91 24 176 44 189 43 18 -2 26 -11 36 -42z m142 -513 c17 -64 41 -152 53 -196 11 -43 20 -86 18 -94 -2 -10 -28 -22 -73 -34 -356 -94 -352 -93 -435 -118 -128 -38 -123 -39 -138 17 -19 71 -50 178 -78 265 -30 95 -30 104 -1 111 12 3 58 15 102 26 70 18 118 32 250 71 17 5 66 18 110 29 44 11 94 24 110 30 17 5 35 10 40 10 6 1 24 -52 42 -117z m133 -497 c23 -83 48 -172 56 -200 7 -27 14 -50 14 -51 0 -2 -80 -25 -150 -43 -41 -11 -109 -29 -150 -41 -41 -12 -106 -30 -145 -40 -38 -10 -95 -25 -125 -34 -30 -9 -58 -16 -61 -16 -4 0 -12 21 -19 48 -6 26 -16 56 -20 67 -10 21 -38 128 -49 185 -4 19 -13 45 -19 57 -23 42 -15 59 31 71 61 16 141 38 227 62 41 12 116 32 165 45 50 13 113 30 140 38 28 8 53 11 57 8 4 -3 26 -74 48 -156z m84 -371 c3 -97 -22 -172 -84 -254 -104 -138 -361 -189 -446 -87 -45 54 -104 188 -104 239 0 12 13 21 43 28 71 18 240 65 362 101 17 4 62 16 100 25 39 10 77 21 85 25 26 13 42 -15 44 -77z m63 -156 c6 -24 12 -49 14 -56 2 -8 -3 -17 -11 -22 -26 -13 -83 -30 -88 -26 -2 3 7 26 21 53 14 26 28 58 32 71 10 34 20 27 32 -20z m-97 -180 c7 -24 23 -76 36 -116 13 -40 24 -80 24 -89 0 -13 8 -15 53 -8 94 13 89 15 103 -40 24 -89 24 -89 -63 -51 -43 19 -134 57 -203 86 -164 68 -189 78 -228 98 l-32 17 55 12 c68 15 138 51 190 97 22 19 43 35 47 36 4 0 12 -19 18 -42z m-324 -141 c77 -31 257 -108 365 -156 25 -12 50 -21 56 -21 6 0 16 -7 23 -15 11 -13 8 -15 -13 -15 -45 0 -167 29 -235 57 -100 40 -243 130 -256 161 -7 15 -10 16 60 -11z" id="mariposas"/>
    <path d="M10220 21690 c0 -5 4 -10 9 -10 6 0 13 5 16 10 3 6 -1 10 -9 10 -9 0 -16 -4 -16 -10z"/>
    <path d="M12432 21813 c-16 -6 -42 -56 -42 -82 0 -11 -8 -25 -19 -30 -13 -8 -20 -26 -24 -76 -4 -36 -4 -71 -1 -79 7 -18 141 -31 160 -15 11 9 14 39 11 137 -3 108 -6 126 -22 138 -19 14 -40 17 -63 7z"/>
    <path d="M12665 21770 c-8 -16 -15 -38 -15 -49 0 -11 -11 -32 -25 -47 -23 -25 -26 -35 -23 -93 l3 -66 68 -9 c48 -6 72 -5 80 3 6 6 12 59 13 131 3 109 1 123 -16 140 -30 30 -67 26 -85 -10z"/>
    <path d="M 13376 21607 C 13365 21599 13355 21569 13347 21526 L 13335 21457 L 13185 21464 C 12831 21478 12488 21491 12390 21493 L 12285 21495 L 12282 21432 C 12280 21397 12284 21363 12289 21356 C 12297 21347 12354 21341 12477 21336 C 12575 21332 12696 21327 12745 21325 C 12872 21318 13326 21300 13510 21294 C 13772 21286 13841 21266 13909 21180 C 13964 21111 13972 21062 13960 20892 C 13955 20817 13946 20683 13940 20595 C 13922 20332 13915 20286 13886 20236 C 13855 20182 13794 20128 13720 20089 C 13690 20072 13634 20039 13595 20015 C 13557 19990 13496 19954 13460 19935 C 13374 19888 13270 19825 13246 19806 C 13212 19779 13205 19802 13238 19830 C 13277 19862 13277 19873 13240 19928 C 13224 19952 13209 19976 13207 19983 C 13202 19998 13127 19961 13087 19925 L 13061 19900 L 13085 19862 C 13138 19781 13141 19778 13166 19784 C 13180 19788 13190 19786 13190 19780 C 13190 19775 13186 19770 13182 19770 C 13178 19770 13143 19750 13105 19725 C 13066 19700 13030 19680 13024 19680 C 13018 19680 13007 19673 12999 19664 C 12992 19655 12956 19633 12919 19614 C 12882 19596 12848 19575 12843 19567 C 12833 19552 12785 19520 12770 19520 C 12749 19520 12761 19546 12796 19575 L 12832 19605 L 12812 19628 C 12801 19640 12787 19664 12780 19680 C 12773 19696 12760 19712 12749 19715 C 12731 19721 12674 19695 12630 19661 L 12605 19641 L 12626 19613 C 12638 19598 12654 19570 12664 19553 C 12677 19527 12687 19520 12711 19520 C 12731 19520 12740 19516 12738 19508 C 12730 19486 12269 19227 12258 19238 C 12252 19244 12261 19258 12286 19278 C 12316 19303 12321 19313 12316 19333 C 12311 19355 12317 19363 12369 19397 C 12402 19418 12452 19449 12480 19465 C 12614 19542 12621 19584 12520 19733 C 12504 19758 12490 19781 12490 19785 C 12490 19789 12477 19810 12462 19833 C 12446 19856 12422 19892 12409 19912 C 12372 19970 12307 19988 12267 19953 C 12247 19934 12192 19901 12098 19851 C 12067 19834 12039 19816 12035 19810 C 12031 19804 12005 19788 11977 19773 C 11948 19759 11923 19744 11920 19740 C 11917 19736 11895 19723 11870 19710 C 11845 19698 11817 19680 11806 19671 C 11788 19655 11729 19621 11619 19561 C 11518 19507 11500 19460 11544 19372 C 11566 19329 11628 19230 11649 19204 C 11654 19198 11668 19174 11679 19152 L 11700 19111 L 11673 19094 C 11604 19052 11580 19034 11580 19027 C 11580 19014 11611 18957 11639 18921 C 11670 18880 11685 18894 11459 18765 L 11291 18669 L 11296 18637 C 11309 18567 11321 18530 11333 18530 C 11340 18530 11368 18543 11395 18558 C 11476 18604 12924 19430 12940 19440 C 12948 19446 12978 19462 13005 19476 C 13033 19490 13063 19510 13074 19519 C 13092 19535 13151 19569 13262 19629 C 13293 19646 13321 19664 13325 19670 C 13329 19676 13359 19694 13393 19712 C 13427 19729 13457 19746 13460 19750 C 13463 19754 13485 19767 13510 19780 C 13535 19792 13578 19817 13605 19835 C 13672 19878 13714 19903 13781 19939 C 13811 19955 13842 19975 13849 19984 C 13857 19993 13868 20000 13874 20000 C 13921 20001 14036 20142 14063 20232 C 14083 20297 14084 20306 14100 20540 C 14115 20776 14115 20777 14146 20784 C 14159 20788 14192 20788 14218 20784 C 14276 20777 14284 20784 14297 20863 C 14311 20945 14302 20954 14206 20954 L 14130 20955 L 14130 21015 C 14130 21137 14092 21227 14007 21312 C 13913 21405 13838 21434 13663 21446 L 13560 21453 L 13560 21484 C 13560 21534 13541 21588 13517 21605 C 13491 21623 13401 21625 13376 21607 Z M 13446 21556 C 13456 21515 13447 21495 13420 21495 C 13393 21495 13384 21515 13394 21556 C 13398 21571 13408 21580 13420 21580 C 13432 21580 13442 21571 13446 21556 Z M 12370 19905 C 12395 19879 12418 19843 12470 19750 C 12487 19720 12512 19680 12525 19661 C 12558 19617 12558 19562 12527 19537 C 12492 19509 12432 19471 12381 19446 C 12355 19432 12328 19414 12321 19406 C 12302 19384 12289 19386 12265 19416 L 12244 19442 L 12194 19417 C 12167 19403 12136 19383 12126 19371 C 12109 19353 12108 19347 12120 19326 C 12131 19304 12130 19299 12104 19276 C 12088 19262 12070 19250 12065 19250 C 12059 19250 12030 19234 12000 19214 C 11970 19194 11927 19169 11906 19158 C 11884 19147 11860 19131 11852 19124 C 11815 19086 11748 19096 11720 19143 C 11659 19248 11641 19277 11606 19332 C 11585 19366 11564 19409 11559 19427 C 11548 19478 11573 19500 11770 19610 C 11800 19626 11852 19658 11885 19680 C 11918 19701 11967 19731 11995 19746 C 12022 19760 12055 19780 12070 19790 C 12084 19800 12117 19820 12143 19836 C 12170 19852 12215 19879 12243 19897 C 12307 19936 12339 19938 12370 19905 Z M 12218 19230 C 12230 19230 12240 19226 12240 19221 C 12240 19212 11779 18945 11745 18935 C 11723 18929 11721 18927 11777 18966 C 11790 18975 11790 18981 11771 19017 L 11750 19058 L 11793 19065 C 11836 19072 11871 19087 11880 19101 C 11886 19109 11976 19164 12055 19206 C 12083 19221 12116 19241 12129 19252 C 12153 19270 12154 19270 12175 19250 C 12187 19239 12206 19230 12218 19230 Z M 13713 21134 C 13684 21115 13660 21093 13660 21086 C 13660 21079 13674 21048 13691 21017 C 13712 20978 13728 20960 13741 20960 C 13762 20960 13856 21018 13864 21037 C 13870 21052 13793 21170 13777 21170 C 13770 21170 13741 21154 13713 21134 Z M 13090 21216 C 13065 21203 13037 21183 13027 21172 C 13010 21153 13010 21151 13032 21116 C 13045 21095 13064 21067 13076 21053 L 13097 21026 L 13131 21048 C 13150 21060 13177 21078 13192 21087 C 13208 21097 13220 21111 13220 21119 C 13220 21135 13151 21240 13141 21240 C 13138 21239 13115 21229 13090 21216 Z M 12511 21046 C 12471 20981 12493 20933 12567 20923 C 12601 20919 12607 20921 12623 20948 C 12659 21011 12636 21059 12563 21073 C 12535 21079 12529 21076 12511 21046 Z M 12594 21024 C 12613 21005 12614 20988 12598 20972 C 12578 20952 12544 20958 12532 20985 C 12522 21006 12524 21012 12543 21025 C 12570 21044 12575 21044 12594 21024 Z M 12142 20885 C 12112 20847 12114 20811 12147 20783 C 12201 20736 12257 20759 12274 20836 C 12283 20875 12257 20900 12202 20907 C 12168 20912 12160 20909 12142 20885 Z M 12214 20870 C 12243 20859 12247 20834 12226 20805 C 12214 20788 12208 20787 12186 20798 C 12158 20810 12154 20829 12170 20861 C 12182 20883 12181 20883 12214 20870 Z M 12427 20893 C 12357 20874 12281 20810 12255 20748 C 12229 20686 12231 20577 12259 20525 C 12300 20447 12341 20414 12429 20385 C 12476 20370 12490 20369 12539 20380 C 12611 20396 12636 20409 12687 20459 C 12744 20515 12764 20572 12758 20659 L 12753 20727 L 12791 20717 C 12826 20709 12832 20710 12849 20731 C 12874.42 20761.608 12882.347 20790.064 12873.757 20813.154 C 12865.789 20834.573 12843.61 20851.376 12808 20861 C 12773 20870 12767 20869 12750 20848 C 12739 20835 12731 20819 12730 20813 C 12730 20792 12714 20798 12678 20830 C 12606 20896 12520 20918 12427 20893 Z M 12552 20864 C 12601 20856 12710 20759 12710 20725 C 12710 20712 12715 20698 12720 20695 C 12732 20687 12733 20593 12721 20586 C 12717 20583 12710 20568 12707 20553 C 12700 20516 12621 20435 12579 20421 C 12530 20405 12469 20404 12435 20419 C 12374 20446 12364 20452 12333 20480 C 12259 20547 12250 20700 12315 20780 C 12377 20856 12448 20881 12552 20864 Z M 12824 20814 C 12853 20785 12836 20750 12793 20750 C 12766 20750 12751 20792 12770 20815 C 12786 20834 12805 20834 12824 20814 Z M 12432 20740 C 12335 20681 12385 20520 12500 20520 C 12554 20520 12606 20567 12615 20625 C 12620 20657 12617 20672 12598 20700 C 12556 20761 12493 20777 12432 20740 Z M 12554 20699 C 12597 20665 12584 20589 12531 20560 C 12500 20544 12442 20566 12424 20602 C 12382 20684 12479 20758 12554 20699 Z M 12161 20464 C 12136 20432 12135 20419 12155 20379 C 12170 20351 12204 20330 12235 20330 C 12253 20330 12290 20392 12290 20423 C 12290 20441 12280 20454 12256 20469 C 12211 20497 12186 20495 12161 20464 Z M 12248 20433 C 12263 20404 12244 20371 12213 20370 C 12206 20370 12193 20381 12184 20395 C 12171 20415 12170 20423 12180 20435 C 12197 20455 12237 20454 12248 20433 Z M 12431 20296 C 12414 20269 12401 20200 12413 20200 C 12414 20200 12438 20191 12467 20180 L 12519 20161 L 12539 20194 C 12581 20261 12560 20308 12483 20323 C 12455 20329 12449 20326 12431 20296 Z M 12514 20277 C 12550 20251 12510 20193 12473 20216 C 12451 20230 12444 20270 12462 20281 C 12480 20293 12493 20292 12514 20277 Z M 12722 20457 C 12709 20444 12697 20417 12694 20398 C 12689 20369 12692 20361 12712 20348 C 12725 20340 12750 20329 12769 20325 C 12797 20319 12804 20322 12818 20341 C 12828 20354 12838 20379 12841 20397 C 12848 20435 12823 20464 12775 20474 C 12750 20479 12740 20476 12722 20457 Z M 12798 20428 C 12830 20396 12780 20341 12745 20370 C 12717 20393 12733 20440 12770 20440 C 12779 20440 12791 20435 12798 20428 Z M 13511 21036 C 13499 21023 13487 20997 13484 20978 C 13479 20949 13482 20941 13501 20928 C 13514 20920 13541 20910 13560 20907 C 13589 20902 13598 20905 13612 20924 C 13621 20936 13630 20962 13632 20980 C 13635 21009 13630 21017 13601 21037 C 13558 21066 13539 21066 13511 21036 Z M 13584 21007 C 13605 20991 13599 20956 13573 20946 C 13549 20936 13520 20949 13520 20970 C 13520 21018 13547 21034 13584 21007 Z M 13379 20860 C 13274 20806 13211 20701 13226 20603 C 13230 20577 13245 20530 13261 20499 C 13325 20370 13472 20325 13606 20393 C 13668 20424 13699 20456 13729 20515 C 13748 20554 13752 20573 13748 20635 L 13745 20709 L 13770 20704 C 13784 20701 13800 20697 13806 20695 C 13822 20690 13856 20739 13864 20777 C 13870 20804 13867 20811 13842 20829 C 13825 20841 13800 20850 13785 20850 C 13757 20850 13720 20818 13720 20793 C 13720 20772 13706 20778 13670 20815 C 13651 20834 13612 20859 13583 20870 C 13507 20898 13447 20895 13379 20860 Z M 13626 20805 C 13691 20752 13725 20677 13716 20608 C 13701 20495 13632 20419 13528 20400 C 13458 20387 13374 20413 13328 20462 C 13281 20512 13249 20588 13256 20630 C 13273 20732 13307 20783 13385 20826 C 13418 20845 13438 20848 13502 20846 C 13575 20844 13581 20841 13626 20805 Z M 13814 20805 C 13838 20787 13829 20745 13798 20736 C 13758 20726 13736 20774 13766 20804 C 13785 20823 13790 20823 13814 20805 Z M 13708 20438 C 13700 20425 13690 20400 13687 20383 C 13682 20356 13685 20347 13704 20335 C 13717 20326 13741 20315 13758 20311 C 13795 20300 13816 20318 13832 20376 C 13841 20412 13840 20416 13814 20437 C 13776 20467 13727 20467 13708 20438 Z M 13794 20398 C 13809 20373 13789 20344 13759 20348 C 13726 20352 13716 20364 13724 20395 C 13729 20416 13736 20421 13757 20418 C 13771 20416 13788 20407 13794 20398 Z M 13421 20284 C 13378 20229 13403 20172 13475 20157 C 13517 20149 13527 20158 13544 20215 C 13558 20259 13558 20265 13542 20277 C 13493 20317 13448 20319 13421 20284 Z M 13508 20241 C 13512 20212 13488 20190 13460 20197 C 13415 20209 13432 20273 13478 20268 C 13498 20266 13506 20259 13508 20241 Z M 13148 20448 C 13117 20400 13118 20374 13151 20346 C 13194 20309 13240 20311 13263 20349 C 13290 20394 13285 20433 13251 20453 C 13210 20477 13166 20475 13148 20448 Z M 13231 20430 C 13236 20430 13240 20417 13240 20400 C 13240 20377 13235 20369 13215 20364 C 13188 20357 13160 20373 13160 20396 C 13160 20416 13191 20442 13207 20436 C 13215 20433 13226 20430 13231 20430 Z M 13139 20878 C 13130 20865 13120 20841 13117 20824 C 13110 20785 13138 20755 13191 20745 C 13222 20739 13229 20742 13243 20763 C 13251 20776 13261 20803 13265 20822 C 13271 20852 13268 20859 13247 20873 C 13234 20881 13208 20891 13189 20894 C 13161 20899 13152 20896 13139 20878 Z M 13220 20845 C 13246 20813 13207 20764 13173 20786 C 13138 20808 13150 20860 13190 20860 C 13200 20860 13213 20853 13220 20845 Z M 13440 20733 C 13432 20730 13414 20716 13400 20702 C 13367 20670 13364 20584 13395 20550 C 13458 20480 13567 20498 13598 20584 C 13613 20626 13601 20687 13571 20714 C 13552 20731 13466 20744 13440 20733 Z M 13542 20689 C 13570 20669 13572 20663 13567 20622 C 13564 20590 13555 20571 13539 20559 C 13475 20509 13383 20573 13411 20647 C 13436 20713 13486 20728 13542 20689 Z" id="legos"/>
    <path d="M10413 21404 c-20 -9 -16 -36 28 -182 23 -75 48 -159 55 -187 7 -27 21 -81 32 -120 11 -38 37 -128 57 -200 20 -71 45 -161 56 -200 12 -38 26 -92 34 -120 12 -46 34 -125 71 -250 9 -27 21 -72 29 -100 7 -27 22 -81 34 -120 45 -160 52 -189 48 -207 -3 -11 2 -36 11 -56 8 -20 15 -43 13 -50 -1 -8 2 -19 7 -25 5 -7 15 -34 22 -62 14 -56 57 -204 71 -250 6 -16 18 -61 29 -100 10 -38 31 -113 45 -165 14 -52 35 -131 46 -175 24 -96 42 -149 64 -193 9 -18 25 -71 35 -118 9 -46 20 -87 22 -90 3 -2 17 1 32 7 14 7 29 10 32 7 5 -6 19 -51 49 -163 8 -27 23 -81 34 -120 11 -38 36 -128 56 -200 20 -71 43 -152 51 -180 18 -66 19 -63 -22 -71 -19 -4 -38 -12 -40 -19 -5 -13 70 -327 83 -347 3 -6 16 -52 28 -102 13 -50 39 -152 59 -226 48 -178 85 -317 96 -360 9 -38 42 -158 70 -260 10 -36 26 -94 35 -130 10 -36 23 -83 30 -105 7 -22 18 -67 25 -100 7 -33 22 -87 33 -120 11 -33 24 -76 28 -95 4 -19 17 -71 29 -115 12 -44 27 -101 33 -127 7 -25 15 -49 19 -53 5 -5 81 34 137 72 7 5 -31 107 -45 118 -7 5 -16 27 -18 48 -3 21 -8 42 -12 48 -3 6 -13 34 -21 62 -7 29 -25 93 -39 142 -14 50 -32 117 -40 150 -8 33 -22 80 -30 105 -18 51 -57 190 -83 296 -10 39 -21 76 -25 82 -9 14 -13 30 -27 102 -6 30 -17 69 -24 85 -8 17 -21 60 -30 97 -8 36 -24 92 -35 124 -11 31 -20 69 -20 83 0 15 -6 35 -14 46 -7 11 -16 36 -19 55 -4 19 -14 60 -23 90 -9 30 -25 84 -34 120 -10 36 -30 105 -44 154 -14 48 -26 102 -26 120 0 17 -7 54 -14 81 -8 28 -31 109 -51 180 -20 72 -43 153 -51 180 -9 28 -22 73 -29 100 -7 28 -25 93 -40 145 -15 52 -31 111 -35 130 -4 19 -15 62 -25 95 -9 33 -20 76 -25 95 -4 19 -20 74 -34 123 -14 48 -26 96 -26 107 0 10 -4 21 -9 25 -5 3 -19 37 -30 75 -12 39 -30 102 -42 141 -24 80 -20 98 12 45 25 -42 37 -44 76 -13 15 12 40 29 56 36 34 18 34 31 -3 83 -16 22 -30 45 -30 49 0 5 13 15 29 23 35 18 48 74 26 115 -7 15 -16 43 -20 63 -4 20 -16 45 -26 54 -16 14 -18 26 -13 61 5 31 2 50 -10 68 -9 13 -16 38 -16 55 0 20 -9 39 -24 53 -19 18 -24 32 -23 75 0 29 -5 58 -11 64 -7 7 -12 24 -12 39 0 15 -11 41 -25 57 -14 16 -32 58 -41 93 -9 35 -22 84 -31 109 -8 25 -16 75 -18 111 -4 74 -27 139 -67 189 l-27 34 -55 -27 c-30 -15 -75 -30 -99 -33 -41 -6 -45 -4 -50 17 -6 27 -38 137 -62 219 -9 30 -23 78 -30 105 -8 28 -23 82 -34 120 -11 39 -34 124 -53 190 -33 118 -34 120 -63 122 -17 1 -36 0 -42 -3z m394 -864 c40 -63 55 -70 92 -44 27 19 38 11 47 -32 6 -30 4 -31 -48 -47 -29 -9 -66 -18 -82 -19 -28 -3 -29 -1 -52 80 -12 46 -25 86 -28 89 -7 7 13 33 25 33 5 0 26 -27 46 -60z m160 -152 c10 -14 38 -102 48 -155 6 -28 3 -34 -17 -42 -58 -23 -131 -42 -138 -34 -4 4 -14 35 -23 68 -8 33 -20 75 -26 93 -11 37 -13 35 79 66 57 18 65 19 77 4z m73 -247 c5 -11 10 -27 10 -37 0 -13 -3 -14 -15 -4 -19 16 -56 6 -93 -25 -32 -27 -62 -33 -62 -12 0 6 -3 21 -6 33 -5 18 2 23 48 37 47 14 79 22 100 26 4 0 12 -8 18 -18z m-100 -201 c7 -13 7 -20 1 -20 -6 0 -15 9 -21 20 -7 13 -7 20 -1 20 6 0 15 -9 21 -20z m173 -42 c3 -13 15 -56 26 -97 12 -40 20 -75 19 -76 -10 -8 -128 -45 -145 -45 -17 0 -23 8 -28 42 -4 23 -11 49 -15 58 -4 8 -12 30 -18 49 -14 41 -5 55 41 67 17 4 43 11 57 15 45 12 58 10 63 -13z m85 -285 c40 -136 43 -126 -40 -152 l-73 -22 -17 21 c-10 12 -18 28 -18 35 0 7 -9 41 -20 75 -11 35 -18 66 -14 69 10 10 108 40 136 40 24 1 28 -5 46 -66z m-118 -223 c0 -5 -4 -10 -10 -10 -5 0 -10 5 -10 10 0 6 5 10 10 10 6 0 10 -4 10 -10z"/>
    <path d="M10736 21229 c-21 -12 -47 -29 -57 -38 -18 -16 -18 -18 -1 -47 45 -77 58 -94 72 -94 17 0 60 26 103 62 l29 23 -38 58 c-20 31 -44 57 -53 57 -9 -1 -34 -10 -55 -21z"/>
    <path d="M 14700 19703 C 14621 19682 14611 19668 14590 19554 C 14577 19484 14567 19452 14553 19442 C 14489 19397 14429 19360 14421 19360 C 14416 19360 14399 19349 14383 19336 C 14368 19323 14328 19298 14295 19281 C 14198 19229 14136 19193 14121 19178 C 14106 19165 14038 19125 13945 19075 C 13918 19060 13887 19040 13876 19031 C 13859 19016 13810 18987 13698 18926 C 13622 18884 13615 18867 13630 18757 C 13644 18657 13661 18626 13710 18615 C 13729 18611 13752 18616 13779 18629 C 13801 18641 13825 18650 13831 18650 C 13838 18650 13870 18663 13904 18679 C 13938 18695 13999 18722 14040 18740 C 14081 18758 14139 18783 14168 18796 C 14197 18809 14225 18820 14231 18820 C 14238 18820 14269 18834 14302 18850 C 14334 18867 14366 18880 14372 18880 C 14378 18880 14410 18893 14444 18909 C 14563 18965 14621 18990 14631 18990 C 14638 18990 14670 19003 14704 19019 C 14737 19035 14777 19051 14792 19054 C 14842 19065 14848 19095 14851 19331 C 14852 19449 14854 19574 14854 19608 C 14855 19667 14853 19674 14825 19696 C 14791 19723 14777 19724 14700 19703 Z M 14810 19661 C 14822 19638 14823 19471 14812 19452 C 14806 19443 14798 19448 14782 19470 C 14769 19486 14752 19500 14743 19500 C 14729 19500 14730 19504 14748 19523 C 14772 19548 14776 19580 14760 19611 C 14748 19632 14723 19635 14686 19619 C 14653 19603 14646 19571 14670 19538 L 14689 19512 L 14653 19490 L 14617 19469 L 14623 19529 C 14633 19626 14650 19655 14701 19667 C 14771 19684 14798 19682 14810 19661 Z M 14757 19449 C 14779 19430 14773 19384 14744 19361 C 14710 19334 14694 19335 14665 19365 C 14634 19395 14633 19423 14661 19451 C 14683 19473 14728 19472 14757 19449 Z M 14607 19400 C 14610 19367 14649 19321 14683 19312 C 14725 19300 14784 19329 14798 19367 C 14806 19388 14809 19361 14809 19254 C 14810 19151 14807 19110 14798 19103 C 14785 19094 14696 19054 14573 19001 C 14535 18985 14474 18959 14435 18942 C 14397 18926 14336 18900 14300 18885 C 14264 18870 14205 18845 14168 18829 C 14130 18813 14070 18787 14033 18771 C 13995 18755 13936 18730 13900 18715 C 13864 18700 13816 18679 13792 18669 C 13741 18646 13707 18645 13687 18665 C 13671 18681 13653 18840 13665 18859 C 13668 18865 13689 18879 13710 18890 C 13731 18901 13754 18916 13762 18924 C 13770 18932 13803 18952 13836 18969 C 13909 19008 14013 19071 14020 19080 C 14023 19084 14050 19100 14080 19115 C 14110 19130 14137 19146 14140 19150 C 14143 19154 14168 19169 14197 19183 C 14225 19198 14251 19214 14255 19220 C 14259 19226 14287 19244 14318 19261 C 14429 19320 14488 19355 14506 19371 C 14529 19391 14581 19419 14595 19420 C 14601 19420 14606 19411 14607 19400 Z M 14651 19254 C 14585 19170 14704 19073 14772 19154 C 14814 19204 14777 19280 14710 19280 C 14680 19280 14667 19274 14651 19254 Z" id="suculentas"/>
    <path d="M14680 19442 c-45 -36 -1 -99 50 -72 24 13 26 52 4 74 -20 20 -27 20 -54 -2z m34 -43 c-3 -5 -10 -7 -15 -3 -5 3 -7 10 -3 15 3 5 10 7 15 3 5 -3 7 -10 3 -15z"/>
    <path d="M12299 18570 c-73 -39 -150 -150 -168 -242 -9 -50 3 -83 45 -128 21 -23 22 -29 12 -62 -9 -31 -8 -41 6 -62 10 -16 26 -26 41 -26 27 0 39 -17 50 -70 9 -45 30 -68 83 -91 61 -27 130 -33 210 -19 86 14 115 35 138 98 10 26 28 60 41 76 13 16 33 47 45 70 11 22 36 55 55 71 45 40 52 83 24 173 -13 45 -36 88 -63 123 -71 89 -62 86 -227 84 -99 -1 -159 3 -185 12 -50 17 -64 16 -107 -7z m296 -44 c19 -2 31 -10 33 -21 3 -14 0 -15 -20 -8 -12 4 -60 8 -105 7 -60 0 -83 3 -83 12 0 14 64 23 115 17 17 -2 44 -5 60 -7z m-215 -11 c0 -8 -13 -21 -29 -29 -43 -23 -87 -78 -110 -141 -12 -30 -21 -62 -21 -70 0 -20 -29 -19 -37 1 -9 23 24 122 54 164 42 57 83 90 114 90 19 0 29 -5 29 -15z m380 -46 c28 -30 56 -71 65 -97 19 -56 20 -126 2 -141 -18 -14 -27 -4 -27 29 0 60 -30 129 -81 184 -48 53 -55 76 -23 76 9 0 38 -23 64 -51z m-143 -33 c126 -65 145 -263 35 -350 -38 -30 -100 -56 -133 -56 -57 0 -137 39 -175 86 -31 37 -37 53 -41 107 -7 81 8 125 57 178 30 32 50 44 92 54 57 12 118 6 165 -19z m-364 -243 c7 -39 -3 -50 -19 -22 -17 31 -17 49 0 49 7 0 16 -12 19 -27z m541 -2 c12 -18 -87 -171 -111 -171 -20 0 -16 8 27 57 22 25 45 63 50 84 10 38 23 49 34 30z m-482 -118 c21 -19 24 -43 5 -43 -11 0 -37 39 -37 55 0 10 14 4 32 -12z m54 -72 c18 -16 108 -41 150 -41 24 0 64 7 90 16 52 18 62 14 47 -19 -15 -33 -118 -53 -196 -38 -80 15 -117 36 -117 66 0 26 9 31 26 16z" id="cadena"/>
    <path d="M14205 17948 c-71 -38 -259 -134 -417 -214 -159 -80 -288 -148 -288 -152 1 -16 138 -266 148 -270 5 -1 197 93 426 209 351 179 416 215 416 233 -1 32 -123 261 -140 262 -8 1 -73 -29 -145 -68z m96 -178 c20 -39 31 -70 25 -70 -10 0 -76 119 -76 135 0 20 21 -6 51 -65z m-231 26 c0 -3 -4 -8 -10 -11 -5 -3 -10 -1 -10 4 0 6 5 11 10 11 6 0 10 -2 10 -4z m120 -72 c0 -10 -61 -44 -80 -44 -5 0 -16 13 -25 30 -14 28 -14 30 7 43 58 37 62 37 80 9 10 -15 18 -32 18 -38z m-309 -117 c19 -37 30 -70 26 -80 -8 -22 -230 -132 -249 -124 -17 6 -81 123 -76 139 5 13 228 128 249 128 10 0 29 -24 50 -63z" id="biodiversidad"/>
    <path d="M13005 17336 c-242 -124 -446 -229 -453 -236 -19 -17 114 -274 145 -278 23 -3 108 36 158 73 17 12 188 102 380 200 193 97 354 181 359 185 10 10 -124 280 -139 280 -5 0 -208 -101 -450 -224z m465 135 c20 -39 11 -50 -71 -92 -87 -43 -98 -43 -113 8 -6 20 2 27 71 62 90 46 99 48 113 22z m55 -111 c8 -16 15 -35 15 -42 0 -12 -365 -208 -387 -208 -9 0 -43 63 -43 80 0 10 366 199 387 199 7 1 19 -12 28 -29z m-279 -5 c9 -14 14 -31 11 -38 -6 -15 -137 -87 -160 -87 -13 0 -45 56 -36 64 10 9 155 86 161 86 4 0 15 -11 24 -25z m-238 -107 c5 -7 13 -23 16 -35 6 -20 -2 -27 -73 -63 -44 -22 -84 -40 -89 -40 -9 0 -32 44 -32 60 0 8 144 88 161 90 4 0 11 -6 17 -12z m62 -117 c20 -38 11 -50 -70 -91 -44 -22 -82 -40 -85 -40 -5 0 -35 55 -35 64 0 8 152 85 167 86 7 0 17 -9 23 -19z m-344 -122 c43 -87 53 -114 42 -120 -7 -5 -17 -9 -23 -9 -15 0 -118 209 -111 226 14 35 38 9 92 -97z" id="plantas"/>
    <path d="M 15704 15979 C 15668 15969 15651 15951 15617 15890 C 15462 15605 15263 15230 15258 15210 C 15245 15166 15266 15124 15347 15028 C 15390 14977 15440 14914 15459 14888 C 15499 14833 15511 14826 15539 14846 C 15568 14867 15566 14874 15521 14928 C 15368 15110 15329 15165 15335 15193 C 15337 15208 15367 15271 15401 15333 C 15492 15497 15513 15536 15560 15625 C 15698 15886 15714 15911 15741 15908 C 15768 15905 15854 15830 16105 15590 C 16171 15527 16255 15448 16290 15416 C 16461 15261 16630 15095 16630 15083 C 16630 15066 16557 14961 16379 14720 C 16299 14613 16197 14474 16151 14413 C 16101 14344 16061 14300 16051 14300 C 16028 14300 15988 14343 15847 14525 C 15800 14587 15792 14593 15766 14586 C 15734 14578 15733 14557 15761 14511 L 15781 14477 L 15751 14434 C 15734 14411 15720 14385 15720 14377 C 15720 14350 15772 14269 15796 14258 C 15816 14249 15830 14251 15873 14273 L 15925 14299 L 15955 14270 C 16005 14222 16037 14215 16090 14240 C 16126 14257 16150 14283 16210 14363 C 16251 14419 16334 14533 16395 14615 C 16457 14698 16515 14779 16526 14795 C 16536 14812 16570 14859 16602 14901 C 16682 15008 16700 15041 16700 15077 C 16700 15126 16685 15148 16586 15239 C 16536 15286 16448 15369 16390 15425 C 16332 15481 16224 15582 16150 15650 C 16076 15718 15974 15814 15923 15863 C 15791 15992 15776 16000 15704 15979 Z M 15880 14355 C 15896 14336 15881 14316 15840 14302 C 15818 14294 15808 14295 15799 14306 C 15789 14318 15792 14325 15810 14345 C 15837 14373 15862 14377 15880 14355 Z M 15792 15657 C 15763 15641 15755 15628 15685 15495 C 15653 15435 15608 15349 15585 15305 C 15561 15261 15533 15207 15521 15185 C 15510 15163 15500 15136 15500 15124 C 15500 15106 15564 15011 15590 14990 C 15593 14987 15617 14957 15643 14923 C 15669 14889 15696 14855 15703 14848 C 15710 14841 15733 14813 15755 14785 C 15777 14758 15800 14730 15805 14723 C 15811 14716 15820 14705 15825 14698 C 15855 14660 15918 14582 15935 14562 C 15990 14496 16033 14515 16127 14644 C 16164 14696 16247 14809 16310 14896 C 16373 14983 16428 15062 16432 15072 C 16445 15104 16421 15134 16272 15275 C 16191 15351 16087 15450 16040 15494 C 15843 15682 15841 15683 15792 15657 Z M 16001 15483 C 16086 15401 16211 15284 16278 15222 C 16345 15159 16400 15103 16400 15097 C 16400 15082 16369 15037 16181 14782 C 16068 14628 16013 14561 16003 14565 C 15995 14568 15984 14570 15980 14570 C 15969 14570 15879 14680 15657 14964 C 15604 15033 15555 15092 15550 15095 C 15525 15110 15549 15166 15700 15445 C 15715 15473 15740 15520 15755 15550 C 15771 15580 15788 15611 15793 15618 C 15816 15648 15848 15627 16001 15483 Z M 15888 15248 C 15879 15241 15849 15191 15820 15137 C 15772 15046 15769 15038 15783 15017 C 15800 14991 15968 14900 15998 14900 C 16014 14900 16031 14923 16070 14995 C 16146 15135 16146 15133 16020 15202 C 15962 15234 15912 15260 15909 15260 C 15906 15260 15897 15254 15888 15248 Z M 15984 15179 C 16018 15163 16055 15141 16068 15132 L 16091 15114 L 16045 15027 C 16019 14979 15994 14940 15988 14940 C 15978 14940 15810 15029 15810 15034 C 15810 15038 15884 15183 15894 15199 C 15905 15216 15918 15213 15984 15179 Z" id="servicios"/>
    <path d="M12165 15595 c-47 -11 -159 -67 -170 -85 -2 -4 0 -22 6 -41 6 -19 15 -50 19 -69 5 -19 15 -60 23 -90 8 -30 25 -93 37 -140 12 -47 25 -94 30 -105 4 -11 19 -65 33 -120 14 -55 33 -125 42 -155 9 -30 20 -73 25 -95 4 -22 20 -80 35 -130 26 -85 43 -154 65 -255 6 -25 19 -72 29 -105 22 -70 44 -145 47 -162 8 -43 17 -43 96 -3 42 22 95 42 117 46 76 12 76 11 30 179 -22 83 -47 173 -55 200 -9 28 -18 59 -21 70 -3 11 -17 58 -30 105 -37 126 -63 219 -77 275 -7 28 -25 88 -39 135 -25 84 -55 187 -82 285 -7 28 -22 82 -33 120 -11 39 -25 89 -31 113 -13 47 -16 47 -96 27z m68 -60 c4 -16 15 -52 24 -80 8 -27 23 -81 33 -120 10 -38 35 -126 55 -195 20 -69 43 -147 50 -175 7 -27 20 -72 28 -100 8 -27 27 -93 42 -145 58 -205 67 -238 90 -315 13 -44 29 -100 35 -125 6 -25 18 -64 26 -88 8 -23 14 -46 14 -50 0 -10 -59 -32 -64 -24 -4 9 -38 126 -96 335 -11 39 -27 95 -35 122 -43 150 -57 200 -85 305 -18 63 -38 138 -47 165 -8 28 -23 82 -33 120 -10 39 -36 134 -59 212 -51 178 -52 198 -7 191 12 -2 23 -15 29 -33z"/>
    <path d="M14891 14400 c-9 -5 -15 -52 -18 -148 l-6 -141 -47 -30 c-26 -17 -55 -31 -63 -31 -9 0 -27 -10 -41 -22 -21 -19 -26 -33 -28 -86 -3 -72 0 -76 79 -92 37 -8 58 -8 72 -1 11 6 22 11 24 11 2 0 7 -44 10 -97 6 -94 20 -151 53 -214 l14 -29 81 40 c44 23 82 47 85 54 3 7 -4 32 -16 54 -23 44 -23 31 -4 291 4 54 2 87 -5 94 -7 7 -11 72 -11 179 0 92 -3 168 -7 168 -5 0 -42 2 -84 4 -42 2 -82 1 -88 -4z m144 -140 l0 -105 -60 0 -60 0 -3 108 -3 108 63 -3 63 -3 0 -105z m0 -290 l0 -105 -60 0 -60 0 -3 42 c-3 42 -2 42 48 68 39 20 51 31 47 43 -21 65 -21 64 4 60 24 -3 24 -5 24 -108z m-231 -26 c9 -3 16 -17 16 -30 0 -19 -5 -24 -26 -24 -69 0 -90 56 -22 59 9 1 23 -2 32 -5z m63 -26 c-3 -8 -6 -5 -6 6 -1 11 2 17 5 13 3 -3 4 -12 1 -19z m170 -148 c3 -13 -35 -34 -119 -68 -10 -4 -11 72 -1 82 4 4 32 6 63 4 39 -2 56 -7 57 -18z" id="organismos"/>
    <path d="M16495 14321 c-6 -5 -27 -14 -47 -19 -21 -6 -65 -28 -97 -49 -82 -52 -88 -81 -35 -159 22 -31 47 -67 56 -81 49 -75 114 -56 234 67 62 64 70 81 52 113 -63 111 -87 137 -126 137 -15 0 -32 -4 -37 -9z"/>
    <path d="M13825 14290 c-44 -16 -98 -33 -120 -39 -22 -6 -48 -16 -58 -23 -16 -12 -16 -16 3 -70 11 -32 20 -63 20 -70 0 -7 14 -56 31 -108 17 -52 44 -140 59 -195 16 -55 40 -138 55 -185 31 -100 51 -166 70 -235 7 -27 20 -72 28 -100 18 -61 84 -279 96 -320 5 -16 19 -63 31 -103 12 -40 28 -76 36 -79 7 -3 42 4 76 15 35 10 90 27 123 36 109 31 107 21 48 211 -17 55 -39 127 -48 160 -10 33 -28 92 -40 130 -13 39 -31 97 -40 130 -9 33 -21 74 -26 90 -5 17 -18 64 -30 105 -11 41 -29 100 -39 130 -10 30 -26 82 -35 115 -9 33 -21 71 -25 85 -11 34 -33 110 -59 200 -24 83 -51 143 -66 146 -5 1 -46 -11 -90 -26z m32 -186 c-3 -3 -12 -4 -19 -1 -8 3 -5 6 6 6 11 1 17 -2 13 -5z m-97 -28 c0 -9 -30 -14 -35 -6 -4 6 3 10 14 10 12 0 21 -2 21 -4z m140 -80 c14 -18 41 -118 43 -161 2 -27 -1 -30 -29 -33 -25 -2 -33 1 -38 20 -16 53 -45 162 -43 164 12 8 43 23 48 24 4 0 12 -7 19 -14z m138 -308 c-3 -7 -29 -26 -59 -42 -30 -15 -56 -30 -58 -32 -8 -8 64 -134 77 -134 7 0 30 9 52 20 22 11 41 20 43 20 10 0 29 -92 21 -100 -13 -12 -153 -49 -158 -42 -2 4 -7 23 -11 42 -4 19 -17 67 -30 105 -38 118 -38 124 -13 134 35 15 111 38 126 40 8 0 12 -5 10 -11z" id="aire"/>
    <path d="M12652 14037 c-57 -29 -64 -30 -73 -15 -8 15 -17 13 -87 -19 -42 -19 -78 -37 -80 -38 -4 -4 53 -229 98 -385 12 -41 26 -93 32 -115 6 -22 10 -89 8 -150 -3 -150 -25 -246 -89 -376 -16 -33 -27 -67 -24 -75 3 -9 -5 -18 -23 -24 -18 -7 -42 -31 -64 -65 -24 -37 -43 -56 -62 -60 -15 -4 -32 -13 -39 -21 -6 -8 -17 -14 -23 -14 -6 0 -17 -4 -24 -9 -19 -12 82 -211 106 -211 11 0 29 -24 50 -63 50 -96 44 -92 85 -65 20 13 58 36 84 53 59 36 88 61 176 150 182 185 280 412 302 700 10 136 -37 395 -79 434 -12 10 -79 49 -150 85 -72 36 -134 72 -138 79 -11 17 -30 88 -25 94 3 2 14 -12 26 -31 l22 -35 65 32 c35 17 64 37 64 44 0 19 -59 133 -68 132 -4 0 -35 -15 -70 -32z m120 -318 c117 -59 148 -83 148 -115 0 -17 -8 -24 -32 -29 -18 -4 -59 -16 -92 -26 -32 -11 -62 -19 -66 -19 -5 0 -18 33 -30 73 -12 39 -27 91 -34 114 -11 37 -11 53 0 53 2 0 49 -23 106 -51z m177 -220 c21 -63 20 -354 -1 -429 -58 -206 -99 -294 -203 -434 -52 -71 -138 -155 -215 -210 -42 -30 -111 -69 -115 -64 -1 2 -17 31 -34 65 l-31 62 23 12 c37 20 146 108 183 149 41 45 77 97 103 148 15 29 34 44 90 71 39 19 71 41 71 48 0 8 -12 37 -27 66 -26 50 -28 59 -28 202 -1 106 -7 171 -19 223 -11 46 -14 78 -9 83 11 11 173 58 188 55 5 -1 16 -22 24 -47z" id="minerales"/>
    <path d="M17618 13849 c-26 -15 -58 -74 -58 -108 0 -18 9 -41 20 -54 11 -12 29 -33 40 -47 l19 -25 68 35 c42 22 68 41 68 52 0 17 -99 134 -125 148 -9 5 -23 4 -32 -1z m102 -136 c0 -12 -50 -43 -70 -43 -18 0 -11 42 11 61 17 15 24 16 40 6 10 -6 19 -17 19 -24z"/>
    <path d="M15137 13573 c-28 -27 89 -70 473 -173 77 -21 162 -44 298 -81 147 -41 207 -58 287 -80 139 -38 181 -50 195 -59 11 -7 11 -17 0 -64 l-13 -56 -36 6 c-35 6 -81 18 -231 64 -41 13 -85 24 -97 26 -12 1 -44 9 -71 18 -27 9 -58 18 -70 21 -12 2 -52 13 -90 24 -37 11 -101 29 -142 40 -549 149 -530 142 -607 214 -21 20 -37 27 -49 23 -41 -16 97 -118 201 -149 52 -15 162 -46 275 -77 36 -9 100 -27 143 -39 42 -11 112 -30 155 -42 42 -11 106 -29 142 -39 104 -30 332 -93 470 -130 104 -28 215 -59 280 -79 l55 -16 -3 -52 c-5 -75 14 -105 81 -128 30 -10 61 -15 70 -12 13 5 69 90 80 121 2 5 38 0 82 -11 86 -23 100 -22 109 10 37 127 38 138 20 158 -9 10 -24 19 -32 19 -9 0 -47 9 -86 21 -136 40 -266 75 -371 100 -27 6 -79 19 -115 29 -36 10 -101 28 -145 41 -44 12 -116 32 -160 44 -44 13 -116 33 -160 44 -231 62 -327 91 -345 106 -19 16 -102 35 -163 39 -26 1 -55 9 -64 18 -28 24 -118 50 -190 54 -45 2 -80 11 -114 29 -54 28 -53 28 -62 18z m1364 -417 c24 -8 82 -24 129 -36 47 -13 123 -33 170 -47 181 -51 235 -67 238 -68 5 -3 -19 -110 -26 -117 -5 -5 -28 -2 -53 6 -24 8 -80 23 -124 35 -124 33 -224 61 -295 81 -36 10 -80 21 -97 25 -18 4 -33 11 -33 17 0 20 33 118 40 118 4 0 26 -6 51 -14z m612 -196 c-4 -43 -15 -90 -23 -95 -5 -3 -16 -2 -25 1 -18 7 -17 43 4 97 14 36 47 34 44 -3z m-254 -109 c20 -13 -4 -71 -30 -71 -25 0 -30 13 -18 49 11 32 23 37 48 22z" id="lombricomposta"/>
    <path d="M18220 12972 c-9 -4 -34 -20 -57 -37 -41 -29 -53 -55 -53 -112 0 -15 -14 -37 -37 -58 l-37 -34 19 -56 c10 -31 22 -58 27 -61 5 -3 20 -24 34 -46 l25 -40 52 7 c29 4 63 13 77 20 14 7 55 18 92 24 65 11 69 11 108 -14 43 -27 52 -29 78 -16 9 5 35 18 57 29 22 11 58 24 80 28 44 8 145 49 145 59 0 4 -21 27 -47 51 -27 25 -90 86 -142 137 -83 80 -99 91 -125 88 -17 -1 -35 -7 -41 -11 -5 -5 -27 -11 -47 -15 -32 -6 -42 -3 -68 19 -17 14 -47 30 -68 36 -42 11 -50 11 -72 2z m26 -71 c-7 -11 -46 -21 -46 -12 0 13 13 21 32 21 11 0 17 -4 14 -9z m59 -11 c3 -5 1 -10 -4 -10 -6 0 -11 5 -11 10 0 6 2 10 4 10 3 0 8 -4 11 -10z m347 -99 c61 -59 108 -113 104 -119 -3 -5 -32 -18 -64 -27 -31 -9 -65 -21 -74 -26 -10 -5 -24 -9 -32 -9 -7 0 -26 -7 -42 -15 -26 -13 -30 -13 -61 11 -32 25 -78 29 -123 11 -34 -14 -140 -37 -167 -37 -16 0 -36 6 -45 13 -27 22 -60 92 -56 123 4 36 34 44 55 15 24 -36 73 -56 126 -52 39 2 53 -1 69 -18 25 -28 71 -24 151 13 32 14 62 26 67 26 16 0 12 17 -25 90 l-35 69 -42 -19 c-37 -17 -43 -17 -46 -4 -6 27 7 44 32 44 14 0 28 5 31 10 3 6 20 10 36 10 25 0 50 -19 141 -109z m-304 31 c2 -15 -2 -22 -12 -22 -9 0 -16 5 -16 10 0 6 -7 10 -16 10 -14 0 -14 3 -4 15 18 22 44 14 48 -13z m-138 -32 c0 -5 -5 -10 -11 -10 -5 0 -7 5 -4 10 3 6 8 10 11 10 2 0 4 -4 4 -10z m55 -40 c-3 -5 -13 -10 -21 -10 -8 0 -14 5 -14 10 0 6 9 10 21 10 11 0 17 -4 14 -10z" id="rocas"/>
    <path d="M18777 12609 c-21 -11 -63 -25 -95 -31 -33 -6 -68 -20 -82 -33 -14 -13 -43 -25 -65 -28 -22 -3 -59 -10 -83 -15 -30 -7 -59 -5 -103 5 -34 8 -63 13 -64 11 -4 -4 -8 -95 -6 -125 0 -13 15 -35 33 -50 17 -16 40 -36 50 -45 10 -10 24 -18 31 -18 7 0 27 -13 45 -30 18 -16 35 -30 38 -30 5 0 115 -80 124 -90 3 -3 21 -17 40 -30 19 -13 68 -49 109 -79 40 -31 87 -66 105 -77 17 -12 44 -33 59 -48 15 -14 32 -26 37 -26 5 0 24 -13 42 -30 52 -47 61 -54 101 -75 21 -11 45 -28 54 -37 9 -10 20 -18 26 -18 5 0 24 -12 42 -27 124 -107 237 -130 344 -71 71 39 89 55 112 100 24 47 13 70 -63 132 -44 36 -59 55 -73 97 -13 42 -32 68 -95 128 -43 42 -98 94 -124 115 -25 22 -46 46 -46 53 0 8 -7 16 -17 20 -9 3 -98 89 -199 190 -200 201 -202 202 -277 162z m111 -114 c-6 -27 -12 -51 -13 -53 -2 -2 -29 17 -60 42 -30 25 -60 46 -65 46 -25 0 -5 21 42 44 l52 26 28 -27 c26 -27 26 -30 16 -78z m-154 -4 c104 -81 104 -79 42 -148 l-45 -48 -30 33 c-16 17 -37 32 -45 32 -9 0 -21 9 -28 20 -7 11 -18 20 -24 20 -6 0 -17 7 -24 15 -11 13 -9 19 7 38 10 12 27 34 36 50 24 37 50 34 111 -12z m256 -35 c172 -169 168 -163 154 -199 -5 -13 -11 -11 -41 9 -20 13 -44 24 -55 24 -25 0 -98 -38 -98 -50 0 -6 -4 -10 -10 -10 -5 0 -10 9 -10 20 0 11 -9 28 -20 37 -16 14 -18 25 -13 58 3 22 10 45 14 51 5 6 6 13 3 16 -6 7 16 88 25 88 3 0 26 -20 51 -44z m-482 -10 c-4 -33 17 -65 68 -106 25 -19 63 -50 85 -69 36 -30 44 -33 86 -28 26 3 49 9 51 15 1 5 8 17 15 26 11 15 15 14 44 -6 27 -19 33 -30 33 -61 0 -66 22 -99 99 -151 40 -27 81 -60 92 -74 19 -25 19 -25 -1 -47 l-20 -22 22 -41 c13 -22 20 -44 16 -48 -4 -4 -24 6 -44 22 -63 50 -138 104 -154 111 -8 4 -23 14 -32 23 -9 8 -53 42 -98 75 -44 33 -107 80 -139 105 -33 25 -69 52 -81 60 -13 8 -50 35 -83 60 -33 25 -76 57 -95 71 -38 28 -52 53 -44 81 3 14 18 18 76 21 39 1 79 4 89 5 14 2 18 -4 15 -22z m753 -253 c38 -38 69 -74 69 -80 0 -19 -10 -16 -37 13 -18 20 -30 24 -50 19 -14 -3 -39 -9 -56 -12 l-30 -6 7 52 c7 54 15 81 23 81 3 0 37 -30 74 -67z m-186 31 c11 -12 14 -25 10 -43 -11 -43 -44 -54 -77 -24 -22 20 -23 41 -1 65 20 22 46 23 68 2z m-135 -36 c0 -18 -2 -20 -9 -8 -6 8 -7 18 -5 22 9 14 14 9 14 -14z m165 -110 c-9 -42 -9 -42 -34 -26 -27 17 -27 32 2 46 35 17 39 14 32 -20z m175 -8 c24 -45 -22 -85 -69 -60 -23 12 -28 49 -9 68 20 20 66 15 78 -8z m140 -39 c0 -11 -59 -35 -67 -28 -3 3 -2 22 1 42 l7 36 30 -21 c16 -12 29 -25 29 -29z m-120 -88 c0 -10 -4 -24 -9 -32 -8 -12 -12 -13 -25 -1 -15 12 -15 14 0 31 21 24 34 24 34 2z m155 -23 c0 -28 -5 -36 -27 -44 -20 -7 -30 -5 -42 7 -32 32 -5 81 43 75 22 -3 26 -8 26 -38z m-152 -82 c18 -13 35 -27 38 -31 12 -16 80 -47 103 -47 27 0 75 34 85 62 6 17 11 15 54 -22 53 -47 57 -64 24 -101 -41 -46 -102 -70 -166 -65 -32 3 -71 10 -87 16 -34 13 -154 91 -154 100 0 4 -11 12 -25 18 -14 6 -25 16 -25 22 0 8 86 58 118 69 2 1 17 -9 35 -21z m187 -7 c0 -11 -39 -41 -52 -41 -17 0 -7 28 15 38 28 14 37 14 37 3z" id="superficie"/>
    <path d="M15102 12403 c-6 -32 -21 -103 -33 -158 -11 -55 -31 -152 -44 -215 -13 -63 -33 -162 -45 -220 -12 -58 -28 -136 -36 -175 -7 -38 -20 -97 -28 -130 -16 -71 -28 -127 -62 -300 -25 -122 -48 -235 -95 -465 -54 -261 -54 -261 -34 -276 10 -7 38 -16 64 -20 25 -3 73 -12 106 -20 33 -8 75 -14 92 -14 27 0 34 4 39 28 3 15 10 41 14 57 5 17 16 68 25 115 8 47 24 126 35 175 11 50 31 146 45 215 13 69 34 170 46 225 41 196 57 272 84 405 15 74 35 173 45 220 32 152 62 295 65 315 2 11 12 65 24 120 13 65 16 103 10 111 -5 7 -40 17 -77 24 -37 7 -92 19 -122 26 -98 25 -105 22 -118 -43z m152 -39 c126 -29 136 -34 118 -60 -5 -9 -36 -6 -117 8 -117 22 -131 28 -122 52 8 20 31 20 121 0z m-82 -206 c15 -12 15 -20 -1 -103 -10 -57 -21 -90 -29 -89 -62 5 -65 10 -47 95 9 41 18 82 21 92 6 20 33 22 56 5z m132 -33 c6 -18 -21 -166 -33 -178 -16 -16 -66 8 -65 29 2 20 23 130 30 152 5 17 61 15 68 -3z m-176 -221 c13 -4 16 -41 6 -69 -6 -16 -73 -55 -94 -55 -12 0 -8 30 12 102 11 39 17 40 76 22z m129 -28 c3 -2 -33 -177 -41 -201 -1 -5 -15 14 -29 42 -28 54 -28 61 -1 161 3 10 13 12 36 7 18 -4 34 -8 35 -9z m-217 -227 c7 -17 19 -37 26 -44 11 -10 11 -26 2 -75 l-11 -62 -40 6 c-23 4 -42 8 -44 10 -3 2 25 162 32 184 7 21 22 13 35 -19z m144 -24 c17 -13 17 -19 5 -87 -15 -86 -21 -97 -55 -90 -32 6 -39 22 -25 64 6 18 12 50 14 72 3 21 11 42 18 47 18 11 21 11 43 -6z m-127 -296 c34 -7 64 -18 67 -24 2 -7 -2 -41 -10 -76 -8 -35 -19 -91 -25 -124 -7 -33 -15 -65 -20 -71 -7 -8 -30 -7 -84 5 -88 18 -84 9 -55 156 32 159 31 156 49 151 9 -2 44 -10 78 -17z m-59 -424 c5 -5 -39 -180 -48 -189 -5 -5 -21 -5 -36 -2 -25 7 -26 9 -20 54 3 26 12 71 18 100 l13 52 35 -6 c19 -4 36 -8 38 -9z m-168 -279 c0 -2 -11 -6 -25 -8 -14 -3 -25 -1 -25 3 0 5 11 9 25 9 14 0 25 -2 25 -4z" id="suelo"/>
    <path d="M10235 11649 c-247 -126 -541 -275 -652 -332 -128 -64 -203 -108 -203 -117 0 -8 9 -30 20 -48 29 -48 25 -59 -29 -87 -27 -13 -53 -30 -56 -35 -16 -25 9 -22 75 10 66 32 91 35 75 10 -3 -6 -34 -24 -67 -41 -44 -22 -58 -33 -49 -42 8 -8 38 3 114 43 64 33 109 51 120 47 9 -3 53 -79 98 -169 45 -90 91 -177 104 -193 12 -17 61 -108 109 -202 47 -94 90 -174 96 -178 6 -4 52 -88 101 -188 50 -100 97 -189 105 -198 7 -8 17 -31 21 -51 6 -28 73 -108 308 -369 165 -184 419 -467 564 -629 145 -162 274 -305 286 -318 18 -19 27 -22 63 -16 42 7 50 17 33 43 -8 12 -14 13 -36 3 -15 -7 -32 -9 -39 -5 -7 5 -174 188 -371 408 -198 220 -448 499 -557 620 -109 121 -198 226 -198 233 0 15 -37 90 -55 112 -7 8 -47 85 -90 170 -43 85 -88 169 -100 185 -12 17 -59 104 -105 195 -46 91 -93 179 -105 195 -22 30 -195 365 -195 377 0 4 165 91 368 194 648 330 787 403 790 414 3 9 -71 165 -87 182 -3 4 -208 -97 -456 -223z m-675 -544 c0 -21 -47 -42 -61 -28 -8 8 -3 16 17 27 37 19 44 20 44 1z"/>
    <path d="M16648 11573 c-8 -10 -56 -97 -105 -193 -50 -96 -108 -209 -130 -250 -45 -84 -155 -296 -293 -565 -51 -99 -118 -229 -150 -290 -125 -239 -295 -565 -343 -655 -56 -107 -141 -272 -259 -500 -45 -85 -93 -177 -108 -205 -22 -41 -193 -369 -247 -477 -18 -34 -13 -43 39 -69 76 -39 120 -51 134 -37 6 7 58 103 114 213 57 110 126 245 155 300 29 55 83 159 120 230 37 72 93 180 125 240 32 61 90 173 130 250 40 77 98 190 130 250 31 61 92 178 135 260 43 83 105 202 138 265 33 63 118 228 188 366 117 232 161 316 302 584 74 141 107 207 107 213 0 8 -87 57 -103 57 -8 0 -20 7 -27 15 -16 20 -33 19 -52 -2z"/>
    <path d="M10520 11155 c-14 -8 -32 -15 -40 -15 -28 -1 -62 -38 -55 -59 3 -11 -1 -34 -10 -52 -16 -30 -16 -35 5 -100 12 -38 25 -71 31 -74 5 -4 9 -15 9 -25 0 -11 11 -43 24 -72 52 -115 55 -125 43 -137 -6 -6 -18 -11 -26 -11 -7 0 -37 -11 -65 -24 -28 -13 -63 -29 -78 -35 -23 -9 -28 -17 -28 -45 0 -38 44 -132 66 -140 8 -3 38 5 67 18 143 65 152 67 162 34 7 -22 17 -48 82 -203 49 -118 57 -130 91 -141 18 -5 39 -20 48 -32 19 -28 58 -28 91 -2 14 11 34 20 43 20 25 0 43 26 36 53 -4 17 0 30 14 42 24 22 26 65 4 107 -9 18 -20 43 -24 57 -5 14 -25 64 -45 111 -57 132 -60 148 -36 171 31 29 29 92 -4 125 -15 15 -32 23 -40 20 -8 -3 -22 -9 -30 -12 -9 -4 -17 1 -21 12 -6 19 -27 73 -70 177 -75 179 -93 207 -139 207 -11 0 -26 9 -33 20 -14 23 -37 25 -72 5z m124 -81 c30 -12 18 -34 -18 -34 -26 0 -36 -5 -41 -20 -5 -15 -10 -17 -23 -10 -9 4 -26 11 -36 15 -26 8 -10 22 45 39 55 17 54 17 73 10z m-104 -94 c11 -7 -1 -10 -40 -10 -39 0 -51 3 -40 10 8 5 26 10 40 10 14 0 32 -5 40 -10z m180 -70 c11 -22 23 -60 26 -84 l7 -45 -47 -21 c-25 -11 -67 -29 -92 -40 -26 -12 -48 -20 -49 -18 -1 2 -14 26 -27 53 -40 81 -46 129 -11 94 16 -16 29 -4 36 31 6 27 10 30 46 30 24 0 48 7 62 20 13 10 25 19 26 20 2 0 12 -18 23 -40z m-230 -10 c0 -5 -2 -10 -4 -10 -3 0 -8 5 -11 10 -3 6 -1 10 4 10 6 0 11 -4 11 -10z m237 -306 c-3 -3 -12 -4 -19 -1 -8 3 -5 6 6 6 11 1 17 -2 13 -5z m173 -126 c8 -13 20 -39 27 -58 12 -33 11 -36 -15 -56 l-27 -22 22 -44 c20 -42 20 -46 5 -71 -13 -22 -22 -26 -42 -22 -30 6 -42 -1 -60 -34 l-12 -24 -24 39 c-13 21 -24 46 -24 54 0 8 -10 33 -21 55 -12 22 -25 51 -29 65 -5 14 -11 33 -15 42 -5 13 -1 20 16 27 13 6 56 23 94 40 86 36 87 36 105 9z m50 -367 c0 -11 -31 -24 -39 -16 -3 3 1 10 9 15 19 12 30 12 30 1z" id="agua"/>
    <path d="M10642 10858 c-21 -21 -13 -38 18 -38 34 0 52 26 29 41 -19 12 -33 11 -47 -3z"/>
    <path d="M10786 10319 c-22 -33 -20 -56 9 -84 44 -45 85 -24 85 43 0 33 -13 47 -51 57 -21 5 -30 2 -43 -16z"/>
    <path d="M13993 8588 c-5 -7 -25 -44 -45 -83 -20 -38 -82 -160 -138 -270 -56 -110 -151 -295 -211 -412 l-109 -212 22 -24 c13 -14 86 -81 163 -149 77 -67 214 -188 304 -268 169 -150 196 -170 210 -154 9 10 91 168 289 554 66 129 160 314 209 410 50 96 93 185 97 196 6 19 -2 26 -61 57 -37 19 -138 71 -223 114 -85 44 -230 119 -322 167 -92 47 -169 86 -171 86 -3 0 -9 -6 -14 -12z m72 -54 c69 -36 468 -242 568 -293 85 -43 107 -59 107 -76 0 -11 -4 -25 -9 -30 -5 -6 -64 -118 -131 -250 -67 -132 -184 -359 -258 -505 -75 -146 -143 -280 -151 -297 -8 -18 -18 -33 -21 -33 -3 1 -57 47 -121 103 -151 133 -422 374 -477 423 l-44 39 40 75 c21 41 92 179 157 305 129 252 262 510 276 538 12 21 25 21 64 1z"/>
    <path d="M 13992 7898 C 13915 7743 13855 7610 13858 7604 C 13871 7583 14005 7480 14020 7480 C 14028 7480 14094 7560 14165 7658 C 14237 7755 14320 7866 14351 7905 C 14381 7943 14422 7997 14441 8023 L 14475 8072 L 14451 8091 C 14438 8101 14418 8110 14406 8110 C 14394 8110 14337 8126 14280 8145 C 14223 8164 14166 8180 14154 8180 C 14136 8180 14112 8138 13992 7898 Z M 14189 8080 C 14223 8029 14231 8062 14116 7777 C 14023 7544 14017 7530 14007 7530 C 14003 7530 13975 7548 13945 7571 L 13892 7611 L 13905 7643 C 13928 7698 14132 8104 14142 8118 C 14155 8133 14152 8135 14189 8080 Z M 14261 8116 C 14285 8109 14331 8095 14363 8086 C 14394 8077 14420 8066 14420 8062 C 14420 8058 14411 8044 14401 8031 L 14383 8007 L 14317 8029 C 14273 8044 14242 8062 14225 8081 C 14183 8132 14190 8138 14261 8116 Z M 14305 7996 C 14326 7988 14346 7978 14348 7972 C 14350 7965 14169 7708 14113 7641 C 14112 7639 14108 7639 14105 7641 C 14099 7647 14138 7751 14151 7765 C 14156 7770 14160 7781 14160 7790 C 14160 7799 14169 7823 14180 7845 C 14191 7867 14200 7888 14200 7893 C 14200 7909 14250 8010 14257 8010 C 14262 8010 14283 8003 14305 7996 Z M 12993 9882 C 12988 9878 12975 9861 12966 9843 C 12957 9826 12945 9808 12938 9804 C 12931 9800 12888 9796 12841 9795 C 12793 9794 12728 9790 12695 9785 L 12634 9778 L 12616 9819 C 12603 9846 12590 9860 12578 9860 C 12556 9860 12556 9845 12579 9801 C 12593 9774 12595 9763 12586 9744 C 12574 9718 12520 9690 12475 9687 C 12448 9685 12445 9688 12445 9714 C 12444 9733 12436 9748 12422 9758 C 12375 9789 12350 9738 12391 9694 C 12403 9681 12410 9665 12407 9657 C 12402 9644 11831 9350 11782 9335 C 11769 9331 11749 9319 11739 9309 C 11725 9295 11712 9291 11692 9296 C 11656 9305 11645 9315 11630 9350 C 11617 9381 11590 9391 11590 9365 C 11590 9356 11596 9334 11604 9316 C 11612 9297 11614 9277 11610 9269 C 11605 9262 11604 9252 11607 9247 C 11610 9242 11590 9215 11562 9187 C 11535 9158 11501 9112 11487 9084 C 11438 8987 11433 8811 11476 8728 C 11484 8712 11488 8691 11485 8681 C 11477 8656 11499 8610 11519 8609 C 11528 8608 11542 8607 11550 8606 C 11565 8605 11751 8445 11759 8427 C 11761 8422 11756 8414 11749 8409 C 11741 8405 11734 8393 11733 8383 C 11732 8373 11728 8355 11725 8344 C 11719 8326 11749 8294 11912 8144 C 12019 8045 12133 7941 12166 7912 C 12198 7883 12259 7826 12300 7786 C 12341 7747 12393 7699 12415 7680 C 12437 7662 12500 7606 12555 7556 C 12770 7359 12918 7223 12990 7155 C 13059 7090 13223 6941 13268 6902 C 13278 6893 13334 6842 13391 6789 C 13448 6736 13585 6611 13695 6510 C 13854 6364 13896 6320 13898 6297 C 13901 6272 13911 6264 13978 6234 C 14020 6215 14060 6201 14068 6202 C 14075 6204 14112 6264 14149 6335 C 14186 6407 14260 6551 14314 6655 C 14368 6760 14429 6877 14450 6915 C 14489 6987 14570 7143 14708 7411 C 14781 7553 14807 7603 14925 7825 C 15055 8071 15160 8280 15160 8294 C 15160 8303 15154 8310 15148 8310 C 15141 8310 15099 8328 15055 8350 C 15011 8372 14970 8390 14963 8390 C 14941 8390 14937 8412 14936 8514 C 14935 8610 14933 8619 14898 8685 C 14878 8724 14850 8765 14836 8777 C 14806 8803 14803 8832 14825 8883 C 14846 8934 14825 8942 14786 8898 C 14769 8878 14747 8860 14737 8856 C 14711 8848 14382 9019 14362 9052 C 14348 9076 14349 9080 14369 9114 C 14381 9133 14389 9154 14385 9160 C 14373 9180 14349 9169 14333 9136 C 14305 9076 14278 9079 14111 9166 C 13911 9271 13912 9270 13907 9299 C 13904 9313 13909 9338 13917 9353 C 13932 9382 13929 9410 13911 9410 C 13905 9410 13893 9395 13884 9378 C 13854 9319 13832 9317 13740 9364 C 13704 9382 13629 9420 13572 9449 C 13461 9506 13438 9531 13459 9577 C 13471 9602 13482 9605 13511 9590 C 13523 9583 13536 9583 13547 9588 C 13567 9600 13590 9684 13581 9716 C 13574 9741 13495 9800 13468 9800 C 13444 9800 13359 9709 13362 9687 C 13364 9677 13379 9661 13395 9652 C 13412 9643 13427 9634 13429 9633 C 13440 9626 13407 9578 13385 9570 C 13364 9562 13341 9571 13238 9625 C 13170 9661 13090 9702 13058 9717 C 12994 9749 12980 9779 13005 9827 C 13027 9869 13021 9899 12993 9882 Z M 12884 9748 C 12920 9737 13279 9561 13305 9540 C 13311 9536 13414 9482 13535 9420 C 13656 9358 13760 9304 13765 9300 C 13771 9296 13852 9253 13945 9205 C 14039 9156 14153 9097 14200 9072 C 14373 8982 14488 8922 14590 8870 C 14726 8801 14819 8740 14849 8700 C 14875 8664 14900 8583 14900 8531 C 14900 8512 14892 8473 14883 8443 C 14866 8390 14867 8389 14887 8368 L 14909 8347 L 14883 8298 C 14869 8272 14851 8250 14843 8250 C 14835 8250 14769 8281 14697 8319 C 14624 8356 14448 8447 14305 8520 C 14162 8593 14036 8659 14025 8667 C 13979 8698 13970 8689 13880 8512 C 13501 7769 13436 7647 13423 7643 C 13418 7641 13400 7652 13383 7667 C 13366 7683 13315 7729 13269 7770 C 13223 7811 13156 7873 13120 7907 C 13084 7942 13048 7970 13039 7970 C 13022 7970 12975 7922 12697 7615 C 12663 7578 12660 7577 12636 7590 C 12621 7597 12582 7633 12547 7669 C 12513 7705 12458 7757 12425 7784 C 12393 7812 12359 7841 12350 7850 C 12341 7858 12296 7899 12250 7940 C 12204 7981 12152 8029 12134 8045 C 12117 8062 12035 8137 11952 8213 C 11808 8344 11786 8370 11810 8385 C 11828 8396 11821 8432 11798 8452 C 11757 8487 11617 8614 11573 8655 C 11531 8695 11512 8736 11490 8833 C 11467 8938 11512 9079 11598 9167 C 11643 9212 11743 9280 11765 9280 C 11771 9280 11809 9216 11850 9138 C 11890 9059 11928 8992 11934 8988 C 11961 8970 12067 9071 12114 9160 C 12145 9219 12152 9243 12157 9315 C 12160 9362 12165 9400 12167 9400 C 12170 9400 12190 9387 12213 9372 C 12281 9326 12361 9305 12470 9306 C 12522 9306 12577 9312 12593 9318 L 12620 9330 L 12550 9471 C 12511 9549 12480 9613 12482 9614 C 12484 9614 12499 9625 12516 9637 C 12553 9662 12705 9740 12740 9751 C 12778 9762 12838 9761 12884 9748 Z M 13487 9749 C 13496 9740 13495 9729 13483 9706 C 13475 9689 13466 9674 13465 9672 C 13459 9665 13410 9683 13410 9693 C 13410 9705 13460 9760 13470 9760 C 13473 9760 13481 9755 13487 9749 Z M 12508 9482 C 12551 9399 12569 9355 12562 9348 C 12544 9330 12361 9344 12298 9368 C 12234 9394 12147 9456 12152 9473 C 12158 9492 12392 9610 12420 9607 C 12440 9605 12455 9585 12508 9482 Z M 12116 9404 C 12127 9326 12112 9232 12078 9168 C 12047 9110 11981 9040 11957 9040 C 11939 9040 11822 9282 11838 9287 C 11844 9290 11850 9298 11850 9306 C 11850 9314 11856 9320 11864 9320 C 11872 9320 11880 9327 11883 9335 C 11889 9349 12074 9448 12097 9449 C 12103 9450 12112 9430 12116 9404 Z M 14214 8526 C 14335 8464 14521 8369 14625 8315 C 14730 8262 14819 8214 14823 8210 C 14832 8202 14817 8170 14635 7815 C 14510 7569 14460 7473 14324 7215 C 14287 7144 14241 7055 14222 7017 L 14188 6950 L 14141 6989 C 14116 7010 14084 7038 14070 7051 C 14056 7064 13993 7121 13930 7177 C 13625 7446 13465 7591 13462 7600 C 13459 7609 13529 7749 13887 8447 C 13941 8553 13987 8640 13989 8640 C 13991 8640 14092 8589 14214 8526 Z M 14802 8038 C 14795 8031 14790 8030 14790 8036 C 14790 8050 14802 8062 14809 8055 C 14811 8052 14808 8044 14802 8038 Z M 14770 7970 C 14770 7965 14765 7960 14759 7960 C 14754 7960 14752 7965 14755 7970 C 14758 7976 14763 7980 14766 7980 C 14768 7980 14770 7976 14770 7970 Z M 13234 7756 C 13331 7668 13410 7595 13410 7593 C 13410 7589 13169 7117 13164 7112 C 13158 7104 13128 7129 13019 7231 C 12956 7289 12885 7355 12860 7376 C 12770 7454 12690 7534 12690 7546 C 12690 7553 12707 7576 12728 7598 C 12748 7620 12825 7703 12899 7784 C 12988 7881 13037 7927 13045 7922 C 13052 7918 13137 7843 13234 7756 Z M 14723 7885 C 14720 7876 14715 7871 14713 7874 C 14710 7877 14711 7883 14715 7889 C 14724 7905 14730 7902 14723 7885 Z M 12315 7840 C 12318 7835 12317 7830 12311 7830 C 12306 7830 12298 7835 12295 7840 C 12292 7846 12293 7850 12299 7850 C 12304 7850 12312 7846 12315 7840 Z M 14690 7816 C 14690 7813 14686 7808 14680 7805 C 14675 7802 14670 7804 14670 7809 C 14670 7815 14675 7820 14680 7820 C 14686 7820 14690 7818 14690 7816 Z M 14642 7728 C 14635 7721 14630 7720 14630 7726 C 14630 7740 14642 7752 14649 7745 C 14651 7742 14648 7734 14642 7728 Z M 12475 7695 C 12502 7671 12522 7649 12519 7646 C 12513 7640 12417 7716 12412 7731 C 12405 7750 12427 7737 12475 7695 Z M 13543 7477 C 13862 7190 13916 7142 13949 7115 C 13969 7099 14009 7063 14038 7035 C 14068 7008 14098 6981 14106 6977 C 14114 6973 14120 6965 14120 6960 C 14120 6952 14050 6932 13942 6910 C 13918 6904 13879 6894 13854 6885 C 13830 6877 13787 6866 13758 6861 C 13729 6856 13660 6840 13606 6825 C 13543 6809 13500 6802 13489 6807 C 13465 6818 13190 7071 13190 7082 C 13190 7087 13203 7114 13219 7143 C 13234 7172 13289 7277 13339 7378 C 13390 7478 13435 7560 13441 7560 C 13446 7560 13492 7523 13543 7477 Z M 14530 7510 C 14530 7505 14525 7500 14519 7500 C 14514 7500 14512 7505 14515 7510 C 14518 7516 14523 7520 14526 7520 C 14528 7520 14530 7516 14530 7510 Z M 14481 7427 C 14471 7418 14470 7419 14476 7433 C 14479 7443 14485 7448 14488 7445 C 14491 7442 14488 7434 14481 7427 Z M 14410 7280 C 14410 7275 14405 7270 14399 7270 C 14394 7270 14392 7275 14395 7280 C 14398 7286 14403 7290 14406 7290 C 14408 7290 14410 7286 14410 7280 Z M 14150 6885 C 14150 6872 14076 6740 14069 6740 C 14064 6740 14049 6763 14035 6790 C 14021 6818 14004 6840 13998 6840 C 13972 6840 14005 6856 14063 6872 C 14130 6889 14150 6893 14150 6885 Z M 13970 6835 C 13970 6833 13948 6819 13921 6805 C 13894 6792 13869 6776 13865 6771 C 13857 6758 13917 6641 13934 6634 C 13942 6631 13966 6638 13989 6650 C 14013 6662 14030 6666 14030 6659 C 14030 6651 13932 6452 13913 6421 C 13910 6416 13862 6457 13755 6555 C 13706 6601 13643 6659 13615 6684 C 13588 6708 13569 6732 13573 6736 C 13577 6741 13622 6755 13673 6768 C 13724 6781 13806 6802 13855 6815 C 13950 6839 13970 6843 13970 6835 Z" id="naturaleza"/>
    <path d="M11653 9488 c-34 -17 -36 -42 -8 -98 30 -58 40 -65 86 -53 45 12 48 42 12 108 -29 53 -50 63 -90 43z"/>
    <path d="M 11482.58 12333.93 C 11471.58 12333.93 11390.58 12322.93 11398.58 12313.93 C 11412.58 12297.93 11400.58 12290.93 11256.58 12215.93 C 11128.58 12149.93 11098.58 12130.93 11099.58 12113.93 C 11099.58 12097.93 11066.58 12075.93 10914.58 11997.93 C 10812.58 11944.93 10727.58 11900.93 10725.58 11898.93 C 10721.58 11894.93 10783.58 11770.93 10792.58 11763.93 C 10795.58 11760.93 10803.58 11745.93 10808.58 11729.93 C 10816.58 11706.93 10831.58 11695.93 10888.58 11672.93 C 10927.58 11657.93 10980.58 11638.93 11007.58 11631.93 L 11054.58 11618.93 L 11176.58 11681.93 C 11243.58 11715.93 11530.58 11861.93 11813.58 12005.93 C 12096.58 12148.93 12333.58 12270.93 12340.58 12275.93 C 12349.58 12282.93 12334.58 12321.93 12281.58 12426.93 C 12242.58 12504.93 12200.58 12587.93 12186.58 12610.93 L 12162.58 12652.93 L 12125.58 12636.93 C 12105.58 12628.93 12026.58 12590.93 11950.58 12552.93 C 11875.58 12514.93 11804.58 12483.93 11793.58 12483.93 C 11783.58 12483.93 11771.58 12478.93 11768.58 12473.93 C 11759.58 12458.93 11502.58 12333.93 11482.58 12333.93 Z M 12285.58 12345.93 C 12297.58 12320.93 12302.58 12298.93 12297.58 12294.93 C 12285.58 12283.93 12085.58 12180.93 11578.58 11923.93 C 11347.58 11806.93 11134.58 11697.93 11105.58 11682.93 L 11053.58 11654.93 L 10963.58 11685.93 C 10913.58 11701.93 10873.58 11718.93 10873.58 11721.93 C 10873.58 11733.93 11422.58 12005.93 11433.58 11998.93 C 11446.58 11990.93 11564.58 12050.93 11584.58 12075.93 C 11592.58 12086.93 11743.58 12169.93 11919.58 12259.93 C 12275.58 12441.93 12243.58 12434.93 12285.58 12345.93 Z" id="estratos"/>
  </g>
</svg>